<svg width="649" height="648" viewBox="0 0 649 648" fill="none" xmlns="http://www.w3.org/2000/svg">
<path d="M325.054 612.07C166.254 612.07 37.0537 482.88 37.0537 324.08C37.0537 165.28 166.254 36.0801 325.054 36.0801C483.854 36.0801 613.054 165.27 613.054 324.08C613.054 482.88 483.854 612.07 325.054 612.07Z" fill="#C8102E"/>
<path d="M325.054 598.79C173.574 598.79 50.3438 475.56 50.3438 324.09C50.3438 172.61 173.574 49.3799 325.054 49.3799C476.534 49.3799 599.764 172.61 599.764 324.09C599.764 475.56 476.534 598.79 325.054 598.79Z" fill="white"/>
<path d="M325.054 585.49C180.904 585.49 63.6338 468.22 63.6338 324.08C63.6338 179.93 180.904 62.6602 325.054 62.6602C469.194 62.6602 586.474 179.94 586.474 324.08C586.474 468.23 469.194 585.49 325.054 585.49Z" fill="#C8102E"/>
<path d="M503.614 324.08C503.614 422.7 423.674 502.66 325.054 502.66C226.414 502.66 146.474 422.7 146.474 324.08C146.474 225.46 226.414 145.5 325.054 145.5C423.674 145.51 503.614 225.46 503.614 324.08Z" fill="white"/>
<path d="M325.144 158.5C270.464 158.5 221.964 184.83 191.594 225.51C196.034 226.79 204.424 229.18 214.734 232.16L214.694 232.19C231.014 236.99 285.164 252.88 295.274 256.11C324.834 265.59 332.604 269.31 340.934 278.22C349.254 287.12 361.884 297.45 374.234 306.08C386.594 314.69 392.614 324.15 392.614 339.1C392.614 354.02 381.114 366.64 373.954 370.96C373.954 370.96 376.534 363.79 373.084 360.63C369.634 357.45 358.744 351.44 330.864 353.44C303.024 355.46 265.684 368.95 240.424 382.45C240.424 382.45 252.474 363.49 270.574 354.88C270.574 354.88 255.644 354.88 172.294 391.22C197.894 450.25 256.674 491.54 325.144 491.54C417.104 491.54 491.664 416.98 491.664 325.01C491.664 233.06 417.104 158.5 325.144 158.5ZM325.144 454.81C288.814 454.81 255.944 439.88 232.394 415.81C299.644 381.12 341.504 390.07 341.504 396.83C341.504 403.71 331.174 419.79 331.174 419.79C386.004 412.04 425.934 379.02 425.934 334.53C425.934 290 384.284 268.47 373.654 261.87C362.294 254.8 367.624 245.2 330.304 231.14C307.594 222.58 275.724 214.14 263.244 210.94C281.654 200.92 302.724 195.24 325.144 195.24C396.814 195.24 454.924 253.36 454.924 325.03C454.914 396.72 396.804 454.81 325.144 454.81Z" fill="#C8102E"/>
<path d="M323.704 281.69C323.704 281.69 314.224 282.54 304.454 277.66C294.694 272.78 279.774 261.87 266.844 273.92C266.844 273.92 277.754 272.51 276.894 275.36C276.024 278.22 274.884 294.88 289.814 301.2C304.734 307.52 321.974 302.92 323.704 281.69Z" fill="#C8102E"/>
<path d="M129.364 457.2L131.084 459.43L154.944 441.02L153.224 438.79L158.614 434.63L166.324 444.63C172.134 452.16 171.504 457.69 165.834 462.07C161.884 465.12 158.124 465.35 154.564 463.42C156.194 468.32 154.714 471.69 150.014 475.31C143.684 480.19 137.284 478.23 132.004 471.4L124.144 461.22L129.364 457.2ZM137.544 467.8C139.624 470.5 142.444 471.07 145.884 468.41C149.284 465.79 149.294 463.11 147.104 460.28L145.594 458.33L135.964 465.76L137.544 467.8ZM151.914 456.05C154.034 458.79 156.774 458.98 159.794 456.65C162.814 454.32 163.194 451.73 160.964 448.84L159.814 447.35L150.654 454.42L151.914 456.05Z" fill="white"/>
<path d="M157.804 491.64L159.574 493.19L190.914 471.22L197.324 476.83L179.724 510.84L181.264 512.2L176.924 517.15L166.274 507.83L170.494 503.01L173.144 505.33L175.534 501.17L169.174 495.6L165.284 498.44L167.974 500.8L163.754 505.62L153.454 496.61L157.804 491.64ZM178.494 496.01L185.804 483.2L173.854 491.94L178.494 496.01Z" fill="white"/>
<path d="M199.423 528.25L197.803 531.04L192.823 528.15L200.163 515.51L205.653 518.69C202.953 523.92 203.583 526.93 206.683 528.73C209.573 530.41 211.663 529.86 213.163 527.27C216.883 520.87 202.913 511.47 209.463 500.2C213.113 493.91 219.373 492.72 224.553 495.72C227.553 497.46 229.403 499.76 228.993 502.58L230.613 499.79L235.593 502.68L228.633 514.66L222.943 511.36C225.103 507.18 225.083 504.52 222.283 502.9C219.643 501.37 217.623 502.16 216.413 504.24C212.993 510.13 226.543 519.9 220.113 530.97C216.073 537.93 209.723 538.45 203.983 535.12C201.353 533.59 199.183 531.24 199.423 528.25Z" fill="white"/>
<path d="M238.373 544.49L241.063 545.36L250.293 516.69L247.613 515.83L249.703 509.35L262.493 513.47L260.463 519.78L258.113 519.03L253.773 532.49L265.263 521.33L263.703 520.83L265.733 514.51L277.413 518.28L275.323 524.76L272.583 523.88L263.333 532.3L264.803 553.01L266.983 553.71L264.973 559.97L252.403 555.92L254.363 549.83L256.703 550.58L255.723 537.93L250.343 543.16L248.773 548.03L251.123 548.78L249.153 554.87L236.363 550.75L238.373 544.49Z" fill="white"/>
<path d="M290.814 558.35L293.624 558.6L296.264 528.6L293.454 528.35L294.044 521.57L320.184 523.86L318.974 537.66L311.374 537L312.034 529.45L304.604 528.8L303.584 540.55L310.364 541.15L309.774 547.87L302.984 547.28L301.904 559.62L309.444 560.28L310.174 551.98L317.844 552.65L316.564 567.21L290.244 564.9L290.814 558.35Z" fill="white"/>
<path d="M348.543 559.41L352.213 558.92L348.173 528.54L343.573 529.15L344.573 536.66L338.223 537.5L336.403 523.77L366.493 519.77L368.313 533.5L361.973 534.35L360.973 526.84L356.373 527.45L360.413 557.83L364.083 557.34L364.943 563.86L349.413 565.93L348.543 559.41Z" fill="white"/>
<path d="M396.014 549.98L398.644 548.97L387.924 520.83L385.294 521.83L382.874 515.47L394.664 510.98C403.554 507.59 408.664 509.79 411.214 516.49C412.984 521.15 412.124 524.81 409.254 527.66C414.414 527.52 417.204 529.91 419.314 535.45C422.154 542.91 418.434 548.47 410.374 551.54L398.364 556.12L396.014 549.98ZM401.424 528.07C404.664 526.84 405.634 524.27 404.274 520.7C402.914 517.14 400.544 516.03 397.144 517.32L395.394 517.99L399.504 528.8L401.424 528.07ZM408.524 545.22C411.704 544.01 413.064 541.48 411.524 537.42C409.994 533.42 407.444 532.63 404.094 533.9L401.794 534.78L406.124 546.14L408.524 545.22Z" fill="white"/>
<path d="M435.294 533.69L437.294 532.46L425.554 496.03L432.804 491.57L460.094 518.42L461.844 517.34L465.294 522.94L453.244 530.36L449.884 524.91L452.884 523.06L449.624 519.55L442.424 523.98L443.994 528.54L447.044 526.66L450.404 532.12L438.744 539.29L435.294 533.69ZM445.584 515.22L435.514 504.46L440.334 518.46L445.584 515.22Z" fill="white"/>
<path d="M476.664 505.73L478.724 503.8L458.164 481.78L456.104 483.71L451.454 478.73L461.934 468.95L466.574 473.93L464.264 476.09L485.024 498.33L490.044 493.64L484.354 487.54L489.934 482.33L499.914 493.02L481.154 510.54L476.664 505.73Z" fill="white"/>
<path d="M507.284 474.99L508.964 472.73L484.754 454.8L483.074 457.06L477.594 453.01L486.124 441.49L491.594 445.55L489.714 448.1L514.164 466.19L518.254 460.67L511.544 455.71L516.094 449.57L527.844 458.27L512.574 478.9L507.284 474.99Z" fill="white"/>
<path d="M124.934 271.18L125.704 268.96L93.584 248.14L96.384 240.1L134.504 243.67L135.184 241.73L141.394 243.89L136.744 257.26L130.694 255.16L131.854 251.83L127.104 251.17L124.324 259.16L128.414 261.71L129.584 258.32L135.634 260.42L131.134 273.34L124.934 271.18ZM121.234 250.37L106.624 248.4L119.204 256.2L121.234 250.37Z" fill="white"/>
<path d="M143.584 225.53L145.484 222.36L119.144 206.66L116.764 210.65L123.274 214.53L120.004 220.03L108.094 212.93L123.634 186.85L135.544 193.94L132.264 199.44L125.754 195.56L123.384 199.55L149.724 215.24L151.614 212.06L157.264 215.43L149.244 228.9L143.584 225.53Z" fill="white"/>
<path d="M165.054 193.2L166.974 191.14L144.914 170.62L142.994 172.69L138.004 168.05L147.764 157.55L152.754 162.19L150.594 164.52L172.874 185.23L177.554 180.2L171.444 174.52L176.644 168.93L187.354 178.89L169.874 197.68L165.054 193.2Z" fill="white"/>
<path d="M193.374 164.52L195.294 163.16L181.254 127.56L188.204 122.64L217.154 147.69L218.834 146.5L222.634 151.87L211.084 160.05L207.384 154.83L210.264 152.79L206.784 149.5L199.884 154.38L201.734 158.82L204.654 156.75L208.354 161.97L197.184 169.88L193.374 164.52ZM202.454 145.43L191.714 135.34L197.424 149L202.454 145.43Z" fill="white"/>
<path d="M232.534 138.93L235.144 137.86L223.764 109.97L221.154 111.04L218.584 104.73L229.014 100.47L247.624 119.01L241.054 102.91L238.604 103.91L236.034 97.6002L248.154 92.6602L250.724 98.9602L248.114 100.03L261.994 134.01L255.084 136.83L235.104 117.39L242.274 134.95L244.714 133.96L247.204 140.04L235.024 145.02L232.534 138.93Z" fill="white"/>
<path d="M281.174 122.24L284.814 121.59L279.464 91.4099L274.894 92.2198L276.214 99.6798L269.914 100.8L267.494 87.1498L297.384 81.8398L299.814 95.4898L293.504 96.6098L292.184 89.1498L287.614 89.9598L292.974 120.15L296.614 119.5L297.764 125.98L282.324 128.72L281.174 122.24Z" fill="white"/>
<path d="M313.543 117.44L315.893 117.49L325.713 80.4902L334.233 80.6502L342.673 118L344.733 118.04L344.603 124.61L330.453 124.34L330.573 117.94L334.093 118.01L333.243 113.29L324.783 113.13L323.633 117.8L327.213 117.87L327.083 124.27L313.403 124L313.543 117.44ZM332.173 107.46L329.523 92.9602L326.013 107.34L332.173 107.46Z" fill="white"/>
<path d="M376.263 123.5L378.933 124.41L388.633 95.89L385.963 94.99L388.153 88.54L401.553 93.09L399.413 99.37L396.583 98.41L393.023 108.86L401.923 111.88L405.473 101.43L402.583 100.45L404.723 94.17L418.113 98.72L415.923 105.17L413.203 104.24L403.503 132.76L406.233 133.69L404.113 139.91L390.713 135.36L392.773 129.3L395.663 130.28L399.593 118.72L390.703 115.7L386.773 127.26L389.613 128.22L387.543 134.28L374.153 129.73L376.263 123.5Z" fill="white"/>
<path d="M420.343 140.38L422.333 141.62L449.663 114.84L456.893 119.33L445.083 155.74L446.833 156.82L443.373 162.41L431.353 154.95L434.723 149.51L437.723 151.37L439.403 146.88L432.223 142.42L428.853 145.85L431.893 147.74L428.523 153.18L416.903 145.97L420.343 140.38ZM441.453 141.32L446.573 127.5L436.213 138.07L441.453 141.32Z" fill="white"/>
<path d="M477.694 142.58L475.814 140.73L480.604 135.88L490.134 145.29L485.464 150.01L483.584 148.15L471.854 163.96L493.514 148.63L498.614 153.66L483.604 175.64L499.304 163.66L497.504 161.89L502.164 157.17L511.144 166.04L506.364 170.88L504.394 168.94L474.064 190.89L468.634 185.53L484.134 162.72L461.654 178.64L456.134 173.2L477.694 142.58Z" fill="white"/>
<path d="M491.264 200.95L492.774 203.33L518.204 187.16L516.684 184.78L522.434 181.12L529.654 192.47L524.054 196.04L522.734 193.95L510.784 201.55L526.764 200.3L525.884 198.91L531.484 195.35L538.074 205.71L532.324 209.36L530.774 206.93L518.264 207.51L506.174 224.39L507.404 226.33L501.854 229.85L494.754 218.71L500.164 215.27L501.484 217.35L508.814 206.98L501.324 207.57L497.004 210.31L498.334 212.39L492.934 215.83L485.714 204.48L491.264 200.95Z" fill="white"/>
<path d="M512.214 245.12L509.204 246.28L507.134 240.91L520.774 235.66L523.054 241.58C517.684 243.96 516.284 246.7 517.574 250.04C518.774 253.16 520.744 254.04 523.544 252.96C530.444 250.3 525.454 234.24 537.614 229.55C544.404 226.93 550.024 229.93 552.174 235.51C553.414 238.74 553.424 241.69 551.334 243.63L554.344 242.47L556.414 247.83L543.484 252.81L541.124 246.68C545.424 244.77 547.074 242.69 545.914 239.68C544.814 236.83 542.744 236.18 540.494 237.05C534.144 239.5 538.574 255.59 526.634 260.19C519.134 263.08 513.854 259.51 511.474 253.32C510.384 250.49 510.164 247.3 512.214 245.12Z" fill="white"/>
</svg>
