<svg width="648" height="648" viewBox="0 0 648 648" fill="none" xmlns="http://www.w3.org/2000/svg">
<path d="M583.07 306.84C583.07 237.64 556.12 172.58 507.18 123.65C464.92 81.38 410.63 55.54 352.04 49.28C350.68 47.93 349.16 46.68 347.43 45.58C326.69 32.24 309.37 42.15 297.37 47.98C296.51 48.4 295.5 48.9 294.36 49.48C271.77 52.06 250.06 57.58 229.6 65.6C227.19 61.98 224.39 58.57 221.24 55.42C208.74 42.89 192.09 36 174.39 36C137.84 36 108.11 65.74 108.11 102.28C108.11 117.6 113.28 132.12 122.78 143.86C86.6297 188.4 64.9297 245.13 64.9297 306.84C64.9297 376.04 91.8797 441.1 140.81 490.03C164.71 513.93 192.47 532.57 222.66 545.4C220.97 559.09 223.2 568.38 225.7 572.19C221.89 575.39 220.29 577.4 219.69 581C213.68 589.21 228.3 599.62 234.31 604.23C246.65 613.69 253.14 612.04 262.74 611.64C274.6 611.15 285.77 597.22 292.18 588.21C304.99 586.41 307.39 588.42 307.79 590.01C311.8 589.41 317.4 588.41 325.01 585.2C342.32 577.92 337.42 568.99 335.63 567.38C335.16 566.97 334.78 566.39 334.41 565.69C375.49 564.08 414.86 552.94 449.98 533.33C451.22 534.71 452.5 536.3 453.77 538.15C457.57 543.76 459.57 561.97 460.37 571.38C461.17 580.79 462.78 587.21 467.38 602.01C471.98 616.83 473.79 606.02 473.99 602.01C474.19 598.01 474.99 583.59 474.39 573.18C473.79 562.77 473.59 547.75 475.59 541.35C477.6 534.94 473.99 533.34 472.99 532.14C471.98 530.93 472.99 530.53 470.38 522.33C470.24 521.87 470.12 521.39 470.02 520.91C483.2 511.87 495.65 501.57 507.18 490.03C556.12 441.1 583.07 376.04 583.07 306.84Z" fill="white"/>
<path d="M583.07 306.84C583.07 237.64 556.12 172.58 507.18 123.65C464.92 81.38 410.63 55.54 352.04 49.28C350.68 47.93 349.16 46.68 347.43 45.58C326.69 32.24 309.37 42.15 297.37 47.98C296.51 48.4 295.5 48.9 294.36 49.48C271.77 52.06 250.06 57.58 229.6 65.6C227.19 61.98 224.39 58.57 221.24 55.42C208.74 42.89 192.09 36 174.39 36C137.84 36 108.11 65.74 108.11 102.28C108.11 117.6 113.28 132.12 122.78 143.86C86.6297 188.4 64.9297 245.13 64.9297 306.84C64.9297 376.04 91.8797 441.1 140.81 490.03C164.71 513.93 192.47 532.57 222.66 545.4C220.97 559.09 223.2 568.38 225.7 572.19C221.89 575.39 220.29 577.4 219.69 581C213.68 589.21 228.3 599.62 234.31 604.23C246.65 613.69 253.14 612.04 262.74 611.64C274.6 611.15 285.77 597.22 292.18 588.21C304.99 586.41 307.39 588.42 307.79 590.01C311.8 589.41 317.4 588.41 325.01 585.2C342.32 577.92 337.42 568.99 335.63 567.38C335.16 566.97 334.78 566.39 334.41 565.69C375.49 564.08 414.86 552.94 449.98 533.33C451.22 534.71 452.5 536.3 453.77 538.15C457.57 543.76 459.57 561.97 460.37 571.38C461.17 580.79 462.78 587.21 467.38 602.01C471.98 616.83 473.79 606.02 473.99 602.01C474.19 598.01 474.99 583.59 474.39 573.18C473.79 562.77 473.59 547.75 475.59 541.35C477.6 534.94 473.99 533.34 472.99 532.14C471.98 530.93 472.99 530.53 470.38 522.33C470.24 521.87 470.12 521.39 470.02 520.91C483.2 511.87 495.65 501.57 507.18 490.03C556.12 441.1 583.07 376.04 583.07 306.84Z" fill="black"/>
<path d="M262.73 548.56C272.35 548.16 285.76 545.16 291.87 542.55C292.67 542.76 293.97 543.55 295.98 544.36C296.77 537.95 292.67 524.64 290.37 518.53C288.84 514.48 287.36 511.73 285.56 507.52C280.16 506.51 273.45 503.61 268.64 501.62C268.64 505.42 269.34 515.33 270.15 521.94C268.14 522.14 265.34 522.34 261.93 522.34C262.33 529.54 263.14 542.55 262.73 548.56Z" fill="#008348"/>
<path d="M443.949 527.34C442.139 525.53 446.149 519.93 447.949 509.52C449.739 499.11 449.939 481.68 442.339 471.87C438.639 467.1 436.839 464.08 436.219 461.94C412.509 479.19 385.329 490.64 356.439 495.55C356.089 496.16 355.749 496.69 355.439 497.1C351.229 502.51 343.029 510.32 337.009 513.52C330.999 516.72 323.999 519.13 320.189 520.33C319.389 526.73 318.349 541.03 319.989 545.95C320.599 547.75 327.999 552.16 330.599 556.97C330.869 557.47 331.109 557.95 331.349 558.44C372.209 557.26 410.669 546.3 444.429 527.81C444.279 527.65 444.099 527.48 443.949 527.34Z" fill="#008348"/>
<path d="M501.989 128.84C462.519 89.3701 412.239 64.6301 357.819 57.3701C362.179 66.0001 362.859 75.9101 363.249 82.2201C371.059 78.8201 377.059 77.0101 380.269 71.8101C383.469 66.6001 387.879 67.6001 390.679 71.4101C393.479 75.2101 393.479 80.0201 386.079 84.6201C378.669 89.2301 373.259 91.4301 371.659 92.2301C370.059 93.0301 371.459 94.4301 373.269 97.4301C375.069 100.43 379.649 107.85 380.469 123.46C380.479 123.61 380.489 123.77 380.489 123.92C409.919 132.98 436.899 149.14 459.299 171.53C495.459 207.68 515.369 255.75 515.369 306.88C515.369 336.24 508.779 364.59 496.349 390.26C498.009 391.12 500.249 396.93 501.019 404.59C501.419 408.6 501.219 413 500.019 415.8C498.819 418.6 489.369 432.79 484.599 437.03C482.799 438.64 478.589 438.44 476.789 435.83C474.989 433.22 474.789 434.62 473.389 436.02C471.979 437.43 467.179 444.43 465.989 446.23C464.789 448.04 460.779 449.84 463.379 457.04C465.989 464.25 468.979 469.65 467.989 473.66C466.979 477.67 466.589 478.87 471.979 483.48C477.399 488.08 477.199 493.69 474.789 497.29C473.289 499.55 470.919 505.57 469.999 511.78C533.949 466.09 575.729 391.25 575.729 306.83C575.729 239.6 549.539 176.39 501.989 128.84Z" fill="#008348"/>
<path d="M212.879 492.69C212.169 485.91 211.139 473.65 215.889 464.9C206.229 458.26 197.089 450.69 188.619 442.22C152.469 406.07 132.559 358 132.559 306.88C132.559 252.14 155.669 202.69 192.629 167.77C192.979 167.03 193.419 166.32 193.959 165.63C187.699 167.56 181.129 168.56 174.389 168.56C156.749 168.56 140.169 161.71 127.669 149.29C91.7893 193.83 72.2793 248.83 72.2793 306.84C72.2793 374.08 98.4593 437.29 146.009 484.84C168.799 507.63 195.199 525.5 223.909 537.94C225.019 532.58 226.679 526.71 229.099 520.34C231.309 514.53 227.899 501.12 222.289 494.1C219.279 493.29 215.489 492.89 212.879 492.69Z" fill="#008348"/>
<path d="M279.629 59C263.729 61.81 248.239 66.13 233.309 71.89C238.109 81.18 240.669 91.53 240.669 102.28C240.669 116.54 236.189 130.11 227.909 141.38C241.759 133.31 256.709 126.92 272.479 122.51C273.499 121.51 274.529 120.55 275.559 119.66C269.749 110.04 261.939 94.62 268.749 73.8C270.669 67.94 274.879 63 279.629 59Z" fill="#008348"/>
<path d="M380.279 134.88C385.889 137.68 392.149 143.78 389.689 155.1C388.689 159.71 384.839 164.14 384.489 165.92C383.889 168.92 377.579 174.02 375.579 178.03C373.589 182 373.279 185.38 373.859 187.09C373.859 187.11 373.879 187.13 373.879 187.14C377.079 190.15 384.289 194.15 388.289 195.55C391.419 196.65 391.199 197.49 389.889 199.56C392.089 199.76 393.229 201.12 395.299 203.57C397.499 206.18 403.309 204.57 406.909 202.77C410.519 200.97 415.119 200.37 418.729 204.78C422.329 209.18 427.739 217.39 430.339 225C432.939 232.61 435.749 238.82 436.549 240.02C437.349 241.22 433.739 263.25 432.729 272.06C431.729 280.87 430.929 284.68 430.729 286.08C430.529 287.48 436.339 281.08 436.539 288.68C436.689 294.75 439.529 314.21 442.809 328.63C443.639 332.29 444.489 335.63 445.349 338.34C447.759 338.74 449.749 343.55 451.159 350.95C452.559 358.36 455.559 362.97 455.769 366.57C455.969 370.17 456.969 370.77 458.169 371.37C459.379 371.97 458.979 373.78 455.369 377.97C456.169 378.58 457.369 379.78 458.169 380.57C459.179 379.57 461.979 376.38 461.979 376.38C461.979 376.38 472.999 380.78 475.399 381.58C477.809 382.38 480.659 376.45 487.809 379.57C489.769 380.43 491.939 383.14 493.469 385.81C504.679 361.82 510.969 335.08 510.969 306.89C510.969 256.94 491.509 209.98 456.199 174.66C434.639 153.11 408.759 137.48 380.509 128.56C380.419 131.3 380.279 133.91 380.279 134.88Z" fill="white"/>
<path d="M438.14 449.85C435.34 448.45 433.52 450.48 432.13 439.44C431.73 436.24 429.14 432.03 427.13 430.03C425.13 428.02 424.89 424.27 425.92 421.01C427.52 416 427.93 411.4 427.73 407.4C427.52 403.39 428.33 398.39 433.93 395.98C431.93 393.79 430.93 390.98 430.33 388.78C422.12 386.07 420.48 385.84 418.81 381.87C416.01 375.2 414.29 365.46 413.46 360.16C413.05 357.54 412.77 355.12 412.71 352.94C410.08 347.97 404.24 336.91 399.72 328.61C398.06 325.5 396.56 322.79 395.49 320.9C391.48 313.89 395.49 304.68 397.49 299.28C399.5 293.88 401.1 289.07 399.29 283.66C397.49 278.26 397.49 277.05 397.09 274.85C396.69 272.64 394.88 269.84 392.49 277.45C390.08 285.06 385.48 296.27 382.87 307.89C381.39 314.48 380.36 321.67 380.7 328.61C380.96 333.9 382.02 339.05 384.26 343.72C389.47 354.53 395.68 364.55 394.87 370.55C394.07 376.56 392.75 376.76 392.67 377.76C391.67 389.37 386.66 411.6 384.06 418C381.46 424.41 371.25 447.63 369.04 457.45C367.36 464.97 362.72 481.06 358.77 490.6C388.73 484.93 416.2 472.11 439.3 453.95C440 452.28 439.88 450.71 438.14 449.85Z" fill="white"/>
<path d="M215.61 187.09C217.82 189.97 220.72 192.61 224.5 194.55C234.31 199.55 236.32 203.15 236.32 211.76C236.32 220.37 237.92 238 240.73 241C242.53 239.2 244.54 236.59 244.93 235.8C247.73 241 253.38 250.64 262.34 256.62C262.95 257.03 262.67 259.23 264.14 259.62C267.15 260.42 286.57 263.43 287.17 267.44C291.18 263.43 297.58 253.42 298.79 250.01C299.99 246.61 307 235.8 312.21 229.79C312.21 227.38 312.21 225.98 312.41 225.38C311 226.58 308.81 229.59 305.6 230.99C302.4 232.39 291.19 237.2 283.18 241.2C280.38 242.6 275.37 244.2 273.37 229.59C271.37 214.97 273.37 207.36 274.77 203.96C276.17 200.56 278.77 197.55 283.79 198.95C288.79 200.35 296.8 203.35 299 203.35C299.4 201.75 300.81 198.74 295.4 198.14C291.55 197.71 281.52 194.85 275.83 187.08C273.53 183.97 271.94 180.03 271.77 175.11C260.36 176.91 234.12 180.32 228.32 181.72C222.51 183.12 217.59 184.31 215.71 171.11C214.91 165.5 213.51 157.69 217.51 160.5C220.71 158.1 225.15 155.27 232.92 156.5C234.35 156.72 236.12 157.92 236.68 159.02C237.11 160.97 236.28 164.14 235.33 167.1C233.6 172.47 230.23 176.31 241.14 173.81C252.56 171.19 267.07 169 270.87 168.2C271.37 164.3 274.57 158.28 278.38 153.88C282.2 149.46 282.79 145.87 282.99 144.47C283.19 143.07 281.87 142.76 279.98 144.47C277.78 146.47 271.17 150.48 264.96 148.88C262.56 148.26 259.56 143.67 257.96 141.07C259.27 138.32 262.59 133.57 266.68 128.78C245.36 135.62 225.4 146.29 207.66 160.44C207.55 162.66 207.84 167.82 209.3 173.51C210.26 177.34 212.08 182.51 215.61 187.09Z" fill="white"/>
<path d="M229.499 460.66C237.709 457.46 244.179 457.61 250.519 466.07C252.319 468.47 253.719 475.48 269.139 469.27C260.929 459.46 256.009 447.83 251.519 432.23C244.429 407.58 228.389 379.57 234.289 366.75C230.889 363.54 226.889 351.13 222.679 352.53C219.859 353.47 215.879 353.53 219.069 344.12C220.519 339.89 222.889 334.76 227.379 328.6C232.869 321.1 241.529 312.06 255.509 301.26C256.709 300.26 256.919 299.47 256.109 298.66C254.709 297.26 253.309 295.66 251.909 294.86C250.509 294.06 249.099 294.46 247.899 295.66C246.699 296.86 244.699 298.27 243.499 299.06C242.299 299.86 232.689 290.45 227.679 283.64C222.669 276.84 217.469 274.63 215.869 273.83C217.869 271.63 222.389 266.85 220.679 267.43C217.679 268.43 212.409 269.1 207.059 263.42C200.449 256.42 203.059 252.81 201.649 251.81C200.249 250.81 193.039 252.41 187.639 244C182.229 235.59 180.069 231.93 184.429 225.98C186.629 222.98 187.439 221.57 186.839 217.77C186.239 213.96 186.839 211.56 191.849 206.75C196.849 201.95 199.859 197.54 202.059 197.94C203.809 198.26 198.749 191.9 195.679 187.08C194.879 185.79 194.219 184.64 193.849 183.72C193.059 181.78 191.799 178.45 191.509 174.86C156.329 210.15 136.949 257.02 136.949 306.87C136.949 356.81 156.399 403.77 191.719 439.09C199.999 447.38 208.939 454.78 218.389 461.27C222.509 456.82 227.379 458.55 229.499 460.66Z" fill="white"/>
<path d="M123.1 65.7398C139.52 69.9398 151.82 83.2198 157.22 90.6198C158.6 92.5098 160.03 92.2298 160.63 90.8198C161.9 87.8498 164.23 78.1998 164.23 70.7898C164.23 53.9698 166.53 47.3198 170.74 39.5098C151.09 40.5998 133.86 50.6998 123.1 65.7398Z" fill="#A73832"/>
<path d="M113.179 117.27C144.009 120.07 153.599 102.85 155.609 100.24C157.609 97.6398 155.209 96.0398 154.209 94.6298C148.879 87.1698 136.949 73.9698 120.529 69.7598C114.769 79.2598 111.399 90.3498 111.399 102.27C111.399 107.44 111.999 112.46 113.179 117.27Z" fill="#A73832"/>
<path d="M235.529 116.06C222.509 110.65 207.069 115.65 196.059 125.27C185.049 134.88 179.439 142.26 175.639 165.09C175.169 165.1 174.699 165.1 174.229 165.1C157.919 165.1 143.099 158.89 131.929 148.69C150.759 143.88 166.619 135.28 184.439 118.46C202.269 101.64 211.079 82.02 213.479 72.81C215.879 63.6 212.479 69 210.679 73.2C207.889 79.71 198.669 97.23 180.449 114.25C162.229 131.27 148.219 139.67 129.199 146.08C122.849 139.56 117.959 131.65 114.919 122.87C121.329 123.27 141.509 120.94 151.619 112.66C164.909 101.77 166.439 88.83 168.239 70.41C170.039 51.99 172.739 46.51 177.149 39.5C210.509 41.02 237.079 68.54 237.079 102.27C237.069 107.01 236.519 111.62 235.529 116.06Z" fill="#A73832"/>
<path d="M233.79 122.36C230.78 118.15 220.08 116.14 203.07 126.76C201.47 127.77 200.36 128.46 202.27 130.37C205.87 133.98 211.29 140.79 215.09 150C223.6 142.72 230.13 133.2 233.79 122.36Z" fill="#A73832"/>
<path d="M210.07 153.89C206.47 145.08 203.47 138.68 200.07 134.27C198.23 131.89 197.87 130.87 194.46 133.87C185 142.22 181.35 154.88 179.34 164.89C190.71 163.99 201.22 160.05 210.07 153.89Z" fill="#A73832"/>
<path d="M192.86 224.18C190.26 223.38 188.25 226.38 187.05 228.78C185.85 231.19 184.44 233.79 188.25 239.19C192.05 244.6 194.42 247.82 201.07 247.4C204.27 247.2 207.08 244.8 208.07 243.4C209.07 242 209.27 244.4 207.67 246.8C206.07 249.2 204.87 254.81 207.87 258.61C210.88 262.41 217.08 265.62 225.29 260.82C233.5 256.01 236.91 250.2 238.31 247.6C239.71 245 239.71 243.8 238.31 242.2C236.91 240.59 232.3 232.97 231.3 217.97C230.7 208.96 232.3 203.15 226.69 199.95C221.08 196.74 208.26 189.17 206.67 174.32C206.07 168.71 206.47 160.1 200.87 164.71C195.26 169.32 195.26 172.52 194.66 175.92C194.06 179.33 196.87 183.93 199.27 187.13C201.67 190.34 204.47 197.34 206.68 199.15C208.88 200.95 210.28 202.35 212.09 202.56C213.89 202.76 221.1 202.76 222.9 203.36C224.7 203.96 225.71 206.17 221.3 206.17C216.89 206.17 210.09 207.37 207.08 207.77C204.08 208.17 201.28 208.37 199.87 214.38C198.47 220.38 196.46 227.39 196.27 229.6C196.07 231.8 194.87 233 194.87 234.2C194.87 235.4 197.27 241.21 202.68 235.4C208.08 229.59 210.29 223.79 211.29 220.98C212.29 218.17 213.49 218.57 212.49 222.98C211.49 227.38 211.19 238.4 213.29 242.21C215.55 246.3 220.12 250.51 225.91 247.61C227.11 247.01 229.11 246.01 230.72 246.2C232.32 246.4 230.42 249.21 229.01 250.41C227.61 251.61 223.01 256.71 214.9 249.41C212.89 247.61 210.12 243.6 209.49 238.6C209.29 237 207.09 236.4 206.09 237.8C205.09 239.2 199.68 244.21 195.88 240.6C192.07 237 190.5 235 192.68 227.38C193.05 225.98 193.83 224.48 192.86 224.18Z" fill="#FAB383"/>
<path d="M196.86 212.97C196 215.56 195.26 218.98 194.86 220.18C194.46 221.38 192.66 223.99 191.06 220.58C189.46 217.18 189.54 214.49 192.06 211.97C192.86 211.17 194.06 209.57 194.86 210.37C195.66 211.17 197.06 212.37 196.86 212.97Z" fill="#FAB383"/>
<path d="M205.87 203.76C204.22 204.59 200.7 204.58 199.46 207.36C198.66 209.16 195.46 207.17 197.06 204.96C198.66 202.75 199.87 202.96 200.87 202.35C201.87 201.75 202.27 199.95 204.27 200.95C206.27 201.96 206.67 203.36 205.87 203.76Z" fill="#FAB383"/>
<path d="M337.829 104.64C332.219 105.24 327.019 108.65 321.809 112.25C316.599 115.85 297.779 131.67 293.369 134.87C297.979 137.27 299.179 142.08 297.579 150.09C297.219 151.87 297.579 152.49 298.779 151.29C299.979 150.09 305.579 144.08 305.389 139.28C305.189 134.47 302.979 131.67 302.579 131.07C302.179 130.47 304.189 128.06 306.389 133.07C308.589 138.08 307.989 145.09 301.379 152.9C294.769 160.71 289.559 160.51 286.759 161.91C283.959 163.31 281.159 165.51 283.759 169.72C286.359 173.93 291.359 172.32 293.359 170.92C295.369 169.51 298.169 167.91 304.579 168.52C310.989 169.12 313.119 165.05 308.789 160.71C307.389 159.31 303.779 156.1 308.189 156.1C310.799 156.1 313.989 161.91 315.799 163.51C317.599 165.11 321.609 165.71 327.009 166.11C332.419 166.51 340.829 168.51 340.829 173.72C340.829 176.92 339.099 177.85 336.819 175.33C335.929 174.32 334.639 175.9 333.619 176.93C330.209 180.34 321.499 189.55 315.299 191.15C309.099 192.75 306.789 190.95 298.579 186.54C290.369 182.14 282.759 177.73 280.559 176.33C278.359 174.93 273.749 171.72 275.949 178.13C278.159 184.54 283.559 191.14 294.369 194.75C305.179 198.35 306.779 199.55 309.189 200.76C311.589 201.96 310.189 203.16 306.989 202.76C304.209 202.42 301.179 199.96 303.589 205.37C305.989 210.78 309.599 216.58 320.609 215.18C331.609 213.78 331.939 211.45 338.819 199.96C340.019 197.96 341.229 199.36 340.429 204.57C345.829 201.96 348.829 201.16 352.039 200.36C355.249 199.56 363.579 196.73 369.059 186.54C371.859 181.34 373.369 179.55 372.859 174.13C372.669 172.11 375.659 168.12 378.669 165.32C381.669 162.52 389.879 151.9 385.679 144.3C381.469 136.69 374.469 140.5 371.059 146.11C367.649 151.72 363.849 157.92 363.649 167.53C361.249 166.73 358.789 167.61 357.649 169.53C357.049 170.53 348.239 169.33 345.229 170.13C342.229 170.93 341.239 169.13 344.439 164.93C347.639 160.72 358.919 145.49 358.249 134.09C358.059 130.69 358.509 130.06 359.049 127.48C359.749 124.18 360.059 124.12 355.949 121.87C353.279 120.41 353.109 116.24 352.649 113.06C352.149 109.66 351.499 109.64 347.649 110.46C344.789 111.05 340.019 108.24 337.829 104.64Z" fill="#FAB383"/>
<path d="M314.4 167.32C313.3 169.82 310.27 172.22 303.29 171.43C299.79 171.03 296.36 170.98 295.78 173.73C295.38 175.63 293.79 175.53 291.58 175.43C289.27 175.33 286.77 174.73 286.67 175.53C286.57 176.33 296.49 182.23 299.79 183.73C303.09 185.23 307.91 188.81 311.8 188.43C317.01 187.93 321.54 185.35 329.22 177.22C332.39 173.87 334.93 172.12 331.92 170.71C329.88 169.76 327.81 169.51 325.12 169.51C322.41 169.51 316.6 169.12 314.4 167.32Z" fill="#FAB383"/>
<path d="M277.049 167.42C274.349 167.32 274.049 165.31 275.849 162.31C277.649 159.3 279.359 156.51 281.759 154.7C282.159 156 282.959 157.6 284.159 158.3C282.559 160 280.439 162.14 280.839 166.35L277.049 167.42Z" fill="#FAB383"/>
<path d="M338.01 154.98C334.57 154.98 329.46 153.86 325.81 151.36C322.11 148.83 320.88 147.61 321.53 143.88C321.93 141.57 322.14 140.32 322.28 139.47C322.38 138.85 322.45 138.44 322.53 137.97C322.84 136.21 322.74 135.05 322.22 134.43C321.94 134.1 321.55 133.92 321.08 133.92C320.31 133.92 319.3 134.41 318 135.41C315.89 133.82 313.88 132.05 312.4 130.73C311.25 129.71 310.41 128.97 309.89 128.63C309.47 128.35 308.97 127.91 308.92 127.37C308.88 126.96 309.1 126.51 309.57 126.04C309.86 125.75 310.23 125.69 310.74 125.69H310.97H311.21C311.57 125.69 312.24 125.69 312.68 125.18C313.11 124.69 313.21 123.85 313.02 122.49C313.03 122.41 313.17 122.26 314.08 122.26C314.32 122.26 314.57 122.27 314.82 122.28C315.09 122.29 315.34 122.3 315.56 122.3C316.08 122.3 316.4 122.25 316.64 122.13C317.09 121.91 317.2 121.47 317.29 121.15C317.41 120.71 317.45 120.53 318.14 120.53C318.53 120.53 319.05 120.61 319.68 120.77C319.8 120.8 319.9 120.81 320.01 120.81C320.67 120.81 320.98 120.3 321.21 119.92L321.33 119.73C321.58 119.34 321.83 119.13 322.39 119.13C322.52 119.13 322.67 119.14 322.83 119.17C323.37 119.26 323.85 119.38 324.28 119.48C324.86 119.62 325.37 119.74 325.81 119.74C326.99 119.74 327.36 118.85 327.54 118.18C327.9 116.83 328.17 116.42 328.72 116.42C329.2 116.42 329.92 116.71 330.86 117.29C331.68 117.8 332.38 118.05 332.98 118.05C333.9 118.05 334.55 117.47 334.76 116.45C334.77 116.42 334.78 116.36 335.04 116.36C335.64 116.36 336.69 116.76 337.78 117.4L338.32 117.71C340.2 118.78 344.1 121 348.56 126.2C349.58 127.38 349.87 128.29 349.79 128.5C349.77 128.5 349.75 128.49 349.72 128.49C349.64 128.49 349.54 128.51 349.44 128.52C348.76 128.63 347.74 128.79 347.53 130.5C347.41 131.44 347.11 131.99 346.98 132.08C346.98 132.05 346.83 131.94 346.62 131.53C346.35 130.99 345.99 130.44 345.38 130.44C345.25 130.44 345.15 130.46 345.07 130.48C345.03 130.41 344.95 130.26 344.84 129.98C344.74 129.71 344.44 128.91 343.7 128.91C343.34 128.91 343.05 129.11 342.84 129.26C342.8 129.29 342.76 129.32 342.72 129.34C342.6 129.05 342.29 128.31 341.57 128.31C341.39 128.31 341.23 128.36 341.1 128.4C341.05 128.42 340.99 128.43 340.96 128.44C340.96 128.42 340.9 128.35 340.82 128.16C340.68 127.84 340.38 127.66 340 127.66C339.72 127.66 339.42 127.75 339.1 127.85C338.75 127.96 338.47 128.04 338.25 128.04C338.07 128.04 338.03 127.99 337.99 127.92C337.71 127.41 337.3 127.33 337.08 127.33C336.73 127.33 336.4 127.5 336.09 127.67C335.84 127.8 335.56 127.95 335.37 127.95C335.32 127.95 335.21 127.95 335.05 127.74C334.94 127.6 334.61 127.17 334.13 127.17C333.65 127.17 333.37 127.56 333.14 127.87L333.04 128C332.81 128.3 332.65 128.42 332.47 128.42C332.39 128.42 332.31 128.4 332.21 128.37C331.95 128.27 331.72 128.23 331.51 128.23C330.81 128.23 330.5 128.73 330.33 129.01C330.16 129.28 330.14 129.29 330.08 129.29C330.03 129.29 329.92 129.28 329.72 129.19C329.48 129.08 329.25 129.03 329.03 129.03C328.23 129.03 327.89 129.73 327.67 130.19C327.44 130.67 327.34 130.79 327.19 130.79C327.15 130.79 327.1 130.78 327.04 130.77C326.71 130.68 326.46 130.64 326.23 130.64C325.1 130.64 324.94 131.6 324.78 132.62C324.75 132.79 324.72 132.98 324.69 133.18C324.41 134.8 323.68 141.5 323.79 143.22C323.89 144.83 325.99 144.83 326.77 144.83C328.25 144.83 330.29 144.56 332.79 144.21C337.73 143.52 346.79 140.79 351.47 136.88C352.67 135.88 353.6 135.77 353.94 135.77C354.23 135.77 354.37 135.84 354.4 135.87C354.44 136.11 353.87 137.38 352.7 138.38C352.58 138.48 352.45 138.59 352.3 138.73C350.84 140.02 347.42 143.03 340.52 144.37C333.92 145.66 327.82 146.81 325.77 146.81C325.5 146.81 325.37 146.79 325.32 146.78C325.2 146.75 325.09 146.74 324.99 146.74C324.65 146.74 324.38 146.91 324.28 147.19C324.14 147.56 324.35 148 324.85 148.42C325.5 148.97 326.43 149.3 327.32 149.3C327.59 149.3 327.86 149.27 328.12 149.22C328.35 149.22 329.08 149.9 329.6 150.39C331.02 151.72 333.18 153.74 336.02 153.74C339.6 153.74 344.76 149.9 346.26 148.72C346.94 148.18 348.51 147.38 349.41 147.12C349.26 147.31 349.03 147.57 348.68 147.93L348.42 148.19C345.13 151.48 341.73 154.89 338.42 154.98C338.28 154.98 338.15 154.98 338.01 154.98Z" fill="black"/>
<path d="M380.279 150.5C377.959 152.14 376.669 152.7 376.479 155.5C376.279 158.3 375.719 163.08 374.679 163.51C373.309 164.07 373.509 160.91 373.079 161.91C372.469 163.31 370.769 162.71 370.279 161.41C370.059 160.85 365.069 160.9 369.069 155.1C372.699 149.84 375.479 147.09 378.079 145.89C380.669 144.69 385.079 147.09 380.279 150.5Z" fill="black"/>
<path d="M478.279 388.48C477.359 386.13 478.979 382.17 483.989 384.97C488.999 387.78 492.799 390.18 489.199 401.19C485.589 412.2 482.989 418.61 481.589 423.22C480.189 427.83 474.789 433.63 476.579 425.82C478.389 418.01 479.339 408.57 478.579 403.79C477.189 394.98 480.019 395.5 479.089 391.48C478.809 390.24 478.629 389.32 478.279 388.48Z" fill="#FAB383"/>
<path d="M497.22 397.99C498.66 402.32 500.22 412.21 497.82 416.21C495.42 420.22 488 431.23 485.21 434.04C482.4 436.84 480.2 435.64 482 432.63C483.81 429.63 486.21 425.62 486.21 424.22C486.21 422.81 486.01 421.22 488.41 416.61C490.81 412.01 495.02 396.59 495.42 395.39C495.81 394.18 496.81 396.79 497.22 397.99Z" fill="#FAB383"/>
<path d="M445.55 435.03C444.35 431.43 443.75 426.22 441.75 423.22C443.35 418.81 448.63 406.97 457.57 403.4C458.56 403 459.17 401.99 458.77 401.2C458.36 400.4 459.97 399.8 460.77 402.6C461.57 405.4 462.98 413.41 462.98 413.41C463.38 415.22 462.58 416.62 462.18 419.02C461.78 421.42 460.77 426.83 461.38 429.63C461.98 432.43 462.98 434.44 468.58 433.24C471.39 432.64 471.19 431.84 471.98 429.43C472.78 427.03 474.99 420.22 475.79 416.41C476.59 412.61 475.89 403.3 475.09 400.9C474.28 398.5 475.39 390.38 474.79 388.78C474.19 387.17 473.78 384.78 468.78 383.17C463.77 381.56 462.37 381.16 458.97 384.57C455.56 387.98 454.37 389.38 452.76 390.98C451.15 392.58 447.15 391.17 450.56 387.98C453.96 384.78 457.17 381.57 458.16 380.56L457.17 377.96H455.36C449.95 383.37 442.74 386.58 437.94 387.58C436.13 387.96 432.73 388.18 435.14 391.39C435.75 392.19 435.94 394.4 437.35 393.6C438.75 392.79 440.95 389.19 442.95 390.79C444.96 392.39 442.56 396.2 440.15 398C437.75 399.81 435.14 401.6 433.35 402.61C431.55 403.61 430.55 404.61 430.75 407.82C430.95 411.02 431.15 416.83 429.34 421.24C427.54 425.64 428.54 426.84 430.14 429.84C431.75 432.85 434.35 435.45 435.15 440.26C435.95 445.06 436.36 446.27 439.56 445.87C442.76 445.47 443.97 444.06 445.17 442.06L445.55 435.03Z" fill="#FAB383"/>
<path d="M446.75 444.24C445.35 446.64 442.95 450.45 442.95 453.85C442.95 457.25 439.55 460.86 439.95 462.46C440.35 464.06 444.76 468.27 447.36 472.67C449.96 477.08 453.36 483.68 453.36 494.69C453.36 505.71 449.76 520.72 449.36 522.72C448.95 524.73 447.96 526.33 450.96 529.13C453.97 531.94 458.77 537.14 460.57 548.95C462.37 560.77 463.57 566.97 464.37 567.57C465.18 568.17 464.97 569.17 464.97 571.37C464.97 573.58 466.97 586.19 468.38 588.6C469.77 591 469.58 574.98 469.37 570.38C469.17 565.78 469.58 543.75 470.37 540.55C471.17 537.34 471.97 533.74 469.17 529.74C466.38 525.73 461.57 518.72 465.18 507.11C468.78 495.49 474.59 495.7 472.78 491.09C470.98 486.48 467.78 483.28 465.38 480.68C462.97 478.07 464.88 471.87 464.77 469.26C464.57 464.45 460.76 463.65 460.36 458.25C459.96 452.84 459.56 448.44 463.56 443.03C467.56 437.63 462.16 437.82 460.36 434.42C458.55 431.02 457.59 426.46 459.16 419.4C459.95 415.79 459.56 414.79 458.55 414.4C457.56 414 453.34 413.2 453.34 413.2L447.14 425.62C448.14 428.02 448.54 431.63 448.54 434.03L446.75 444.24Z" fill="#A73832"/>
<path d="M388.89 200.56C383.96 207.14 376.28 223.79 372.67 234.2C369.07 244.62 360.86 269.44 366.67 285.86C372.47 302.28 383.89 291.87 386.48 285.66C389.08 279.46 393.09 268.84 394.29 266.04C395.49 263.23 396.09 261.63 398.29 268.24C400.49 274.85 403.69 290.67 403.69 292.07C403.69 293.47 401.49 297.48 399.09 303.68C396.68 309.89 395.28 314.29 397.68 318.1C400.08 321.9 409.5 338.12 412.5 345.13C414.3 349.34 415.9 350.14 420.71 348.93C425.52 347.73 437.13 343.72 440.53 342.12C443.94 340.52 442.33 337.71 441.33 334.32C439.81 329.14 433.73 300.27 433.73 296.47C433.73 292.67 434.75 287.68 429.72 293.27C427.93 295.27 425.52 293.27 426.12 290.46C426.73 287.65 432.72 248.61 433.13 243.81C429.72 236.4 419.71 212.97 416.91 208.77C414.1 204.57 413.1 204.37 408.9 206.57C404.7 208.77 395.3 212.15 391.88 204.17C391.28 202.76 390.28 199.56 392.68 199.16L390.88 198.56C390.89 198.55 389.48 199.75 388.89 200.56Z" fill="white"/>
<path d="M441.34 344.52C437.61 346.65 424.93 352.12 419.72 352.93C414.38 353.75 415.72 355.13 416.72 359.14C417.72 363.14 420.72 375.15 422.33 379.36C423.93 383.56 426.13 383.49 430.34 383.36C436.74 383.16 447.56 380.35 455.37 373.15C453.16 370.55 449.31 358.07 448.17 352.73C446.95 347.13 446.95 341.32 441.34 344.52Z" fill="white"/>
<path d="M326.61 228.99C326.21 229.8 324.81 232.2 321.61 232.2C318.41 232.2 315.8 231.2 313.79 234C311.79 236.8 300.78 250.22 298.38 258.43C300.79 263.44 303.99 272.45 306.39 278.86C314.2 272.25 339.13 247.92 343.83 243.22C345.64 241.42 345.83 239.81 343.23 238.02C340.63 236.21 331.01 230.21 329.41 229.21C327.81 228.18 327.01 228.18 326.61 228.99Z" fill="white"/>
<path d="M263.54 264.23C262 270.4 258.94 281.25 253.93 289.66C255.93 292.86 257.53 295.67 259.93 296.67C265.54 292.66 276.15 282.84 279.15 279.25C282.16 275.64 285.96 270.24 285.96 269.04C285.96 267.84 284.56 267.44 282.76 267.84C280.95 268.24 273.54 265.28 266.34 263.84C264.34 263.43 263.74 263.43 263.54 264.23Z" fill="white"/>
<path d="M259.14 258.22C256.94 257.78 249.33 249.61 246.72 245.21C244.12 240.8 243.71 241.2 242.72 244.41C241.72 247.61 237.91 254.62 235.31 258.03C232.71 261.43 225.9 270.24 224.1 272.24C222.3 274.24 224.1 275.04 225.71 276.65C227.31 278.25 235.52 288.26 237.32 290.46C239.13 292.66 241.13 296.67 245.93 292.26C250.74 287.85 256.55 279.84 259.15 271.64C261.75 263.43 261.94 259.12 264.15 259.62L264.25 257.92L263.65 256.93L262.45 255.93C262.75 256.63 262.75 257.23 262.26 258.03C261.74 258.82 260.14 258.42 259.14 258.22Z" fill="white"/>
<path d="M381.679 74.0098C376.279 80.3798 365.449 86.0198 347.239 90.6198C329.019 95.2298 311.589 108.04 304.189 114.25C296.769 120.46 278.099 135.75 269.149 139.48C266.749 140.48 261.639 143.87 268.149 144.68C272.949 145.28 276.359 142.48 286.769 134.87C297.189 127.26 305.269 121.77 313.199 114.05C320.609 106.84 334.019 100.03 348.439 96.0298C362.859 92.0198 381.799 85.7298 387.279 79.8098C389.879 77.0098 390.089 75.6098 387.689 73.1998C385.279 70.7998 383.889 71.4098 381.679 74.0098Z" fill="white"/>
<path d="M289.769 136.98C288.199 137.84 287.569 138.78 285.759 144.59C283.959 150.4 284.159 153.8 285.659 155.2C286.749 156.22 288.359 156.3 289.169 156.3C289.769 156.3 290.369 156.5 290.279 154.8C290.169 153.1 290.059 145.84 295.479 142.59C296.479 141.99 295.349 137.79 291.779 138.38C290.569 138.59 291.779 135.88 289.769 136.98Z" fill="white"/>
<path d="M227.9 159.91C230.71 159.91 232.51 159.91 232.31 163.11C232.11 166.32 230.71 170.72 230.51 173.72C230.31 176.72 230.31 177.92 232.11 177.92C233.9 177.92 229.51 179.72 227.1 180.13C224.7 180.53 221 181.91 219.09 171.71C218.49 168.51 218.69 163.5 218.29 162.3C220.89 161.11 224.47 159.91 227.9 159.91Z" fill="white"/>
<path d="M281.12 168.459C281.86 172.499 282.96 172.419 282.16 173.029C281.36 173.629 280.52 171.499 277.25 172.029C274.15 172.529 248.92 176.439 247.12 176.639C241.51 177.229 241.21 176.329 246.42 175.229C251.63 174.129 270.68 170.659 276.35 169.519L281.12 168.459Z" fill="white"/>
<path d="M250.73 474.67C253.33 476.28 259.54 478.08 270.16 473.67C280.77 469.26 292.58 472.26 294.38 479.88C296.18 487.49 296.25 497.3 292.98 501.51C290.17 505.11 287.58 504.71 284.37 503.71C278.56 501.89 265.14 495.7 261.34 493.89C257.53 492.09 251.13 490.09 246.52 490.09C244.72 486.28 244.92 479.67 246.12 477.27C247.32 474.87 247.32 472.46 248.32 473.06C249.32 473.67 250.73 474.67 250.73 474.67Z" fill="white"/>
<path d="M292.77 510.11C295.38 510.11 300.09 511.21 301.58 515.92C302.77 519.72 310.59 520.72 313.99 520.52C317.4 520.33 316.8 522.12 316.59 524.13C316.39 526.13 315.79 532.14 315.79 534.54C315.79 536.94 316.39 545.35 316.79 546.95C317.19 548.55 315.79 549.35 313.98 550.15C312.18 550.95 305.57 552.95 301.37 549.95C299.16 548.37 296.56 546.15 299.16 545.94C301.77 545.74 295.96 523.11 294.36 519.11C292.77 515.12 288.16 510.11 292.77 510.11Z" fill="white"/>
<path d="M223.89 462.86C224.97 463.22 225.5 464.27 226.29 465.66C227.09 467.06 227.36 468.27 226.09 469.66C223.88 472.07 221.28 483.08 221.68 490.89C220.28 490.49 217.28 489.89 215.67 490.29C215.07 485.88 215.47 472.07 217.47 467.66C219.49 463.27 221.49 462.06 223.89 462.86Z" fill="white"/>
<path d="M224.29 585C229.28 590.62 238.71 599.22 245.71 602.23C252.72 605.23 257.33 606.23 263.53 605.63C268.55 605.14 267.53 607.23 263.53 607.83C259.53 608.43 250.32 608.43 244.31 605.23C238.3 602.02 228.77 596.1 222.68 587.4C221.29 585.4 222.69 583.2 224.29 585Z" fill="white"/>
<path d="M328.61 570.99C324.54 572.84 317 576.6 309.8 578.4C310.59 582.01 310.8 583.61 310.8 584.61C315.2 584.61 323.69 581.53 330.62 577.2C332.22 576.2 332.83 575 332.22 573.6C331.61 572.19 330.82 569.99 328.61 570.99Z" fill="white"/>
<path d="M281.16 554.57C280.16 553.58 285.86 552.37 287.06 552.37C288.47 553.27 291.02 555.53 291.98 556.48C292.58 557.08 292.28 557.48 291.68 557.89C291.08 558.28 287.58 559.19 285.97 559.29C284.16 557.68 281.66 555.07 281.16 554.57Z" fill="white"/>
<path d="M291.78 471.27C290.17 470.07 290.37 469.47 291.18 468.27C291.98 467.06 292.78 466.27 293.58 465.87C294.38 465.47 295.58 465.27 296.98 467.27C298.38 469.27 305.99 481.89 307.59 485.29C309.19 488.69 311.2 486.49 310.39 484.49C309.59 482.49 307.98 479.09 307.38 478.08C309.59 471.27 311.79 460.86 311.79 454.05C311.79 447.24 310.19 440.44 308.98 438.03C314.39 438.23 326.2 438.03 330.81 436.63C335.42 435.22 331.61 434.83 329.81 435.03C328.01 435.23 315.06 435.18 305.58 434.03C289.16 432.02 273.04 422.79 267.94 416.4C267.14 415.4 262.33 415.8 266.33 419.01C270.34 422.21 280.55 431.78 295.57 434.43C298.97 435.03 304.38 436.03 305.18 448.45C305.98 460.87 304.78 468.87 304.78 470.07C304.78 471.27 303.98 471.67 302.98 470.27C301.98 468.87 298.57 464.27 296.77 463.27C294.97 462.26 293.78 462.46 292.17 463.66C290.57 464.87 288.16 467.26 287.16 468.47L291.78 471.27Z" fill="white"/>
<path d="M259.53 510.42C258.03 510.42 249.02 511.12 247.12 510.42C245.21 509.72 243.99 507.53 245.32 506.62C246.92 505.52 250.03 506.92 253.13 506.92C256.23 506.92 259.54 506.12 260.34 506.62C261.14 507.12 262.24 506.92 262.24 510.73L259.53 510.42Z" fill="white"/>
<path d="M237.709 565.38C235.109 563.78 232.089 556.36 231.499 541.56C231.299 536.55 233.309 528.14 234.909 524.14C236.509 520.13 233.899 521.73 233.309 523.13C232.699 524.54 230.699 530.14 230.099 534.34C229.499 538.55 228.499 544.75 230.099 553.77C231.709 562.78 232.509 565.58 232.899 567.18L237.709 565.38Z" fill="white"/>
<path d="M329.31 87.2201C332.02 87.5201 335.02 87.3201 335.72 85.4201C336.41 83.5201 335.81 82.3201 334.92 81.9201C334.01 81.5201 333.62 81.6201 334.01 79.8101C334.42 78.0101 335.72 78.2101 335.62 75.4101C335.51 72.6101 333.42 72.5101 331.51 73.1201C329.61 73.7101 328.91 74.6101 327.1 77.0201C325.31 79.4201 326.1 75.4201 326.4 74.7101C326.68 74.0601 327.4 69.4501 324.93 68.6201C323.54 69.3201 322.16 70.0101 320.84 70.6901C320.41 71.5701 320.07 72.6001 319.68 73.6101C318.68 76.2101 317.46 74.2601 316.57 73.0101C316.57 73.0101 316.56 73.0001 316.55 73.0001C313.88 74.4801 311.55 75.8601 309.77 77.0201C309.58 77.1501 309.36 77.2901 309.17 77.4201C309.41 79.0001 311.31 81.0001 312.37 81.7301C313.67 82.6301 312.86 84.3301 311.27 84.3301C309.66 84.3301 307.67 83.2401 305.66 85.6301C303.65 88.0401 304.96 90.3401 306.86 90.3401C308.76 90.3401 310.36 91.0401 311.07 93.2401C311.77 95.4401 312.37 96.3501 314.97 96.6401C317.57 96.9401 319.07 94.9401 319.77 93.7401C320.47 92.5401 321.38 90.8401 322.47 91.2401C324.11 91.8301 323.9 93.5501 323.41 95.3801C325.29 94.2701 327.21 93.2301 329.26 92.2401C328.93 90.5401 327.92 88.9801 327.18 88.2401C326.31 87.3201 326.61 86.9201 329.31 87.2201Z" fill="#008348"/>
<path d="M351.64 58.1899C350.71 58.4099 349.73 58.6699 348.74 58.9499C349.22 61.2399 350.14 64.1799 349.63 64.5999C349.03 65.0999 346.73 65.4999 344.92 65.9999C343.12 66.5099 338.81 70.5099 341.02 73.4099C343.22 76.3199 343.92 78.0199 344.33 79.5199C344.73 81.0199 348.33 82.8199 350.83 79.8199C353.34 76.8199 355.24 73.5199 355.84 75.6199C356.35 77.3899 356.21 81.6599 355.86 83.9499C356.38 83.8499 356.91 83.7399 357.44 83.6299C358.45 72.4099 355.65 64.3899 351.64 58.1899Z" fill="#008348"/>
<path d="M296.68 111.95C295.28 110.85 294.88 109.15 296.58 108.65C298.29 108.15 300.59 107.74 304.79 105.95C308.99 104.14 306.79 101.04 304.9 100.24C302.99 99.4399 302.79 97.6399 302.99 95.7299C303.19 93.8299 302.69 91.0299 298.98 92.4299C295.28 93.8299 296.57 97.4399 295.48 98.6399C294.38 99.8399 293.78 99.4399 293.98 97.6399C294.18 95.8399 292.58 94.6299 291.68 94.2299C290.97 93.9199 289.44 93.5599 288.13 93.4499C284.3 96.9099 280.79 100.53 278.14 104.12C278.74 105.35 280.13 106.73 280.87 106.95C281.88 107.25 283.38 107.96 283.27 109.96C283.19 111.65 279.38 111.77 276.87 111.83C278.64 116.62 280.44 120.01 282.95 122.73C283.51 122.56 284.26 122.31 285.28 121.88C288.38 120.58 289.38 115.87 289.89 114.47C290.39 113.07 291.69 113.37 292.59 115.17C293.22 116.43 293.45 117.6 293.54 118.73C295.31 116.96 297.02 115.31 298.7 113.76C298.18 113.24 297.55 112.64 296.68 111.95Z" fill="#008348"/>
<path d="M349.84 231.59C350.44 231.49 348.83 224.39 350.14 224.08C351.44 223.78 352.04 227.99 354.84 227.48C357.64 226.98 358.34 224.18 357.94 221.07C357.54 217.97 359.34 219.67 360.75 217.47C362.14 215.27 359.14 212.27 355.74 214.36C352.34 216.46 352.94 213.66 354.74 212.56C356.55 211.45 355.24 207.45 351.43 208.75C348.68 209.7 347.29 207.91 345.97 207.16C344.95 207.55 343.95 207.98 342.94 208.43C342.72 209.21 342.89 210.15 343.12 211.16C343.41 212.44 344.02 215.77 341.92 214.36C340.09 213.14 337.61 212.46 336.91 214.76C336.21 217.06 337.61 217.26 337.4 218.66C337.2 220.06 333.6 220.36 335.3 223.27C337 226.17 339.51 224.57 341.22 223.47C342.92 222.37 344.52 223.67 343.92 225.17C343.45 226.34 342.5 230.28 342.44 232.88C343.24 233.4 344.08 233.97 344.95 234.6C345.97 233.6 347.85 231.93 349.84 231.59Z" fill="#008348"/>
<path d="M295.28 224.68C296.77 224.28 299.68 227.38 302.29 225.58C304.9 223.78 301.19 221.98 301.69 220.47C302.19 218.97 303.39 216.07 301.59 214.67C299.79 213.27 297.88 214.57 295.99 216.68C294.08 218.78 294.78 214.77 295.78 213.07C297.08 210.87 295.78 209.36 293.58 208.96C291.37 208.56 290.68 211.67 289.17 210.26C286.78 208.04 283.06 208.96 283.97 212.07C284.87 215.18 285.87 216.17 283.97 216.57C282.07 216.97 280.26 211.96 278.06 215.97C275.86 219.97 279.36 221.17 279.06 224.18C278.76 227.19 279.96 230.39 281.76 230.68C283.56 230.98 285.46 228.98 286.46 227.78C287.47 226.58 289.87 225.68 289.57 227.98C289.36 229.57 289.25 232.87 289.2 234.77C292.89 232.98 296.83 231.1 298.98 230.38C299.07 230.35 299.16 230.31 299.25 230.28C298.24 229.88 296.82 229.21 295.48 228.28C293.48 226.89 293.78 225.09 295.28 224.68Z" fill="#008348"/>
<path d="M250.92 315.89C255.52 314.49 255.73 318.09 255.12 321.09C254.52 324.09 254.52 330.5 254.72 333.7L262.32 334.1C261.92 332.09 262.32 326.29 262.53 322.89C262.72 319.48 266.13 314.28 267.33 319.48C268.53 324.69 273.73 324.89 277.34 322.69C280.94 320.48 283.55 315.68 287.35 308.87C291.16 302.06 286.15 300.26 283.15 300.66C280.15 301.06 277.14 301.46 283.95 295.86C290.28 290.64 279.63 288.02 274.73 287.04C266.66 295.52 256.74 305.11 247.91 312.67C246.78 313.64 245.73 314.56 244.72 315.46C245.79 316.08 247.87 316.82 250.92 315.89Z" fill="#008348"/>
<path d="M242.91 366.35C246.72 365.14 249.12 373.35 254.72 368.55C260.33 363.74 256.32 359.74 256.12 355.74C255.92 351.73 260.52 350.13 259.13 345.13C256.99 337.5 249.91 344.73 245.51 348.93C241.11 353.14 240.91 349.73 245.32 342.93C249.72 336.12 242.51 333.91 238.11 335.72C234.19 337.32 230.6 335.76 228.3 333.7C226.61 336.4 225.36 338.91 224.09 341.52C220.29 349.33 222.89 349.52 225.7 349.52C228.5 349.52 234.51 361.34 235.31 363.54C235.59 364.32 237.65 367.33 240.37 371.17C240.2 369.27 240.57 367.09 242.91 366.35Z" fill="#008348"/>
<path d="M352.44 287.45C348.83 286.65 344.16 286.05 343.63 293.46C343.43 296.26 346.23 298.47 348.83 299.47C351.44 300.47 351.03 302.27 348.23 301.26C345.43 300.26 343.23 299.66 341.23 305.47C339.22 311.28 342.83 312.08 344.63 312.48C346.43 312.88 347.83 313.28 347.43 315.69C347.03 318.09 345.83 325.1 350.43 325.7C355.04 326.3 359.04 320.7 360.45 317.89C361.86 315.09 363.44 312.28 363.85 315.49C364.25 318.69 363.65 320.29 362.05 323.9C360.45 327.51 360.45 329.11 362.85 328.91C365.25 328.7 369.26 328.91 370.46 326.1C371.66 323.3 373.47 317.9 373.66 314.09C373.78 311.71 375.87 311.45 377.41 311.58C377.88 307.51 378.48 303.54 379.06 300.07C371.2 301.25 364.51 291.65 362.19 283.34C359.53 286.25 355.6 288.16 352.44 287.45Z" fill="#008348"/>
<path d="M315 286.06C313.59 288.46 309.59 295.27 311.39 297.48C313.2 299.68 315.2 295.28 316.8 296.88C318.4 298.49 322.01 300.28 322.01 299.08C322.01 297.88 322.41 295.47 323.01 292.27C323.61 289.07 325.01 287.26 326.41 289.87C327.81 292.47 329.81 294.68 334.81 293.48C339.82 292.28 339.22 287.07 338.22 283.27C337.21 279.47 340.82 277.66 342.62 276.66C344.43 275.66 349.03 272.05 345.63 268.85C342.22 265.65 339.22 270.25 336.22 270.85C333.21 271.46 334.42 268.85 340.62 264.04C345.98 259.9 341.49 255.74 338.23 254.31C329.61 262.99 314.34 277.06 310.98 280.26C309.78 281.41 308.74 282.76 307.77 284.38C315.85 280.62 316.33 283.78 315 286.06Z" fill="#008348"/>
<path d="M364.66 366.55C367.26 368.95 373.47 372.36 377.87 368.35C382.28 364.35 376.87 359.94 376.27 356.74C375.66 353.53 379.47 351.53 377.47 346.33C373.99 337.27 368.86 348.13 365.85 351.13C362.85 354.13 363.35 349.04 366.05 346.33C367.46 344.92 373.66 341.12 370.05 336.92C366.45 332.71 361.24 335.11 358.64 336.92C356.03 338.72 354.03 340.93 350.03 339.72C346.03 338.52 342.62 338.12 340.22 343.93C337.81 349.73 342.42 348.13 346.22 352.33C350.03 356.54 347.63 356.74 344.63 355.74C341.62 354.74 340.22 350.93 335.81 351.53C331.4 352.13 331.4 359.15 332.81 360.95C334.21 362.75 337.01 363.75 335.01 367.16C333.01 370.56 336.01 374.57 339.61 376.17C343.22 377.77 348.62 371.36 350.63 368.76C352.63 366.16 354.63 366.76 354.23 368.76C353.89 370.48 352.95 375.02 352.82 378.8C355.87 377.82 358.89 376.92 361.79 376.12C361.78 374.02 361.33 370.64 360.44 367.36C359.25 362.95 362.06 364.15 364.66 366.55Z" fill="#008348"/>
<path d="M312.599 387.98C307.789 389.38 306.989 387.17 303.789 385.98C300.589 384.78 300.379 387.58 302.589 390.98C304.799 394.39 307.199 397.59 304.589 397.59C301.989 397.59 299.979 397.99 299.579 400C299.179 402 294.979 399.6 293.979 395.39C292.979 391.18 291.979 383.18 289.769 387.18C287.569 391.18 285.559 397.79 279.959 394.79C274.349 391.79 278.159 387.78 275.349 384.97C272.549 382.17 269.949 378.56 272.749 373.56C275.549 368.55 277.959 372.76 280.559 372.76C283.159 372.76 283.569 370.35 281.159 368.55C278.749 366.75 275.749 358.14 286.759 358.74C290.999 358.97 295.569 357.54 299.169 354.94C302.769 352.33 312.189 353.73 308.389 360.35C304.579 366.96 305.789 368.36 307.989 365.95C310.199 363.54 312.999 359.15 317.199 360.35C321.409 361.55 319.599 364.75 316.999 368.36C314.399 371.97 315.999 374.37 317.999 375.77C319.999 377.16 323.689 384.74 312.599 387.98Z" fill="#008348"/>
<path d="M333.03 340.72C329.42 340.92 325.01 339.91 325.01 339.91C324.61 343.71 320.92 349.17 317.2 354.73C316.8 355.33 314.6 355.33 313.59 354.52C312.59 353.72 309.79 352.31 311.99 349.91C314.2 347.52 317.8 342.5 317.2 340.3C316.6 338.1 315 336.1 312.6 339.1C310.2 342.1 306.39 348.31 302.19 348.52C297.98 348.72 293.78 344.91 295.78 341.11C297.78 337.3 298.38 335.3 295.58 331.89C292.78 328.49 293.82 324.13 299.79 321.48C301.59 320.68 304.79 321.48 307 323.28C309.2 325.08 310.4 323.28 307.4 321.48C304.39 319.68 301.99 317.48 301.59 313.47C301.21 309.66 303.59 305.66 308.8 307.87C314 310.07 317.21 308.26 319.41 306.47C321.61 304.66 331 302.42 329.62 310.68C328.61 316.68 325.82 316.89 325.01 320.09C324.22 323.29 326.61 321.29 328.01 318.89C329.42 316.49 332.62 306.65 339.22 314.08C340.83 315.88 340.23 318.89 338.22 322.29C336.22 325.69 337.82 327.69 339.02 329.49C340.23 331.31 343.02 340.16 333.03 340.72Z" fill="#008348"/>
<path d="M498.199 181.47L504.319 177.14L517.559 196.82L525.369 191.29L511.719 172L517.649 167.81L532.169 188.17L539.989 182.63L518.429 152.41L482.939 177.54L502.509 205.37L510.319 199.83L498.199 181.47Z" fill="white"/>
<path d="M523.84 249.83L535.44 244.46L527.45 227.1L554.62 215.78L549.69 204.9L511.31 221.6L523.84 249.83Z" fill="white"/>
<path d="M530.75 268.19L531.96 278.89L557.72 275.86L558.73 287.03L570.26 286.18L567.05 248.73L555.51 249.59L556.51 265.16L530.75 268.19Z" fill="white"/>
<path d="M532.05 304.71L532.21 317.47L570.08 317.35L569.92 304.6L532.05 304.71Z" fill="white"/>
<path d="M549.84 335.5C543.49 334.28 535.98 335.33 530.71 339.32C525.99 342.91 523.79 346.51 522.54 353.04C521.75 357.18 522.39 362.62 523.76 367.38L533.77 364.03C532.8 361.72 532.4 358.22 533.45 354.67C535.48 347.82 541.03 344.74 547.82 345.74C555.02 346.8 559.13 353.41 557.84 361.27C557.33 364.4 555.77 367.12 552.2 369.25L558.4 376.72C563.45 373.63 567.27 367.54 568.09 363.26C569.48 356.06 567.76 351.09 564.42 345.23C561.17 339.55 555.66 336.62 549.84 335.5Z" fill="white"/>
<path d="M542.89 388.41C537.6 387.05 530.4 392.86 526.92 396.2C524.92 398.12 517.92 405.18 514.69 404.09C511.79 403.12 512.68 398.71 513.66 395.82C515.08 391.61 517.25 388.07 520.64 385.79L514.37 383.01C511.33 385.56 507.93 389.67 506.54 393.8C504.93 398.58 504.27 404.17 504.95 407.72C505.82 412.3 507.42 415.22 512.6 414.75C516.59 414.38 526.6 407.87 532.38 402.43C535.31 399.67 537.81 399.37 539.11 400.1C541.23 401.27 541.09 404.87 540.33 407.13C539.31 410.15 537.86 414.76 535.46 416.47L544.01 422.2C547.51 418.69 549.32 413.41 550.34 408.48C552.83 396.57 546.37 389.31 542.89 388.41Z" fill="white"/>
<path d="M495.33 137.04C494.59 131.18 491.35 124.43 488.05 121.57C482.95 117.15 476.93 115.96 470.51 116.79C464 117.64 457.95 121.82 454.53 126.68C450.81 131.96 448.67 139.24 450.15 145.68C451.47 151.46 453.85 154.95 459.3 158.78C462.75 161.21 467.96 162.86 472.87 163.56L473.93 153.06C471.43 153 468.07 151.92 465.28 149.51C459.87 144.84 459.61 137.46 463.05 132.74C467.33 126.85 474.79 125.58 481.43 130C484.07 131.76 485.12 134.59 485.59 138.73L495.33 137.04Z" fill="white"/>
<path d="M107.98 355.23C108.25 352.37 108.09 347.13 111.19 346.48C114.18 345.85 116.15 348.75 116.79 351.73C117.71 356.08 118.93 359.46 117.18 363.15L125.24 362.31C126.56 358.56 126.15 353.57 125.25 349.3C124.21 344.36 122.63 340.9 119 337.67C115.51 334.57 112.87 333.76 107.78 334.84C104.67 335.49 99.13 341.05 98.93 352.23C98.9 354.35 98.39 358.4 96.49 358.49C94.07 358.62 92.28 355.73 91.79 353.4C91.13 350.29 92.03 343.45 93.22 340.76L84.77 340.72C83.55 345.52 83.0801 352.24 84.1201 357.17C86.4201 368.05 93.01 371.6 98.36 371.01C104.08 370.38 107.08 364.4 107.98 355.23Z" fill="white"/>
<path d="M91.0898 309.35L120.99 308.98L120.85 299.59L90.9498 299.96L90.8298 287.22L81.2598 287.32L81.6398 323.01L91.2098 322.9L91.0898 309.35Z" fill="white"/>
<path d="M145.09 215.5L122.01 202.18L122.07 202.07L152.64 201.56L159.94 190.3L122.27 168.58L116.57 177.44L142.28 193.58L107.22 194.57L102.33 204.03L139.4 225.55L145.09 215.5Z" fill="white"/>
<path d="M107.71 272.54C120.49 272.54 130.85 262.18 130.85 249.39C130.85 236.61 120.49 226.25 107.71 226.25C94.9196 226.25 84.5596 236.62 84.5596 249.39C84.5596 262.18 94.9196 272.54 107.71 272.54ZM107.71 237.35C114.36 237.35 119.76 242.74 119.76 249.4C119.76 256.06 114.36 261.46 107.71 261.46C101.05 261.46 95.6496 256.06 95.6496 249.4C95.6496 242.74 101.05 237.35 107.71 237.35Z" fill="white"/>
<path d="M145.769 401.67C145.769 388.88 135.409 378.53 122.629 378.53C109.839 378.53 99.4795 388.89 99.4795 401.67C99.4795 414.45 109.839 424.82 122.629 424.82C135.409 424.82 145.769 414.46 145.769 401.67ZM122.619 413.74C115.959 413.74 110.559 408.34 110.559 401.68C110.559 395.02 115.959 389.63 122.619 389.63C129.269 389.63 134.669 395.02 134.669 401.68C134.669 408.33 129.279 413.74 122.619 413.74Z" fill="white"/>
<path d="M150.47 428.11C146.92 431.26 145.2 438.74 148.55 443.81C144.9 442.03 137.54 441.42 134.16 444.35C125.83 451.59 135.93 462.04 144.23 470.33L155.79 481.75L186.53 456.33L174.08 441.86C169.72 436.37 157.65 421.75 150.47 428.11ZM151.87 468.48C148.82 464.81 139.7 457.65 143.6 453.98C147.31 450.49 156.45 461.64 157.58 463L151.87 468.48ZM166.09 455.64L165.29 454.68C162.74 451.62 154.11 442.49 157.68 439.14C160.93 436.08 169.13 446.49 171.44 449.27L172.44 450.48L166.09 455.64Z" fill="white"/>
<path d="M287.27 547.76C288.57 547.16 290.37 546.36 291.18 546.96C291.98 547.56 296.78 550.96 299.79 553.57C302.79 556.17 303.79 556.97 301.39 558.37C298.98 559.77 296.78 561.17 297.19 559.97C297.59 558.78 298.19 556.97 296.58 555.37C294.98 553.77 291.05 550.73 289.37 549.36C288.27 548.46 287.27 547.76 287.27 547.76Z" fill="#BB9753"/>
<path d="M275.95 551.07C274.95 551.97 274.75 553.47 275.95 554.67C277.15 555.87 283.86 561.48 284.96 562.58C286.06 563.68 287.67 564.08 289.46 563.68C291.27 563.27 287.36 565.88 285.85 566.18C284.36 566.47 282.65 566.47 281.05 564.97C279.44 563.47 270.44 554.96 268.63 553.26C266.83 551.56 269.13 551.56 270.73 551.36C272.35 551.17 273.75 551.27 275.95 551.07Z" fill="#BB9753"/>
<path d="M319.71 73.61C320.09 72.64 320.41 71.57 320.82 70.71C319.34 71.48 317.95 72.24 316.62 72.97C317.5 74.21 318.71 76.19 319.71 73.61Z" fill="#BB9753"/>
<path d="M355.85 75.6099C355.25 73.5099 353.34 76.8199 350.84 79.8099C348.34 82.8199 344.74 81.0199 344.34 79.5099C343.94 78.0099 343.24 76.3099 341.03 73.3999C338.83 70.4999 343.14 66.4999 344.93 65.9899C346.73 65.4899 349.04 65.0899 349.64 64.5899C350.15 64.1599 349.24 61.2099 348.76 58.9399C341.56 60.9899 332.78 64.7499 325.03 68.5699C327.39 69.4699 326.7 74.0499 326.41 74.6999C326.11 75.3999 325.31 79.4099 327.11 77.0099C328.92 74.5999 329.62 73.7099 331.52 73.1099C333.43 72.4999 335.52 72.5999 335.63 75.3999C335.73 78.2099 334.43 77.9999 334.02 79.7999C333.62 81.5999 334.02 81.5099 334.93 81.9099C335.83 82.3099 336.43 83.5199 335.73 85.4099C335.03 87.3099 332.02 87.5099 329.32 87.2099C326.61 86.9099 326.32 87.3099 327.22 88.2099C327.95 88.9399 328.94 90.5399 329.29 92.2199C335.81 89.0699 343.69 86.4299 355.89 83.9199C356.22 81.6299 356.34 77.3499 355.85 75.6099Z" fill="#BB9753"/>
<path d="M292.58 115.16C291.68 113.36 290.37 113.05 289.88 114.46C289.37 115.86 288.37 120.57 285.27 121.87C284.27 122.29 283.48 122.54 282.92 122.7C283.99 123.86 285.19 124.9 286.57 125.87C289.02 123.29 291.32 120.92 293.52 118.73C293.42 117.61 293.19 116.39 292.58 115.16Z" fill="#BB9753"/>
<path d="M322.499 91.2301C321.409 90.8301 320.499 92.5301 319.799 93.7301C319.099 94.9301 317.599 96.9401 314.999 96.6301C312.389 96.3301 311.789 95.4301 311.099 93.2301C310.399 91.0301 308.789 90.3301 306.889 90.3301C304.979 90.3301 303.679 88.0301 305.689 85.6201C307.699 83.2201 309.689 84.3201 311.299 84.3201C312.889 84.3201 313.699 82.6201 312.399 81.7201C311.359 81.0101 309.549 78.9601 309.229 77.3901C303.519 81.1501 295.329 86.9601 288.189 93.3901C289.479 93.5001 290.989 93.9301 291.669 94.2301C292.569 94.6301 294.169 95.8301 293.969 97.6401C293.769 99.4401 294.369 99.8401 295.469 98.6401C296.569 97.4401 295.269 93.8301 298.969 92.4301C302.679 91.0301 303.179 93.8301 302.979 95.7301C302.769 97.6401 302.979 99.4401 304.889 100.24C306.779 101.04 308.979 104.14 304.779 105.95C300.579 107.75 298.269 108.15 296.569 108.65C294.869 109.15 295.279 110.85 296.669 111.95C297.529 112.62 298.139 113.28 298.639 113.78C303.939 108.86 308.939 104.85 314.599 101.04C317.689 98.9601 320.519 97.0901 323.459 95.3601C323.939 93.5601 324.119 91.8101 322.499 91.2301Z" fill="#BB9753"/>
<path d="M283.26 109.95C283.37 107.95 281.87 107.25 280.86 106.94C280.13 106.72 278.75 105.3 278.15 104.08C277.16 105.41 276.28 106.74 275.55 108.04C275.99 109.39 276.42 110.64 276.85 111.81C279.36 111.76 283.18 111.63 283.26 109.95Z" fill="#BB9753"/>
<path d="M367.86 203.36C361.31 202.94 353.5 204.27 346.05 207.15C347.35 207.93 348.74 209.69 351.44 208.77C355.24 207.47 356.55 211.47 354.75 212.58C352.94 213.68 352.34 216.48 355.75 214.38C359.15 212.28 362.15 215.28 360.76 217.49C359.35 219.69 357.55 217.99 357.95 221.09C358.35 224.2 357.65 227 354.85 227.5C352.04 228 351.45 223.8 350.15 224.1C348.84 224.4 350.45 231.51 349.85 231.61C347.89 231.94 346.02 233.64 345.02 234.66C345.1 234.71 345.17 234.76 345.24 234.82C356.27 242.73 359.06 238.43 360.66 234.62C362.26 230.82 365.82 219.54 366.87 213.6C367.46 210.17 368.26 206.56 367.86 203.36Z" fill="#BB9753"/>
<path d="M343.93 225.18C344.53 223.68 342.93 222.38 341.23 223.48C339.52 224.58 337.01 226.18 335.31 223.28C333.61 220.37 337.21 220.07 337.41 218.67C337.61 217.27 336.21 217.07 336.92 214.77C337.62 212.47 340.1 213.15 341.93 214.37C344.03 215.77 343.42 212.45 343.13 211.17C342.91 210.19 342.75 209.21 342.93 208.45C340.77 209.43 338.64 210.53 336.61 211.77C326.32 218.07 326 223.39 328.4 225.39C330.56 227.18 334.96 228.02 342.44 232.9C342.53 230.3 343.47 226.34 343.93 225.18Z" fill="#BB9753"/>
<path d="M311.2 219.17C306.94 217.05 302.78 212.37 299.98 206.96C299.98 206.96 300.18 206.17 298.98 206.17C297.78 206.17 293.37 205.76 285.96 203.16C278.55 200.56 277.55 202.16 276.55 205.36C275.55 208.56 274.74 214.37 274.54 223.98C274.34 233.59 278.55 239.6 281.15 238.59C282.41 238.1 285.69 236.47 289.19 234.77C289.24 232.86 289.35 229.55 289.55 227.98C289.85 225.68 287.45 226.58 286.44 227.78C285.44 228.98 283.54 230.98 281.74 230.68C279.94 230.38 278.73 227.18 279.04 224.18C279.34 221.17 275.83 219.97 278.04 215.97C280.24 211.96 282.05 216.97 283.95 216.57C285.85 216.17 284.85 215.17 283.95 212.07C283.05 208.96 286.77 208.04 289.15 210.26C290.65 211.66 291.35 208.56 293.56 208.96C295.76 209.36 297.06 210.87 295.76 213.07C294.76 214.77 294.06 218.78 295.97 216.68C297.86 214.57 299.77 213.27 301.57 214.67C303.37 216.07 302.17 218.97 301.67 220.47C301.17 221.97 304.88 223.78 302.27 225.58C299.67 227.38 296.76 224.28 295.26 224.68C293.76 225.08 293.46 226.88 295.46 228.28C296.77 229.2 298.14 229.91 299.15 230.32C303.32 228.9 308.2 226.17 309.79 225.18L312.39 225.38C312.6 221.98 312.4 219.78 311.2 219.17Z" fill="#BB9753"/>
<path d="M296.38 263.23C294.78 259.62 294.22 262.39 289.77 269.44C287.52 273.01 281.84 279.6 274.73 287.07C279.66 288.07 290.28 290.67 283.97 295.88C277.16 301.48 280.16 301.08 283.17 300.68C286.18 300.28 291.18 302.08 287.37 308.89C283.57 315.7 280.96 320.5 277.36 322.71C273.75 324.91 268.55 324.71 267.35 319.5C266.15 314.29 262.74 319.5 262.55 322.91C262.34 326.31 261.94 332.12 262.34 334.12L254.74 333.72C254.54 330.52 254.54 324.11 255.14 321.11C255.75 318.11 255.54 314.5 250.94 315.91C247.93 316.83 245.87 316.05 244.8 315.44C235.85 323.4 231.33 328.9 228.29 333.76C230.59 335.79 234.23 337.33 238.12 335.74C242.52 333.93 249.73 336.14 245.33 342.95C240.92 349.75 241.12 353.16 245.52 348.95C249.93 344.75 257 337.52 259.14 345.15C260.54 350.16 255.93 351.75 256.13 355.76C256.33 359.76 260.33 363.77 254.73 368.57C249.12 373.37 246.72 365.16 242.92 366.37C240.63 367.1 240.16 369.21 240.29 371.08C245.27 378.13 252.53 388.1 255.13 392.39C259.14 399 259.14 407.02 260.74 405.81C262.34 404.6 266.15 401 267.35 400C268.55 399 269.75 397.79 269.15 395.59C268.55 393.39 266.25 381.58 266.95 373.36C267.75 363.95 272.16 353.64 275.36 347.73C278.44 342.05 287.77 323.9 289.98 319.09C292.19 314.28 296.19 308.68 297.19 304.27C298.19 299.86 301.99 289.65 303.6 284.85C303.19 280.85 300.6 272.74 296.38 263.23Z" fill="#BB9753"/>
<path d="M326.41 218.57C325.21 221.78 323.61 225.78 322.81 227.78C322.01 229.78 318.32 229.01 318.6 227.58C319.2 224.58 314.92 226.57 315.4 224.18C315.8 222.18 315 218.97 317.2 218.97C319.41 218.97 323.61 218.57 326.41 218.57Z" fill="#BB9753"/>
<path d="M319.71 73.61C320.09 72.64 320.41 71.57 320.82 70.71C319.34 71.48 317.95 72.24 316.62 72.97C317.5 74.21 318.71 76.19 319.71 73.61Z" fill="#BB9753"/>
<path d="M383.68 352.13C378.48 343.53 377.47 340.12 376.67 331.31C376.17 325.75 376.62 318.52 377.42 311.58C375.88 311.46 373.79 311.75 373.67 314.09C373.47 317.9 371.66 323.3 370.47 326.1C369.27 328.91 365.26 328.71 362.86 328.91C360.46 329.11 360.46 327.5 362.06 323.9C363.66 320.3 364.26 318.7 363.86 315.49C363.45 312.28 361.86 315.09 360.46 317.89C359.06 320.69 355.05 326.3 350.44 325.7C345.84 325.1 347.04 318.09 347.44 315.69C347.84 313.28 346.44 312.88 344.64 312.48C342.83 312.08 339.23 311.28 341.24 305.47C343.24 299.66 345.44 300.26 348.24 301.26C351.04 302.26 351.45 300.46 348.84 299.47C346.24 298.47 343.44 296.26 343.64 293.46C344.17 286.05 348.84 286.65 352.45 287.45C355.59 288.14 359.54 286.26 362.22 283.39C362.17 283.21 362.1 283.03 362.06 282.84C356.72 262.46 366.86 237.39 369.66 230.38C372.46 223.37 383.28 203.65 386.98 197.74C384.98 196.74 379.67 194.04 376.76 192.53C373.86 191.03 372.26 190.33 371.46 191.43C370.66 192.53 369.65 193.13 368.26 195.13C365.45 199.14 367.86 198.53 368.66 198.53C369.46 198.53 372.86 202.94 373.47 203.94C374.07 204.94 373.47 205.74 372.06 208.94C370.22 213.13 369.06 222.76 367.46 228.57C362.61 246.15 355.04 244.39 351.64 242.19C348.23 239.98 347.24 243.39 343.83 248.19C343.02 249.33 340.98 251.52 338.29 254.22C341.55 255.68 345.97 259.88 340.63 264C334.42 268.81 333.22 271.41 336.23 270.81C339.23 270.21 342.23 265.61 345.64 268.81C349.04 272.02 344.44 275.62 342.63 276.62C340.83 277.62 337.22 279.42 338.23 283.23C339.23 287.03 339.83 292.24 334.82 293.44C329.82 294.64 327.82 292.44 326.42 289.83C325.02 287.23 323.62 289.03 323.02 292.23C322.42 295.43 322.02 297.84 322.02 299.04C322.02 300.24 318.42 298.45 316.81 296.84C315.21 295.24 313.21 299.64 311.4 297.44C309.6 295.24 313.6 288.42 315.01 286.02C316.33 283.75 315.78 280.61 307.82 284.3C305.24 288.61 303.2 294.87 299.99 304.64C295.59 318.06 285.61 336.34 281.47 342.99C270.68 360.33 268.76 376.73 270.36 386.94C271.95 397.1 273.36 396.35 275.56 396.35C277.76 396.35 283.17 403.16 286.77 407.37C290.37 411.57 291.78 409.77 293.58 408.36C299.37 403.86 311 396.35 327.42 388.54C334.42 385.21 343.75 381.67 352.85 378.75C352.99 374.98 353.91 370.43 354.25 368.71C354.65 366.71 352.65 366.11 350.65 368.71C348.64 371.31 343.24 377.72 339.63 376.12C336.03 374.52 333.03 370.51 335.03 367.11C337.03 363.71 334.23 362.7 332.83 360.9C331.42 359.1 331.42 352.08 335.83 351.48C340.24 350.88 341.64 354.69 344.65 355.69C347.65 356.69 350.05 356.49 346.24 352.28C342.44 348.08 337.84 349.68 340.24 343.88C342.64 338.07 346.05 338.47 350.05 339.67C354.05 340.88 356.05 338.67 358.66 336.87C361.26 335.06 366.47 332.66 370.07 336.87C373.68 341.08 367.47 344.88 366.07 346.28C363.36 348.99 362.87 354.08 365.87 351.08C368.88 348.08 374.01 337.22 377.49 346.28C379.5 351.48 375.68 353.48 376.29 356.69C376.89 359.89 382.3 364.3 377.89 368.3C373.49 372.31 367.28 368.91 364.68 366.5C362.08 364.1 359.27 362.89 360.48 367.3C361.36 370.54 361.81 373.96 361.82 376.06C370.58 373.64 378.21 372.16 382.1 372.51C387.82 373.02 392.11 374.71 391.92 369.51C391.69 364.35 388.89 360.74 383.68 352.13ZM312.6 387.98C307.79 389.38 306.99 387.17 303.79 385.98C300.59 384.78 300.38 387.58 302.59 390.98C304.8 394.39 307.2 397.59 304.59 397.59C301.99 397.59 299.98 397.99 299.58 400C299.18 402 294.98 399.6 293.98 395.39C292.98 391.18 291.98 383.18 289.77 387.18C287.57 391.18 285.56 397.79 279.96 394.79C274.35 391.79 278.16 387.78 275.35 384.97C272.55 382.17 269.95 378.56 272.75 373.56C275.55 368.55 277.96 372.76 280.56 372.76C283.16 372.76 283.57 370.35 281.16 368.55C278.75 366.75 275.75 358.14 286.76 358.74C291 358.97 295.57 357.54 299.17 354.94C302.77 352.33 312.19 353.73 308.39 360.35C304.58 366.96 305.79 368.36 307.99 365.95C310.2 363.54 313 359.15 317.2 360.35C321.41 361.55 319.6 364.75 317 368.36C314.4 371.97 316 374.37 318 375.77C320 377.16 323.69 384.74 312.6 387.98ZM333.03 340.72C329.42 340.92 325.01 339.91 325.01 339.91C324.61 343.71 320.92 349.17 317.2 354.73C316.8 355.33 314.6 355.33 313.59 354.52C312.59 353.72 309.79 352.31 311.99 349.91C314.2 347.52 317.8 342.5 317.2 340.3C316.6 338.1 315 336.1 312.6 339.1C310.2 342.1 306.39 348.31 302.19 348.52C297.98 348.72 293.78 344.91 295.78 341.11C297.78 337.3 298.38 335.3 295.58 331.89C292.78 328.49 293.82 324.13 299.79 321.48C301.59 320.68 304.79 321.48 307 323.28C309.2 325.08 310.4 323.28 307.4 321.48C304.39 319.68 301.99 317.48 301.59 313.47C301.21 309.66 303.59 305.66 308.8 307.87C314 310.07 317.21 308.26 319.41 306.47C321.61 304.66 331 302.42 329.62 310.68C328.61 316.68 325.82 316.89 325.01 320.09C324.22 323.29 326.61 321.29 328.01 318.89C329.42 316.49 332.62 306.65 339.22 314.08C340.83 315.88 340.23 318.89 338.22 322.29C336.22 325.69 337.82 327.69 339.02 329.49C340.23 331.31 343.02 340.16 333.03 340.72Z" fill="#BB9753"/>
<path d="M265.02 511.91C264.14 511.91 262.23 511.6 262.23 510.78L259.92 510.53C261.32 510.81 262.59 512.41 261.12 513.42C259.52 514.53 254.41 515.14 249.02 514.83C243.62 514.53 242.3 511.6 242.21 509.48C242.14 508.07 242.3 506.85 242.3 504.82C242.3 502.81 241.81 500.98 243.01 500.17C244.2 499.37 243.91 501.37 244.7 501.37C248.12 501.37 259.92 502.49 262.74 502.9C265.56 503.29 265.35 501.62 264.73 499.74C264.54 499.13 263.74 499.36 263.45 500.16C263.14 500.97 260.54 500.67 260.54 500.67C260.54 500.67 255.33 500.16 251.94 499.95C248.52 499.74 245.9 499.36 243.82 498.95C241.71 498.53 239.09 498.64 239.31 499.65C239.48 500.66 240.1 513.31 240.21 515.14C240.3 516.96 240.41 517.68 241.3 517.68C243.61 517.68 259.15 517.88 262.73 517.88C266.34 517.88 266.15 517.46 266.23 515.45C266.34 513.42 265.95 511.91 265.02 511.91Z" fill="#BB9753"/>
</svg>
