<svg width="648" height="648" viewBox="0 0 648 648" fill="none" xmlns="http://www.w3.org/2000/svg">
<path d="M170.15 298.88H127.81V344.83L102.35 357.29L127.81 370.58V411.42L155.92 428.63C166.28 427.26 179.49 425.68 194.8 424.11L303.47 486.75L323.29 577.87C323.42 577.66 343.3 486.75 343.3 486.75L451.79 424.11C467.1 425.68 480.32 427.26 490.66 428.63L518.75 411.42V370.58L544.26 357.57L518.75 344.82V298.87H476.45C476.45 298.87 483 292.54 491.3 278.25C494.77 272.28 498.05 264.83 502.07 256.01C532.91 246.61 555.68 226.93 565.43 207.72C591.85 159.35 611.74 100.21 611.74 100.21C611.74 100.21 600.33 105.69 586.56 112.48C597.73 78.4002 604.44 49.4702 604.44 49.4702C604.44 49.4702 482.58 130.1 387.66 205.83L379.44 200.9C379.47 200.12 379.69 193.19 379.69 192.62C379.69 192.62 380.62 184.57 366.45 179.76C365.58 179.47 364.75 179.19 363.93 178.92C370.81 173.76 381.48 165.88 389.27 160.54C401.7 152.02 400.23 142.64 400.23 142.64L355.2 176.16C320.4 164.87 291.4 176.16 291.4 176.16L246.38 142.64C246.38 142.64 244.91 152.02 257.32 160.54C265.12 165.88 275.79 173.76 282.68 178.92C281.86 179.19 281.02 179.47 280.16 179.76C265.98 184.57 266.92 192.62 266.92 192.62C266.92 193.19 267.13 200.12 267.17 200.9L258.94 205.83C164.03 130.13 42.1896 49.4902 42.1896 49.4902C42.1896 49.4902 48.8696 78.4202 60.0496 112.5C45.3196 105.22 34.8696 100.23 34.8696 100.23C34.8696 100.23 54.7596 159.38 81.1896 207.74C90.9296 226.95 113.69 246.64 144.54 256.03C144.54 256.03 149.76 267.97 154.25 276.55C159.81 287.16 170.15 298.88 170.15 298.88Z" fill="#1D1160"/>
<path d="M374.41 230.01C374 231.35 373.54 232.64 373.09 233.92C415.75 206.05 490.3 157.41 573.83 103.15C573.83 103.15 573.93 104.97 581.33 83.5C493.07 136.8 414.93 197.21 374.41 230.01Z" fill="#00788C"/>
<path d="M272.2 230.02C231.69 197.21 153.54 136.8 65.2998 83.5C72.6898 104.98 72.7798 103.15 72.7798 103.15C156.31 157.4 230.85 206.04 273.53 233.91C273.07 232.64 272.61 231.35 272.2 230.02Z" fill="#00788C"/>
<path d="M323.27 273.1C315.97 270.31 297.59 261.13 286.56 237.15C295.59 244.94 307.17 247.43 316.42 238.47C305.12 233.61 303.72 213.45 301.54 208.16C297.13 197.46 290.13 192.04 284.59 189.77C287.32 188.85 289.88 188.02 292.27 187.28C297.55 190.15 306.38 196.75 309.14 209.88C309.14 209.88 310.3 194.88 302.87 184.36C317.28 180.89 331.82 181.36 343.69 184.34C336.24 194.86 337.39 209.87 337.39 209.87C340.17 196.72 349.02 190.11 354.31 187.26C356.7 187.99 359.26 188.83 362.01 189.75C356.47 192.02 349.48 197.43 345.07 208.14C342.9 213.43 341.49 233.58 330.21 238.45C332.79 253.82 329.6 268.14 323.27 273.1ZM194.72 301.26C194.69 301.25 173.75 286.29 161.94 258.91L170.31 261.4C197.61 268.63 249.83 275.83 249.83 275.83C224.69 276.39 203.42 278.37 191.29 279.71C188.76 276.59 185.87 272.6 184.76 269.63C184.76 269.63 185.69 279.2 187.84 285.19C190.57 293.95 194.69 301.23 194.72 301.26Z" fill="#00788C"/>
<path d="M458.71 285.19C460.86 279.2 461.79 269.63 461.79 269.63C460.68 272.6 457.78 276.59 455.25 279.71C443.12 278.37 421.85 276.39 396.71 275.83C396.71 275.83 448.92 268.63 476.23 261.4L484.6 258.91C472.79 286.3 451.85 301.25 451.82 301.26C451.85 301.23 455.98 293.95 458.71 285.19Z" fill="#00788C"/>
<path d="M258.28 430.86L205.1 400.17C201.27 400.53 197.51 400.89 193.9 401.27L267.74 443.89C264.14 439.91 260.97 435.54 258.28 430.86Z" fill="#00788C"/>
<path d="M388.31 430.86L441.48 400.17C445.31 400.53 449.07 400.89 452.68 401.27L378.85 443.89C382.46 439.91 385.62 435.54 388.31 430.86Z" fill="#00788C"/>
<path d="M299.65 438.02C276.17 432.93 266.45 421.35 266.45 421.35C271.26 431.13 278.52 439.51 287.44 445.66C287.44 445.67 297.34 442.8 299.65 438.02Z" fill="#00788C"/>
<path d="M285.28 412.94C283.63 411.33 281.94 409.65 280.27 407.91C272.78 410.51 268.52 413.42 266.27 415.4C271.47 420.35 281.37 426.92 299.16 430.63C297 424.54 291.48 419.06 285.28 412.94Z" fill="#00788C"/>
<path d="M322.84 468.34C315.05 468.46 309.5 471.48 307.64 472.17C305.69 468.49 303.42 464.77 301.27 461.48C307.97 462.3 313.84 461.05 313.84 461.05C311.04 460.13 303.81 457.68 294.31 451.42C294.3 451.42 294.29 451.4 294.29 451.4C295.11 451.06 295.94 450.68 296.78 450.26C296.78 450.26 296.8 450.25 296.81 450.24C299.31 448.99 301.83 447.36 303.81 445.31C306.18 442.86 307.82 439.83 307.82 436.06C307.82 424.39 299.97 420.46 291.15 411.76C289.38 410.02 287.48 408.21 285.54 406.32C293.64 404.15 304.63 402.45 319.43 402.18L322.97 451.65H323.49L327.15 402.18C341.96 402.45 352.94 404.14 361.04 406.32C359.11 408.21 357.21 410.02 355.44 411.76C346.62 420.46 338.77 424.4 338.77 436.06C338.77 439.83 340.4 442.86 342.78 445.31C344.76 447.36 347.27 448.99 349.78 450.24C349.79 450.25 349.81 450.26 349.81 450.26C350.65 450.68 351.49 451.06 352.3 451.4C352.3 451.4 352.3 451.42 352.29 451.42C342.78 457.68 335.56 460.13 332.76 461.05C332.76 461.05 338.64 462.3 345.33 461.48C343.18 464.77 340.91 468.5 338.96 472.17C337.11 471.48 331.55 468.47 323.77 468.34H322.84V468.34Z" fill="#00788C"/>
<path d="M359.15 445.67C368.06 439.52 375.32 431.15 380.14 421.36C380.14 421.36 370.43 432.93 346.94 438.03C349.25 442.8 359.15 445.67 359.15 445.67Z" fill="#00788C"/>
<path d="M347.44 430.64C365.22 426.93 375.13 420.36 380.32 415.41C378.08 413.43 373.81 410.52 366.32 407.92C364.66 409.65 362.96 411.33 361.32 412.95C355.12 419.06 349.59 424.54 347.44 430.64Z" fill="#00788C"/>
<path d="M307.39 239.82C307.39 239.82 298.78 234.14 297.4 222.04C297.39 222.04 286.23 240.73 307.39 239.82Z" fill="white"/>
<path d="M339.84 239.82C339.84 239.82 348.45 234.14 349.83 222.04C349.82 222.04 360.99 240.73 339.84 239.82Z" fill="white"/>
<path d="M333.51 486.43C331.97 484.83 329.72 482.97 322.86 482.96C316.37 482.95 314.12 484.6 312.24 486.14L323.31 529.9L333.51 486.43Z" fill="white"/>
<path d="M406.69 294.18V310.2H401.3V294.18H396.85V289.6H411.14V294.18H406.69Z" fill="white"/>
<path d="M381.63 294.18V310.2H376.23V294.18H371.77V289.6H386.09V294.18H381.63Z" fill="white"/>
<path d="M305.91 302.91H307.84V291.82L305.59 289.61H291.97V310.21H297.04V302.91H300.85L303.79 310.21H308.82L305.91 302.91ZM302.79 298.27H297.04V294.19H302.79V298.27Z" fill="white"/>
<path d="M437.71 294.19V289.6H422.59V310.2H437.71V305.58H427.86V302.19H437.71V297.57H427.86V294.19H437.71Z" fill="white"/>
<path d="M326.08 305.58V289.61H320.79V310.2H333.68V305.58H326.08Z" fill="white"/>
<path d="M357.38 289.6H343.7V307.88L346 310.2H359.65V291.89L357.38 289.6ZM354.6 305.58H348.76V294.19H354.6V305.58Z" fill="white"/>
<path d="M279.81 310.2L279.79 291.9L277.51 289.6H263.55V310.2H268.73V303.5H274.59V310.2H279.81ZM268.73 298.87V294.19H274.59V298.87H268.73Z" fill="white"/>
<path d="M247.11 289.6V298.87H241.3V289.6H236.11V310.2H241.3V303.51H247.11V310.2H252.28V289.6H247.11Z" fill="white"/>
<path d="M556.26 143.37C566.28 119.82 573.82 103.15 573.82 103.15C490.3 157.4 415.75 206.05 373.08 233.92C371.45 238.45 369.6 242.58 367.56 246.37L535.82 154.71L404.48 249.56L410.54 248.47L479.94 241.77C479.94 241.77 526.84 237.23 552.94 202.15C565.22 183.31 586.13 128.24 586.13 128.24L556.26 143.37Z" fill="white"/>
<path d="M154.27 362.87L170.44 355.9V392.62C175.07 391.99 179.85 391.4 184.68 390.82V310.2C184.55 310.2 170.47 310.2 170.47 310.2C170.43 310.1 170.43 339.09 170.45 339.23L154.28 346.05L154.29 310.19H139.98V351.92C139.98 351.92 128.19 357.58 128.26 357.69L139.98 363.55V397.39C144.57 396.56 149.42 395.76 154.27 395V362.87V362.87Z" fill="white"/>
<path d="M265.23 362.63C268.79 362.53 272.26 362.42 275.82 362.35C278.44 369.18 281.14 376.91 283.77 383.76C288.48 383.62 293.23 383.51 298 383.42C295.39 376.55 292.73 368.85 290.11 362.06C291.91 362.03 293.73 361.99 295.55 361.97V329L289.24 322.79H245.56L250.96 329.22V385.16C255.68 384.9 260.42 384.66 265.23 384.45V362.63ZM265.22 335.85H281.34C281.34 339.81 281.31 344.9 281.31 348.49C275.92 348.57 270.61 348.66 265.23 348.75L265.22 335.85Z" fill="white"/>
<path d="M320.839 335.85H337.169V383.23C342.089 383.28 347.179 383.35 352.029 383.45V329.25L345.529 322.79H300.879L306.249 329.22V383.29C311.089 383.23 315.929 383.19 320.829 383.18C320.839 383.06 320.839 335.85 320.839 335.85Z" fill="white"/>
<path d="M405.359 371.88C396.129 371.39 387.039 370.98 377.809 370.66C377.779 367.28 377.769 363.9 377.769 360.54C387.019 360.8 396.129 361.12 405.359 361.51V347.28C396.109 347.03 386.969 346.83 377.739 346.66C377.729 343.92 377.729 339.3 377.729 335.85H405.359V322.78H357.439L362.749 329.18V383.73C377.339 384.15 391.599 384.79 405.359 385.65V371.88V371.88Z" fill="white"/>
<path d="M441.26 335.85H453.53C453.53 335.85 453.53 322.58 453.53 322.78C440.1 322.78 426.67 322.78 413.27 322.78V335.85H425.8V387.14C430.94 387.56 436.29 388 441.26 388.47V335.85V335.85Z" fill="white"/>
<path d="M240.409 329.22L233.959 322.78H190.129L195.319 329.02L195.329 382.25L200.999 389C213.559 387.73 226.839 386.65 240.399 385.78L240.409 329.22ZM226.089 372.58C220.609 372.92 215.229 373.27 209.759 373.67V335.85H226.099L226.089 372.58Z" fill="white"/>
<path d="M505.13 363.27C509.53 361.3 513.96 359.29 518.39 357.2C504.19 350.62 489.96 344.64 475.73 339.11L475.71 322.94H490.78V328.81H505.13V310.2H456.04L461.49 316.53V349.85L490.79 362.58V381.21C490.79 381.21 483.99 380.35 475.72 379.28V373.3L461.5 371.61V390.63C477.06 392.45 491.67 394.57 505.12 396.95C505.12 386.81 505.13 370.82 505.13 363.27Z" fill="white"/>
<path d="M219.35 303.81V305.58H214.74V294.19H219.35V295.88H224.53V289.6H209.67V307.89L211.98 310.2H224.53V303.81H219.35Z" fill="white"/>
<path d="M90.3497 143.37C80.3297 119.82 72.7897 103.15 72.7897 103.15C156.31 157.4 230.86 206.05 273.52 233.92C275.15 238.45 277.01 242.58 279.04 246.37L110.78 154.71L242.12 249.56L236.06 248.47L166.65 241.77C166.65 241.77 119.75 237.23 93.6497 202.15C81.3697 183.31 60.4497 128.24 60.4497 128.24L90.3497 143.37Z" fill="white"/>
<path d="M608.5 127.08C595.15 162.77 577.44 199.47 568.58 214.64C553.66 240.18 523.93 255.4 506.49 261.02C506.49 261.02 498.03 281.45 489.31 292.69H524.89V341.06L558.69 357.25L524.85 374.31L524.81 414.89L492 434.94C492 434.94 465.86 431.7 453.13 430.38L349.11 490.44C328.25 584.59 323.31 612 323.31 612C323.31 612 318.42 586.14 297.51 490.44L193.49 430.38C180.75 431.7 154.62 434.94 154.62 434.94L121.8 414.89L121.75 374.31L87.9199 357.25L121.72 341.06V292.7H157.31C148.74 281.98 140.12 261.03 140.12 261.03C129.65 257.6 119.77 252.86 110.86 247.17C96.8099 238.22 85.2899 226.93 78.0299 214.65C63.8599 189.68 47.1999 152.07 38.1099 127.09C32.0999 111.86 24.6099 88.6 24.6099 88.6C24.6099 88.6 43.9599 97.86 49.9199 100.77C40.6399 72.99 32.7999 36.01 32.7999 36.01V36C32.7999 36 166.01 123.57 259.44 198.47L260.92 197.57C260.87 196.01 260.84 194.43 260.84 192.81C260.8 191.88 260.87 190.03 261.64 187.76C262.73 184.67 265.15 180.82 270.56 177.51C263.7 172.47 251.34 163.93 250.25 162.73C241.21 154.88 239.69 146.05 240.38 141.7L241.93 131.74L292.62 169.49C320.18 161.6 339.66 165.5 354.02 169.49L404.7 131.74L406.24 141.7C406.92 146.05 405.4 154.88 396.37 162.73C395.32 163.85 382.91 172.47 376.06 177.51C381.47 180.82 383.9 184.68 384.97 187.76C385.76 190.02 385.82 191.88 385.77 192.81C385.77 194.43 385.75 196.01 385.69 197.57L387.18 198.47C482.83 121.85 613.81 36 613.81 36V36.01C613.81 36.01 607.29 66.45 596.7 100.76C601.73 98.31 622 88.59 622 88.59C616.25 107.07 608.5 127.08 608.5 127.08ZM170.15 298.88H127.81V344.83L102.35 357.29L127.81 370.58V411.42L155.92 428.63C166.28 427.26 179.49 425.68 194.8 424.11L303.47 486.75L323.29 577.87C323.42 577.66 343.3 486.75 343.3 486.75L451.79 424.11C467.1 425.68 480.32 427.26 490.66 428.63L518.75 411.42V370.58L544.26 357.57L518.75 344.82V298.87H476.45C476.45 298.87 483 292.54 491.3 278.25C494.77 272.28 498.05 264.83 502.07 256.01C532.91 246.61 555.68 226.93 565.43 207.72C591.85 159.35 611.74 100.21 611.74 100.21C611.74 100.21 600.33 105.69 586.56 112.48C597.73 78.4 604.44 49.47 604.44 49.47C604.44 49.47 482.58 130.1 387.66 205.83L379.44 200.9C379.47 200.12 379.69 193.19 379.69 192.62C379.69 192.62 380.62 184.57 366.45 179.76C365.58 179.47 364.75 179.19 363.93 178.92C370.81 173.76 381.48 165.88 389.27 160.54C401.7 152.02 400.23 142.64 400.23 142.64L355.2 176.16C320.4 164.87 291.4 176.16 291.4 176.16L246.38 142.64C246.38 142.64 244.91 152.02 257.32 160.54C265.12 165.88 275.79 173.76 282.68 178.92C281.86 179.19 281.02 179.47 280.16 179.76C265.98 184.57 266.92 192.62 266.92 192.62C266.92 193.19 267.13 200.12 267.17 200.9L258.94 205.83C164.03 130.13 42.1899 49.49 42.1899 49.49C42.1899 49.49 48.8699 78.42 60.0499 112.5C45.3199 105.22 34.8699 100.23 34.8699 100.23C34.8699 100.23 54.7599 159.38 81.1899 207.74C90.9299 226.95 113.69 246.64 144.54 256.03C144.54 256.03 149.76 267.97 154.25 276.55C159.81 287.16 170.15 298.88 170.15 298.88Z" fill="#A1A1A4"/>
</svg>
