<svg width="648" height="648" viewBox="0 0 648 648" fill="none" xmlns="http://www.w3.org/2000/svg">
<path d="M559.53 257.77C557.55 222.97 541.97 191.77 532.66 173.12L531.55 170.9L527.5 162.8L528.33 171.82C529.47 184.29 532.23 226.88 519.54 251.01C503.8 283.75 457.52 280.58 442.31 279.53L441.15 279.45C416.16 277.79 334.87 274.9 309.96 275.01C277.02 275.15 240.67 277.83 211.47 279.98C197.17 281.03 184.81 281.95 176.49 282.26C175.81 282.28 174.83 282.38 173.47 282.5C132.52 286.32 106.65 274.24 96.5799 246.61C90.3999 229.67 90.5499 196.16 90.6299 180.06L90.6399 175.25L90.6599 168.49C90.6599 168.5 87.4399 174.45 87.4399 174.45C79.7499 188.68 65.4299 215.17 60.6199 259.11C57.9199 310.91 84.8299 329.48 105.3 338.95C126.69 348.85 148.54 350.27 155.72 350.74L156.24 350.77L156.04 350.74C157.51 351.01 159.2 351.09 160.98 351.17C163.19 351.27 165.58 351.39 168.03 351.86C164.16 352.61 159.06 353.48 154.59 354.25C149.82 355.07 145.32 355.84 142.98 356.34C138.13 357.37 117.52 362.18 106.42 365.97C96.9799 369.19 86.8399 373.98 86.7299 374.03L84.8799 374.91L86.0699 376.57C86.2099 376.77 89.6299 381.48 93.1599 384.97C100.42 392.12 120.61 404.85 144.99 401.81C164.48 399.39 174.93 394.86 178.95 392.73C180.21 396.91 183.23 406.63 186.27 414.19C195.06 436.02 215.04 477.61 222.56 492.07C228.64 503.77 234.69 514.16 238.69 521.04L240.13 523.52C238.81 527.99 235.69 530.79 233.36 532.84C232.73 533.39 232.19 533.86 231.74 534.32L231.29 534.78L231.26 535.43C231.07 539.47 230.13 575.61 254.72 602.1L254.99 602.38L255.36 602.52C267.61 607.21 283.6 612.02 309.35 612.02C335.62 612.02 357.73 605.79 365.48 601.87L365.79 601.72L366.01 601.46C383.17 581.16 390.97 550.64 391.16 539.55L391.17 538.84L390.67 538.33C390.24 537.89 389.8 537.46 389.33 537.01C386.66 534.45 383.36 531.27 381.47 523.77C383.55 520.18 387.65 511.62 390.98 504.66C392.84 500.77 394.46 497.4 395.34 495.67C402.6 481.54 423.79 436.06 432.21 414.57C437.53 400.99 440.52 394.2 441.81 391.38C445.53 393.39 455.56 397.83 474.51 399.79C499.08 402.33 522.51 385.87 529.03 376.92C530.13 375.41 531.99 373.24 532.01 373.22L533.48 371.5L531.42 370.57C531.29 370.51 530.45 370.15 526.79 368.9L513.19 364.34L499.62 359.79C495.93 358.53 479.34 354.93 467.23 352.31L458.07 350.31L461.06 349.77C489.19 344.79 563.73 331.59 559.53 257.77Z" fill="black"/>
<path d="M67.0002 242.82C71.1002 221.66 77.8602 201.88 87.0802 182.88L87.1902 182.66H87.4402H87.6302V183.06V182.66H88.0502L88.0302 183.07C87.7802 188.75 87.6002 194.6 87.6002 200.49C87.6002 214.5 88.5702 228.76 91.7002 241.57L92.0002 242.82L91.0402 241.96C86.9602 238.32 82.9102 234.14 78.6902 230.51C74.9802 234.67 71.4202 239.19 67.6802 243.16L66.7402 244.16L67.0002 242.82Z" fill="#CE1141"/>
<path d="M552.32 234.14L551.93 234.24L552.31 234.13C546.9 216.26 542.06 198.16 533.2 181.77L532.45 181.98C532.8 187.66 532.98 193.3 532.98 198.9C532.98 212.61 531.91 226.06 529.69 239.11L529.56 239.87L530.26 239.54C534.6 237.44 538.73 234.62 543.17 232.72L553.88 240.46L552.32 234.14Z" fill="#CE1141"/>
<path d="M377.4 425.22L376.58 425.58C370.49 428.26 364.25 430.93 357.65 432.24C353.38 433.34 349.05 433.91 344.77 433.91C331.39 433.91 318.61 428.38 310.7 416.26L310.45 415.87L310.11 416.18C308.52 417.59 307.57 419.33 305.91 420.81C297.49 430.51 285.26 434.23 272.77 434.23C263.07 434.23 253.23 431.98 244.99 428.56L244.14 428.21L244.46 429.07C250.78 445.81 254.65 464.39 254.65 483.06C254.65 491.42 253.87 499.8 252.19 508.05C251.03 513.83 249.1 519.83 247.55 525.46L247.3 526.35L248.12 525.92C265.94 516.48 287.71 511.7 309.42 511.7C329.96 511.7 350.46 515.98 367.51 524.63C370.32 525.79 372.96 527.75 375.52 528.57L376.27 528.81L376.01 528.06C371.04 513.33 368.11 497.68 368.11 481.3C368.11 481.07 368.11 480.84 368.11 480.61C368.08 479.56 368.07 478.52 368.07 477.49C368.07 459.59 371.83 441.97 377.1 426.07L377.4 425.22Z" fill="#CE1141"/>
<path d="M203.08 442.54C201.17 440.18 199.62 437.59 199.05 434.58L198.88 433.67L199.66 434.17C202.86 436.23 206.38 437.08 210 437.08C217.45 437.09 225.27 433.43 231.12 429.31L231.39 429.12L231.63 429.36L231.82 429.55L231.54 429.83L231.82 429.55L231.95 429.68L231.93 429.87C231.13 437.47 228.41 446.18 220.34 449.16C219.14 449.47 217.96 449.61 216.82 449.61C211.42 449.61 206.72 446.46 203.08 442.54Z" fill="#CE1141"/>
<path d="M392.47 439.64C390.74 437.06 389.78 434.28 389.22 431.13L389.04 430.1L389.86 430.75C393.86 433.92 398.91 435.29 404.07 435.29C410.13 435.29 416.33 433.39 421.1 430.32L422.06 429.7L421.69 430.78C419.33 437.66 413.36 444.71 406.11 446.29C405.48 446.38 404.85 446.42 404.23 446.42C399.47 446.42 395.18 443.86 392.47 439.64Z" fill="#CE1141"/>
<path d="M401.74 449.75C402.68 449.95 403.63 450.03 404.58 450.03C407.32 450.03 410.07 449.3 412.74 448.46L413.54 448.21L413.23 448.99C403.23 473.99 391.14 498.18 378.69 522.18L378.27 522.98L377.96 522.13C375.45 515.23 374.74 507.9 374.74 500.4C374.74 494.9 375.12 489.31 375.48 483.72C377.27 467.59 381.15 452.06 385.98 437.13L386.27 436.22L386.71 437.07C389.67 442.84 395.29 448.79 401.72 449.75" fill="#CE1141"/>
<path d="M243.83 522.27C228.75 499.26 217.29 474.93 206.21 450.23L205.73 449.16L206.76 449.71C209.76 451.32 213.78 452.6 217.61 452.6C220.19 452.6 222.68 452.02 224.74 450.61C229.59 447.22 232.43 441.89 234.34 436.5L234.65 435.61L235.07 436.45C243.39 453.29 247.38 473.66 247.38 493.82C247.38 503.37 246.48 512.87 244.73 521.93L244.71 522.05L244.63 522.14L244.09 522.69L243.83 522.27Z" fill="#CE1141"/>
<path d="M257.09 599.32L257.01 599.29L256.95 599.23C241.58 582.37 235.79 560.69 234.96 537.75L234.95 537.54L235.12 537.42C255.33 522.71 282.34 514.94 308.98 514.93C326.46 514.93 343.79 518.28 358.93 525.23C368.6 529.55 377.91 534.27 386.45 541.14L386.2 541.45L386.45 541.14L386.62 541.28L386.59 541.5C384 563.09 376.28 582.33 362.67 599.01L362.6 599.09L362.5 599.13C346.29 605.45 327.18 608.87 308.15 608.87C290.25 608.85 272.39 605.82 257.09 599.32Z" fill="#CE1141"/>
<path d="M527.35 372.56C527.35 372.56 517.85 368.92 515.41 368C489.35 358.19 455.86 352.2 427.4 351.52C424.68 319.81 421.03 300 414.86 282.09L414.77 281.84L414.5 281.82C399.83 280.97 334.74 278.35 309.58 278.35C284.42 278.35 220.5 282.31 205.84 283.16L205.57 283.17L205.48 283.42C199.58 300.49 192.85 321.78 189.72 353.14C160.96 354.9 122.24 363.14 96.1802 372.95C94.2902 373.66 92.9102 374.34 91.9802 374.83C91.5102 375.08 91.1602 375.28 90.9102 375.42C90.8502 375.45 90.8002 375.48 90.7502 375.51L89.9502 374.61L90.2302 376.05C90.2502 376.13 90.2802 376.2 90.3302 376.25C94.3202 380.77 108.99 398.37 136.24 398.98C136.69 398.99 137.15 398.99 137.64 398.99C146.54 398.99 161.62 397.26 171.71 392.85C174.17 391.76 178.93 389.81 180.22 389.28C180.71 390.21 182.13 392.98 182.85 394.98C185.78 403.11 189.26 414.77 191.82 419.86C195.61 427.43 201.79 433.5 211.8 433.72C211.94 433.72 212.07 433.72 212.2 433.72C221.24 433.7 227.48 426.47 228.58 424.94L229 424.35L228.28 424.32C203.08 423.06 192.78 409.68 191.07 389.46L191.04 389.15L190.74 389.1C187.76 388.57 185.87 388.15 184.7 387.51C183.54 386.87 183.02 386.08 182.62 384.53C182.45 383.85 182.37 383.16 182.37 382.46C182.37 379.99 183.37 377.3 185.24 374.18C187.2 371.58 190.06 369.01 195.77 369C198.13 369 200.99 369.45 204.46 370.55C212.3 373.02 218.58 378.08 222.96 381.93C228.19 386.51 243.38 402.35 252.6 407.88C258.01 411.13 266.24 414.15 274.61 414.15C281.3 414.15 288.1 412.2 293.56 406.85C305.28 395.37 306.69 385.48 308.23 379.36L308.35 378.88L307.85 378.87C287.64 378.29 268.49 376.31 250.84 373.88C248.81 373.58 248.19 372.73 248.19 372C248.19 371.11 249.18 370.06 250.79 370.05C251.1 370.05 251.44 370.09 251.79 370.18C251.85 370.19 285.13 374.59 308.44 374.74H308.81L308.84 374.37C309.02 371.65 309.07 366.89 309.23 361.52L309.24 361.12L308.84 361.11C295.02 360.8 271.81 359.34 249.81 354.91C247.91 354.52 247.16 353.37 247.16 352.41C247.18 351.48 247.8 350.68 249.18 350.66C249.49 350.66 249.83 350.7 250.21 350.81C253.48 351.67 289.31 356.74 308.8 356.74C308.86 356.74 308.92 356.74 308.96 356.74L309.36 356.75L309.37 356.35C309.45 352.19 309.49 346.32 309.51 340.68V340.28H309.11C308.71 340.28 308.3 340.28 307.89 340.28C295.28 340.28 277.03 339.01 251.09 335.06C248.97 334.72 248.22 333.7 248.22 332.91C248.22 332.1 248.98 331.23 250.6 331.22C250.74 331.22 250.89 331.23 251.05 331.24C251.05 331.24 282.72 335.95 307.42 335.95C307.99 335.95 308.55 335.95 309.11 335.94H309.5V335.55C309.5 331.72 309.48 327.26 309.45 322.77C309.45 322.74 309.45 322.71 309.45 322.69C309.46 320.26 310.54 319.28 311.32 319.28C312.06 319.28 313.02 320.13 313.03 322.37C313.03 324.07 313.12 328.91 313.12 334.96C313.12 335.07 313.12 335.19 313.12 335.3V335.71L313.53 335.7C337.41 334.97 358.42 332.17 368.27 330.42C368.84 330.32 369.34 330.27 369.77 330.27C371.73 330.31 372.24 331.09 372.26 331.84C372.27 332.62 371.6 333.52 370.61 333.7C367.38 334.29 339.72 339.64 313.38 340.21L312.99 340.22V340.61C313 345.25 313.17 351.3 313.25 356.22L313.26 356.62L313.67 356.61C331.36 355.98 351.86 355.32 369.46 351.43C370.28 351.25 370.99 351.17 371.61 351.17C373.67 351.19 374.43 352 374.43 352.69C374.46 353.48 373.4 354.71 370.88 355.13C353.63 358.01 328.76 360.96 313.79 361.07H313.38L313.39 361.47C313.5 365.78 313.53 371 313.75 374.42L313.77 374.8L314.15 374.79C342.38 374.12 369.12 370.11 373.67 369.32C374 369.26 374.31 369.24 374.59 369.24C376.36 369.26 377.17 370.21 377.17 371.1C377.17 371.98 376.39 373.04 374.26 373.35C369.28 374.03 336.16 378.31 314.95 378.84L314.43 378.85L314.57 379.35C316.67 386.53 317.07 396.98 327.49 405.95C332.58 410.33 339.44 412.3 346.5 412.3C353.46 412.3 360.64 410.39 366.59 406.95C375.9 401.55 390.62 385.43 395.84 380.86C400.18 377.05 410.09 367.88 423.34 367.89C423.53 367.89 423.71 367.89 423.88 367.9C430.69 368.04 434 369.83 435.74 371.78C437.49 373.74 437.69 375.9 438.1 377.07C438.4 377.9 438.66 379.01 438.66 380.14C438.65 381.8 438.13 383.43 436.49 384.44C434.17 385.87 431.99 385.49 429.54 386.61L429.35 386.7L429.32 386.91C427.58 397.96 424.12 410.53 415.45 417.09C410.78 420.65 404.74 422.65 399.88 423.75C395.02 424.85 391.35 425.05 391.35 425.05L390.51 425.1L391.07 425.72C391.07 425.72 393.12 427.97 393.81 428.63C395.35 430.09 399.71 432.2 405.42 432.21C406.03 432.21 406.65 432.18 407.29 432.13C413.53 431.6 420.71 426.86 423.78 423.72C428.42 417.69 432.68 405.2 435.82 397.15C436.94 394.28 439.46 389.31 440.49 386.75C443.06 387.97 444.55 388.77 449.47 390.74C459.65 394.82 472.58 396.61 481.26 396.62C481.76 396.62 482.24 396.61 482.7 396.6C496.88 396.24 512.91 387.66 522.58 378.69C524.27 377.12 527.42 373.21 527.43 373.21L527.78 372.78L527.35 372.56Z" fill="#CE1141"/>
<path d="M324.65 546.74C323.16 549.25 322.49 552.14 322.49 555.08C322.49 559.83 324.24 564.7 326.98 568.24C327.15 568.47 327.37 568.57 327.64 568.57C327.95 568.57 328.3 568.42 328.54 568.14C328.54 568.06 328.54 567.97 328.54 567.89C328.56 565.08 326.75 562.63 326.72 559.55C326.72 558.83 326.83 558.08 327.09 557.29L327.36 556.47L327.81 557.21C330.57 561.78 335.03 564.66 339.67 566.22C341.49 566.7 343.3 566.93 345.08 566.93C351.28 566.93 357.03 564.12 361.1 559.12C363.02 556.4 364.5 552.98 364.5 549.63C364.5 548.05 364.18 546.49 363.43 545C360.5 539.31 354.57 536.03 348.61 535.04C347.59 534.93 346.57 534.88 345.56 534.88C336.93 534.88 328.87 538.73 324.65 546.74Z" fill="black"/>
<path d="M290.86 570.49C291.35 570.52 291.95 569.94 292.35 569.24C294.62 565.68 296.15 561.06 296.15 556.55C296.15 553.59 295.49 550.68 293.97 548.13L294.31 547.93L293.96 548.11C291.59 543.55 286.74 539.88 282.1 538.34C279.46 537.48 276.67 537.03 273.9 537.03C267.27 537.03 260.79 539.57 256.7 545.04C255.13 547.11 254.34 549.77 254.34 552.43C254.34 553.82 254.56 555.21 254.99 556.5C257.18 562.58 262.94 567.38 269.04 568.54C270.41 568.78 271.76 568.91 273.08 568.91C280.18 568.91 286.45 565.43 290.9 559.32L291.34 558.71L291.6 559.42C291.79 559.96 291.86 560.52 291.86 561.09C291.86 562.34 291.53 563.61 291.41 564.64C291.2 566.43 289.79 567.81 289.84 569.05C289.84 569.45 289.96 569.84 290.31 570.31C290.52 570.44 290.7 570.49 290.86 570.49Z" fill="black"/>
<path d="M258.69 593.94C274.23 587.41 292.79 583.64 311.22 583.64C325.13 583.64 338.96 585.79 351.37 590.54C354.48 591.87 357.78 592.95 360.91 593.92C361.7 592.9 362.08 592.67 362.61 591.76C347.46 584.32 329.67 580.87 311.8 580.87C292.72 580.87 273.55 584.81 257.38 592C257.71 592.82 258.12 593.34 258.69 593.94Z" fill="black"/>
<path d="M272.24 479.13C281.53 490.7 295.4 495.83 309.58 495.83C314.79 495.83 320.04 495.14 325.11 493.82C348.75 487.26 363.02 461.5 367.91 438.96C367.22 438.31 366.61 438.19 365.72 437.91C362.76 451.18 357.1 464.21 348.74 475.17C338.73 487.37 323.95 493.53 309.39 493.53C304.22 493.53 299.07 492.75 294.17 491.19C272.52 484.44 261.28 460.7 259.18 439.22C258.3 439.23 257.69 439.28 257 439.76C258.47 454.56 262.91 467.75 272.24 479.13Z" fill="black"/>
<path d="M85.4601 41.8498C81.3201 38.3198 75.3101 35.7998 69.1701 36.0098C62.6101 36.2398 38.0801 44.4498 38.0801 80.9898C38.0801 117.53 60.0801 129.21 73.4001 129.21C86.7201 129.21 100.14 119.13 104.5 101.32C105.13 98.7298 104.71 98.3998 102.17 97.2098L93.5001 93.9698C91.4901 93.2098 91.3901 93.3198 90.1201 96.7798C89.2501 99.1498 85.4601 109.76 76.5801 109.76C67.7001 109.76 63.8901 96.5698 63.8901 82.9398C63.8901 69.3198 66.2201 56.3398 77.2201 56.3398C88.2201 56.3398 90.4401 68.0598 91.1801 72.3398C91.4901 74.1798 91.7101 74.2898 93.9301 74.2898H101.97C103.55 74.2898 103.66 74.1898 103.66 70.3998V40.7698C103.66 38.8198 103.24 38.8198 100.07 38.8198H92.8801C91.4001 38.8198 91.5001 39.1398 90.3401 41.1998C89.6501 42.3998 87.9901 44.0198 85.4601 41.8498Z" fill="black"/>
<path d="M435.1 111.7H432.56C431.29 111.7 431.23 111.58 430.39 109.2L413.68 56.5798C413.16 54.8498 413.1 54.3998 414.69 54.3998H418.18C421.46 54.3998 421.56 54.3998 421.56 52.0198V42.0798C421.56 39.1998 421.35 38.8398 418.81 38.8398H374.81C371.21 38.8398 371 38.8398 371 41.8698V52.4698C371 54.7398 371.21 54.8498 373.75 54.8498H376.82C379.56 54.8498 379.56 55.2798 379.04 56.6898L361.94 109.97C361.62 110.94 361.06 111.72 359.58 111.72H357.46C354.92 111.72 354.71 111.94 354.71 114.1V124.05C354.71 127.4 354.71 127.51 356.61 127.51H379.46C382.1 127.51 382.21 127.26 382.21 125.35V114.97C382.21 112.05 382.21 111.73 379.88 111.73H376.39C374.8 111.73 374.85 111.65 375.59 109.26L378.1 101.43C378.63 99.8098 378.71 99.7298 381.04 99.7298H401.13C403.14 99.7298 403.64 99.7798 404.27 101.4L406.78 109.23C407.41 111.39 407.48 111.73 405.68 111.73H402.51C400.4 111.73 400.08 111.84 400.19 114.97V125.35C400.19 127.41 400.29 127.51 402.94 127.51H435.94C437.74 127.51 437.84 127.41 437.84 124.05V114.1C437.85 111.91 437.74 111.7 435.1 111.7ZM397.56 87.6998C397.41 87.6998 385.4 87.6998 385.4 87.6998C382.76 87.6998 382.58 87.6698 383.11 85.8398L390.58 62.5098C391.01 61.3198 391.48 61.2998 391.91 62.7098L399.34 85.8798C399.96 87.4898 399.78 87.6998 397.56 87.6998Z" fill="black"/>
<path d="M493.27 96.3498H498.98C501.73 96.3498 501.73 96.7798 501.73 98.2998C501.73 103.27 497.92 109.76 488.4 109.76C479.52 109.76 475.72 96.5698 475.72 82.9398C475.72 69.3198 478.04 56.3398 489.04 56.3398C498.2 56.3398 502.03 62.9198 503 67.1498C503.42 68.9898 503.42 69.0998 505.75 69.0998H513.79C515.48 69.0998 515.48 68.9898 515.48 65.2098V40.7698C515.48 38.8198 515.27 38.8198 511.89 38.8198H504.7C503.22 38.8198 503.01 39.0398 502.16 41.1998C501.65 42.4898 499.83 44.0098 497.29 41.8498C493.15 38.3198 487.13 35.7998 481 36.0098C474.44 36.2398 449.91 44.4498 449.91 80.9898C449.91 117.53 471.91 129.21 485.23 129.21C505.32 129.21 520.97 114.15 520.97 85.0998C520.97 82.2898 520.65 82.0698 516.74 82.0698H492.84C490.51 82.0698 490.3 82.2198 490.3 84.8798V94.3898C490.31 96.3498 490.41 96.3498 493.27 96.3498Z" fill="black"/>
<path d="M570.55 38.5498C548.81 38.5498 531.18 58.9498 531.18 84.1098C531.18 109.27 548.81 129.67 570.55 129.67C592.29 129.67 609.92 109.27 609.92 84.1098C609.92 58.9498 592.3 38.5498 570.55 38.5498ZM570.4 113.32C562.3 113.32 555.74 100.24 555.74 84.0998C555.74 67.9598 562.31 54.8798 570.4 54.8798C578.49 54.8798 585.06 67.9598 585.06 84.0998C585.06 100.24 578.5 113.32 570.4 113.32Z" fill="black"/>
<path d="M129.1 109.65V56.9896C129.1 55.1496 128.99 54.8296 126.99 54.8296H124.45C121.81 54.8296 121.7 54.5096 121.7 52.7796V41.0996C121.7 39.1496 121.8 38.8296 124.98 38.8296H155.97C158.3 38.8296 158.72 38.9796 158.72 41.4196V52.0096C158.72 54.3896 158.4 54.3896 155.97 54.3896H154.28C152.9 54.3896 152.7 54.3896 152.8 56.4396V71.4696C152.8 75.2496 152.8 75.5796 155.97 75.5796H172.47C175.64 75.5796 175.64 75.4696 175.64 71.4696V56.4496C175.64 54.3996 175.53 54.3996 174.16 54.3996H172.58C169.83 54.3996 169.72 54.1796 169.72 52.0196V41.4196C169.72 39.0796 170.14 38.8296 172.47 38.8296H203.46C206.74 38.8296 206.74 38.9396 206.74 41.0996V52.7796C206.74 54.5096 206.63 54.8296 203.99 54.8296H201.34C199.44 54.8296 199.33 54.9396 199.33 56.9896V109.65C199.33 111.59 199.44 111.7 201.76 111.7H204.51C206.7 111.7 206.73 111.81 206.73 114.94V125.32C206.73 127.16 206.73 127.48 203.98 127.48H171.3C169.18 127.48 169.08 127.48 169.08 124.13V114.07C168.97 111.8 169.08 111.69 171.83 111.69H173.52C175.42 111.69 175.42 111.58 175.42 109.42V93.3196C175.42 89.3196 175.21 89.2096 172.46 89.2096H155.96C153.21 89.2096 153 89.5396 153 93.3196V109.43C153 111.7 153 111.7 154.9 111.7H156.59C159.34 111.7 159.34 111.81 159.34 114.08V124.03C159.34 127.38 159.34 127.49 157.12 127.49H124.44C121.69 127.49 121.69 127.49 121.69 125.33V114.95C121.69 111.82 121.79 111.71 123.91 111.71H126.66C129.1 111.7 129.1 111.7 129.1 109.65Z" fill="black"/>
<path d="M230.07 56.4496C230.07 54.3996 229.96 54.3996 228.59 54.3996H225.52C222.77 54.3996 222.66 54.1796 222.66 52.0196V41.4196C222.66 39.0796 223.08 38.8296 225.41 38.8296H256.4C259.68 38.8296 259.68 38.9396 259.68 41.0996V52.7796C259.68 54.5096 259.57 54.8296 256.93 54.8296H255.56C253.66 54.8296 253.55 54.9396 253.55 56.9896V109.65C253.55 111.59 253.65 111.7 255.98 111.7H258.1C260.28 111.7 260.32 111.81 260.32 114.94V125.32C260.32 127.16 260.32 127.48 257.57 127.48H224.89C222.77 127.48 222.67 127.48 222.67 124.13V114.07C222.57 111.8 222.67 111.69 225.42 111.69H227.96C229.86 111.69 230.08 111.69 230.08 109.53V56.4496H230.07Z" fill="black"/>
<path d="M319.82 41.8498C315.67 38.3198 309.66 35.7998 303.53 36.0098C296.97 36.2398 272.44 44.4498 272.44 80.9898C272.44 117.53 294.44 129.21 307.77 129.21C321.09 129.21 334.51 119.13 338.86 101.32C339.49 98.7298 339.07 98.3998 336.53 97.2098L327.86 93.9698C325.85 93.2098 325.75 93.3198 324.48 96.7798C323.61 99.1498 319.83 109.76 310.94 109.76C302.05 109.76 298.25 96.5698 298.25 82.9398C298.25 69.3198 300.57 56.3398 311.57 56.3398C322.57 56.3398 324.79 68.0598 325.53 72.3398C325.85 74.1798 326.06 74.2898 328.28 74.2898H336.32C337.9 74.2898 338.01 74.1898 338.01 70.3998V40.7698C338.01 38.8198 337.59 38.8198 334.41 38.8198H327.22C325.74 38.8198 325.84 39.1398 324.68 41.1998C324.01 42.3998 322.36 44.0198 319.82 41.8498Z" fill="black"/>
<path d="M174.49 194.27C178.93 190.59 186.97 185.62 186.97 173.07C186.97 159.45 173.23 150.58 164.98 150.58H120.56C116.97 150.58 116.75 150.8 116.75 153.39V164.63C116.75 166.36 116.93 166.58 119.5 166.58H122.46C124.15 166.58 124.15 167.02 124.15 169.39V221.5C124.15 223.34 123.73 223.45 121.93 223.45H119.07C116.96 223.45 116.64 223.78 116.74 226.26V237.08C116.74 239.02 117.09 239.24 119.49 239.24H167.72C179.78 239.24 188.66 228.43 188.66 216.1C188.66 203.78 180.83 198.81 174.49 194.27ZM147.83 168.97C147.83 165.95 147.94 165.73 151 165.73C154.18 165.73 166.87 166.16 166.87 176.97C166.87 187.78 155.23 187.35 151.43 187.35C147.83 187.35 147.83 187.13 147.83 184.22V168.97ZM147.83 219.14V204.11C147.83 201.19 148.04 200.98 151.43 200.98C154.6 200.98 166.87 201.41 166.87 212.22C166.87 223.03 155.23 222.6 151.43 222.6C148.05 222.6 147.83 222.6 147.83 219.14Z" fill="black"/>
<path d="M271.01 168.54V213.73C271.01 225.19 265.09 242.05 242.24 242.05C219.4 242.05 208.4 225.19 208.4 213.73V168.64C208.4 166.69 208.08 166.59 206.39 166.59H203.75C201.11 166.59 201 166.37 201 164.21V153.94C201 150.59 201.32 150.59 204.49 150.59H235.27C237.59 150.59 238.02 150.7 238.02 153.51V163.78C238.02 166.05 237.92 166.16 234.64 166.16H232.21C230.73 166.16 230.62 166.38 230.62 168.22V212C230.62 216.97 234.43 224.97 243.94 224.97C254.94 224.97 257.27 216.54 257.27 212V168.43C257.27 166.16 257.06 166.16 254.94 166.16H252.82C250.18 166.16 249.86 166.06 249.86 163.78V153.51C249.86 150.91 249.86 150.59 252.61 150.59H275.45C279.15 150.59 279.26 150.59 279.26 153.62V164.22C279.26 166.49 279.26 166.6 276.51 166.6H273.02C271.12 166.59 271.01 166.59 271.01 168.54Z" fill="black"/>
<path d="M378.25 223.46H375.18C373.07 223.46 372.85 223.79 372.85 226.7V237.08C372.85 239.24 373.06 239.24 375.6 239.24H432.29C434.79 239.24 435.03 239.24 435.03 235.79V210.27C435.03 208 434.93 207.89 432.29 207.89H424.04C421.5 207.89 421.4 208.11 421.4 211.14V220.12C421.4 223.58 421.08 223.68 418.76 223.68H406.18C402.37 223.68 402.27 223.36 402.27 220.98V169.84C402.27 166.49 402.27 166.16 404.28 166.16H407.35C409.79 166.16 409.89 165.95 409.89 163.78V153.84C409.89 150.7 409.89 150.59 407.15 150.59H376.69C372.98 150.59 372.88 150.85 372.88 153.62V164.22C372.88 166.38 373.09 166.6 375.63 166.6H378.07C380.18 166.6 380.29 166.75 380.29 169.84V221.09C380.27 223.25 380.16 223.46 378.25 223.46Z" fill="black"/>
<path d="M509.75 214.6C509.75 233.41 492.19 241.42 484.58 241.42C478.99 241.42 472.46 239.13 468.3 235.58C465.76 233.42 463.28 235.9 462.59 237.09C461.32 239.25 461.21 239.47 460.05 239.47H456.24C452.54 239.47 452.65 239.47 452.65 237.52V213.08C452.65 209.19 452.86 209.19 454.34 209.19H459.84C461.95 209.19 462.06 209.32 462.59 211.14C464.02 216.06 469.39 223.25 478.56 223.25C482.79 223.25 486.49 222.17 486.49 218.28C486.49 210.06 481.63 208.12 472.95 203.57C464.28 199.03 451.17 193.84 451.17 175.03C451.17 156.22 468.3 148.43 475.91 148.43C481.51 148.43 487.4 150.72 491.56 154.27C494.1 156.43 496.58 153.95 497.27 152.76C498.65 150.38 498.65 150.38 499.81 150.38H503.62C507.11 150.38 507.22 150.42 507.22 152.33V176.77C507.22 180.55 507.22 180.66 505.53 180.66H500.03C497.92 180.66 497.81 180.42 497.28 178.72C495.76 173.82 489.52 166.61 480.36 166.61C476.55 166.61 474.44 168.99 474.44 172.45C474.44 177.64 480.15 182.18 490.1 186.94C500.02 191.68 509.75 199.03 509.75 214.6Z" fill="black"/>
<path d="M299.5 223.46H296.43C294.32 223.46 294.1 223.79 294.1 226.7V237.08C294.1 239.24 294.31 239.24 296.85 239.24H353.54C356.04 239.24 356.29 239.24 356.29 235.79V210.27C356.29 208 356.19 207.89 353.54 207.89H345.29C342.75 207.89 342.65 208.11 342.65 211.14V220.12C342.65 223.58 342.33 223.68 340.01 223.68H327.42C323.61 223.68 323.51 223.36 323.51 220.98V169.84C323.51 166.49 323.51 166.16 325.52 166.16H328.59C331.02 166.16 331.13 165.95 331.13 163.78V153.84C331.13 150.7 331.13 150.59 328.38 150.59H297.92C294.22 150.59 294.11 150.85 294.11 153.62V164.22C294.11 166.38 294.32 166.6 296.86 166.6H299.29C301.4 166.6 301.51 166.75 301.51 169.84V221.09C301.5 223.25 301.4 223.46 299.5 223.46Z" fill="black"/>
<path d="M96.3596 256.43C108.76 280.36 133.77 288.06 159.2 286.85C173.43 286.73 187.11 285.25 201.15 284.36L201.14 285.33C193.99 305.48 189.36 326.01 186.4 347.14C149.58 348.49 111.83 345.58 84.6196 320.99C66.1896 302.25 61.4896 276.55 65.4896 251.16C69.8796 245.95 74.3996 241.58 78.9796 236.37C85.0496 242.59 94.6996 247.69 96.3596 256.43Z" fill="white"/>
<path d="M554.3 245.69C555.23 249.38 555.4 252.88 555.76 256.76C557.52 285.09 545.27 311.22 521.1 325.64C494.64 341.6 464.06 347.07 431.6 347.86C431.05 344.95 430.68 341.26 430.32 337.96C427.76 319.32 424.25 300.49 419.02 282.61C453.75 282.22 496.03 291.37 518.96 259.48C522.02 255.04 525.08 250.97 527.76 246.14C532.9 243.84 537.85 240.57 542.79 237.88C546.97 240.02 550.14 243.34 554.3 245.69Z" fill="white"/>
<path d="M422.28 389.13C422.41 400 418.94 411.23 409.23 416.42C404.67 418.92 399.35 419.86 394.22 419.63C394.04 418.66 393.66 417.5 394.05 416.34C402.02 416.57 409.63 413.71 413.83 407.13C416.71 402.29 417.87 396.87 417.9 390.85C419.24 390.09 420.76 389.51 422.28 389.13Z" fill="white"/>
<path d="M226.22 418.64C224.78 418.88 224.11 419.25 221.4 418.65C208.63 418.65 195.25 408.41 196.03 391.05C197.54 390.46 199.24 390.69 200.81 391.2C200.81 401.05 204.79 414.51 225.69 414.51C227.13 416.79 225.75 417.02 226.22 418.64Z" fill="white"/>
</svg>
