<svg width="648" height="648" viewBox="0 0 648 648" fill="none" xmlns="http://www.w3.org/2000/svg">
<path d="M520.88 265.31C520.88 264.1 520.91 262.88 520.9 261.65V259.85C520.89 257.52 520.88 254.91 520.85 252.09C520.61 225.21 519.33 171.73 516.99 142.54C516.76 139.73 516.55 137.35 516.33 135.31L515.74 129.51L515.48 126.96L515.15 123.86L512.69 121.95L510.66 120.38L506.05 116.84C502.14 113.84 497.64 110.77 492.65 107.71C483.07 101.86 471.27 95.7902 457.54 89.6902C403.97 63.5102 333.9 39.5302 330.96 38.5102L327.85 37.4702L325.92 36.7902L323.55 35.9902L321.19 36.8102L319.25 37.4902L316.17 38.5602C315.58 38.7602 251.41 61.2602 198.73 86.4702C188.57 90.8102 179.1 95.2502 170.86 99.5302C159.03 105.67 149.18 111.8 141.54 117.74L136.95 121.31L134.91 122.89L132.46 124.81L132.16 127.9L131.9 130.44L131.33 136.25C130.9 140.64 130.49 146.12 130.11 152.51C128.3 183.26 127.51 229.47 127.4 253.03C127.39 255.85 127.39 258.47 127.4 260.8V260.83V261.16V262.58C127.4 264.04 127.43 265.45 127.46 266.85L127.47 267.46C127.44 271.7 127.43 275.57 127.43 278.79C127.71 393.14 177.61 475.5 219.42 524.46C264.6 577.35 309.84 603.38 311.73 604.47L318.45 608.27L321.41 609.96L325.01 612L328.59 609.94L331.55 608.24L338.24 604.4C340.13 603.31 385.18 577.15 430.17 523.95C471.73 474.79 521.22 392.2 520.93 277.83C520.92 274.51 520.89 270.59 520.84 266.3L520.86 265.76L520.88 265.31Z" fill="#860038"/>
<path d="M513.61 266.38L513.62 265.63C513.65 264.31 513.67 263 513.66 261.66V259.86C513.65 257.54 513.63 254.94 513.62 252.14C513.37 225.38 512.1 172.11 509.77 143.11C509.55 140.34 509.34 138.03 509.14 136.04L508.53 130.23L508.28 127.68L506.23 126.12L501.63 122.58C497.94 119.73 493.64 116.81 488.87 113.89C479.58 108.21 468.05 102.29 454.6 96.3102C400.8 70.0002 329.33 45.6102 328.61 45.3702L325.52 44.3202L323.58 43.6602L321.63 44.3402L318.56 45.4102C317.92 45.6402 254.38 67.8802 201.86 93.0202C191.6 97.4102 182.3 101.76 174.21 105.97C162.76 111.91 153.27 117.8 145.98 123.47L141.39 127.05L139.36 128.63L139.11 131.18L138.54 136.99C138.11 141.26 137.71 146.64 137.34 152.95C135.54 183.47 134.74 229.55 134.65 253.09C134.63 255.89 134.63 258.49 134.63 260.81L134.64 261.09L134.63 262.61C134.63 264 134.66 265.37 134.69 266.73L134.71 267.34C134.68 271.75 134.66 275.6 134.67 278.79C134.95 390.95 183.92 471.74 224.94 519.77C269.25 571.65 313.46 597.11 315.34 598.18L322.04 601.98L325 603.67L327.96 601.97L334.64 598.13C336.51 597.06 380.58 571.38 424.64 519.28C465.43 471.05 513.98 390.02 513.7 277.85C513.7 274.54 513.67 270.64 513.61 266.38Z" fill="#BC945C"/>
<path d="M331.45 592.94C333.27 591.9 376.47 566.74 419.87 515.41C460 467.94 507.79 388.19 507.51 277.85C507.5 274.54 507.47 270.65 507.41 266.36L507.44 265.54C507.45 264.25 507.47 262.96 507.47 261.67V259.85C507.46 257.55 507.45 254.96 507.42 252.18C507.17 225.51 505.92 172.44 503.6 143.57C503.41 141.07 503.19 138.72 502.98 136.64L502.37 130.83L497.76 127.29C494.25 124.58 490.13 121.78 485.53 118.97C476.43 113.41 465.11 107.6 451.86 101.71C398.13 75.4404 327.17 51.2505 326.47 51.0205L323.39 49.9604L320.32 51.0405C319.67 51.2705 256.22 73.5005 204.1 98.4405C193.94 102.8 184.74 107.1 176.73 111.26C165.62 117.04 156.42 122.73 149.42 128.17L144.83 131.76L144.26 137.55C143.85 141.76 143.46 147.06 143.09 153.28C141.29 183.68 140.5 229.63 140.4 253.09C140.39 255.87 140.38 258.46 140.39 260.76V261V262.58C140.39 263.92 140.43 265.26 140.45 266.6L140.48 267.29C140.45 271.56 140.43 275.46 140.44 278.76C140.71 389.11 188.9 468.62 229.27 515.88C272.93 566.99 316.25 591.94 318.08 592.97L324.78 596.78L331.45 592.94Z" fill="black"/>
<path d="M250.94 138.9L256.29 144.18L256.3 148.02L250.24 154.11L250.22 145.75L249.44 144.98L246.02 144.99L245.24 145.76L245.3 168.6L246.08 169.38L249.51 169.37L250.28 168.59L250.27 165.07L256.33 158.98L256.36 170.08L251.03 175.44L244.59 175.45L239.23 170.12L239.16 144.22L244.5 138.91L250.94 138.9Z" fill="#BC945C"/>
<path d="M265.46 138.86L265.53 169.33L274.67 169.31L273.54 175.38L259.47 175.42L259.39 140.75L259.02 138.88L265.46 138.86Z" fill="#BC945C"/>
<path d="M290.81 138.8L290.82 144.87L283.2 144.89L283.22 152.88L289.34 152.87L289.35 158.22L283.23 158.23L283.26 169.29L290.88 169.27L290.9 175.34L277.2 175.37L277.11 141.12L276.74 138.83L290.81 138.8Z" fill="#BC945C"/>
<path d="M312.69 138.74L307.48 175.3L300.76 175.31L297.32 170.76L292.91 138.79L298.98 138.78L302.89 168.82L306.61 138.76L312.69 138.74Z" fill="#BC945C"/>
<path d="M328.81 138.7L328.82 144.78L321.19 144.8L321.21 152.79L327.34 152.77L327.35 158.12L321.23 158.14L321.25 169.19L328.88 169.17L328.9 175.24L315.2 175.28L315.11 141.02L314.74 138.74L328.81 138.7Z" fill="#BC945C"/>
<path d="M337.99 138.68L338.06 169.15L347.2 169.13L346.07 175.2L332 175.24L331.92 140.57L331.55 138.7L337.99 138.68Z" fill="#BC945C"/>
<path d="M363.29 138.62L368.73 175.15L362.61 175.17L361.68 167.95L355.88 167.96L354.99 175.18L348.91 175.2L353.76 140.93L353.39 138.65L363.29 138.62ZM356.63 161.84L360.88 161.83L358.74 145.07L356.63 161.84Z" fill="#BC945C"/>
<path d="M388.14 175.1L382.43 175.11L376.67 155.3V155.35L376.72 175.12L370.64 175.14L370.56 140.88L370.14 138.6L376.26 138.58L382.02 157.16L381.97 138.57L388.05 138.56L388.14 175.1Z" fill="#BC945C"/>
<path d="M408.61 143.8L408.68 170.11L403.72 175.05L391.16 175.08L391.07 140.73L390.7 138.54L403.26 138.51L408.61 143.8ZM402.49 145.37L401.71 144.6L397.14 144.61L397.2 169L401.77 168.99L402.54 168.21L402.49 145.37Z" fill="#BC945C"/>
<path d="M180.9 188.98L192.21 200.13L192.23 208.24L179.44 221.1L179.39 203.45L177.75 201.81L170.52 201.83L168.88 203.47L169 251.7L170.64 253.33L177.87 253.31L179.51 251.67L179.49 244.24L192.29 231.38L192.35 254.82L181.09 266.13L167.49 266.17L156.18 254.91L156.04 200.22L167.3 189.01L180.9 188.98Z" fill="#BC945C"/>
<path d="M225.94 188.871L237.42 266.001L224.5 266.031L222.53 250.801L210.28 250.831L208.39 266.071L195.56 266.101L205.8 193.741L205.01 188.921L225.94 188.871ZM211.88 237.891L220.85 237.871L216.32 202.491L211.88 237.891Z" fill="#BC945C"/>
<path d="M275.8 188.74L264.81 265.92L250.63 265.96L243.37 256.33L234.04 188.85L246.87 188.81L255.13 252.25L262.97 188.77L275.8 188.74Z" fill="#BC945C"/>
<path d="M303.58 188.67L315.06 265.8L302.14 265.83L300.17 250.6L287.92 250.63L286.03 265.87L273.2 265.9L283.44 193.54L282.65 188.72L303.58 188.67ZM289.52 237.7L298.49 237.68L293.97 202.3L289.52 237.7Z" fill="#BC945C"/>
<path d="M332.22 188.601L332.38 252.931L351.67 252.881L349.29 265.711L319.59 265.791L319.4 192.581L318.62 188.641L332.22 188.601Z" fill="#BC945C"/>
<path d="M369.64 188.51L369.84 265.66L357.01 265.7L356.83 193.36L355.95 188.54L369.64 188.51Z" fill="#BC945C"/>
<path d="M405.13 188.42L405.16 201.25L389.06 201.29L389.1 218.16L402.02 218.13L402.05 229.42L389.13 229.45L389.19 252.79L405.29 252.75L405.32 265.58L376.39 265.65L376.21 193.31L375.43 188.49L405.13 188.42Z" fill="#BC945C"/>
<path d="M437.44 188.34L448.66 199.5L448.71 218.79L438.12 225.95L448.76 239.72L448.82 265.47L435.99 265.5L435.94 244.57L428 232.73L424.63 234.96L424.71 265.53L411.88 265.56L411.7 193.23L410.92 188.41L437.44 188.34ZM424.6 222.13L435.86 214L435.83 202.82L434.19 201.18L424.55 201.2L424.6 222.13Z" fill="#BC945C"/>
<path d="M479.36 212.35L479.33 202.7L477.69 201.06L469.69 201.08L468.05 202.73L468.08 212.37L492.23 231.6L492.29 254.07L481.13 265.39L466.66 265.42L455.35 254.16L455.3 231.69L468.14 239.67L468.17 250.95L469.81 252.59L477.82 252.57L479.45 250.92L479.42 238.1L455.26 218.77L455.22 199.48L466.47 188.27L480.94 188.23L492.15 199.39L492.21 220.32L479.36 212.35Z" fill="#BC945C"/>
<path d="M421.58 338.22V323.97L418.09 320.43C373.32 277.84 277.45 333.76 244.87 360.7L228.78 385.6L248.79 380.66C218.06 419.23 229.04 444.48 230.34 447.1C233.57 456.19 240.95 463.47 252.92 468.25C262.01 471.88 272.32 472.33 281.16 471.92C319.36 470.14 364.48 446.33 393.64 421L394.32 420.41L400.12 391.15L388.79 397.45C349.46 414.7 317.82 424.28 317.82 424.28C297.11 430.73 287.59 431.78 280.81 430.21L279.99 429.96C278.12 429.23 277.79 427.54 277.79 427.09C277.49 414.14 299.78 386.29 311 374.23C321.46 362.99 337.91 350.65 351.82 344.81C361.14 340.89 367.16 339.32 369.98 339.6C369.21 342.01 367.96 344.99 366.11 348.61C366.11 348.61 351.22 377.99 350.55 379.21L421.58 338.22Z" fill="#BC945C"/>
<path d="M333.14 336.12C320.3 342.87 305.59 356.52 300.97 361.44C263.42 401.42 237.12 454.87 319.34 429.27C319.34 429.27 351.3 419.59 390.98 402.15C278.66 497.03 172.65 457.35 276.97 357.61C267.48 359.78 257.89 361.84 248.51 364.46C281.91 336.82 373.54 285.26 414.44 324.17L370.74 350.96C389.51 314.21 355.72 322.83 333.14 336.12Z" fill="#860038"/>
</svg>
