<svg width="648" height="648" viewBox="0 0 648 648" fill="none" xmlns="http://www.w3.org/2000/svg">
<path d="M590.8 331.88C594.08 323.76 606.66 292.65 606.66 292.65L553.81 322.2C553.62 322.31 538.16 330.87 515.72 340.54C526.98 312.41 536.93 283.8 546.73 246.27C565.4 174.91 575.43 96.2502 575.84 92.9402C575.84 92.9302 579.8 61.2302 579.8 61.2302C579.8 61.2302 480.25 88.8402 470.64 91.5002C435.28 48.6802 380.81 23.2202 323.59 23.2202C266.13 23.2202 211.52 48.8302 176.17 91.9502C166.27 89.1702 66.4098 61.2302 66.4098 61.2302L70.5198 93.1302C70.6198 93.9402 81.1498 174.6 100.75 247.21C110.28 282.54 120.88 311.12 131.92 338.29C108.05 328.19 88.0398 318.68 87.7898 318.57L38.7598 295.12C38.7598 295.12 50.4698 324.65 53.7898 332.99C53.1598 332.74 36.0098 326.2 36.0098 326.2L52.4498 370.42C52.4498 370.42 52.4298 370.35 52.4198 370.33C53.5298 373.56 60.5098 392.37 113.52 535.35L120.81 555.02C120.81 555.02 132.69 551.24 136.19 550.14C139.12 558.07 146.74 578.72 146.74 578.72L168.12 567.7C184.43 559.33 219.43 545.14 247.73 540.56C281.38 586.74 307.67 610.67 308.8 611.71L323.33 624.8L337.62 611.45C338.77 610.37 365.33 585.32 398.25 540.59C429.82 544.81 456.81 557.55 470.43 565.08L491.3 576.61L500.41 554.58C500.41 554.58 501.52 551.89 502.73 548.94C504.48 549.54 514.59 552.97 514.59 552.97L522.31 533.3C523.79 529.52 557.6 450.12 590.23 373.64L611.99 322.64C612 322.6 590.88 331.84 590.8 331.88Z" fill="white"/>
<path d="M558.1 329.87C557.79 330.04 532.78 343.92 499.68 356.54C514.62 321.03 526.41 289.34 538.25 244.05C556.94 172.63 567.04 92.6504 567.14 91.8504L569.47 73.2104L551.37 78.2305C551.37 78.2305 328.47 140.05 321.93 141.87C315.4 140.04 76.8099 73.2605 76.8099 73.2605L79.2199 92.0204C79.3299 92.8204 89.7399 172.73 109.21 244.93C121 288.63 134.63 322.36 148.02 354.39C116.2 341.82 84.4099 326.67 83.9999 326.47L55.1699 312.69L66.9599 342.4C95.2999 413.81 109.72 453 127.98 502.62L151.52 566.37L164.08 559.89C182.84 550.25 221.67 534.79 251.69 531.11C286.24 579.31 313.48 604.11 314.67 605.19L323.21 612.87L331.61 605.02C332.82 603.88 360.56 577.72 394.28 531.15C429.29 534.75 459.35 548.91 474.67 557.37L486.94 564.16L492.31 551.19C506.25 517.49 575.12 347.2 575.83 345.49L589.17 312.49L558.1 329.87Z" fill="black"/>
<path d="M583.22 338.19C582.63 338.43 527.47 361.91 482.36 373.13C499.96 332.51 515.31 296 529.49 241.82C548.03 170.96 558.07 91.55 558.16 90.75L558.85 85.27L553.52 86.75C553.52 86.75 323.68 150.5 321.72 151.04C319.76 150.5 87.0896 85.37 87.0896 85.37L87.7996 90.89C87.8896 91.69 98.2296 171 117.56 242.63C130.22 289.56 145.1 325.02 159.49 359.32C159.49 359.32 162.02 365.37 164.23 370.68C125.23 360.8 72.3396 342.25 71.7796 342.06L64.3296 339.45L67.1096 346.84C90.2896 408.5 102.15 441.63 114.71 476.69L140.18 547.24L143.54 546.19C179.53 534.98 226.06 526.11 255.22 522.38C288.83 571.04 320.11 598.39 320.44 598.67L322.9 600.8L325.31 598.61C325.61 598.33 355.37 571.18 389.95 522.74C419.93 524.74 475.72 537.35 496.92 545.74L500.3 547.08L501.69 543.73C515.6 510.1 587.32 344.72 588.04 343.05L591.73 334.55L583.22 338.19Z" fill="white"/>
<path d="M469.79 383.62L472.67 376.97C492.16 332.06 507.54 296.58 522.36 239.96C537.98 180.28 547.52 114.46 550.12 95.3403C539.87 98.1703 322.69 158.42 322.69 158.42L321.7 158.69C321.7 158.69 106.15 98.3503 95.8496 95.4703C98.5396 114.63 108.4 180.41 124.66 240.69C137.19 287.14 151.98 322.38 166.27 356.45L176.6 381.22L258.73 514.5L259.99 516.36C288.19 557.58 314.84 583.48 322.79 590.85C330.51 583.44 356.15 557.73 385.16 516.78L386.33 515.12L469.79 383.62Z" fill="#BBC4CA"/>
<path d="M166.78 302.98C164.6 299.84 155.1 284.66 155.09 259.47C155.09 258.72 155.1 257.96 155.12 257.2C148.61 239.65 145.07 220.76 145.07 201.12C145.07 154.4 165.1 112.02 197.42 81.3402C229.74 50.6602 274.37 31.6602 323.58 31.6602C372.79 31.6602 417.42 50.6602 449.74 81.3402C482.06 112.02 502.09 154.4 502.09 201.12C502.09 218.44 499.34 235.16 494.23 250.91C494.22 282.91 484.79 312.76 468.49 338.01C468.33 338.21 467.5 339.07 465.14 340.34C465.14 340.35 465.02 340.41 464.88 340.59C464.74 340.77 464.59 341.02 464.58 341.43C464.57 341.44 464.28 343.35 463.65 344.86L463.92 344.75L463.23 345.71C432.75 387.47 382.71 414.7 326.15 414.7C252.03 414.68 189.1 367.91 166.78 302.98Z" fill="black"/>
<path d="M564.7 352.86C563.57 353.35 450.95 401.93 321.91 401.37C208.3 400.88 79.48 352.17 78.19 351.69L50.98 341.29L60.66 367.34C60.84 368.05 60.84 368.05 121.73 532.27L126.11 544.09L138.13 540.28C164.95 531.77 236.5 511.96 321.43 511.96C400.34 511.96 469.26 528.23 497.55 537.84L509.5 541.9L514.15 530.04C515.86 525.7 555.76 432.04 582.16 370.15L595.24 339.49L564.7 352.86Z" fill="#0064B1"/>
<path d="M565.94 368.8L554.45 373C554.45 373 529.06 382.29 528.86 382.35C527.67 382.72 518.46 385.68 511.2 391.76C508.7 393.84 506.16 396.86 503.91 399.98C504.37 398.72 504.63 397.97 504.65 397.91L508.08 388.44L498.34 391.04L475.2 397.2V397.21C472.99 397.69 457.34 401.11 452.6 402.15L447.27 403.04L420.19 407.59C419.04 407.77 408.57 409.61 403.09 415.12C401.88 416.34 400.83 417.7 399.9 419.11L401.45 409.99L394.61 410.63L372.72 412.7L372 418.37C371.44 417.67 370.78 417.01 370 416.4C365.84 413.19 358.97 413.27 356.96 413.37C356.91 413.37 324.88 414.21 324.88 414.21V414.25L298.97 414.08C297.9 414.11 289.77 414.45 284.16 419.76C283.3 420.57 282.57 421.49 281.93 422.47C281.81 419.4 281.73 417.55 281.73 417.55L281.55 412.93C281.55 412.93 255.37 410.55 254.41 410.47V410.45L222.77 406.4L224.19 413.59L224.55 415.45C217.33 407.07 206.05 404.1 205.52 403.96C205.38 403.92 172.96 396.59 172.96 396.59L175.06 404.93L176.62 411.13C175.68 409.46 174.67 407.91 173.62 406.56C168.89 400.53 164.83 396 155.72 392.68C147.76 389.79 131.48 385.96 130.79 385.78L121.56 383.62L121.58 383.68C113.23 380.06 94.8297 374.02 88.5897 371.99L78.2397 368.64L82.0098 378.84L135.61 523.78C135.61 523.78 156.67 517.95 157.76 517.66C157.76 517.67 157.77 517.7 157.77 517.7C157.77 517.7 179.8 512.43 181.4 512.05C182.52 511.85 204.51 507.89 204.51 507.89L204.48 507.77C210.59 506.83 222.93 504.94 224.15 504.75C225.15 504.6 235.83 503.07 241.72 502.23V502.27C241.72 502.27 263.96 499.98 264.05 499.96C266.42 499.81 273.67 499.08 277.51 496.01C278.95 494.87 280.08 493.63 280.97 492.39L281.29 498.48L307.52 497.63L307.7 497.62C308.51 497.54 315.75 496.68 320.31 492.25C320.86 491.71 321.36 491.14 321.81 490.55L321.55 497.29C321.55 497.29 341.69 497.81 342.71 497.84V497.87L366.68 498.49L366.69 498.48L384 499.82L406.01 502.21C406.86 502.3 414.51 502.98 421.63 499.07C422.25 498.72 422.86 498.34 423.44 497.91L421.63 504.13L444.05 507.94C444.05 507.94 444.07 507.86 444.08 507.85C444.84 507.99 460.26 510.8 463.99 511.48L466.46 512.15C466.92 512.28 477.86 515.2 486.53 514.15C496.84 512.9 507.35 504.52 512.11 493.77L534.4 442.26H534.31C534.71 441.36 565.94 368.8 565.94 368.8Z" fill="white"/>
<path d="M367.91 493.41L381.87 494.47L395.09 415.87L377.41 417.55L367.91 493.41Z" fill="black"/>
<path d="M425.68 421.68L419.1 449.81L436.55 449.35L448.08 408.21L421.32 412.76C421.32 412.76 411.53 414.35 407.09 418.81C401.05 424.88 399.51 436.25 399.51 436.25L388.8 495L406.26 496.78C406.26 496.78 413.24 497.65 419.01 494.68C423.2 492.51 425.8 488.1 427.26 483.87C428.71 479.64 432.68 462.94 432.68 462.94H416.2L412.72 479.64C412.72 479.64 412.24 482.92 409.81 486.2C407.39 489.5 402.64 489.24 402.64 489.24L414.06 436.69C414.06 436.69 415.9 429.58 418.42 425.89C421.4 421.53 425.68 421.68 425.68 421.68Z" fill="black"/>
<path d="M455.72 451.14L470.69 403.58L455.42 406.86L428.46 499.81L440.42 501.73L453.03 462.02L456.64 461.93C456.64 461.93 458.96 462.72 458.96 465.07C458.96 467.42 457.87 469.99 457.87 469.99L447.2 502.87L461.27 505.5L472.89 471.4C472.89 471.4 474.72 465.74 474.34 462.96C473.71 458.22 471.44 455.45 471.44 455.45C471.44 455.45 474.34 455.45 478.22 451.68C482.1 447.92 482.1 445.11 483.07 442.3C484.04 439.48 499.61 396.55 499.61 396.55L479.46 401.59L467.58 439.95C467.58 439.95 466.7 443.85 464.77 446.66C462.82 449.47 461.52 450.48 460.36 450.7C457.99 451.15 455.72 451.14 455.72 451.14Z" fill="black"/>
<path d="M525.729 404.25L512.639 439.47L530.569 438.54L556.249 377.95L530.569 387.34C530.569 387.34 521.429 390.06 514.579 395.79C509.099 400.38 502.949 410.82 501.489 414.12C500.039 417.4 494.219 430.55 493.259 434.78C492.289 439 483.559 462.48 483.559 462.48H503.909L495.189 485.49C495.189 485.49 494.209 490.65 490.819 494.88C487.429 499.1 482.589 499.57 482.589 499.57L494.209 469.98H481.609L467.939 506.84C467.939 506.84 478.149 509.8 485.909 508.87C493.659 507.93 502.929 501.46 507.289 491.6C511.649 481.73 526.189 447.91 526.189 447.91L501.899 449.12L509.309 427.55C509.309 427.55 514.449 415.18 517.949 410.81C520.239 408.01 525.729 404.25 525.729 404.25Z" fill="black"/>
<path d="M86.9497 377.01L138.87 517.41L154.23 513.12L115.76 399.55C115.76 399.55 121.57 400.02 126.42 408.94C131.27 417.86 133.69 424.43 135.15 430.07C136.6 435.71 161.07 511.53 161.07 511.53L176.67 507.91L146.78 408.01C146.78 408.01 150.66 408.01 154.53 414.57C158.41 421.15 159.87 426.79 159.87 426.79L182.87 506.58L197.92 503.58L178.76 429.61C178.76 429.61 174.44 416.58 169.47 409.81C165.67 404.63 161.21 400.44 154.06 397.99C146.34 395.34 129.65 391.07 129.65 391.07L132.15 398.57C132.15 398.57 126.52 392.36 121.49 389.6C116.93 387.08 86.9497 377.01 86.9497 377.01Z" fill="black"/>
<path d="M226.19 498.98L239.33 497.22L228.11 438.81C228.11 438.81 225.53 425.73 222.25 420.65C216.46 411.68 204.17 408.54 204.17 408.54L180.12 403.59L205.02 502.34L219.88 499.87L210.72 462.96L219.28 463.05L226.19 498.98ZM208.8 454.03L200.49 417.68C200.49 417.68 205.44 418.75 208.35 421.57C211.26 424.39 212.12 432.24 212.12 432.24L216.56 454.03H208.8Z" fill="black"/>
<path d="M229.47 412.54L245.96 496.52L263.76 494.65C263.76 494.65 271.88 494.39 274.22 492.53C279.11 488.67 279.07 483.14 279.07 483.14L276.9 417.93L259.75 416.26L265.98 477.99C265.98 477.99 266.4 483.55 263.56 486.45C261.22 488.82 258.72 488.33 258.72 488.33L249.9 415.19L229.47 412.54Z" fill="black"/>
<path d="M286.33 493.03L307.26 492.21C307.26 492.21 313.35 491.6 316.75 488.31C320.14 485.03 320.84 479.05 320.84 479.05L321.23 467.18L307.17 467.31L307.26 479.05C307.26 479.05 307.46 482.94 305.62 484.72C304.23 486.07 299.43 485.99 299.43 485.99L299.51 462.38H321.29L321.76 455.19L299.05 455.42L299.04 434.66C299.04 434.66 298.91 431.68 301 430.1C303.2 428.44 307.18 428.91 307.18 428.91V450.27H322.21L324.08 419.67L299.04 419.16C299.04 419.16 292.19 419.31 287.89 423.39C282.93 428.09 283.53 438.89 283.53 438.89L286.33 493.03Z" fill="black"/>
<path d="M366.77 421.53C364.04 418.66 357.21 419.03 357.21 419.03L329.95 419.66L327.13 491.95L340.84 492.31L342.61 462.59C342.61 462.59 347 461.11 349.1 464.17C350.49 466.19 350.3 468.57 350.3 468.57L348.49 492.43L361.99 493.06L364.36 469.05C364.36 469.05 365.09 464.84 363.7 461.7C362.48 458.94 359.5 458.25 359.5 458.25C359.5 458.25 361.44 458.25 364.36 454.96C367.26 451.67 367.26 446.98 367.26 446.98L368.93 430.35C368.93 430.36 369.85 424.77 366.77 421.53ZM352.72 430.46L351.76 448.86C351.76 448.86 351.76 451.21 350.79 452.62C349.82 454.03 348.54 454.18 348.54 454.18L343.53 454.03L344.98 426.71L348.68 426.6C348.68 426.6 350.69 426.47 351.84 427.3C352.97 428.13 352.72 430.46 352.72 430.46Z" fill="black"/>
<path d="M354.99 524.74L372.04 520.6L354.58 518.95C353.82 518.88 337.61 517.37 329.58 517.41C328.55 514.24 321.75 493.32 321.75 493.32L318.83 501.38C318.65 501.87 315.04 511.9 313.16 517.51C303.79 517.44 291.3 518.75 290.73 518.81L272.51 520.77L290.43 524.63C295.82 525.79 306.93 529.68 308.08 534.45C306.67 540 302.87 549.79 302.82 549.89L299.27 558.98C299.27 558.98 318.84 545.25 321.55 543.36C324.26 545.26 343.34 558.64 343.34 558.64C343.34 558.64 335.44 536.06 334.77 534.17C336.49 531.04 346.22 526.87 354.99 524.74Z" fill="black"/>
<path d="M330.09 533.61C331.29 528.8 339.41 525.12 345.89 522.9C339.52 522.37 331.18 521.75 327.26 521.76L326.16 521.78C326.16 521.78 322.99 512.49 321.34 507.68C319.85 511.86 317.66 518.05 316.75 520.94L316.42 522.01L315.3 522.03C310.7 522.09 304.57 522.42 299.64 522.71C305.32 524.91 311.93 528.61 312.67 534.15L312.71 534.44L312.64 534.71C311.87 538.08 310.12 543.1 308.78 546.79C313.31 543.6 321.55 537.83 321.55 537.83C321.55 537.83 330 543.76 334.48 546.9C332.77 542.01 329.98 534.05 329.98 534.05L330.09 533.61Z" fill="white"/>
<path d="M154.27 201.11C154.27 112.74 230.22 40.8403 323.6 40.8403C416.96 40.8403 492.91 112.74 492.91 201.11C492.91 289.48 416.95 361.37 323.6 361.37C230.22 361.37 154.27 289.48 154.27 201.11Z" fill="white"/>
<path d="M220.77 93.6105L221.13 93.3205C223.21 91.6405 225.02 91.3005 226.32 92.9105C227.53 94.4105 226.58 96.2205 224.68 97.7505L224.33 98.0305L220.77 93.6105ZM221.38 106.041L228.6 100.221C233.19 96.5205 234.75 91.7305 232.03 88.3405C228.66 84.1505 223.27 85.7205 218.01 89.9505L212.2 94.6205L221.38 106.041Z" fill="black"/>
<path d="M263.3 73.4705L262.85 68.8305L263.1 68.7305C263.45 69.2505 263.82 69.7905 264.25 70.2905L266.02 72.3605L263.3 73.4705ZM263.4 77.1805L268.52 75.0905L269.83 76.5305L277 73.6105L264.82 62.7505L257.33 65.8105L256.38 82.0105L263.55 79.0905L263.4 77.1805Z" fill="black"/>
<path d="M298.7 53.7602L305.97 52.9502L307.09 62.8302L313.19 62.1402L313.72 66.8102L300.35 68.3202L298.7 53.7602Z" fill="black"/>
<path d="M340.39 52.9204L347.63 53.9704L346.2 63.8104L352.28 64.6904L351.6 69.3504L338.28 67.4204L340.39 52.9204Z" fill="black"/>
<path d="M384.59 74.1102L387.59 70.5502L387.84 70.6502C387.72 71.2702 387.58 71.9202 387.53 72.5702L387.27 75.2802L384.59 74.1102ZM382 76.7802L387.07 78.9802L386.95 80.9202L394.05 84.0202L393.32 67.7202L385.91 64.4902L373.64 75.1202L380.74 78.2102L382 76.7802Z" fill="black"/>
<path d="M418.44 93.6403L418.6 94.0403C419.14 95.4503 419.97 96.9103 421.26 97.9903C421.82 98.4503 422.84 99.0203 423.26 98.5103C423.68 98.0003 422.99 97.3403 422.53 96.8403L421.52 95.7603C419.55 93.6603 418.48 91.1903 419.94 89.4103C422.15 86.7303 426.75 88.0103 430.12 90.8003C431.89 92.2603 433.26 93.9203 434.22 95.8503L430.31 97.4903C429.74 96.2103 428.96 94.9303 427.75 93.9303C427.25 93.5203 426.43 93.0503 426.04 93.5203C425.69 93.9503 426.34 94.5903 426.72 95.0203L427.82 96.2803C429.89 98.6403 430.85 101 429.27 102.92C427.04 105.61 422.56 104.15 419.2 101.38C417.26 99.7603 415.31 97.5003 414.09 95.4203L418.44 93.6403Z" fill="black"/>
<path d="M465.49 160.14C464.51 159.13 462.19 157.77 462.19 157.77C461.35 157.44 461.18 156.66 461.18 156.66C460.72 153.8 460.1 152.76 460.1 152.76C445.53 133.95 426.87 118.31 405.43 107.08C401.62 105.35 398.16 105.18 398.16 105.18C397.39 105.21 397.01 104.59 397.01 104.59C395.75 102.8 391.96 100.86 390.51 100.18C370.7 92.1501 348.97 87.6901 326.16 87.6901C319.25 87.6901 312.43 88.1001 305.74 88.9001L314.55 77.0801C279.36 76.0301 254.12 103.51 254.12 103.51L254.13 103.54C245.68 107.48 237.6 112.05 230.01 117.26L230.03 117.22C211.68 123.8 206.38 138.59 206.38 138.59C201.73 142.47 192.54 154.71 192.54 154.71C189.92 156.22 187.17 158.74 186.33 159.52C182.1 163.91 174.37 173.82 170.25 190.88C170.14 191.16 170.01 191.44 169.9 191.72C169.73 192.68 169.56 193.75 169.4 194.82C169 196.84 168.65 198.93 168.37 201.13L168.52 200.89C168.46 201.35 168.43 201.62 168.43 201.62C167.99 201.91 165.36 212.44 165.36 212.44C164.92 213.76 160.14 228.17 160.14 228.17L160.11 228.14C160.11 228.17 160.09 228.2 160.09 228.23C147.49 272.29 164.25 298.99 167.1 303.09C189.36 367.91 252.17 414.61 326.17 414.61C382.62 414.61 432.56 387.43 462.97 345.76H462.96C463.82 344.4 464.25 341.63 464.25 341.63C464.29 340.72 464.98 340.3 464.98 340.3C467.32 339.04 468.13 338.19 468.24 338.05C484.5 312.88 493.91 283.09 493.91 251.15C493.89 217.46 483.42 186.15 465.49 160.14Z" fill="black"/>
<path d="M255.76 128.21C256.2 127.75 256.59 127.33 256.95 126.96C257.51 126.37 257.73 126.22 257.79 126.26C257.86 126.2 257.91 126.16 257.91 126.16C258.07 117.76 259.95 111.04 259.95 111.04C275.21 89.7204 300.37 84.0904 300.37 84.0904C303.49 83.1904 301.47 84.5704 301.47 84.5704C285.63 102.31 287.29 116.98 287.29 116.98L302.4 172.15C302.4 172.15 290.15 167.83 280.69 148.45C276.35 187.11 312.8 218.46 312.8 218.46C314.39 219.82 311.89 218.35 311.89 218.35C302.77 213.79 292.25 204.18 289.38 201.48C290.14 204.48 307.89 293.69 307.94 293.97C308.02 294.4 308.28 295.25 308.45 295.82L314.61 280.53L319.68 325.59C296.56 347.1 271.94 338.58 270.41 338.02C271.02 338.99 271.48 339.68 271.49 339.68C271.49 339.68 291.47 378.95 372.92 374.78C372.92 374.78 374.89 374.78 374.59 375.02C374.61 375.09 374.51 375.18 374.14 375.32C372.61 375.86 370.2 376.25 370.2 376.25C271.89 402.52 220.94 318.73 218.72 314.99C218.1 314.12 213.33 307.41 210.67 300.64C210.58 300.44 210.46 299.78 210.93 300.28C210.93 300.28 221.37 311.16 250.91 313.85C251.12 313.82 251.24 313.81 251.24 313.81C228.42 288.36 218.71 269.92 217.28 267.1H217.26C217.26 267.1 214.51 262.97 211.26 251.28C211.26 251.28 211.34 250.69 211.62 251.28C212.73 253.6 220.3 264.75 229.47 267.24C229.48 267.24 229.5 267.23 229.5 267.23C221.7 254.65 216.85 234.75 216.23 231.83C226.85 246.7 245.69 247.78 245.69 247.78C245.66 247.73 245.61 247.69 245.57 247.64C245.61 247.71 245.64 247.75 245.64 247.75C214.67 216.84 221.35 183.21 233.9 158.93C241.34 144.62 250.79 133.54 255.76 128.21Z" fill="white"/>
<path d="M348.43 332.71L328.12 354.07C328.13 354.06 328.13 354.06 328.14 354.06L353.23 334.81L340.25 290.04L345.92 236.2L336.01 287.6L348.43 332.71Z" fill="#BBC4CA"/>
<path d="M343.31 223.76C343.67 223.58 344.11 223.34 344.6 223.05C346.11 222.16 348.12 220.74 350.13 218.66C354.15 214.49 358.17 207.67 358.18 196.95C358.18 192.14 357.37 186.53 355.38 180.07C354.96 187.6 352.99 215.52 343.31 223.76Z" fill="#BBC4CA"/>
<path d="M352.74 132.26C359.8 121.56 371.47 120.64 376.4 120.59C372.14 119.35 368.18 118.88 364.65 118.88C359.66 118.88 355.52 119.8 352.63 120.71C350.55 121.37 349.12 122.03 348.5 122.34C350.32 124.89 352.11 130.3 352.74 132.26Z" fill="#BBC4CA"/>
<path d="M343.77 154.741C343.94 154.761 344.07 154.911 344.07 155.081C344.09 156.091 344.11 157.091 344.11 158.101C344.1 181.191 337.95 206.471 335.64 215.151C344.48 194.961 346.86 176.081 346.86 161.601C346.86 153.121 346.04 146.141 345.23 141.291C344.81 138.771 344.38 136.821 344.07 135.531C341.83 152.861 335.24 160.721 335.2 160.761C335.13 160.851 335.01 160.901 334.89 160.881C334.78 160.871 334.67 160.801 334.61 160.701C327.38 147.361 317.87 137.481 310.16 130.941C304.29 125.961 299.49 122.931 297.53 121.771C318.15 166.611 324.21 201.191 325.75 212.601C325.8 211.291 325.82 209.951 325.82 208.591C325.82 194.941 323.5 179.421 321.16 167.311C318.83 155.201 316.51 146.531 316.5 146.511C316.46 146.361 316.52 146.211 316.65 146.121C316.77 146.031 316.94 146.041 317.06 146.131C326.35 153.351 332.84 173.801 334 177.601C335.73 175.461 338.01 170.101 339.84 165.181C341.83 159.851 343.36 154.991 343.37 154.981C343.41 154.831 343.55 154.731 343.7 154.731C343.74 154.731 343.76 154.741 343.77 154.741ZM334.94 160.541L335.25 160.371L334.94 160.541Z" fill="#BBC4CA"/>
<path d="M170.17 247.78C170.17 269.09 173.86 291.38 192.22 319.87C209.55 356.37 241.5 376.02 256.39 383.56C261.35 386.08 264.4 387.23 264.43 387.24C288.1 398.39 310.35 402.5 330.3 402.5C372.07 402.5 403.74 384.49 416.96 375.49C421.36 372.49 423.7 370.5 423.71 370.5L423.94 370.77L423.72 370.49C424.59 369.77 425.26 369.2 425.74 368.77C425.48 368.91 425.21 369.07 424.95 369.23C424.01 369.79 423.14 370.36 423.12 370.37C390.66 389.41 360.74 395.23 336.32 395.23C298.08 395.23 273.32 380.97 273.3 380.96C192.18 338.41 191 264.68 191 264.63C191 264.47 191.11 264.32 191.27 264.28C191.43 264.24 191.6 264.31 191.67 264.46C202.14 284.74 214.82 291.65 220.48 293.85C221.3 294.17 221.96 294.38 222.45 294.53C198.85 264.82 192.11 239.8 192.11 220.94C192.11 195.96 203.93 181.81 203.96 181.78C204.06 181.66 204.24 181.62 204.38 181.69C204.52 181.76 204.6 181.92 204.57 182.08C202.88 190.9 202.23 198.68 202.23 205.41C202.23 216.37 203.94 224.57 205.65 230.03C206.59 233.01 207.51 235.17 208.16 236.51C207.45 230.52 207.12 224.73 207.12 219.16C207.12 163.54 239.72 129.29 246.59 122.69C241.44 124.84 235.18 130.38 230.09 135.59C224.44 141.35 220.19 146.71 220.18 146.72C220.09 146.84 219.93 146.88 219.79 146.83C219.65 146.78 219.55 146.64 219.55 146.49C219.6 142.08 222.13 136.53 223.49 133.84C219.3 137.65 215.82 143.62 213.34 148.84C210.6 154.62 209.08 159.46 209.08 159.47L209.01 159.6C200.42 169.34 194.78 179.51 191.29 187.25C187.8 194.99 186.46 200.26 186.46 200.27C186.18 201.45 186 202.03 185.85 202.33C185.78 202.41 185.78 202.57 185.44 202.62C184.93 202.48 185.08 202.24 185.01 202.14C184.99 202 184.99 201.84 184.99 201.66C184.99 200.97 185.08 200.01 185.08 200.03C185.31 189.54 189.67 177.73 191.44 173.36C179.08 186.65 176.05 204.68 176.05 219.09C176.05 232.72 178.75 243.06 178.75 243.08L178.76 243.16C178.78 251.64 180.45 262.12 182.11 270.47C183.76 278.82 185.41 285.03 185.41 285.02C185.96 286.64 186.17 287.39 186.17 287.79C186.17 287.86 186.17 287.93 186.13 288.03C186.1 288.13 185.93 288.28 185.77 288.28C185.3 288.17 185.35 287.98 185.13 287.75C184.97 287.51 184.79 287.21 184.63 286.91C184.3 286.33 184.01 285.76 184.01 285.75C175.32 272.45 171.13 250.5 170.19 245.12C170.17 246.03 170.17 246.9 170.17 247.78Z" fill="#BBC4CA"/>
<path d="M443.87 153.9C443.86 153.89 404.35 100.8 330.02 100.79C329.92 100.78 329.52 100.75 329.07 100.75C328.71 100.75 328.31 100.77 327.98 100.83C327.68 100.9 327.25 100.96 327.19 101.5C327.24 101.95 327.54 102.13 328.03 102.45C328.02 102.44 338.27 110.32 344.68 118.34L344.86 118.56L345.11 118.44C345.12 118.44 346.88 117.61 349.97 116.77C353.06 115.93 357.46 115.09 362.69 115.09C369.58 115.09 377.91 116.55 386.57 121.42C382.94 123.19 364.32 132.61 360.36 143.21L360.28 143.43L360.46 143.59C360.5 143.63 379.19 160.64 417.82 160.64C423.97 160.64 430.62 160.21 437.79 159.21C437.79 159.21 439.44 159.02 441.12 158.52C442.76 158 444.58 157.23 444.64 155.63C444.63 155.07 444.38 154.5 443.87 153.9Z" fill="#0064B1"/>
<path d="M363.88 228.31C363.74 228.17 363.52 228.18 363.38 228.32C363.25 228.46 363.25 228.68 363.38 228.82C363.38 228.82 363.84 229.28 364.55 230.25C366.69 233.18 371.02 240.63 371.02 253.27C371.02 262.18 368.86 273.7 362.24 288.02C362.16 285.62 361.89 280.68 360.92 275.52C359.55 268.32 356.9 260.61 351.24 258.86C351.14 258.83 351.03 258.85 350.94 258.91C350.86 258.97 350.8 259.06 350.78 259.16L347.29 290.57L347.3 290.7L359.93 337.56L334.98 357.62C334.88 357.7 334.83 357.84 334.86 357.96C334.88 358.09 334.98 358.19 335.11 358.23C335.13 358.24 344.87 361.32 361.3 361.32C370.06 361.32 380.71 360.44 392.8 357.76C392.85 357.74 395.84 357.02 396.82 354.12C396.83 354.07 399.55 341.3 399.55 322.97C399.54 295.82 393.57 256.44 363.88 228.31Z" fill="#0064B1"/>
<path d="M404.92 354.83C404.46 354.46 404.17 353.84 404.18 352.97C404.18 352.57 404.24 352.13 404.36 351.6C404.36 351.59 405.32 347.88 406.29 341.47C407.25 335.06 408.22 325.99 408.22 315.32C408.22 287.03 401.43 247.57 369.96 216.94C369.95 216.93 369.71 216.77 369.45 216.56C369.2 216.31 368.91 216.18 368.84 215.7C368.83 215.54 368.96 215.34 369.11 215.28C369.25 215.21 369.37 215.2 369.52 215.2C369.83 215.2 370.26 215.27 370.94 215.45C370.96 215.46 379.35 218 385.23 224.6C385.05 223.06 384.61 220.03 383.53 216.28C381.96 210.78 379.04 203.74 373.7 197.6C373.69 197.6 373.36 197.25 373.02 196.86C372.69 196.42 372.36 196.17 372.28 195.7C372.28 195.63 372.3 195.52 372.39 195.42C372.49 195.32 372.61 195.3 372.68 195.3C373.09 195.36 373.38 195.61 374.3 196.26C376.24 197.2 455.32 235.5 458.08 312.8C458.08 312.81 458.13 313.25 458.13 313.95C458.12 315.84 457.83 319.61 455.32 321.75C454.55 322.71 435.8 346.04 408.22 354.99C408.2 355 407.38 355.32 406.45 355.32C405.95 355.3 405.38 355.2 404.92 354.83Z" fill="#0064B1"/>
<path d="M464.1 298.05C462.56 234.27 402.41 190.74 372.41 172.99C362.41 167.07 355.79 164.02 355.78 164.02L354.34 163.36L355.93 163.35C355.99 163.35 356.06 163.35 356.12 163.35C366.82 163.36 373.37 169.81 375.32 172.04C375.32 168.13 373.76 163.83 373.75 163.82L373.49 163.09L374.22 163.36C382.75 166.61 393.76 167.69 404.54 167.69C414.97 167.69 425.21 166.68 432.83 165.67C440.45 164.66 445.45 163.66 445.5 163.65C445.89 163.61 446.26 163.6 446.6 163.6C450.96 163.59 452.35 166.04 452.54 166.45C462.74 177.83 475.35 204.18 477.46 235.84C477.73 239.81 477.85 243.67 477.85 247.39C477.84 271.19 472.93 289.48 469.1 297.22C467.78 299.78 466.75 301.25 465.58 301.34C464.49 301.26 464.17 300.05 464.1 298.05Z" fill="#0064B1"/>
<path d="M290.81 91.8604C290.87 91.8004 290.9 91.7404 290.96 91.6704C290.96 91.6704 290.94 91.6804 290.91 91.6804C290 91.9304 273.76 96.7304 268.95 121.51C268.95 121.51 268.92 121.96 269.18 121.53C270.64 119.13 275.73 111.43 280.4 113.72C280.4 113.72 280.41 113.53 280.45 113.22C280.71 111.12 282.24 102.51 290.81 91.8604Z" fill="black"/>
<path d="M278.36 315.86C274.84 308.79 252.28 259.53 252.28 259.53C245.26 261.75 236.54 256.05 236.54 256.05C236.55 256.05 236.55 256.06 236.55 256.07C247.64 285.54 273.78 311.33 277.95 316.01C277.97 316.03 277.99 316.05 278.01 316.07C278.72 316.85 278.71 316.57 278.71 316.57C278.64 316.42 278.52 316.17 278.36 315.86Z" fill="black"/>
<path d="M255.98 155.38C235.62 201.93 281.45 221.12 282.05 221.36H282.07L279.64 210.64L278.26 204.51C277.12 204.14 276.04 203.7 275 203.25C274.64 203.09 274.31 202.93 273.96 202.77C273.53 202.56 273.1 202.36 272.7 202.14C252.67 191.5 254.62 166.01 255.85 157.72C255.86 157.66 255.86 157.61 255.87 157.56C255.91 157.31 255.95 157.08 255.98 156.86C256.11 156.08 256.21 155.55 256.27 155.28C256.3 155.14 256.32 155.06 256.32 155.06C256.32 155.05 256.32 155.04 256.32 155.02C256.36 154.42 256.1 155.13 255.98 155.38Z" fill="black"/>
<path d="M286.15 286.41L282.85 227.92L302.5 293.14C302.49 293.13 296.06 277.72 286.15 286.41Z" fill="#BBC4CA"/>
<path d="M302.4 172.15L287.29 116.98C287.3 117.27 287.24 117.39 287.33 118.25L291.69 153.22C291.69 153.22 291.81 153.81 291.81 154.5C291.79 156.47 290.57 159.03 281.42 149.23C280.94 148.75 280.8 148.57 280.69 148.45C290.15 167.83 302.4 172.15 302.4 172.15Z" fill="#BBC4CA"/>
<path d="M266.42 182.05C265.2 179.17 264.7 176.54 264.7 174.19C264.71 165.69 270.96 160.91 270.99 160.88L271.17 160.74C271.17 160.83 270.87 155.34 271.37 146.58C266.35 153.98 255.68 171.53 268.44 185.24C268.23 184.95 268.05 184.7 267.88 184.44C267.23 183.49 266.78 182.73 266.42 182.05Z" fill="#BBC4CA"/>
<path d="M279.75 189.16C277.59 185.37 272.06 173.25 271.19 160.99C271.18 160.91 271.17 160.82 271.17 160.73L270.99 160.87C270.96 160.9 264.71 165.68 264.7 174.18C264.7 176.53 265.2 179.16 266.42 182.04C266.77 182.72 267.22 183.49 267.88 184.44C268.05 184.69 268.23 184.95 268.44 185.24C268.67 185.54 268.95 185.83 269.24 186.14C271.38 188.48 275.02 190.9 280.97 191.16C280.98 191.16 280.49 190.47 279.75 189.16Z" fill="black"/>
<path d="M298.07 293.84C298.07 293.84 288.4 291.37 289.02 311.51C289.03 311.48 289.01 311.53 289.02 311.51C289.07 311.05 289.25 310.43 289.48 309.82C292.52 303.17 295.09 300.5 297.56 300.44C299.59 300.46 301.13 302.32 302.41 304.9C303.69 307.5 304.7 310.93 305.49 314.35C306.13 317.14 306.63 319.92 306.99 322.25C307.14 323.69 307.27 325.47 307.37 327.66C307.38 327.78 307.39 327.85 307.39 327.85C307.39 327.84 307.38 327.83 307.38 327.82C307.38 327.85 307.38 327.87 307.38 327.9C307.75 325.55 312.09 297.73 298.07 293.84Z" fill="#BBC4CA"/>
<path d="M307.4 327.86C307.4 327.86 307.39 327.79 307.38 327.67C307.28 325.48 307.15 323.69 307 322.26C306.64 319.94 306.14 317.15 305.5 314.36C304.71 310.94 303.7 307.51 302.42 304.91C301.14 302.33 299.6 300.47 297.57 300.45C295.1 300.51 292.53 303.18 289.49 309.83C289.26 310.44 289.07 311.06 289.03 311.52C289.02 311.54 289.02 311.55 289.03 311.52L293.83 322.05C293.83 322.05 296.57 293.82 307.38 327.79C307.39 327.83 307.39 327.88 307.39 327.91C307.39 327.88 307.39 327.85 307.39 327.83C307.39 327.84 307.4 327.85 307.4 327.86Z" fill="black"/>
</svg>
