<svg width="648" height="648" viewBox="0 0 648 648" fill="none" xmlns="http://www.w3.org/2000/svg">
<path d="M324 612C165.19 612 36 482.81 36 324C36 165.2 165.19 36 324 36C482.8 36 612 165.2 612 324C612 482.81 482.8 612 324 612Z" fill="#FFC627"/>
<path d="M324 50.6699C474.73 50.6699 597.34 173.28 597.34 324.01C597.34 474.72 474.73 597.34 324 597.34C173.29 597.33 50.6602 474.72 50.6602 324C50.6602 173.28 173.29 50.6699 324 50.6699Z" fill="#8B2332"/>
<path d="M583.3 324.81C583.3 468.46 466.86 584.92 323.19 584.92C179.55 584.92 63.0898 468.46 63.0898 324.81C63.0898 181.15 179.55 64.6899 323.19 64.6899C466.86 64.6899 583.3 181.15 583.3 324.81Z" fill="#0D2240"/>
<path d="M323.12 516.31C427.32 516.31 512.08 431.52 512.08 327.15C512.08 222.98 427.32 138.1 323.12 138.1C218.8 138.1 134 222.98 134 327.15C134 431.52 218.8 516.31 323.12 516.31Z" fill="#8B2332"/>
<path d="M146.6 327.15C146.6 229.9 225.78 150.73 323.12 150.73C420.43 150.73 499.52 229.9 499.52 327.15C499.52 424.48 420.43 503.67 323.12 503.67C225.79 503.67 146.6 424.48 146.6 327.15Z" fill="#0D2240"/>
<path d="M478.29 367.04C478.48 336.81 462.22 295.24 447.66 267.56L426.23 279.59L424.11 276.22L424.09 276.23L424.11 276.26L418.66 279.64L205.89 413.51L205.97 413.73L196.22 425.51L195.97 425.11C193.02 424.57 189.08 421.29 185.97 416.33C182.85 411.5 181.5 406.44 182.22 403.71L182.06 403.35L196.75 399.39L196.91 399.61L306.47 328.42L232.59 281.98H232.58L223.41 276.25L223.43 276.22L223.41 276.21L221.2 279.58L199.85 267.55C185.26 295.22 169.02 336.8 169.31 367.03C158.04 332.05 169.61 284.22 185.36 253.28L185.47 253.12L181.51 250.83L194.19 231.21L197.9 233.88C219.29 206.7 257.61 176.43 294.01 171.84C266.54 184.37 235.75 216.36 216.79 241.02L236.7 255.41L234.3 259.07L234.35 259.1L234.37 259.07L239.49 262.44L323.75 317.18L406.8 263.23L413.14 259.08L413.16 259.11L413.2 259.08L410.81 255.42L430.62 241.03C411.77 216.37 380.91 184.38 353.47 171.85C389.91 176.45 428.2 206.79 449.76 233.99L453.31 231.43L465.99 251.1L462.05 253.3C477.85 284.23 489.56 332.05 478.29 367.04ZM450.77 399.4L450.6 399.62L349.79 334.13L332.13 344.59L441.61 413.51L441.48 413.73L451.21 425.51L451.5 425.11C454.45 424.57 458.38 421.29 461.5 416.33C464.53 411.5 465.96 406.44 465.25 403.71L465.43 403.35L450.77 399.4Z" fill="#FFC627"/>
<path d="M341.02 189.44L333.44 199.35L322.95 174.3V289.95L358.19 244.86L393.64 254L341.02 189.44Z" fill="#FFC627"/>
<path d="M341.02 216.55V189.44L333.44 199.34L341.02 216.55Z" fill="white"/>
<path d="M322.96 174.3L259.02 252.25L287.24 245.07L322.96 289.95V174.3Z" fill="white"/>
<path d="M283.88 468.24C293.13 459.36 304.91 453.92 317.61 452.74V435.03H268.81C269.95 447.92 275.38 459.47 283.88 468.24Z" fill="#FFC627"/>
<path d="M317.6 484.66V463.7C308.12 464.85 299.36 468.84 292.15 475.38C299.65 480.38 308.3 483.66 317.6 484.66Z" fill="#FFC627"/>
<path d="M328.44 376.13V397.02C337.89 395.87 346.73 391.95 353.78 385.43C346.39 380.38 337.8 377.09 328.44 376.13Z" fill="white"/>
<path d="M362.12 392.57C352.86 401.35 341.12 406.89 328.44 408.01V424.12H377.16C375.68 411.9 370.2 400.89 362.12 392.57Z" fill="white"/>
<path d="M317.6 397.02V376.13C308.29 377.08 299.65 380.38 292.27 385.43C299.36 391.96 308.13 395.88 317.6 397.02Z" fill="white"/>
<path d="M328.44 435.02V452.73C341.12 453.92 352.94 459.36 362.12 468.24C370.64 459.47 376.25 447.92 377.27 435.02H328.44Z" fill="#FFC627"/>
<path d="M268.91 424.11H317.61V408C304.91 406.87 293.21 401.34 283.88 392.56C275.83 400.88 270.34 411.9 268.91 424.11Z" fill="white"/>
<path d="M328.44 484.66C337.8 483.66 346.39 480.39 353.78 475.39C346.73 468.85 337.89 464.86 328.44 463.71V484.66Z" fill="#FFC627"/>
<path d="M532.93 301.3L539.81 313.12L522.76 329.04L544.89 320.82L551.89 332.78L553.02 319.36L567.82 318.39L555.66 311L570.58 287.66L546.02 307.42L532.93 301.3Z" fill="#FFC627"/>
<path d="M113.57 301.1L106.69 312.92L123.73 328.84L101.6 320.62L94.6099 332.58L93.4799 319.16L78.6799 318.19L90.8299 310.8L75.9199 287.46L100.47 307.22L113.57 301.1Z" fill="#FFC627"/>
<path d="M151.15 217.23L116.81 192.9L124.47 182.09C125.74 180.35 127.22 178.71 128.88 177.23C129.86 176.36 130.91 175.58 131.99 174.9C132.26 174.65 132.43 174.45 132.58 174.23C132.69 174.08 132.79 173.92 132.88 173.75L133.3 172.98L163.5 194.41C163.32 196.48 162.8 198.58 161.95 200.66C161.15 202.59 160.17 204.42 159.04 206.1L158.85 206.37L151.15 217.23ZM129.61 186.1C128.87 187.14 128.77 188.45 129.36 189.36C129.52 189.59 129.68 189.75 129.86 189.88L150.93 204.85L151.01 204.87C152.05 205.1 153.17 204.64 153.9 203.7L154 203.58C154.94 202.25 154.82 200.54 153.73 199.76L133.41 185.17C132.29 184.38 130.67 184.74 129.71 185.99L129.61 186.1Z" fill="white"/>
<path d="M202.2 161.88L182.61 132.18L180.61 133.5L177.04 128.07L198.92 113.64L202.5 119.06L191.77 126.15L197.72 135.18L205.97 129.74L208.02 135.46L200.97 140.11L207.77 150.42L218.5 143.35L222.08 148.77L202.2 161.88Z" fill="white"/>
<path d="M283.97 126.37L275.49 112.18L274.67 112.5L277.81 127.65L267.85 129.7L260.63 94.8001L258.46 95.2401L257.17 88.9101L267.71 86.7301L277.62 100.83L278.42 100.48L275.25 85.1801L285.19 83.1201L293.73 124.34L283.97 126.37Z" fill="white"/>
<path d="M351.04 123.99L352.04 81.4702L361.37 83.0302L360.08 109.15L360.95 109.3L368.65 84.2402L378.01 85.7902C374.27 97.0502 365.16 122.84 364 126.15L351.04 123.99Z" fill="white"/>
<path d="M500.16 196.35L497.87 193.39L485.82 202.69L479.81 194.9L513.14 169.2L521.18 179.62C522.47 181.34 523.63 183.21 524.59 185.17C525.17 186.34 525.64 187.54 526.01 188.74C526.18 189.06 526.32 189.27 526.48 189.48C526.59 189.62 526.71 189.76 526.83 189.89L527.44 190.52L509.7 204.19C508.68 203.71 507.66 203.13 506.67 202.46L506.3 202.21L496.76 216.88L491.01 209.48L500.16 196.35ZM515.88 183.34C515.11 182.35 513.98 181.8 513.06 182.01C512.81 182.08 512.62 182.17 512.46 182.3L504.49 188.41C503.34 189.29 503.63 190.81 504.37 191.85L504.45 191.97C505.46 193.28 506.98 193.73 507.91 193.02L515.93 187.03C516.86 186.31 516.87 184.75 515.96 183.47L515.88 183.34Z" fill="white"/>
<path d="M420.77 146.91L439.24 116.42L437.19 115.19L440.54 109.66L462.96 123.24L459.61 128.77L448.62 122.11L443.18 131.07L451.64 136.19L446.98 141.08L439.77 136.71L433.55 146.98L444.54 153.64L441.15 159.26L420.77 146.91Z" fill="white"/>
<path d="M252.25 562.3C250.08 561.64 247.92 560.72 245.81 559.54C243.8 558.4 242.05 557.06 240.63 555.54L251.47 519.63C253.5 519.14 255.7 518.99 258 519.16C260.41 519.34 262.72 519.77 264.89 520.42C267.05 521.07 269.22 522 271.32 523.18C272.25 523.7 273.16 524.29 274 524.94C274.41 525.26 274.9 525.5 275.43 525.66C275.61 525.72 275.8 525.76 275.99 525.79L276.86 525.95L276.57 526.93L273.46 537.2L263.86 534.3L265.23 529.75C265.58 528.59 264.91 527.3 263.63 526.68C263.45 526.59 263.25 526.52 263.07 526.46C261.48 525.98 259.86 526.66 259.47 527.95L251.64 553.73C251.47 554.28 251.55 554.88 251.84 555.43C252.23 556.14 252.94 556.71 253.82 556.97C255.41 557.45 257.02 556.79 257.41 555.48L260.74 544.6L257.66 542.99L260.81 537.83L272.22 541.26L265.64 563.05C263.61 563.54 261.42 563.69 259.12 563.52C256.74 563.38 254.42 562.96 252.25 562.3Z" fill="white"/>
<path d="M336.39 571.9C334.13 572.02 331.78 571.89 329.4 571.49C327.12 571.11 325.02 570.44 323.17 569.49L321.13 532.04C322.87 530.89 324.88 530 327.11 529.38C329.44 528.74 331.76 528.34 334.02 528.22C336.28 528.1 338.63 528.24 341.01 528.63C342.06 528.8 343.11 529.05 344.13 529.38C344.63 529.54 345.17 529.6 345.72 529.58C345.92 529.57 346.11 529.54 346.3 529.51L347.17 529.36L347.23 530.38L347.81 541.1L337.79 541.64L337.53 536.9C337.47 535.69 336.39 534.7 334.99 534.56C334.78 534.54 334.58 534.53 334.39 534.54C332.73 534.64 331.44 535.81 331.51 537.17L332.93 564.07C332.96 564.64 333.23 565.19 333.69 565.6C334.3 566.15 335.16 566.42 336.07 566.38C337.72 566.29 339.02 565.11 338.94 563.75L338.36 552.38L334.93 551.92L336.13 545.99L348.03 545.35L349.27 568.08C347.53 569.23 345.53 570.12 343.3 570.74C340.97 571.39 338.65 571.78 336.39 571.9Z" fill="white"/>
<path d="M176.5 523.81C174.71 522.43 173.03 520.78 171.48 518.92C170.01 517.14 168.86 515.26 168.09 513.33L188.53 486.99L186.77 485.62L190.73 480.52L200.45 488.07L178.85 515.91C178.02 516.98 178.4 518.67 179.71 519.68C181.02 520.69 182.75 520.64 183.58 519.57L205.18 491.74L213.14 497.91L188.74 529.35C186.68 529.08 184.58 528.43 182.49 527.45C180.3 526.42 178.28 525.2 176.5 523.81Z" fill="white"/>
<path d="M479.03 515.79L455.89 488.74L449.7 494.01L445.51 489.1L465.76 471.84L469.95 476.76L463.76 482.03L486.9 509.09L479.03 515.79Z" fill="white"/>
<path d="M531.14 457.47C529.94 459.38 528.49 461.19 526.83 462.84C525.24 464.43 523.51 465.71 521.66 466.67L512.99 461.22L518.32 452.76L522.85 455.61C523.42 455.97 524.11 456.03 524.81 455.78C525.48 455.54 526.07 455.06 526.48 454.4L526.56 454.28C527.34 452.91 527.06 451.27 525.91 450.55L516.22 444.46L510.5 453.55C508.99 455.95 506.25 456.96 504.39 455.8C504.04 455.59 503.71 455.39 503.51 455.27L489.9 446.71C489.97 444.63 490.38 442.5 491.12 440.38C491.9 438.17 492.9 436.08 494.1 434.17C495.3 432.26 496.76 430.44 498.43 428.76C499.3 427.89 500.23 427.1 501.21 426.39C501.51 426.1 501.73 425.82 501.91 425.53C502.02 425.36 502.11 425.2 502.19 425.02L502.57 424.23L512.54 430.49L507.2 438.98L503.16 436.44C502.97 436.32 502.76 436.24 502.52 436.19C501.43 435.98 500.26 436.58 499.58 437.66L499.51 437.79C498.72 439.15 499.01 440.8 500.16 441.52L507.06 445.86C507.15 445.91 507.24 445.96 507.32 446.01L507.68 446.21L513.24 437.38C514.84 434.82 517.76 433.75 519.73 434.99L521.47 436.09L521.83 436.34L535.37 444.86C535.3 446.94 534.88 449.08 534.13 451.21C533.35 453.46 532.34 455.56 531.14 457.47Z" fill="white"/>
<path d="M394.55 523.82L392.34 524.73L389.86 518.77L414.07 508.7L416.55 514.67L404.68 519.61L408.7 529.28L417.83 525.48L419.02 532.13L411.23 535.37L415.84 546.46L427.7 541.52L430.19 547.58L408.25 556.73L394.55 523.82Z" fill="white"/>
<path d="M120.65 464.48L130.55 451.26L129.96 450.63L117.13 459.26L111.46 450.83L141.03 430.93L139.8 429.09L145.15 425.52L151.17 434.43L141.88 448.93L142.51 449.54L155.46 440.81L161.14 449.25L126.21 472.75L120.65 464.48Z" fill="white"/>
</svg>
