<svg width="648" height="648" viewBox="0 0 648 648" fill="none" xmlns="http://www.w3.org/2000/svg">
<path d="M611.59 323.76C611.59 482.82 482.64 611.76 323.59 611.76C164.53 611.76 35.5898 482.82 35.5898 323.76C35.5898 164.7 164.53 35.7598 323.59 35.7598C482.64 35.7598 611.59 164.71 611.59 323.76Z" fill="#B5B3B3"/>
<path d="M603.32 323.76C603.32 478.25 478.08 603.49 323.59 603.49C169.09 603.49 43.8496 478.25 43.8496 323.76C43.8496 169.26 169.09 44.0195 323.59 44.0195C478.08 44.0295 603.32 169.27 603.32 323.76Z" fill="#1D428A"/>
<path d="M562.13 323.759C562.13 455.499 455.33 562.289 323.59 562.289C191.85 562.289 85.0498 455.499 85.0498 323.759C85.0498 192.019 191.84 85.2295 323.59 85.2295C455.34 85.2295 562.13 192.019 562.13 323.759Z" fill="#C8102E"/>
<path d="M323.59 85.2197C192.06 85.2197 85.0498 192.23 85.0498 323.76C85.0498 455.29 192.06 562.29 323.59 562.29C455.12 562.29 562.13 455.29 562.13 323.76C562.13 192.23 455.12 85.2197 323.59 85.2197ZM98.8998 330.78H142.8V316.74H98.8998C99.0698 311.43 99.3498 306.14 99.8798 300.93C115.44 222.6 209.8 162.16 323.58 162.16C437.36 162.16 531.73 222.6 547.29 300.93C547.82 306.14 548.11 311.42 548.27 316.73H504.37V330.77H548.27C548.11 336.08 547.82 341.36 547.29 346.58C531.73 424.9 437.36 485.35 323.58 485.35C209.79 485.35 115.43 424.91 99.8798 346.58C99.3498 341.38 99.0698 336.09 98.8998 330.78ZM323.59 98.9097C418.86 98.9097 500.44 158.5 533.13 242.34C493.15 187.63 414.24 150.29 323.59 150.29C232.95 150.29 154.03 187.62 114.05 242.34C146.74 158.49 228.31 98.9097 323.59 98.9097ZM323.59 548.62C228.32 548.62 146.75 489.04 114.06 405.2C154.04 459.92 232.95 497.25 323.59 497.25C414.23 497.25 493.15 459.92 533.13 405.2C500.43 489.03 418.86 548.62 323.59 548.62Z" fill="white"/>
<path d="M222.79 405.78H239.66V329.99H222.8L222.79 405.78Z" fill="white"/>
<path d="M287.439 330.03H286.929C282.189 330 264.969 329.93 261.659 330L260.799 330.05C255.709 330.05 252.469 332.47 251.679 336.85C251.539 337.56 251.529 338.11 251.539 338.11C251.519 338.27 250.369 352.47 251.769 356.48C254.029 363 259.289 365.42 264.139 366.91C264.299 366.96 264.469 367.01 264.639 367.05C264.949 367.13 265.269 367.22 265.579 367.35C266.109 367.57 266.489 367.85 266.709 368.22L266.779 395.51L252.859 395.55L252.909 405.64L271.229 405.66H271.239C277.599 405.38 281.979 402.6 283.609 397.79C284.069 394.09 284.129 368.68 283.759 363.37C283.639 361.37 282.729 359.76 280.879 358.3C280.159 357.74 279.269 357.17 278.139 356.53C277.139 356.01 276.059 355.48 275.019 354.99C271.059 353.06 266.569 350.86 266.569 345.82L266.589 341.51H279.829C282.549 341.51 284.719 340.18 286.119 337.67C287.179 335.75 287.479 333.83 287.469 333.72C287.589 332.47 287.519 331.3 287.469 330.53L287.439 330.03Z" fill="white"/>
<path d="M364.549 329.97C360.749 329.97 356.789 330.09 353.599 331C345.339 332.99 341.319 338.51 341.319 347.87V392.95C341.319 404.5 349.579 406.87 361.979 406.87C377.009 406.87 385.629 401.56 385.629 392.31L385.659 345.32C385.669 329.97 375.879 329.97 364.549 329.97ZM358.989 347.06C359.069 345.06 359.239 343.56 359.509 342.37L359.809 342.08C360.559 341.96 361.299 341.91 362.189 341.91H362.529C368.249 341.98 368.409 343.7 368.409 354.05V385.69C368.409 386.64 368.409 387.52 368.349 388.47C368.309 389.37 368.209 390.23 368.039 391.03L367.729 391.33C366.729 391.48 365.759 391.56 364.719 391.56C362.619 391.56 361.159 391.1 360.259 390.17C358.919 388.79 358.879 386.48 358.959 383.8V351.84C358.959 351.83 358.929 348.28 358.989 347.06Z" fill="white"/>
<path d="M424.76 362.2C416.7 333.02 403.77 329.77 398.42 329.77C397.03 329.77 396.19 329.99 396.15 330L395.75 330.11V405.84L412.829 405.86V375.39L424.73 405.86H442.09V330.08H424.76V362.2V362.2Z" fill="white"/>
<path d="M202.26 329.97L159.68 330.03H159.16L159.13 330.54C159.13 330.63 158.77 339.56 168.73 341.63V405.79H186.19V373.55H200.88C208.63 373.55 213.08 368.45 213.08 359.56L213.12 356.84C213.12 335.38 212.25 331.08 202.26 329.97ZM195.44 363.62L185.95 363.63V341.62C185.95 341.62 191.11 341.52 191.88 341.62C193.75 341.86 195.48 342.59 195.48 344.84C195.48 345.57 195.44 363.62 195.44 363.62Z" fill="white"/>
<path d="M336.09 330.09H296.6V342H307.86V405.91L325.21 405.9L325.23 341.94C325.44 341.95 325.65 341.95 325.86 341.95C328.96 341.95 331.43 341 333.2 339.14C336.35 335.82 336.13 330.83 336.12 330.61L336.09 330.09Z" fill="white"/>
<path d="M488.07 330.03H487.56C482.82 330 465.6 329.93 462.29 330L461.43 330.05C456.34 330.05 453.1 332.47 452.32 336.85C452.17 337.56 452.17 338.11 452.17 338.11C452.16 338.27 451 352.47 452.4 356.48C454.66 363 459.92 365.42 464.76 366.91C464.92 366.96 465.09 367.01 465.26 367.05C465.57 367.13 465.89 367.22 466.2 367.35C466.73 367.57 467.11 367.85 467.33 368.22L467.4 395.51L453.48 395.55L453.53 405.64L471.85 405.66H471.86C478.21 405.38 482.6 402.6 484.23 397.79C484.68 394.09 484.75 368.68 484.38 363.37C484.26 361.37 483.35 359.76 481.49 358.3C480.77 357.74 479.88 357.17 478.75 356.53C477.74 356.01 476.67 355.48 475.63 354.99C471.67 353.06 467.18 350.86 467.18 345.82L467.19 341.51H480.43C483.15 341.51 485.32 340.18 486.72 337.67C487.78 335.75 488.08 333.83 488.07 333.72C488.19 332.47 488.13 331.3 488.07 330.53V330.03Z" fill="white"/>
<path d="M333.13 283.23H336.06C338.88 283.29 343.61 284.15 343.61 289.22C343.61 291.64 343.83 299.21 343.91 302.06L343.94 303.2C343.96 303.62 344.15 307.33 344.33 308.03C345.54 312.44 348.97 315.09 354.33 315.67H359.27V288.7C359.27 286.39 358.01 283.14 356.2 280.83L355.84 280.34C358.55 277.3 359.6 274.23 359.6 269.55L359.62 266.92C359.62 245.97 358.78 241.77 349.05 240.7H316.27V314.66H333.13V283.23ZM333.17 252.3L336.04 252.29L336.5 252.3C340.91 252.37 342.56 252.39 342.44 260.18C342.45 266.38 342.44 266.77 342.32 269.83L342.31 270.41C342.32 271.3 341.94 272.29 341.37 272.88C340.97 273.29 340.49 273.5 339.96 273.5H333.17V252.3V252.3Z" fill="white"/>
<path d="M437.81 240.69H421.37L421.31 314.61L437.81 314.62V240.69Z" fill="white"/>
<path d="M279.889 314.72L296.819 314.69L296.839 252.21C297.049 252.22 297.249 252.22 297.459 252.22C300.499 252.22 302.919 251.3 304.639 249.47C307.709 246.24 307.479 241.37 307.469 241.17L307.439 240.67H268.899V252.28H279.879V314.72H279.889Z" fill="white"/>
<path d="M457.449 314.72L474.389 314.69V252.21C474.599 252.22 474.809 252.22 475.009 252.22C478.059 252.22 480.479 251.29 482.209 249.47C485.279 246.24 485.059 241.38 485.049 241.18L485.019 240.68H446.479V252.29H457.449V314.72Z" fill="white"/>
<path d="M260.049 302.76H242.329V284.79H254.479V268.69H242.329V252.05H260.049V240.69H225.879L225.819 314.61H260.049V302.76Z" fill="white"/>
<path d="M204.38 240.69H162.23L162.17 241.14C162.14 241.32 161.63 245.57 164.37 248.8C166.11 250.86 168.75 252.02 172.27 252.24V314.52H203.66C210.82 314.52 215.63 308.44 215.63 299.39L215.64 265.08C215.64 246.15 215.64 241.06 204.38 240.69ZM198.53 302.76H189.16V252.29C194.96 252.05 196.19 252.56 196.29 252.6C198.47 253.46 198.43 257.51 198.43 257.62C199.05 263.46 198.6 298.11 198.53 302.76Z" fill="white"/>
<path d="M391.38 240.69C387.61 240.69 383.68 240.81 380.52 241.69C372.32 243.64 368.33 249.04 368.33 258.2V302.32C368.33 313.62 376.53 315.94 388.84 315.94C403.75 315.94 412.3 310.74 412.3 301.7L412.33 255.71C412.33 240.69 402.61 240.69 391.38 240.69ZM385.85 257.41C385.93 255.45 386.1 253.99 386.37 252.82L386.67 252.54C387.41 252.42 388.15 252.37 389.03 252.37H389.37C395.05 252.44 395.21 254.12 395.21 264.25V295.22C395.21 296.15 395.21 297.02 395.15 297.94C395.1 298.83 395 299.66 394.84 300.45L394.53 300.74C393.54 300.89 392.58 300.96 391.54 300.96C389.47 300.96 388.02 300.51 387.11 299.6C385.78 298.24 385.74 295.98 385.82 293.37V262.09C385.83 262.09 385.8 258.62 385.85 257.41Z" fill="white"/>
</svg>
