<svg width="648" height="648" viewBox="0 0 648 648" fill="none" xmlns="http://www.w3.org/2000/svg">
<path d="M330.11 59.15L312.66 36H305.65H303.58H300.83V38.24L303.58 40.2V74.13H312.66V51.2L330.16 74.13H339.19V36H330.11V59.15Z" fill="#1D428A"/>
<path d="M266.4 79.8699L292.53 75.2699L291.16 67.4899L274.46 70.4299L273.16 63.0799L286.79 60.6799L286.2 57.3399L285.42 52.8999L271.79 55.3099L270.58 48.4399L285.82 45.7499L286.5 37.6099L261.82 41.9699L259.78 42.3299L257.07 42.7999L257.46 45.0099L260.51 46.4699L266.4 79.8699Z" fill="#1D428A"/>
<path d="M223.01 94.0801L236.38 89.2201C248.77 84.7101 253.57 74.5601 249.75 64.0701C245.93 53.5801 235.72 48.8901 223.28 53.4201L211.45 57.7201L209.96 58.2601L206.91 59.3701L207.68 61.4701L211.52 62.5401L223.01 94.0801ZM221.72 62.3801L226.5 60.6401C231.38 58.8601 237.99 59.5901 240.81 67.3101C243.62 75.0401 239.02 79.8401 234.14 81.6201L229.36 83.3601L221.72 62.3801Z" fill="#1D428A"/>
<path d="M188.64 112.97L212.23 99.3499L209.89 91.0199L192.74 100.92L177.87 75.1699L171.67 78.7499L169.58 79.9499L167.49 81.1599L168.61 83.0999L171.56 83.3799L188.64 112.97Z" fill="#1D428A"/>
<path d="M165.43 104.42C158.28 96.2 146.31 94.85 136.94 102.99C127.53 111.17 127.24 123.18 134.39 131.4C141.54 139.62 153.51 141.05 162.92 132.87C172.28 124.73 172.58 112.64 165.43 104.42ZM141.77 124.98C137.37 119.92 137.37 113.58 142.36 109.24C147.27 104.97 153.64 105.79 158.03 110.84C162.39 115.85 162.38 122.35 157.47 126.62C152.49 130.97 146.13 130 141.77 124.98Z" fill="#1D428A"/>
<path d="M126.75 136.68L119.21 146.33L117.23 148.87L114.04 152.95L120.04 157.64L126.01 150C127.74 153.53 127.44 157.59 124.72 161.08L124.71 161.09C120.63 166.29 114.22 166.55 108.99 162.46C103.71 158.33 102.49 152.11 106.57 146.89C107.21 146.07 107.92 145.36 108.68 144.78C109.78 143.93 110.99 143.34 112.25 143L115.35 139.03L119.29 133.98L119.47 133.75C119.27 133.71 119.07 133.67 118.86 133.64C112.57 132.71 105.94 134.97 100.93 140.71C100.63 141.06 100.33 141.41 100.04 141.78C92.36 151.61 94.37 163.45 102.96 170.16C111.55 176.87 123.57 175.99 131.25 166.16C131.52 165.82 131.77 165.47 132.01 165.13C136.99 158.04 137.1 149.99 133.46 143.66C133.11 143.06 132.73 142.47 132.32 141.9C131.21 140.37 129.86 138.97 128.29 137.74C127.8 137.35 127.29 137 126.78 136.67C126.77 136.69 126.76 136.69 126.75 136.68Z" fill="#1D428A"/>
<path d="M385.19 64.8402L388.46 67.9302C391.29 70.5602 392.63 71.8502 392.06 73.8402C391.61 75.4102 389.66 76.2702 386.82 75.4502C383.35 74.4602 379.9 71.6002 377.4 67.8202L374.64 77.4502C376.98 79.6002 379.79 81.7002 385.47 83.3302C392.73 85.4102 399.9 82.8202 401.94 75.7002C403.55 70.1002 400.54 66.2902 396.46 62.4602L392.61 58.8102C390.82 57.1102 390.41 55.9702 390.77 54.7102C391.22 53.1402 393.11 52.4902 395.43 53.1502C398.01 53.8902 401.22 55.7702 404.5 59.6002L407.01 50.8602C405.67 49.5702 402.27 46.9502 397.17 45.4902C389.28 43.2302 382.89 46.6602 381.13 52.7902C379.9 57.0902 381.2 61.0902 385.19 64.8402Z" fill="#1D428A"/>
<path d="M416.8 94.63L425.57 98.73L438.35 71.33L449.2 76.39L452.54 69.24L422 55L418.67 62.15L429.57 67.24L416.8 94.63Z" fill="#1D428A"/>
<path d="M441.38 101.68L439.07 105.11L445.67 109.56L448.42 106.46L452.62 104.33L458.47 108.27L464.32 112.22L463.92 116.91L462.08 120.63L468.68 125.08L470.99 121.65L479.73 86.5399L475.19 83.4799L471.64 81.0799L470.66 80.4199L467.64 78.3799L466.39 80.2399L467.35 82.8199L441.38 101.68ZM469.86 91.3799L466.35 104.51L462.68 102.03L459 99.5599L469.86 91.3799Z" fill="#1D428A"/>
<path d="M491.54 104.95L500.35 113.16L479.73 135.26L486.81 141.87L507.43 119.76L516.19 127.93L521.57 122.15L496.93 99.1699L491.54 104.95Z" fill="#1D428A"/>
<path d="M519.26 154.84L527.78 165.75L534.01 160.88L525.49 149.98L530.98 145.69L540.51 157.89L548.01 154.66L532.41 134.69L532.49 134.63L529.52 130.83L527.75 132.21L527.91 135.93L501.27 156.75L517.6 177.66L523.82 172.8L513.38 159.43L519.26 154.84Z" fill="#1D428A"/>
<path d="M548.78 313.66C548.78 440.01 446.36 542.43 320.01 542.43C193.66 542.43 91.24 440 91.24 313.66C91.24 187.32 193.66 84.8799 320.01 84.8799C446.36 84.8799 548.78 187.31 548.78 313.66Z" fill="#1D428A"/>
<path d="M469.64 164.02C429.67 124.05 376.53 102.04 320.01 102.04C263.49 102.04 210.35 124.05 170.38 164.02C130.41 203.99 108.4 257.13 108.4 313.65C108.4 370.17 130.41 423.31 170.38 463.28C210.35 503.25 263.49 525.26 320.01 525.26C376.53 525.26 429.67 503.25 469.64 463.28C509.61 423.31 531.62 370.17 531.62 313.65C531.62 257.13 509.61 203.99 469.64 164.02ZM178.46 172.11C216.27 134.3 266.54 113.48 320.01 113.48C373.48 113.48 423.75 134.3 461.56 172.11C499.37 209.92 520.19 260.19 520.19 313.66C520.19 342.42 514.16 370.25 502.7 395.72C478.44 387.54 454.52 378.3 431.12 367.9C428.05 366.52 424.96 365.17 421.9 363.78L412.77 359.47L408.2 357.31L403.68 355.06L394.64 350.55C391.64 349.02 388.68 347.43 385.7 345.87L381.23 343.52C379.74 342.74 378.28 341.9 376.81 341.09L367.98 336.2L359.25 331.12C336.03 317.49 313.66 302.39 292.57 285.66C282.04 277.29 271.81 268.52 262.08 259.26C257.21 254.63 252.48 249.86 247.89 244.97C246.75 243.75 245.6 242.52 244.49 241.27C243.36 240.03 242.26 238.78 241.17 237.51C240.07 236.25 239.01 234.97 237.95 233.69C237.91 233.64 237.87 233.59 237.83 233.54C237.43 218.84 237.22 210.05 237.22 210.05L227.2 207.69V221.12H218.68V207.02L207.93 209.58L208.01 214.7L202.99 217.43C203.13 221.64 203.23 227.13 203.3 233.67C199.24 240.76 154.87 317.4 121.69 340.97C120.47 331.99 119.84 322.87 119.84 313.65C119.83 260.19 140.65 209.92 178.46 172.11ZM441.37 411.82L420.75 412.51L404.02 368.97L407.3 370.61L416.48 375.21C419.56 376.7 422.66 378.15 425.75 379.62C426.63 380.03 427.51 380.43 428.39 380.84L441.37 411.82ZM436.39 384.55C444.7 388.33 453.07 391.97 461.5 395.47L468.41 410.91L447.73 411.61L436.39 384.55ZM414.45 412.72L393.4 413.43L371.46 351.24C372.85 352.05 374.22 352.87 375.62 353.65L380.1 356.15C383.09 357.81 386.07 359.5 389.08 361.12L396.03 364.79L414.45 412.72ZM387.16 413.64L368.32 414.27L340.9 332.47C345.09 335.2 349.31 337.88 353.57 340.52L362.33 345.89L363.51 346.58L387.16 413.64ZM362.11 414.48L342.39 415.14L309.88 310.84C317.4 316.45 325.05 321.87 332.83 327.11L362.11 414.48ZM336.21 415.35L317.22 415.99L278.56 285.66C281.3 288.04 284.05 290.39 286.84 292.71C291.73 296.77 296.69 300.75 301.71 304.64L336.21 415.35ZM311.07 416.2L290.1 416.91L243.95 252.03C248 256.49 252.14 260.85 256.4 265.09C260.87 269.55 265.45 273.9 270.11 278.15L311.07 416.2ZM283.97 417.11L265.8 417.72L240.41 320.91C239.61 295.95 238.92 272.86 238.4 254.29L283.97 417.11ZM259.7 417.93L243.97 418.46C243.01 395.43 242.11 371.22 241.31 347.79L259.7 417.93ZM481.67 431.77C480.32 433.61 478.93 435.44 477.51 437.24L244.81 432.68L244.71 430.44L481.67 431.77ZM474.84 410.69L469.49 398.73C478.31 402.29 487.2 405.7 496.13 408.97C495.94 409.31 495.76 409.65 495.57 409.99L474.84 410.69ZM227.2 264.35V276.66H217.87V288.1H227.2V300.42H217.87V311.86H227.2V334.96H217.86V346.4H227.2V370.16H217.86V381.6H227.2L227.21 419.03L218.61 419.32L218.65 245.19H227.18V252.93H217.86V264.37H227.2V264.35ZM137.36 395.81L163.44 307.89C173.99 293.85 185.62 276.21 197.83 254.15L151.08 421.18C145.89 413.04 141.31 404.57 137.36 395.81ZM133.72 387.17C129.11 375.48 125.61 363.34 123.29 350.88C130.69 344.99 141.1 335.41 153.5 320.49L133.72 387.17ZM203.37 256.48C203.34 274.16 203.12 295.44 202.67 318.23L175.78 420.75L157.21 421.37L203.37 256.48ZM202.09 343.93C201.43 369.33 200.49 395.55 199.23 419.96L182 420.54L202.09 343.93ZM166.44 442.06L197.89 443.17C197.26 452.88 196.57 462.11 195.82 470.67C189.79 465.88 183.99 460.73 178.46 455.2C174.23 450.97 170.23 446.58 166.44 442.06ZM320.01 513.83C295.06 513.83 270.8 509.29 248.19 500.61C247.26 486.92 246.36 470.55 245.5 452.66L227.24 446.44L227.25 491.13C224.34 489.6 221.46 488 218.62 486.33L218.63 443.9L227.24 444.21V444.49L236.58 444.54L253.44 445.14L464.11 452.6C463.27 453.47 462.43 454.34 461.57 455.2C423.75 493.01 373.48 513.83 320.01 513.83Z" fill="#FDB927"/>
<path d="M388.08 557.4L385.79 545.64L373.07 548.11L358.65 550.91L346.01 553.37L348.29 565.13L360.94 562.67L367.4 595.92L354.75 598.38L357.04 610.14L369.77 607.67L384.19 604.86L396.83 602.41L394.54 590.65L381.9 593.1L375.44 559.85L388.08 557.4Z" fill="#1D428A"/>
<path d="M461.59 543.38C468.57 558.36 463.09 575.86 446.02 583.82C428.87 591.82 412.02 584.73 405.03 569.75C398.05 554.77 403.49 537.38 420.63 529.38C437.71 521.43 454.61 528.4 461.59 543.38ZM448.13 549.66C443.84 540.45 434.9 536.6 425.95 540.77C416.85 545.01 414.21 554.27 418.5 563.48C422.76 572.62 431.62 576.69 440.72 572.45C449.66 568.27 452.39 558.79 448.13 549.66Z" fill="#1D428A"/>
<path d="M503.39 495.91C496.2 487.49 484.87 488.15 476.35 495.43L460.32 509.12L457.86 511.22L454.84 513.8L457.01 516.35L461.88 515.93L495.42 555.2L506.53 545.72L492.85 529.7L496.07 526.95L520.8 533.54L534.18 522.12L505.58 515.47C508.61 509.06 508.11 501.44 503.39 495.91ZM490.4 516.35L485.23 520.77L476.75 510.84L482.18 506.2C485.27 503.56 489.14 502.97 491.98 506.3C494.82 509.65 493.74 513.5 490.4 516.35Z" fill="#1D428A"/>
<path d="M557.53 493.75C552.13 500.91 547.62 503.74 543.31 505.89L531.17 496.74C537.88 495.25 543.8 491.92 547.1 487.55C549.8 483.97 549.64 480.74 547.66 479.25C545.15 477.36 542.6 478.55 537.34 481.14L531.19 484.09C523.71 487.7 517.34 487.37 511.93 483.29C504.21 477.47 502.82 466.55 510.31 456.61C515.15 450.18 520.71 446.79 523.27 445.59L534.29 453.89C527.08 456.46 522.66 459.99 520.22 463.23C518.02 466.15 517.91 469.18 519.89 470.67C521.47 471.86 523.31 471.89 526.69 470.29L533.95 466.83C541.6 463.14 548.62 460.95 555.68 466.27C564.66 473.03 564.42 484.6 557.53 493.75Z" fill="#1D428A"/>
<path d="M332.08 571.9C332.47 560.83 323.67 553.67 312.47 553.28L291.41 552.54L288.17 552.43L284.2 552.29L284.08 555.64L287.96 558.62L286.16 610.23L300.76 610.74L301.5 589.69L305.73 589.84L319.51 611.4L337.09 612.01L320.5 587.79C327.05 585.11 331.83 579.16 332.08 571.9ZM308.69 578.19L301.89 577.95L302.35 564.9L309.48 565.15C313.54 565.29 316.79 567.47 316.64 571.85C316.48 576.23 313.09 578.34 308.69 578.19Z" fill="#1D428A"/>
<path d="M267.09 566.75C270.23 556.13 263.51 546.99 252.77 543.81L232.56 537.82L229.45 536.9L225.64 535.77L224.69 538.98L227.7 542.83L213.03 592.34L227.03 596.49L233.01 576.29L237.07 577.49L245.01 601.81L261.88 606.81L251.88 579.2C258.92 578.28 265.03 573.72 267.09 566.75ZM242.88 566.98L236.36 565.05L240.07 552.53L246.91 554.56C250.81 555.71 253.4 558.64 252.16 562.84C250.91 567.04 247.09 568.23 242.88 566.98Z" fill="#1D428A"/>
<path d="M198.29 520.25L193.18 517.24L191.14 516.04L186.96 513.58L185.26 516.47L186.7 519.7L148.78 550.93L145.6 556.33L156 562.46L159.89 557.51L166.05 553.9L175.27 559.33L184.49 564.76L184.32 571.9L181.87 577.7L192.27 583.83L195.45 578.43L205.43 524.46L198.29 520.25ZM181.06 549.51L175.27 546.1L190.96 532.71L186.86 552.92L181.06 549.51Z" fill="#1D428A"/>
<path d="M163.71 497.94L160.1 494L157.63 496.26L158.13 500.35L126.92 513.87L147.08 479.79L140.81 472.95L105.32 490.3L124.35 454.98L113.35 442.98L111.96 441.46L109.49 443.73L110.17 449.27L85.4299 498.11L95.3599 508.95L119.21 499.09L107.25 521.93L117.19 532.77L174.54 509.75L163.71 497.94Z" fill="#1D428A"/>
</svg>
