<svg width="649" height="648" viewBox="0 0 649 648" fill="none" xmlns="http://www.w3.org/2000/svg">
<path d="M523.794 237.22C507.314 199.68 480.614 167.65 446.534 144.52C410.564 120.12 368.544 107.22 325.014 107.22C281.484 107.22 239.464 120.12 203.494 144.52C169.414 167.64 142.714 199.68 126.234 237.22C52.5237 256.57 37.0137 280.71 37.0137 297.59L37.0937 389.53C38.1237 404.95 54.3237 433.77 151.144 453.89C170.684 480.01 196.214 501.74 225.034 516.77C255.694 532.76 290.264 541.21 325.014 541.21C359.764 541.21 394.334 532.76 424.994 516.77C453.804 501.75 479.344 480.01 498.884 453.89C595.704 433.77 611.914 404.94 612.944 389.38L613.014 297.58C613.014 280.71 597.504 256.57 523.794 237.22Z" fill="white"/>
<path d="M518.694 243.18C486.924 167.54 412.074 114.27 325.023 114.27C237.973 114.27 163.123 167.53 131.353 243.18C77.5835 256.86 44.0635 276.18 44.0635 297.59L44.1235 389.06C44.1235 369.81 71.1535 353.73 115.683 340.44C123.993 448.66 214.703 534.17 325.013 534.17C435.323 534.17 526.033 448.66 534.343 340.44C578.873 353.73 605.903 369.82 605.903 389.06L605.963 297.59C605.973 276.18 572.464 256.86 518.694 243.18Z" fill="#9EA2A2"/>
<path d="M605.724 386.45C605.684 386.12 605.654 385.79 605.594 385.47C605.524 385.1 605.434 384.73 605.344 384.37C605.294 384.15 605.254 383.93 605.194 383.71C605.074 383.26 604.924 382.82 604.774 382.37C604.734 382.24 604.694 382.1 604.644 381.97C604.454 381.45 604.244 380.92 604.014 380.4C603.994 380.35 603.974 380.3 603.954 380.26C601.064 373.84 595.014 367.81 586.234 362.14C572.274 371.39 551.074 380.1 525.334 387.1V387.11C521.884 398.06 517.574 408.63 512.454 418.73V418.74C507.344 428.83 501.444 438.46 494.834 447.54C561.104 434.08 604.324 412.93 605.924 389.06C605.924 388.45 605.894 387.85 605.844 387.25C605.804 386.98 605.764 386.72 605.724 386.45Z" fill="#707271"/>
<path d="M44.313 386.45C44.353 386.12 44.383 385.79 44.443 385.47C44.513 385.1 44.603 384.73 44.693 384.37C44.743 384.15 44.783 383.93 44.843 383.71C44.963 383.26 45.113 382.82 45.263 382.37C45.303 382.24 45.343 382.1 45.393 381.97C45.583 381.45 45.793 380.92 46.023 380.4C46.043 380.35 46.063 380.3 46.083 380.26C48.973 373.84 55.023 367.81 63.803 362.14C77.763 371.39 98.963 380.1 124.703 387.1V387.11C128.153 398.06 132.463 408.63 137.583 418.73C137.583 418.73 137.583 418.73 137.583 418.74C142.693 428.83 148.593 438.46 155.203 447.54C88.9331 434.08 45.713 412.93 44.123 389.07C44.123 388.46 44.153 387.86 44.203 387.26C44.223 386.98 44.273 386.72 44.313 386.45Z" fill="#707271"/>
<path d="M325.013 523.24C434.929 523.24 524.033 434.136 524.033 324.22C524.033 214.304 434.929 125.2 325.013 125.2C215.097 125.2 125.993 214.304 125.993 324.22C125.993 434.136 215.097 523.24 325.013 523.24Z" fill="#373A36"/>
<path d="M579.264 275.69C566.044 267.33 546.054 259.44 521.444 252.86C517.614 251.84 513.684 250.85 509.674 249.9C480.224 176.8 408.654 125.2 325.014 125.2C241.374 125.2 169.804 176.8 140.354 249.9C136.344 250.86 132.414 251.84 128.584 252.86C103.984 259.44 83.9836 267.33 70.7636 275.69C62.5336 280.89 52.7236 288.91 52.7236 297.59V360.23C67.6036 348.21 91.6136 337.72 124.094 329.03C124.734 328.86 125.394 328.69 126.044 328.52C128.334 436.44 216.534 523.23 325.004 523.23C433.474 523.23 521.674 436.44 523.964 328.52C524.614 328.69 525.274 328.86 525.914 329.03C558.394 337.71 582.404 348.21 597.284 360.23V297.59C597.294 288.91 587.484 280.89 579.264 275.69ZM451.214 199.12C451.924 197.61 453.934 197.25 455.094 198.45C468.324 212.13 479.404 227.89 487.824 245.19C486.154 244.87 484.484 244.55 482.794 244.24C471.974 232.03 459.844 221.02 446.564 211.49C447.774 207.21 449.334 203.08 451.214 199.12ZM405.024 161.91C417.254 167.95 428.704 175.33 439.184 183.86C441.434 185.69 442.084 188.83 440.774 191.41C438.714 195.46 436.944 199.68 435.504 204.05C425.924 198.02 415.854 192.7 405.354 188.19C403.954 180.65 402.264 173.19 400.314 165.81C399.564 163.02 402.444 160.63 405.024 161.91ZM351.334 145.2C360.434 146.52 369.304 148.52 377.914 151.15C381.154 152.14 383.664 154.68 384.664 157.91C387.174 166.03 389.354 174.29 391.174 182.68C380.714 179.03 369.894 176.15 358.774 174.12C357.374 169.48 355.634 164.91 353.554 160.43C351.904 156.89 350.064 153.47 348.044 150.19C346.584 147.82 348.564 144.8 351.334 145.2ZM505.954 324.22C505.954 356.35 497.574 386.53 482.884 412.69C482.014 414.24 479.634 413.34 480.014 411.6L480.034 411.5C487.044 380.13 485.514 348.18 475.954 318.36C475.114 315.73 474.224 313.1 473.254 310.5C472.814 309.32 471.764 308.47 470.524 308.27L462.384 306.94C460.384 306.61 458.784 308.6 459.554 310.48C460.314 312.35 461.034 314.23 461.714 316.11C472.424 345.53 474.574 377.43 467.574 408.72C467.164 410.53 466.734 412.34 466.274 414.13C458.904 442.65 438.614 465.93 411.644 477.77C388.924 487.74 363.854 493.35 337.524 493.51C326.144 493.58 315.004 492.6 304.194 490.68C299.744 489.89 298.204 484.25 301.654 481.32C307.944 475.98 314.044 470.37 319.944 464.47C324.154 460.26 328.224 455.94 332.164 451.53C333.834 449.65 334.704 447.2 334.634 444.68L334.294 433.85C334.244 432.21 332.194 431.53 331.154 432.8C317.354 449.73 301.734 465.11 284.584 478.65C280.264 482.06 274.444 482.87 269.314 480.85C244.894 471.26 223.004 456.59 204.904 438.15C201.254 434.43 199.614 429.16 200.734 424.07C205.584 402.04 214.404 381 226.814 362.07C227.884 360.44 227.114 358.24 225.254 357.66C222.954 356.95 220.734 356.19 218.614 355.38C217.384 354.91 215.974 355.34 215.264 356.45C204.914 372.54 196.964 390.03 191.624 408.31C190.354 412.68 184.544 413.59 182.044 409.79C165.314 384.32 154.654 354.5 152.094 322.45C151.694 317.49 151.484 312.49 151.484 307.43C151.484 306.87 151.484 306.31 151.494 305.75C151.704 282.39 160.414 259.99 175.774 242.72C178.344 239.83 181.084 237.06 184.024 234.48C210.744 210.99 243.594 194.32 279.834 187.2C280.904 182.83 282.124 178.3 283.524 173.56C247.874 179.5 215.124 194.12 187.514 215.15C184.934 217.12 181.664 213.8 183.684 211.27C217.214 169.37 268.984 142.7 326.964 143.31C326.974 143.32 326.984 143.32 327.004 143.33C333.034 149.94 338.104 157.49 341.994 165.83C342.944 167.87 343.794 169.95 344.584 172.03C336.354 171.08 327.994 170.58 319.514 170.58C315.544 170.58 311.594 170.7 307.684 170.91C308.844 174.97 309.904 179.17 310.844 183.54C313.724 183.42 316.604 183.34 319.514 183.34C329.344 183.34 339.014 184.05 348.484 185.39C349.264 189.13 349.794 192.91 350.074 196.7C350.154 197.77 350.904 198.66 351.934 198.94C356.034 200.04 359.754 201.44 363.084 203.11C363.074 197.97 362.664 192.83 361.874 187.74C372.914 190.06 383.634 193.28 393.954 197.3C395.644 207.61 396.804 218.1 397.404 228.74C397.494 230.42 398.734 231.81 400.394 232.08L408.044 233.33C409.264 233.53 410.374 232.55 410.314 231.31C409.884 221.89 409.034 212.55 407.784 203.3C416.264 207.35 424.414 211.97 432.204 217.1C431.214 222.65 430.744 228.23 430.764 233.77C430.774 235.04 431.394 236.18 432.374 236.88C432.834 237.21 433.374 237.45 433.964 237.55L441.714 238.81C442.354 238.91 442.934 238.64 443.284 238.17C443.504 237.88 443.624 237.51 443.604 237.11C443.424 233.23 443.524 229.32 443.914 225.41C450.154 230.17 456.114 235.29 461.764 240.72C479.094 257.38 493.504 277.03 504.184 298.85C505.344 307.13 505.964 315.58 505.964 324.18C505.954 324.19 505.954 324.2 505.954 324.22Z" fill="black"/>
<path d="M366.434 312.8L366.774 284.17C366.744 270.73 352.774 268.48 342.464 268.65C349.384 266.36 357.704 262.45 363.734 255.94C370.054 250.1 374.564 241.88 373.784 230.34C372.464 210.92 348.184 201.25 307.934 205.15C307.274 205.21 306.614 205.28 305.964 205.35C304.074 191 301.134 177.1 296.664 164.26L294.674 166.24C289.324 182.84 286.124 196.07 284.264 208.35C260.244 212.49 243.414 218 243.414 218L241.434 219.98C241.434 219.98 260.864 218.22 283.004 218.53C280.544 243.7 283.054 267.61 282.974 312.78C247.204 311.77 215.824 317.72 208.144 327.27C205.624 329.35 204.284 331.63 204.364 334.08C204.754 345.03 237.274 355.08 282.984 358.92L284.934 421L286.924 419.01L290.134 376.91C290.144 376.22 290.224 375.64 290.354 375.14C291.314 375.27 292.224 376.5 292.224 378.64L293.634 434.08L295.624 432.1L299.034 386.98C299.024 385.97 299.134 385.14 299.324 384.48C300.294 384.65 301.184 386.07 301.114 388.61L302.694 446.41L304.674 444.43L307.404 360.31C312.654 360.48 318.014 360.57 323.474 360.57C329.254 360.57 334.944 360.47 340.514 360.29L343.274 447.99L345.254 446.01L347.614 400.11C347.624 399.19 347.724 398.42 347.894 397.8C348.794 398.01 349.624 399.35 349.624 401.72L351.994 466.09L353.974 464.11L356.374 408.5C356.404 407.71 356.514 407.04 356.694 406.48C357.834 406.47 358.994 407.83 359.044 410.49L361.024 484.2L363.004 482.21L365.894 358.78C404.954 355.37 434.614 347.49 441.964 338.44C444.404 336.39 445.714 334.27 445.714 332.11C445.134 320.07 409.004 310.79 366.434 312.8ZM282.564 345.87C251.254 342.85 230.104 336.5 230.104 328.47C230.104 327.88 230.274 327.32 230.604 326.78C237.944 321.62 260.434 318.36 282.964 314.98C282.934 323.81 282.804 333.43 282.514 344.02L282.564 345.87ZM346.354 238.08C347.544 246.94 345.004 253.63 340.434 258.68C332.264 266.09 319.454 269.46 309.034 270.99C309.214 254.27 308.974 236.92 307.524 219.89C327.624 222.04 344.874 227.11 346.354 238.08ZM340.494 347.57C335.584 347.71 330.564 347.79 325.434 347.79C319.394 347.79 313.504 347.69 307.794 347.49L308.024 340.35C307.484 322.27 308.614 299.6 308.974 275.39C323.634 277.09 341.324 281.27 341.014 291.58L340.494 347.57ZM418.354 333.62C411.064 339.37 391.654 343.82 366.044 346.1L366.414 315.31C395.734 319.13 419.524 323.42 419.524 330.45C419.524 331.54 419.124 332.6 418.354 333.62Z" fill="#9EA2A2"/>
<path d="M445.684 332.09C445.134 320.07 409.004 310.79 366.434 312.79L366.774 284.16C366.724 266.44 342.464 268.17 334.284 269.25C343.834 267.52 375.754 259.55 373.784 230.32C372.464 210.9 348.184 201.23 307.934 205.13C307.274 205.19 306.614 205.26 305.964 205.33C304.074 190.98 301.134 177.08 296.664 164.24C291.064 181.6 287.814 195.28 285.994 208.04C261.044 212.21 243.404 217.98 243.404 217.98C243.404 217.98 262.834 216.22 284.974 216.53C282.474 242.08 285.094 266.32 284.944 312.82C242.634 311.33 205.904 319.57 206.344 332.07C206.724 343.02 239.254 353.08 284.964 356.92L286.904 418.99L290.114 376.89C290.214 371.67 294.194 372.15 294.194 376.63L295.614 432.07L299.024 386.95C298.974 380.86 303.234 381.15 303.084 386.6L304.654 444.4L307.444 358.25C313.304 358.46 319.314 358.57 325.434 358.57C331.214 358.57 336.904 358.47 342.474 358.29L345.234 445.98L347.594 400.08C347.624 394.23 351.584 394.53 351.574 399.71L353.944 464.08L356.354 408.47C356.534 403.01 360.904 403.25 361.004 408.47L362.984 482.18L365.914 357.02V356.94C412.134 353.13 445.684 343.06 445.684 332.09ZM348.334 236.1C351.604 260.39 326.834 268.38 309.044 270.99C309.234 253.55 308.964 235.41 307.344 217.69C328.354 219.7 346.804 224.74 348.334 236.1ZM230.104 328.47C230.104 321.05 257.504 317.13 284.944 313.01C284.914 321.83 284.784 331.46 284.494 342.04L284.624 346.07C252.184 343.13 230.104 336.67 230.104 328.47ZM307.794 347.49L308.024 340.35C307.464 321.73 308.684 298.23 309.014 273.19C324.004 274.73 343.324 278.81 343.004 289.59L342.454 347.5C336.934 347.68 331.244 347.78 325.434 347.78C319.394 347.79 313.504 347.69 307.794 347.49ZM366.044 346.1L366.434 313.07C396.644 316.97 421.494 321.29 421.494 328.48C421.504 336.7 398.874 343.18 366.044 346.1Z" fill="#CE1141"/>
<path d="M114.973 270.53C111.213 271.79 107.453 273.08 103.713 274.41C101.313 275.26 99.3633 277.98 99.3633 280.44C99.3633 293.35 99.3633 306.27 99.3633 319.18C99.3633 321.64 101.323 322.94 103.713 322.09C107.463 320.76 111.213 319.47 114.973 318.21C117.383 317.4 119.353 314.75 119.353 312.29C119.353 299.38 119.353 286.46 119.353 273.55C119.363 271.09 117.383 269.72 114.973 270.53ZM112.093 311.77C110.253 312.39 108.413 313.03 106.583 313.67C106.583 302.72 106.583 291.76 106.583 280.81C108.413 280.17 110.253 279.54 112.093 278.91C112.093 289.87 112.093 300.82 112.093 311.77ZM228.213 243.45C224.323 244.02 220.443 244.63 216.573 245.28C214.093 245.69 212.063 248.06 212.063 250.52C212.063 263.43 212.063 276.35 212.063 289.26C212.063 291.72 214.093 293.38 216.573 292.97C220.453 292.33 224.333 291.72 228.213 291.14C230.703 290.77 232.733 288.48 232.733 286.02C232.733 273.11 232.733 260.19 232.733 247.28C232.733 244.81 230.703 243.08 228.213 243.45ZM225.243 284.16C223.343 284.45 221.443 284.75 219.543 285.05C219.543 274.1 219.543 263.14 219.543 252.19C221.443 251.88 223.343 251.59 225.243 251.3C225.243 262.26 225.243 273.21 225.243 284.16ZM140.793 262.48C143.233 261.77 145.683 261.08 148.133 260.4C148.133 274.8 148.133 289.21 148.133 303.61C148.133 306.07 146.133 308.63 143.703 309.33C139.903 310.41 136.103 311.53 132.313 312.68C129.893 313.42 127.913 312.03 127.913 309.57C127.913 295.17 127.913 280.76 127.913 266.36C130.343 265.6 132.783 264.86 135.223 264.13C135.223 277.55 135.223 290.98 135.223 304.4C137.083 303.84 138.933 303.3 140.793 302.76C140.793 289.32 140.793 275.9 140.793 262.48ZM83.7533 281.86C86.1433 280.93 88.5333 280.01 90.9233 279.1C90.9233 295 90.9233 310.89 90.9233 326.79C88.5233 327.7 86.1333 328.62 83.7533 329.55C83.7533 322.84 83.7533 316.13 83.7533 309.41C82.0933 310.06 80.4333 310.72 78.7833 311.38C78.7833 318.09 78.7833 324.8 78.7833 331.52C76.4033 332.47 74.0233 333.44 71.6533 334.43C71.6533 318.53 71.6533 302.64 71.6533 286.74C74.0233 285.76 76.4033 284.79 78.7833 283.83C78.7833 290.54 78.7833 297.25 78.7833 303.97C80.4433 303.31 82.0933 302.65 83.7533 302C83.7533 295.28 83.7533 288.57 83.7533 281.86ZM184.363 251.44C191.163 249.96 197.983 248.59 204.823 247.33C204.823 249.8 204.823 252.27 204.823 254.74C202.653 255.14 200.473 255.55 198.303 255.98C198.303 269.4 198.303 282.83 198.303 296.25C195.823 296.73 193.333 297.23 190.853 297.75C190.853 284.33 190.853 270.9 190.853 257.48C188.683 257.93 186.523 258.39 184.353 258.86C184.363 256.38 184.363 253.91 184.363 251.44ZM261.203 239.41C261.203 255.31 261.203 271.2 261.203 287.1C258.693 287.34 256.183 287.6 253.673 287.87C253.673 285.09 253.673 282.32 253.673 279.54C251.933 274.57 250.183 269.61 248.443 264.66C248.443 272.59 248.443 280.52 248.443 288.46C245.933 288.75 243.433 289.06 240.923 289.38C240.923 273.48 240.923 257.59 240.923 241.69C243.373 241.38 245.833 241.08 248.293 240.79C250.083 245.88 251.883 250.99 253.673 256.09C253.673 250.79 253.673 245.48 253.673 240.18C256.183 239.91 258.693 239.66 261.203 239.41ZM177.183 257.52C177.183 259.37 177.183 261.22 177.183 263.07C174.713 263.64 172.243 264.22 169.773 264.81C169.773 263.94 169.773 263.07 169.773 262.2C167.893 262.65 166.023 263.11 164.153 263.58C164.153 266.86 164.153 270.14 164.153 273.42C167.713 275.09 171.273 276.8 174.833 278.53C176.573 279.38 177.183 280.91 177.183 282.96C177.183 287.39 177.183 291.83 177.183 296.26C177.183 298.72 175.173 301.19 172.713 301.77C168.873 302.68 165.043 303.62 161.223 304.6C158.773 305.22 156.773 303.74 156.773 301.28C156.773 299.43 156.773 297.58 156.773 295.73C159.233 295.08 161.693 294.45 164.153 293.84C164.153 294.71 164.153 295.58 164.153 296.45C166.023 295.98 167.903 295.52 169.773 295.07C169.773 291.79 169.773 288.51 169.773 285.23C166.213 283.52 162.653 281.85 159.103 280.2C157.373 279.4 156.773 277.89 156.773 275.84C156.773 271.41 156.773 266.97 156.773 262.54C156.773 260.08 158.773 257.54 161.223 256.92C165.043 255.94 168.883 255 172.713 254.09C175.163 253.51 177.173 255.06 177.183 257.52ZM434.983 245.53C431.103 244.88 427.223 244.26 423.343 243.68C420.853 243.31 418.823 245.03 418.823 247.49C418.823 260.4 418.823 273.32 418.823 286.23C418.823 288.69 420.853 290.99 423.343 291.36C427.223 291.94 431.103 292.56 434.983 293.21C437.463 293.63 439.493 291.97 439.493 289.51C439.493 276.6 439.493 263.68 439.493 250.77C439.493 248.31 437.463 245.94 434.983 245.53ZM432.013 285.31C430.113 285 428.213 284.7 426.313 284.4C426.313 273.45 426.313 262.49 426.313 251.54C428.213 251.83 430.113 252.14 432.013 252.45C432.013 263.4 432.013 274.35 432.013 285.31ZM532.513 269.69C539.173 271.89 545.803 274.19 552.403 276.61C552.403 279.08 552.403 281.55 552.403 284.02C550.303 283.25 548.203 282.5 546.093 281.75C546.093 295.17 546.093 308.6 546.093 322.02C543.683 321.17 541.273 320.33 538.853 319.5C538.853 306.08 538.853 292.65 538.853 279.23C536.743 278.51 534.623 277.8 532.513 277.1C532.513 274.63 532.513 272.16 532.513 269.69ZM571.263 293.85C571.263 292.98 571.263 292.11 571.263 291.24C569.453 290.51 567.633 289.8 565.823 289.09C565.823 292.37 565.823 295.65 565.823 298.93C569.273 302.84 572.713 306.78 576.143 310.75C577.813 312.69 578.393 314.6 578.403 316.65C578.403 321.08 578.403 325.52 578.403 329.95C578.403 332.41 576.473 333.62 574.103 332.66C570.403 331.16 566.693 329.69 562.983 328.26C560.603 327.34 558.653 324.6 558.653 322.14C558.653 320.29 558.653 318.44 558.653 316.59C561.053 317.49 563.443 318.41 565.833 319.34C565.833 320.21 565.833 321.08 565.833 321.95C567.653 322.66 569.463 323.38 571.273 324.1C571.273 320.82 571.273 317.54 571.273 314.26C567.833 310.32 564.383 306.4 560.933 302.52C559.253 300.63 558.653 298.74 558.663 296.69C558.663 292.26 558.663 287.82 558.663 283.39C558.663 280.93 560.613 279.65 562.993 280.57C566.713 282 570.423 283.47 574.113 284.97C576.483 285.93 578.413 288.74 578.413 291.2C578.413 293.05 578.413 294.9 578.413 296.75C576.023 295.77 573.643 294.8 571.263 293.85ZM498.023 259.33C495.473 266.59 492.923 273.86 490.373 281.15C492.923 289.76 495.473 298.38 498.023 307.01C495.443 306.31 492.863 305.63 490.283 304.96C488.253 298.1 486.213 291.26 484.173 284.42C484.173 290.75 484.173 297.08 484.173 303.41C481.713 302.8 479.243 302.2 476.773 301.62C476.773 285.72 476.773 269.83 476.773 253.93C479.243 254.51 481.703 255.11 484.173 255.72C484.173 262.05 484.173 268.38 484.173 274.71C486.213 268.88 488.243 263.07 490.283 257.26C492.863 257.95 495.443 258.63 498.023 259.33ZM468.423 256.52C468.423 258.42 468.423 260.31 468.423 262.21C465.953 261.66 463.473 261.13 460.993 260.61C460.993 259.69 460.993 258.78 460.993 257.86C459.103 257.46 457.223 257.08 455.333 256.7C455.333 267.65 455.333 278.61 455.333 289.56C457.223 289.94 459.103 290.33 460.993 290.72C460.993 289.9 460.993 289.08 460.993 288.25C463.473 288.77 465.953 289.3 468.423 289.85C468.423 291.65 468.423 293.46 468.423 295.26C468.423 297.72 466.403 299.28 463.943 298.75C460.093 297.92 456.233 297.13 452.373 296.38C449.903 295.9 447.873 293.5 447.873 291.04C447.873 278.13 447.873 265.21 447.873 252.3C447.873 249.84 449.903 248.21 452.373 248.69C456.233 249.45 460.093 250.24 463.943 251.06C466.403 251.6 468.423 254.06 468.423 256.52ZM409.653 264.84C409.653 258.64 409.653 252.43 409.653 246.23C409.653 243.77 407.613 241.49 405.123 241.19C399.713 240.53 394.303 239.94 388.883 239.41C388.883 255.31 388.883 271.2 388.883 287.1C391.393 287.34 393.903 287.6 396.413 287.87C396.413 281.16 396.413 274.45 396.413 267.73C397.423 267.84 398.443 267.95 399.453 268.07C400.553 274.91 401.653 281.75 402.753 288.59C405.293 288.89 407.833 289.2 410.363 289.53C409.243 282.54 408.123 275.55 406.993 268.56C408.563 268.06 409.653 266.64 409.653 264.84ZM402.143 260.97C400.233 260.75 398.333 260.53 396.423 260.32C396.423 256.08 396.423 251.84 396.423 247.6C398.333 247.81 400.243 248.02 402.143 248.25C402.143 252.49 402.143 256.73 402.143 260.97ZM506.283 261.63C512.953 263.53 519.593 265.53 526.213 267.65C526.213 270.12 526.213 272.59 526.213 275.06C522.023 273.72 517.823 272.43 513.613 271.18C513.613 275.42 513.613 279.66 513.613 283.9C516.733 284.83 519.853 285.78 522.963 286.75C522.963 289.22 522.963 291.69 522.963 294.16C519.853 293.19 516.733 292.23 513.613 291.31C513.613 295.55 513.613 299.79 513.613 304.03C517.823 305.28 522.023 306.58 526.213 307.91C526.213 310.38 526.213 312.85 526.213 315.32C519.593 313.21 512.943 311.2 506.283 309.3C506.283 293.42 506.283 277.52 506.283 261.63Z" fill="white"/>
</svg>
