<svg width="649" height="648" viewBox="0 0 649 648" fill="none" xmlns="http://www.w3.org/2000/svg">
<path d="M612.623 323.78C612.623 482.86 483.683 611.79 324.633 611.79C165.573 611.79 36.6533 482.86 36.6533 323.78C36.6533 164.73 165.573 35.79 324.633 35.79C483.683 35.79 612.623 164.73 612.623 323.78Z" fill="#BEC0C2"/>
<path d="M596.153 323.78C596.153 473.73 474.613 595.33 324.633 595.33C174.663 595.33 53.1133 473.73 53.1133 323.78C53.1133 173.83 174.663 52.2603 324.633 52.2603C474.603 52.2603 596.153 173.83 596.153 323.78Z" fill="#002D62"/>
<path d="M324.634 65.02C181.754 65.02 65.8838 180.88 65.8838 323.78C65.8838 466.71 181.754 582.53 324.634 582.53C467.524 582.53 583.384 466.72 583.384 323.78C583.394 180.88 467.524 65.02 324.634 65.02Z" fill="#FDBB30"/>
<path d="M501.774 323.78C501.774 423.65 422.444 504.66 324.644 504.66C226.814 504.66 147.514 423.65 147.514 323.78C147.514 223.9 226.814 142.94 324.644 142.94C422.434 142.94 501.774 223.9 501.774 323.78Z" fill="#002D62"/>
<path d="M324.634 492.97C416.169 492.97 490.374 417.221 490.374 323.78C490.374 230.339 416.169 154.59 324.634 154.59C233.098 154.59 158.894 230.339 158.894 323.78C158.894 417.221 233.098 492.97 324.634 492.97Z" fill="white"/>
<path d="M142.784 273.12L141.074 279.9L88.1338 266.69L89.8438 259.91L142.784 273.12Z" fill="#002D62"/>
<path d="M150.143 191.81L173.043 209.33L169.083 214.48L125.793 181.35L128.023 178.45L159.373 186.55L135.703 168.42L139.643 163.28L182.953 196.4L180.653 199.4L150.143 191.81Z" fill="#002D62"/>
<path d="M234.223 148.14L237.183 146.61C240.063 145.15 240.583 142.55 239.423 140.32C233.783 129.28 229.733 121.4 224.103 110.34C222.873 107.98 220.433 107.24 217.993 108.48L214.763 110.14L234.223 148.14ZM205.813 108.07L216.563 102.55C221.173 100.22 226.903 100.49 229.763 106.08C236.593 119.43 239.623 125.34 246.473 138.66C249.193 144.01 246.123 148.7 241.713 150.97L230.673 156.6L205.813 108.07Z" fill="#002D62"/>
<path d="M317.813 131.49L310.863 131.86L307.903 77.41L314.963 77.02L317.813 131.49Z" fill="#002D62"/>
<path d="M404.854 108.69L404.404 108.51L393.334 126.73L400.634 129.55L404.854 108.69ZM397.134 146.01L399.404 135.58L390.214 132.04L384.834 141.27L378.354 138.79L407.384 91.52L414.124 94.11L403.844 148.6L397.134 146.01Z" fill="#002D62"/>
<path d="M478.043 167.05L457.043 186.82L452.573 182.09L492.293 144.68L494.763 147.34L481.723 176.99L503.453 156.54L507.903 161.25L468.213 198.65L465.623 195.91L478.043 167.05Z" fill="#002D62"/>
<path d="M539.113 250.93L538.943 250.45L517.813 253.43L520.283 260.87L539.113 250.93ZM505.303 268.6L514.853 263.73L511.763 254.37L501.153 256.04L498.993 249.46L553.983 242.05L556.263 248.88L507.573 275.43L505.303 268.6Z" fill="#002D62"/>
<path d="M131.533 424.99L135.443 432.46L154.713 422.43L150.793 414.96L131.533 424.99ZM107.663 437.43L104.453 431.21L152.813 406.03L160.773 421.35C162.343 424.39 161.513 426.78 159.133 428.02C150.513 432.49 146.113 434.77 137.523 439.27C135.013 440.59 132.603 439.83 131.193 437.17L126.313 427.74L107.663 437.43Z" fill="#002D62"/>
<path d="M198.404 490.84L198.024 490.52L182.004 504.58L188.134 509.47L198.404 490.84ZM179.854 524.12L185.164 514.84L177.444 508.7L169.524 515.89L164.104 511.58L205.974 475.28L211.664 479.77L185.464 528.64L179.854 524.12Z" fill="#002D62"/>
<path d="M276.523 548.45L283.313 550.13L279.853 564.19C279.213 566.76 276.903 568.1 274.603 567.56C269.683 566.3 266.373 565.5 261.443 564.29C258.973 563.69 257.543 561.42 258.163 558.84C262.483 541.46 264.783 532.02 269.083 514.63C269.663 512.13 272.093 510.73 274.283 511.3C279.223 512.5 282.743 513.38 287.683 514.58C290.023 515.16 291.363 517.56 290.753 519.99L288.003 531.12L281.223 529.47L283.613 519.68L275.503 517.69L265.313 559.13L273.393 561.15L276.523 548.45Z" fill="#002D62"/>
<path d="M376.674 567.19L359.194 570.33L349.604 516.62L366.914 513.55L367.944 519.37L357.504 521.22L360.644 538.66L370.424 536.91L371.454 542.81L361.664 544.55L365.044 563.25L375.634 561.37L376.674 567.19Z" fill="#002D62"/>
<path d="M457.003 532.84L451.243 536.78L420.503 491.71L435.423 481.54C438.193 479.66 440.533 480.55 441.933 482.62C446.193 488.85 449.003 492.93 453.223 499.19C455.013 501.78 454.113 504.23 451.963 505.67L451.263 506.16L471.103 523.19L464.623 527.64L442.333 507.75L442.073 505.26L446.773 502.07L436.943 487.67L429.623 492.66L457.003 532.84Z" fill="#002D62"/>
<path d="M512.393 450.79L523.203 457.61L526.383 452.52L515.923 445.94L495.673 446.93C494.223 446.94 492.983 446.87 491.883 446.18C487.993 443.72 486.153 442.57 482.043 439.98C480.143 438.78 479.263 436.1 480.613 434C482.843 430.43 484.533 427.79 486.783 424.23C488.253 421.93 490.673 421.62 492.903 423.03L502.353 428.97L498.623 434.88L490.343 429.67L487.143 434.74L495.263 439.84L514.443 438.77C516.323 438.77 517.993 438.8 519.313 439.65C524.433 442.89 526.193 444 531.333 447.21C533.413 448.54 534.303 451.03 532.923 453.29C530.683 456.85 528.983 459.49 526.753 463.05C525.583 464.94 523.103 465.81 520.663 464.31L508.663 456.72L512.393 450.79Z" fill="#002D62"/>
<path d="M271.583 221.11L226.773 424.65L315.613 424.72C315.613 424.72 325.443 384.3 326.343 380.57C330.173 380.57 364.863 380.57 364.863 380.57C393.593 380.78 417.183 371 433.133 352.27C462.133 320.71 457.043 274.65 435.233 248.41C419.633 229.52 397.093 219.11 371.893 219.06L272.063 219.01L271.583 221.11Z" fill="#BEC0C2"/>
<path d="M319.953 372.45L309.223 416.61L236.863 416.57L278.613 227.12L371.863 227.19C395.123 227.23 415.003 236.66 429.073 253.59C449.733 278.54 451.763 320.06 427.023 347.02C411.833 364.83 389.543 372.63 364.903 372.48L319.953 372.45Z" fill="#002D62"/>
<path d="M268.983 270.48L309.843 270.51C314.543 270.51 319.563 274.45 317.373 280.41C316.043 284.11 315.043 288.39 314.543 292.41C314.193 295.53 317.693 297.51 319.693 297.51L403.023 297.56C404.533 297.56 405.383 297.14 405.383 296.39C405.383 295.64 405.303 292.89 405.043 290.94C404.753 289.1 404.453 288.78 402.943 288.78C392.553 288.78 388.313 284.14 377.453 277.12C366.533 270.1 350.603 266.06 336.843 266.06L269.973 266L268.983 270.48Z" fill="#FDBB30"/>
<path d="M319.474 324.45C318.004 321.35 316.674 317.68 315.874 314.3C314.814 309.96 311.184 306.46 304.874 306.46L261.054 306.42L262.174 301.49L404.304 301.62C405.714 301.62 405.394 302.2 405.314 303.77C405.274 305.32 404.864 308.24 404.654 309.96C404.414 311.67 403.034 311.28 401.674 311.3C398.464 311.37 392.534 312.13 389.064 314.73C383.174 319.15 370.604 326.93 363.554 329.18C356.004 331.59 327.644 340.26 319.384 324.31" fill="#FDBB30"/>
<path d="M253.193 342.23L327.403 342.3C330.673 342.3 333.483 343.09 335.693 344.91C341.983 350.06 350.113 353.82 358.723 356.33C362.623 357.44 369.243 356 375.203 352.61C390.053 344.22 399.623 328.25 402.763 317.94C403.593 315.27 402.013 315.47 399.943 315.64C393.673 316.08 387.103 321.75 378.453 327.25C369.773 332.77 352.173 337.98 335.483 337.96L254.153 337.93L253.193 342.23Z" fill="#FDBB30"/>
<path d="M362.084 242.84C363.114 242.66 366.914 242.42 368.964 243.23C383.094 248.79 396.404 263.47 401.964 279.06C403.054 282.08 403.344 284 401.964 284.16C395.524 284.87 392.524 281.69 384.894 276.52C377.314 271.38 370.304 267.86 360.674 264.81C351.204 261.8 333.914 261.35 331.654 261.28C329.414 261.19 329.674 260.27 330.664 259.29C338.954 251.02 350.054 245.01 362.084 242.84Z" fill="#FDBB30"/>
<path d="M429.723 296.32C429.763 296.93 429.143 297.59 428.373 297.59C428.303 297.59 412.123 297.59 412.123 297.59C410.043 297.59 409.953 296.61 409.933 295.43C409.823 294.23 409.503 291.84 409.453 290.43C409.363 289.05 408.883 287.48 410.703 286.71C415.233 284.8 419.513 280.37 421.483 276.56C422.093 275.28 423.073 273.18 424.203 274.96C428.053 281.1 429.273 288.7 429.723 296.32Z" fill="#FDBB30"/>
<path d="M423.874 325.52C423.594 326.07 422.584 326.47 422.234 325.59C419.864 319.25 414.224 314.88 410.354 312.72C409.184 312.07 409.094 311.3 409.234 310.16C409.364 308.98 409.874 305.31 409.944 303.72C410.004 302.51 410.474 301.62 411.444 301.62H428.374C429.014 301.62 429.724 302.17 429.724 302.6C429.724 310.7 427.274 318.66 423.874 325.52Z" fill="#FDBB30"/>
<path d="M379.874 357.33C378.654 357.51 376.044 357.11 380.144 354.72C392.444 347.56 403.444 330.76 406.324 321.12C407.494 317.43 407.584 317.24 408.994 317.66C410.894 318.2 413.864 320.77 416.124 323.89C418.404 327.03 419.394 333.14 418.084 334.86C409.244 346.72 395.144 355.07 379.874 357.33Z" fill="#FDBB30"/>
<path d="M411.154 281.33C408.294 282.84 407.744 282.57 407.154 280.41C401.784 261.67 386.014 247.77 379.554 243.67C378.314 242.88 378.654 242.37 379.514 242.48C394.974 244.54 410.114 252.94 417.714 264.5C422.074 271.1 413.934 279.83 411.154 281.33Z" fill="#FDBB30"/>
</svg>
