<svg width="649" height="648" viewBox="0 0 649 648" fill="none" xmlns="http://www.w3.org/2000/svg">
<path d="M44.1438 294.45C38.6038 299.51 35.8338 306.08 35.8438 314.06V458.5C35.8438 466.64 38.6138 473.28 44.1438 478.34C49.6638 483.41 56.4938 485.52 64.5738 484.84C77.4938 483.76 90.4338 482.75 103.384 481.83V454.53C90.4338 455.19 77.5038 455.91 64.5738 456.68C64.5738 409.75 64.5738 362.81 64.5738 315.88C77.4938 316.66 90.4338 317.37 103.384 318.03V290.73C90.4338 289.81 77.5038 288.8 64.5738 287.72C56.4938 287.04 49.6738 289.24 44.1438 294.45Z" fill="black"/>
<path d="M137.994 293C128.374 292.42 118.764 291.8 109.144 291.14V481.43C130.124 479.97 151.124 478.73 172.154 477.71V451.59C160.764 451.99 149.374 452.43 137.994 452.92V293Z" fill="black"/>
<path d="M177.944 477.43C187.744 476.97 197.564 476.55 207.374 476.19C207.374 416.25 207.374 356.32 207.374 296.39C197.564 296.02 187.744 295.61 177.944 295.15V477.43Z" fill="black"/>
<path d="M261.754 297.94C245.554 297.62 229.344 297.17 213.164 296.59V475.97C222.814 475.63 232.464 475.33 242.114 475.07V398.96C248.664 398.94 255.204 398.92 261.764 398.89C269.764 398.87 276.554 396.42 282.134 391.57C287.854 386.72 290.744 380.77 290.734 373.71V323.48C290.734 316.55 287.854 310.65 282.134 305.73C276.534 300.7 269.744 298.1 261.754 297.94ZM261.754 373.66C255.204 373.64 248.654 373.62 242.104 373.6V322.86C248.654 322.98 255.194 323.09 261.754 323.19V373.66Z" fill="black"/>
<path d="M517.034 391.93C522.744 386.79 525.594 380.41 525.604 372.82V318.95C525.604 311.51 522.754 305.33 517.034 300.51C511.474 295.52 504.714 293.31 496.734 293.75C480.574 294.65 464.404 295.43 448.214 296.07V476.49C457.854 476.87 467.494 477.31 477.134 477.78V400.13C485.144 426.08 493.134 452.36 501.134 479.06C510.764 479.61 520.384 480.21 529.994 480.85C521.594 452.89 513.194 425.48 504.784 398.47C509.344 397.32 513.464 395.23 517.034 391.93ZM477.134 320.93C483.674 320.7 490.204 320.45 496.734 320.2C496.734 337.82 496.734 355.45 496.734 373.07C490.204 373.12 483.664 373.17 477.134 373.21V320.93Z" fill="black"/>
<path d="M345.154 298.48C328.944 298.59 312.734 298.57 296.514 298.43V474.12C306.174 474.03 315.834 473.99 325.494 474V398.81C332.044 398.81 338.604 398.81 345.154 398.82C353.154 398.82 359.944 396.42 365.524 391.58C371.264 386.74 374.124 380.77 374.124 373.69C374.124 356.9 374.124 340.12 374.124 323.33C374.124 316.38 371.254 310.52 365.524 305.74C359.934 300.83 353.154 298.43 345.154 298.48ZM345.154 373.74C338.604 373.74 332.054 373.75 325.494 373.75V323.62C332.044 323.62 338.604 323.6 345.154 323.57V373.74Z" fill="black"/>
<path d="M379.914 474.51C400.994 474.89 422.064 475.48 443.104 476.29V450.57C431.704 450.25 420.284 449.99 408.874 449.77V398.98C415.424 399.01 427.104 399.03 433.644 399.06C433.644 390.54 433.644 382.02 433.644 373.5C427.104 373.53 415.424 373.56 408.874 373.59V322.8C420.294 322.58 431.704 322.31 443.104 322V296.28C422.054 297.09 400.984 297.68 379.914 298.06C379.914 356.87 379.914 415.69 379.914 474.51Z" fill="black"/>
<path d="M611.834 342.95V314.06C611.834 306.08 608.994 299.51 603.304 294.47C597.774 289.25 591.034 287.06 583.094 287.72C575.004 288.4 566.914 289.05 558.814 289.66C550.704 290.27 543.884 293.49 538.334 299.22C532.774 304.81 530.004 311.29 529.994 318.73V372.77C529.994 380.37 532.774 386.75 538.334 392.01C543.884 397.27 550.724 399.99 558.814 400.08C566.914 400.17 575.004 400.26 583.094 400.36C583.094 419.13 583.094 437.91 583.094 456.68C575.004 456.19 566.914 455.73 558.814 455.29V427.69C549.214 427.38 539.604 427.08 529.994 426.81V453.83C529.994 461.43 532.774 467.97 538.334 473.56C543.884 479.16 550.724 482.29 558.814 482.9C566.914 483.51 575.004 484.16 583.094 484.84C591.034 485.51 597.774 483.39 603.304 478.32C608.984 473.27 611.834 466.64 611.834 458.5V400.72C611.834 392.74 608.994 385.94 603.304 380.46C597.774 374.81 591.034 372.1 583.094 372.2C575.004 372.3 566.914 372.39 558.814 372.48V317.27C566.914 316.83 575.004 316.37 583.094 315.88C583.094 325.26 583.094 334.65 583.094 344.04C592.684 343.7 602.264 343.33 611.834 342.95Z" fill="black"/>
<path d="M66.1539 290.93C77.5339 291.89 89.4039 292.81 101.444 293.69V292.53C89.1339 291.65 76.6739 290.68 64.4039 289.65C63.5039 289.57 62.6039 289.53 61.7539 289.53C55.3039 289.53 49.9639 291.6 45.4539 295.86C40.3339 300.53 37.7439 306.66 37.7539 314.07V458.5C37.7539 464.61 39.4339 469.82 42.7639 474.05C40.2939 470.13 39.0439 465.49 39.0439 460.22V315.77C39.0339 308.23 41.6739 302 46.8839 297.25C51.4839 292.92 56.9039 290.81 63.4739 290.81C64.3439 290.81 65.2439 290.85 66.1539 290.93Z" fill="#BEC0C2"/>
<path d="M136.063 295.99V294.81C127.723 294.31 119.313 293.76 111.063 293.2V479.36L112.343 479.27V294.45L112.573 294.47C120.163 294.99 128.063 295.5 136.063 295.99Z" fill="#BEC0C2"/>
<path d="M205.444 299.45V298.23C197.064 297.91 188.454 297.55 179.864 297.15V475.4L181.144 475.34V298.42L181.364 298.43C189.174 298.79 197.274 299.13 205.444 299.45Z" fill="#BEC0C2"/>
<path d="M263.434 301.15C269.254 301.27 274.454 302.77 278.954 305.62C274.094 301.93 268.314 299.99 261.714 299.86C246.234 299.55 230.544 299.12 215.084 298.58V473.98L216.374 473.94V299.85L216.594 299.86C232.114 300.41 247.874 300.84 263.434 301.15Z" fill="#BEC0C2"/>
<path d="M500.414 296.91C505.634 296.91 510.184 298.14 514.204 300.66C509.794 297.27 504.694 295.62 498.704 295.62C498.094 295.62 497.474 295.64 496.844 295.67C481.534 296.53 465.824 297.28 450.144 297.92V474.64L451.424 474.69V299.22L451.634 299.21C467.444 298.57 483.224 297.81 498.524 296.95C499.174 296.92 499.804 296.91 500.414 296.91Z" fill="#BEC0C2"/>
<path d="M325.584 301.76C332.694 301.76 339.854 301.74 346.874 301.69H347.134C353.074 301.69 358.204 303.08 362.694 305.92C357.824 302.22 352.154 300.41 345.424 300.41H345.164C338.024 300.46 330.864 300.48 323.874 300.48C315.524 300.48 306.974 300.45 298.444 300.38V472.19L299.724 472.18V301.66H299.934C308.464 301.73 317.094 301.76 325.584 301.76Z" fill="#BEC0C2"/>
<path d="M441.184 298.271C421.564 299.011 401.594 299.571 381.834 299.941V472.621L383.124 472.641V301.231H383.334C402.444 300.871 421.914 300.331 441.184 299.611V298.271Z" fill="#BEC0C2"/>
<path d="M584.934 290.93C585.804 290.86 586.664 290.82 587.514 290.82C592.234 290.82 596.384 291.95 600.084 294.25C595.974 291.08 591.284 289.54 585.804 289.54C584.984 289.54 584.124 289.57 583.264 289.65C575.214 290.33 567.034 290.98 558.974 291.59C551.424 292.16 544.944 295.18 539.724 300.57C534.474 305.84 531.934 311.78 531.934 318.75V372.78C531.934 378.45 533.564 383.33 536.894 387.59C534.424 383.73 533.224 379.41 533.224 374.5V320.46C533.224 313.38 535.814 307.34 541.134 301.98C546.434 296.52 552.994 293.45 560.654 292.88C568.684 292.26 576.854 291.61 584.934 290.93Z" fill="#BEC0C2"/>
<path d="M35.834 516.12C226.644 492.3 421.024 492.3 611.834 516.12V506.12C421.024 484.06 226.644 484.06 35.834 506.12V516.12V516.12Z" fill="#1D428A"/>
<path d="M105.334 542.73C249.584 505.36 398.084 505.36 542.324 542.73V533.29C398.074 496.94 249.574 496.93 105.334 533.29C105.344 536.44 105.344 539.58 105.334 542.73Z" fill="#C8102E"/>
<path d="M266.634 270.18C189.434 268.29 112.344 262.58 35.834 253.03V263.03C117.194 272.44 199.204 277.82 281.304 279.2C276.134 276.62 271.224 273.61 266.634 270.18Z" fill="#1D428A"/>
<path d="M381.034 270.18C376.444 273.61 371.534 276.62 366.364 279.2C448.464 277.82 530.474 272.44 611.834 263.03V253.03C535.324 262.57 458.234 268.28 381.034 270.18Z" fill="#1D428A"/>
<path d="M247.424 251.01C199.804 246.77 152.344 238.59 105.334 226.41C105.334 229.56 105.334 232.7 105.334 235.85C155.024 248.37 205.224 256.58 255.574 260.47C252.664 257.5 249.934 254.35 247.424 251.01Z" fill="#C8102E"/>
<path d="M400.234 251.02C397.724 254.35 394.994 257.51 392.084 260.48C442.434 256.59 492.634 248.38 542.324 235.86V226.42C495.324 238.59 447.854 246.78 400.234 251.02Z" fill="#C8102E"/>
<path d="M235.054 193.6C235.054 144.56 274.804 104.81 323.844 104.81C372.874 104.81 412.624 144.56 412.624 193.6C412.624 242.64 372.874 282.39 323.844 282.39C274.804 282.39 235.054 242.64 235.054 193.6Z" fill="white"/>
<path d="M323.834 104.82C274.884 104.82 235.054 144.65 235.054 193.61C235.054 242.56 274.884 282.39 323.834 282.39C372.794 282.39 412.624 242.56 412.624 193.61C412.614 144.65 372.794 104.82 323.834 104.82ZM388.014 144.28C398.174 157.46 403.944 173.14 404.724 189.72H371.274C372.054 173.16 377.844 157.47 388.014 144.28ZM259.654 144.28C269.824 157.47 275.604 173.16 276.394 189.72H242.944C243.724 173.14 249.504 157.45 259.654 144.28ZM259.654 242.93C249.494 229.75 243.724 214.07 242.944 197.49H276.394C275.604 214.06 269.824 229.74 259.654 242.93ZM327.724 274.5V251.3H319.944V274.5C298.874 273.5 279.324 264.46 264.814 249C276.674 234.19 283.364 216.4 284.184 197.5V189.72C283.364 170.82 276.674 153.03 264.814 138.22C279.324 122.76 298.874 113.73 319.944 112.72V135.71H327.724V112.72C348.794 113.72 368.344 122.76 382.854 138.22C370.994 153.03 364.304 170.82 363.484 189.72V197.5C364.304 216.41 370.994 234.19 382.854 249C368.344 264.46 348.804 273.49 327.724 274.5ZM388.014 242.93C377.844 229.74 372.064 214.05 371.274 197.49H404.724C403.934 214.07 398.164 229.76 388.014 242.93Z" fill="black"/>
<path d="M304.054 156.42V230.49H343.634V220.31H314.644V156.42H304.054Z" fill="#C8102E"/>
<path d="M357.084 181.23V150.71C357.084 146.14 355.244 144.27 350.734 144.27H296.864C292.404 144.27 290.584 146.13 290.584 150.71V236.5C290.584 241.07 292.404 242.94 296.864 242.94H350.734C355.244 242.94 357.084 241.08 357.084 236.5V205.94H346.414V233.56H301.184V153.64H346.414V181.23H357.084Z" fill="#1D428A"/>
<path d="M343.614 217.44L343.634 156.42H317.924L317.674 217.44H327.974L328.134 198.42H333.374L333.294 217.44H343.614ZM333.294 188.27H328.134V166.6H333.294V188.27Z" fill="#C8102E"/>
</svg>
