<svg width="649" height="648" viewBox="0 0 649 648" fill="none" xmlns="http://www.w3.org/2000/svg">
<g clip-path="url(#clip0_29_3849)">
<path d="M141.59 213.661C141.59 213.661 196.759 123.47 309.72 123.47C422.68 123.47 475.217 211.04 475.217 211.04H628.464L622.333 248.693C622.333 248.693 617.957 263.577 610.948 265.332H621.455C621.455 265.332 624.965 278.472 603.95 324H648.601C648.601 324 650.356 403.683 554.034 441.337C554.034 441.337 504.119 457.098 478.727 429.952C478.727 429.952 427.945 524.53 309.72 524.53C191.505 524.53 138.091 427.331 138.091 427.331H0.605469L22.4978 387.934H7.61417L25.1303 355.534H54.9089L60.1626 343.271H46.1452L80.3 280.227H99.5598L107.435 260.956H90.7961L116.187 213.672H141.59V213.661Z" fill="white"/>
<path d="M311.362 503.436C408.01 503.436 486.354 423.911 486.354 325.8C486.354 227.701 408.01 148.164 311.362 148.164C214.725 148.164 136.369 227.701 136.369 325.8C136.369 423.911 214.725 503.436 311.362 503.436Z" fill="#FDB927"/>
<path d="M391.137 343.98C374.779 363.802 365.521 370.586 348.916 370.586C343.268 370.586 340.321 369.326 341.896 366.581L361.594 326.981H369.109C377.502 326.981 376.332 334.046 374.059 343.609C373.643 344.948 374.667 345.026 375.668 343.856L394.388 310.95C395.299 308.88 392.948 308.464 391.778 310.039C382.395 322.774 372.529 321.829 368.367 321.829H364.981L386.007 281.689H394.489C405.165 282.353 410.138 291.42 407.055 313.279H411.488L426.956 282.792C428.205 280.215 425.561 277.864 422.648 277.864L317.697 277.898C311.633 277.898 311.363 282.555 317.18 282.555C321.905 282.555 321.657 289.328 317.416 292.602L272.866 327.971L281.855 369.731C282.519 372.881 284.544 374.389 288.031 374.389H374.813C378.391 374.389 379.864 372.926 381.023 371.43L396.75 344.284C398.91 340.414 393.882 340.661 391.137 343.98ZM330.668 324.911L323.03 324.844C322.49 324.844 322.062 325.283 322.062 325.811C322.062 326.34 322.501 326.779 323.03 326.779L330.781 326.7C333.391 326.7 335.798 327.038 335.146 328.196L315.087 366.514C312.601 371.081 307.313 369.922 306.481 366.266L296.547 314.922L331.478 287.809C334.955 284.817 341.637 279.968 345.057 280.024L352.673 279.991C357.308 279.946 358.962 282.128 357.871 284.918L356.521 287.517C355.654 288.968 352.898 289.148 350.569 289.148L346.171 289.17C345.631 289.17 345.203 289.609 345.203 290.149C345.203 290.689 345.642 291.117 346.171 291.117H350.513C352.381 291.117 354.743 291.162 353.877 292.568L337.666 323.471C336.901 324.686 333.537 324.911 330.668 324.911Z" fill="#31006F"/>
<path d="M258.635 369.742C256.283 369.664 254.776 368.055 254.247 366.502C253.505 364.264 253.561 360.292 254.472 358.549L294.961 286.752C295.624 285.424 297.256 282.645 299.269 282.657C302.836 282.657 304.388 277.965 298.336 277.965H265.913C259.85 277.965 259.782 282.578 265.598 282.578C267.972 282.578 268.906 284.895 268.242 286.313L259.276 302.558C258.151 304.347 255.676 304.482 253.055 304.482L245.337 304.459C244.797 304.459 244.37 304.898 244.37 305.438C244.37 305.978 244.797 306.405 245.337 306.405H252.998C255.08 306.405 256.733 307.035 255.53 309.443L225.65 363.881C223.49 366.874 219.204 367.537 219.451 361.8L230.082 282.072C230.499 279.574 229.835 277.898 227.18 277.898L211.149 277.921C209.236 277.921 208.055 278.854 207.144 280.092L201.406 287.292C200.664 288.034 199.044 288.034 197.266 288.034L183.8 288C183.26 288 182.833 288.439 182.833 288.968C182.833 289.508 183.271 289.935 183.8 289.935H194.78C196.726 289.935 199.01 290.397 198.189 291.308L182.776 310.692C182.315 311.232 180.819 311.389 179.896 311.389L175.543 311.367C175.003 311.367 174.564 311.805 174.564 312.334C174.564 312.874 175.003 313.313 175.543 313.313H179.176C180.301 313.313 180.313 313.875 179.851 314.37L165.373 332.573C164.619 333.281 163.168 333.428 161.761 333.428L148.982 333.416C148.442 333.416 148.014 333.844 148.014 334.384C148.014 334.913 148.442 335.351 148.982 335.351L159.961 335.363C161.626 335.363 162.909 335.666 162.043 336.791L141.444 362.621C137.574 367.549 118.933 370.057 115.299 370.057L184.959 239.716C185.623 238.22 188.21 235.936 190.899 235.936H205.681C212.656 235.936 212.454 231.29 206.39 231.29H132.005C125.942 231.29 125.705 235.936 132.68 235.936H146.45C150.354 235.936 151.614 238.298 150.613 240.222L148.644 243.811C147.98 244.981 147.058 245.442 143.278 245.442L118.944 245.419C118.404 245.419 117.977 245.858 117.977 246.387C117.977 246.927 118.415 247.354 118.944 247.354H143.21C144.538 247.354 146.507 247.703 145.258 250.066L141.849 256.399C141.264 257.356 139.779 257.806 138.069 257.806L127.033 257.783C126.493 257.783 126.054 258.222 126.054 258.751C126.054 259.291 126.493 259.718 127.033 259.718L138.013 259.729C139.588 259.729 139.622 260.764 138.71 262.216L130.88 276.773C130.217 278.022 128.945 278.179 126.448 278.179L122.049 278.157C121.509 278.157 121.082 278.595 121.082 279.124C121.082 279.664 121.52 280.092 122.049 280.092H126.392C128.045 280.092 128.484 281.014 127.742 282.6L121.307 294.559C120.35 296.258 118.978 296.944 114.703 296.944L90.3807 296.922C89.8407 296.922 89.4132 297.36 89.4132 297.889C89.4132 298.429 89.8519 298.857 90.3807 298.857H114.647C117.392 298.902 118.404 300.117 117.313 302.063L104.758 325.665C104.016 326.7 101.957 326.858 98.4693 326.858L74.1358 326.835C73.5958 326.835 73.1683 327.274 73.1683 327.814C73.1683 328.343 73.607 328.781 74.1358 328.781L98.4018 328.793C101.304 328.793 103.082 328.905 102.216 330.446L94.9819 344.048C93.6544 346.129 89.9194 346.129 88.4682 346.129L80.7507 346.106C80.222 346.106 79.7832 346.534 79.7832 347.074C79.7832 347.614 80.222 348.053 80.7507 348.053H88.4119C91.1119 348.053 92.5406 348.525 91.8319 349.976L82.1682 368.145C81.2907 369.765 77.5107 369.832 74.6082 369.832L36.9885 369.81C36.4485 369.81 36.021 370.249 36.021 370.789C36.021 371.317 36.4597 371.756 36.9885 371.756L74.5407 371.767C77.0382 371.767 80.177 372.071 79.0182 374.074L72.8533 385.672C72.2683 386.629 70.1645 386.707 67.1383 386.707L59.4208 386.685C58.8808 386.685 58.4533 387.124 58.4533 387.664C58.4533 388.192 58.8921 388.631 59.4208 388.631H67.082C68.9495 388.631 71.222 388.845 70.4345 390.262L66.5758 397.676C65.3271 399.51 64.0896 401.152 61.0971 401.152H42.1972C35.2222 401.152 35.4697 405.798 41.5222 405.798L152.368 405.855C155.596 405.855 155.709 405.416 157.239 403.042L173.675 374.377L257.69 374.389C263.753 374.434 262.201 369.866 258.635 369.742ZM192.744 361.204C191.911 365.94 187.153 369.067 181.179 370.642L175.014 372.184L180.076 363.06C181.404 360.562 178.49 359.1 175.295 362.812C153.83 387.799 147.002 399.757 113.904 399.847L105.006 399.87C102.328 399.87 99.3581 398.812 101.181 396.236L112.892 374.434L157.351 374.445C163.415 374.445 161.863 369.877 158.296 369.754C155.945 369.675 153.369 368.325 151.547 365.456C151.04 364.657 149.938 361.496 151.67 359.055L168.691 336.431H196.996L192.744 361.204ZM199.145 332.584H171.526L206.457 286.527L199.145 332.584Z" fill="#31006F"/>
<path d="M619.296 346.838C618.835 344.565 618.014 345.949 616.518 348.806C616.056 349.673 614.605 349.695 613.154 349.695L608.71 349.718C608.181 349.718 607.731 350.156 607.731 350.685C607.731 351.225 608.17 351.664 608.71 351.664L613.075 351.653C614.74 351.653 614.763 352.766 613.986 354.431C610.938 360.956 607.788 365.321 603.603 370.541C602.939 371.374 601.251 372.082 599.924 372.082L595.469 372.105C594.929 372.105 594.49 372.544 594.49 373.084C594.49 373.624 594.929 374.051 595.469 374.051H599.834C602.028 374.051 599.811 375.412 599.429 375.907C591.678 386.246 586.334 390.859 580.642 395.493C579.978 396.033 576.76 395.842 574.51 395.831L570.112 395.853C569.572 395.853 569.144 396.292 569.144 396.832C569.144 397.361 569.583 397.8 570.112 397.8L574.454 397.811C577.773 397.811 575.287 399.712 574.78 400.128C562.709 410.186 544.709 413.437 536.486 412.402C509.745 409.05 504.243 388.777 502.275 380.666C501.858 378.979 500.587 375.502 500.16 373.354C499.327 369.112 511.387 367.909 514.717 370.136C519.768 373.511 531.536 376.976 540.806 377.01C549.378 377.044 566.905 370.822 571.99 356.096C577.177 341.044 564.138 324.338 558.367 318.567C551.009 311.209 544.068 299.487 546.993 290.892C549.198 284.412 552.888 281.475 560.808 281.475C571.023 281.475 578.47 288.045 578.47 297.372C578.47 298.204 577.953 299.194 577.289 299.194L573.678 299.217C573.149 299.217 572.71 299.655 572.71 300.195C572.71 300.724 573.149 301.163 573.678 301.163H577.075C578.032 301.163 578.628 301.883 578.38 303.053C577.717 306.18 577.492 308.363 576.817 311.502C576.423 313.313 579.078 314.573 580 313.245L596.065 284.558C597.224 282.398 594.648 281.824 592.735 282.477C588.348 284.007 581.193 285.064 578.65 283.242C572.643 278.933 567.175 276.166 558.783 276.166C544.507 276.166 534.506 279.675 528.093 291.443C527.598 292.354 526.192 292.343 524.988 292.343L522.243 292.332C521.703 292.332 521.276 292.77 521.276 293.31C521.276 293.839 521.714 294.278 522.243 294.278L524.572 294.255C525.573 294.255 526.237 294.537 525.742 295.695C525.292 296.742 524.909 297.867 524.527 299.025C522.907 304.11 523.424 311.254 525.967 317.61C526.136 318.027 525.596 318.218 524.617 318.218L520.241 318.24C519.712 318.24 519.273 318.679 519.273 319.208C519.273 319.748 519.712 320.175 520.241 320.175H524.606C526.586 320.186 527.058 320.378 527.879 321.536C530.129 324.709 532.447 327.06 535.349 330.75C536.261 331.909 532.357 332.235 530.287 332.224L512.973 332.213C512.433 332.213 512.006 332.651 512.006 333.191C512.006 333.731 512.445 334.159 512.973 334.159L530.512 334.136C533.336 334.136 538.162 334.091 538.702 334.71C542.943 339.604 548.073 347.141 548.939 353.486C549.187 355.309 548.501 356.085 546.251 356.085H543.911C543.371 356.085 542.932 356.513 542.932 357.053C542.932 357.593 543.371 358.031 543.911 358.031H545.969C547.758 358.031 548.726 358.324 548.321 359.651C546.048 366.919 542.639 372.184 528.757 372.105C514.211 372.026 511.252 357.773 515.505 342.889C516.348 339.919 515.471 338.648 514.132 340.976L504.007 356.895C503.76 357.266 502.781 358.166 501.24 358.166L499.8 358.155C499.26 358.155 498.821 358.594 498.821 359.134C498.821 359.674 499.271 360.101 499.811 360.101C501.093 360.101 501.6 360.787 501.105 361.496L497.381 367.29C491.272 353.295 481.012 336.06 475.545 329.783L475.635 329.479C489.123 328.669 509.025 316.024 512.287 304.729C517.946 285.132 498.911 277.887 488.538 277.887L442.931 277.898C436.868 277.898 436.429 282.488 442.245 282.488C445.384 282.488 448.129 285.244 446.745 288.023L436.643 306.225C435.81 307.722 432.683 307.632 428.61 307.632H424.189C423.649 307.632 423.21 308.059 423.21 308.599C423.21 309.139 423.649 309.567 424.189 309.567H428.543C431.445 309.567 434.651 309.747 433.571 311.817L421.624 333.383C421.039 334.373 419.498 334.474 415.425 334.474L411.015 334.485C410.475 334.485 410.048 334.924 410.048 335.464C410.048 336.004 410.475 336.443 411.015 336.443L415.324 336.431C418.53 336.431 419.723 336.859 418.811 338.524L402.859 367.369C400.946 369.45 398.685 369.832 394.782 369.832C388.965 369.832 389.033 374.445 395.097 374.445H434.156C440.22 374.445 438.668 369.754 435.101 369.754C432.998 369.765 430.77 365.895 432.165 363.577L452.1 325.811H454.125C462.99 325.811 465.139 340.358 466.804 356.243C466.927 357.379 464.756 357.446 460.335 357.446L449.242 357.457C448.702 357.457 448.275 357.896 448.275 358.436C448.275 358.976 448.714 359.404 449.242 359.404H460.211C463.125 359.404 467.186 359.426 467.287 360.371C468.052 367.335 468.626 373.466 469.954 379.057C470.37 380.801 467.254 380.531 463.935 380.531L449.816 380.554C449.276 380.554 448.849 380.992 448.849 381.521C448.849 382.061 449.287 382.5 449.816 382.5L463.924 382.522C468.356 382.522 470.64 382.511 470.899 383.422C476.974 405.697 503.028 423.236 528.363 422.268C550.098 421.436 568.458 409.612 577.852 402.075C590.35 392.051 608.721 371.036 616.203 355.759C617.598 352.924 619.791 349.335 619.296 346.838ZM473.171 317.183C470.122 319.68 465.319 322.56 464.396 321.649C463.102 320.366 459.075 317.588 456.904 316.587L475.005 283.5C475.747 282.342 476.602 281.7 478.605 281.7C485.647 281.7 487.953 289.339 484.657 298.857C482.328 305.528 478.56 312.75 473.171 317.183Z" fill="#31006F"/>
<path d="M253.246 248.48C249.589 253.216 244.729 254.42 239.273 254.42H237.732L247.339 235.396C247.801 234.53 248.813 233.844 250.062 233.844C251.266 233.844 251.119 231.436 249.544 231.436H234.402C233.119 231.436 232.658 233.844 233.862 233.844C235.156 233.844 235.392 235.272 234.773 236.476L226.178 253.43C225.593 254.341 224.648 254.588 223.591 254.87C222.319 255.196 221.431 257.48 222.893 257.48H247.069C248.937 257.48 249.364 256.793 249.871 256.118L254.731 248.592C255.417 247.692 253.954 247.568 253.246 248.48Z" fill="#31006F"/>
<path d="M326.066 232.122C325.335 232.527 323.602 232.73 322.849 232.111C320.925 230.502 317.134 229.276 315.143 229.276C309.439 229.276 305.31 230.401 302.835 235.778C300.72 240.357 302.891 244.205 307.92 246.533C310.103 247.535 312.994 248.851 311.88 251.483C311.07 253.396 308.843 253.587 306.829 253.576C304.129 253.553 300.068 251.528 299.438 247.715C299.224 246.466 297.784 246.758 297.368 247.422L293.925 254.273C293.385 255.184 294.803 256.208 295.365 255.601C296.524 254.352 299.055 254.059 300.304 254.892C302.014 256.028 306.424 258.031 309.056 258.008C314.828 257.963 318.641 256.478 321.802 251.528C324.694 247.006 322.916 242.528 317.651 240.042C314.861 238.726 312.488 236.408 313.725 233.855C314.535 232.19 317.021 232.55 318.248 232.763C320.599 233.157 323.614 235.373 323.962 237.331C324.109 238.163 325.166 238.321 325.627 237.578L327.439 233.348C327.866 232.505 326.527 231.875 326.066 232.122Z" fill="#31006F"/>
<path d="M493.836 238.928L495.94 235.047C496.851 233.348 495.355 231.413 492.936 231.413H464.71C462.674 231.413 463.27 233.539 464.103 233.539C465.914 233.539 466.454 235.744 465.352 237.612L456.858 253.238C455.598 254.734 454.777 255.375 452.965 255.375C451.514 255.375 450.997 257.502 453.033 257.502H481.642C482.8 257.502 483.318 257.085 483.723 256.5L487.615 251.337C488.571 250.088 486.513 250.088 485.894 250.718C480.955 255.657 475.668 255.51 471.832 255.51H468.502L472.417 246.769H473.249C475.758 246.769 478.66 246.747 479.425 248.648C479.628 249.109 480.877 249.48 481.372 248.648L484.713 241.966C485.253 240.976 483.745 240.796 483.34 241.504C482.024 243.867 476.219 243.226 474.7 243.226H473.868L478.75 233.596H484.184C487.559 233.596 490.473 235.981 491.429 238.591C491.654 239.221 493.465 239.716 493.836 238.928Z" fill="#31006F"/>
<path d="M421.612 231.413H411.566C409.53 231.413 410.126 233.539 410.959 233.539C413.107 233.539 415.065 236.059 413.884 238.377L409.721 245.982L400.552 232.561C399.934 231.728 398.482 231.323 397.245 231.323H387.356C385.32 231.323 385.792 233.427 386.625 233.427C388.729 233.427 388.177 235.002 387.66 236.116L379.785 251.281C379.29 252.484 377.13 252.653 376.477 251.123L370.38 231.267C370.121 230.48 366.566 230.513 365.655 231.267L350.378 243.856L342.469 243.867C340.894 243.867 340.275 244.519 340.275 245.352C340.275 246.184 340.871 246.938 342.536 246.938L346.676 246.927L342.536 250.336C340.23 252.057 337.879 254.408 336.315 254.408H335.348C333.852 254.408 333.019 254.656 333.019 255.859C333.019 257.063 333.649 257.479 335.067 257.479H347.385C349.714 257.479 349.253 254.453 348.094 254.453C346.823 254.453 344.719 252.833 346.665 250.549L350.423 246.949H357.836C362.235 246.949 365.306 252.046 362.696 253.632L360.66 254.757C359.715 255.252 359.288 257.491 360.66 257.491H384.746C386.535 257.491 386.164 255.128 385.331 255.128C382.867 255.128 384.026 251.584 384.51 250.639L390.832 238.658L399.72 255.882C400.305 256.962 400.822 257.502 401.869 257.502H405.266C406.346 257.502 406.706 256.883 407.212 256.051L417.326 237.769C418.957 234.507 420.206 233.562 422.253 233.562C423.075 233.551 423.648 231.413 421.612 231.413ZM354.259 243.889L363.675 236.194L363.72 243.889H354.259Z" fill="#31006F"/>
<path d="M278.986 230.266C270.514 230.266 261.796 234.439 260.052 243.327C258.533 251.055 263.888 259.088 273.338 259.088C282.338 259.088 290.652 253.193 292.328 244.666C294.004 236.082 287.626 230.266 278.986 230.266ZM281.382 246.556C278.693 251.91 274.204 255.094 271.336 253.654C268.478 252.225 268.332 246.713 271.009 241.358C273.698 235.992 278.187 232.819 281.056 234.248C283.924 235.699 284.071 241.201 281.382 246.556Z" fill="#31006F"/>
<path d="M450.243 243.237H439.364C437.328 243.237 437.924 245.363 438.756 245.363C439.611 245.363 440.41 245.813 440.41 247.186C440.41 251.584 438.531 253.272 434.763 253.272C430.623 253.272 429.126 248.243 431.916 242.089C433.694 238.152 438.408 234.462 443.999 234.462C447.419 234.462 450.299 235.205 450.738 238.411C450.839 239.198 452.02 239.198 452.436 238.456L455.013 233.832C455.305 233.337 454.855 232.741 454.068 232.696C453.404 232.651 451.919 233.506 450.94 232.786C448.758 231.166 444.021 229.602 440.444 229.602C434.605 229.602 426.449 230.918 420.948 240.481C415.964 249.132 423.22 258.278 429.936 258.289C433.671 258.301 438.014 255.533 440.5 254.487L443.279 256.366C443.695 256.861 444.561 257.491 445.394 257.491H446.429C447.385 257.491 447.756 256.186 448.128 255.353L452.391 245.026C452.954 243.991 452.65 243.237 450.243 243.237Z" fill="#31006F"/>
<path d="M599.282 232.122C598.551 232.527 596.818 232.73 596.076 232.111C594.152 230.502 590.361 229.276 588.369 229.276C582.677 229.276 578.537 230.401 576.062 235.778C573.947 240.357 576.118 244.205 581.147 246.533C583.318 247.535 586.221 248.851 585.107 251.483C584.297 253.396 582.058 253.587 580.056 253.576C577.367 253.553 573.306 251.528 572.664 247.715C572.462 246.466 571.011 246.758 570.594 247.422L567.141 254.273C566.601 255.184 568.03 256.208 568.581 255.601C569.739 254.352 572.282 254.059 573.519 254.892C575.229 256.028 579.639 258.031 582.272 258.008C588.043 257.963 591.846 256.478 595.018 251.528C597.909 247.006 596.132 242.528 590.856 240.042C588.066 238.726 585.681 236.408 586.929 233.855C587.739 232.19 590.226 232.55 591.463 232.763C593.814 233.157 596.829 235.373 597.178 237.331C597.324 238.163 598.393 238.321 598.843 237.578L600.654 233.348C601.071 232.505 599.732 231.875 599.282 232.122Z" fill="#31006F"/>
<path d="M523.626 248.48C519.97 253.216 515.11 254.42 509.665 254.42H508.124L517.731 235.396C518.181 234.53 519.194 233.844 520.454 233.844C521.658 233.844 521.511 231.436 519.936 231.436H504.794C503.5 231.436 503.05 233.844 504.254 233.844C505.536 233.844 505.773 235.272 505.154 236.476L496.548 253.43C495.963 254.341 495.018 254.588 493.96 254.87C492.689 255.196 491.8 257.48 493.263 257.48H517.439C519.306 257.48 519.745 256.793 520.24 256.118L525.1 248.592C525.809 247.692 524.335 247.568 523.626 248.48Z" fill="#31006F"/>
<path d="M560.087 233.596C563.462 233.596 566.376 235.981 567.332 238.591C567.557 239.221 569.368 239.716 569.74 238.928L571.843 235.047C572.755 233.348 571.258 231.413 568.84 231.413H540.602C538.577 231.413 539.174 233.539 539.995 233.539C541.806 233.539 542.346 235.744 541.255 237.612L532.761 253.238C531.49 254.734 530.68 255.375 528.869 255.375C527.417 255.375 526.9 257.502 528.947 257.502H557.545C558.715 257.502 559.221 257.085 559.637 256.5L563.518 251.337C564.475 250.088 562.427 250.088 561.797 250.718C556.858 255.657 551.571 255.51 547.735 255.51H544.405L548.32 246.769H549.152C551.672 246.769 554.563 246.747 555.328 248.648C555.542 249.109 556.78 249.48 557.275 248.648L560.616 241.966C561.156 240.976 559.648 240.796 559.243 241.504C557.927 243.867 552.122 243.226 550.603 243.226H549.771L554.642 233.596H560.087Z" fill="#31006F"/>
<path d="M391.137 343.98C374.78 363.802 365.521 370.586 348.916 370.586C343.269 370.586 340.321 369.326 341.896 366.581L361.595 326.981H369.11C377.502 326.981 376.332 334.046 374.06 343.609C373.644 344.948 374.667 345.026 375.669 343.856L394.388 310.95C395.3 308.88 392.948 308.464 391.778 310.039C382.396 322.774 372.53 321.829 368.367 321.829H364.981L386.007 281.689H394.49C405.166 282.353 410.138 291.42 407.056 313.279H411.488L426.957 282.792C428.206 280.215 425.562 277.864 422.648 277.864L317.698 277.898C311.634 277.898 311.364 282.555 317.18 282.555C321.905 282.555 321.658 289.328 317.416 292.602L272.867 327.971L281.855 369.731C282.519 372.881 284.544 374.389 288.032 374.389H374.814C378.391 374.389 379.865 372.926 381.023 371.43L396.751 344.284C398.911 340.414 393.882 340.661 391.137 343.98ZM330.669 324.911L323.03 324.844C322.49 324.844 322.063 325.283 322.063 325.811C322.063 326.34 322.501 326.779 323.03 326.779L330.781 326.7C333.391 326.7 335.799 327.038 335.146 328.196L315.088 366.514C312.601 371.081 307.314 369.922 306.481 366.266L296.548 314.922L331.479 287.809C334.955 284.817 341.637 279.968 345.057 280.024L352.674 279.991C357.309 279.946 358.962 282.128 357.871 284.918L356.521 287.517C355.655 288.968 352.899 289.148 350.57 289.148L346.171 289.17C345.631 289.17 345.204 289.609 345.204 290.149C345.204 290.689 345.642 291.117 346.171 291.117H350.514C352.381 291.117 354.744 291.162 353.877 292.568L337.666 323.471C336.901 324.686 333.538 324.911 330.669 324.911Z" fill="#31006F"/>
<path d="M258.635 369.742C256.284 369.664 254.776 368.055 254.248 366.502C253.505 364.264 253.561 360.292 254.473 358.549L294.961 286.752C295.625 285.424 297.256 282.645 299.27 282.657C302.836 282.657 304.389 277.965 298.336 277.965H265.914C259.85 277.965 259.783 282.578 265.599 282.578C267.972 282.578 268.906 284.895 268.242 286.313L259.276 302.558C258.151 304.347 255.676 304.482 253.055 304.482L245.338 304.459C244.798 304.459 244.37 304.898 244.37 305.438C244.37 305.978 244.798 306.405 245.338 306.405H252.999C255.08 306.405 256.734 307.035 255.53 309.443L225.65 363.881C223.49 366.874 219.204 367.537 219.452 361.8L230.083 282.072C230.499 279.574 229.835 277.898 227.18 277.898L211.149 277.921C209.237 277.921 208.055 278.854 207.144 280.092L201.407 287.292C200.664 288.034 199.044 288.034 197.267 288.034L183.801 288C183.261 288 182.833 288.439 182.833 288.968C182.833 289.508 183.272 289.935 183.801 289.935H194.78C196.727 289.935 199.01 290.397 198.189 291.308L182.777 310.692C182.316 311.232 180.819 311.389 179.897 311.389L175.543 311.367C175.003 311.367 174.564 311.805 174.564 312.334C174.564 312.874 175.003 313.313 175.543 313.313H179.177C180.302 313.313 180.313 313.875 179.852 314.37L165.373 332.573C164.619 333.281 163.168 333.428 161.762 333.428L148.982 333.416C148.442 333.416 148.015 333.844 148.015 334.384C148.015 334.913 148.442 335.351 148.982 335.351L159.962 335.363C161.627 335.363 162.909 335.666 162.043 336.791L141.445 362.621C137.575 367.549 118.933 370.057 115.3 370.057L184.959 239.716C185.623 238.22 188.21 235.936 190.899 235.936H205.682C212.657 235.936 212.454 231.29 206.39 231.29H132.006C125.942 231.29 125.706 235.936 132.681 235.936H146.451C150.355 235.936 151.614 238.298 150.613 240.222L148.645 243.811C147.981 244.981 147.058 245.442 143.278 245.442L118.945 245.419C118.405 245.419 117.977 245.858 117.977 246.387C117.977 246.927 118.416 247.354 118.945 247.354H143.211C144.538 247.354 146.507 247.703 145.258 250.066L141.85 256.399C141.265 257.356 139.78 257.806 138.07 257.806L127.033 257.783C126.493 257.783 126.055 258.222 126.055 258.751C126.055 259.291 126.493 259.718 127.033 259.718L138.013 259.729C139.588 259.729 139.622 260.764 138.711 262.216L130.881 276.773C130.217 278.022 128.946 278.179 126.448 278.179L122.05 278.157C121.51 278.157 121.082 278.595 121.082 279.124C121.082 279.664 121.521 280.092 122.05 280.092H126.392C128.046 280.092 128.485 281.014 127.742 282.6L121.307 294.559C120.351 296.258 118.978 296.944 114.703 296.944L90.3811 296.922C89.8411 296.922 89.4136 297.36 89.4136 297.889C89.4136 298.429 89.8524 298.857 90.3811 298.857H114.647C117.392 298.902 118.405 300.117 117.313 302.063L104.759 325.665C104.016 326.7 101.957 326.858 98.4698 326.858L74.1362 326.835C73.5962 326.835 73.1687 327.274 73.1687 327.814C73.1687 328.343 73.6075 328.781 74.1362 328.781L98.4023 328.793C101.305 328.793 103.082 328.905 102.216 330.446L94.9824 344.048C93.6549 346.129 89.9199 346.129 88.4686 346.129L80.7512 346.106C80.2224 346.106 79.7837 346.534 79.7837 347.074C79.7837 347.614 80.2224 348.053 80.7512 348.053H88.4124C91.1124 348.053 92.5411 348.525 91.8324 349.976L82.1687 368.145C81.2912 369.765 77.5112 369.832 74.6087 369.832L36.989 369.81C36.449 369.81 36.0215 370.249 36.0215 370.789C36.0215 371.317 36.4602 371.756 36.989 371.756L74.5412 371.767C77.0387 371.767 80.1774 372.071 79.0187 374.074L72.8537 385.672C72.2688 386.629 70.165 386.707 67.1388 386.707L59.4213 386.685C58.8813 386.685 58.4538 387.124 58.4538 387.664C58.4538 388.192 58.8926 388.631 59.4213 388.631H67.0825C68.95 388.631 71.2225 388.845 70.435 390.262L66.5763 397.676C65.3275 399.51 64.09 401.152 61.0976 401.152H42.1977C35.2227 401.152 35.4702 405.798 41.5227 405.798L152.368 405.855C155.597 405.855 155.709 405.416 157.239 403.042L173.676 374.377L257.69 374.389C263.754 374.434 262.201 369.866 258.635 369.742ZM192.744 361.204C191.912 365.94 187.153 369.067 181.179 370.642L175.014 372.184L180.077 363.06C181.404 360.562 178.491 359.1 175.296 362.812C153.831 387.799 147.002 399.757 113.905 399.847L105.006 399.87C102.329 399.87 99.3586 398.812 101.181 396.236L112.892 374.434L157.352 374.445C163.416 374.445 161.863 369.877 158.297 369.754C155.946 369.675 153.369 368.325 151.547 365.456C151.041 364.657 149.938 361.496 151.671 359.055L168.692 336.431H196.997L192.744 361.204ZM199.145 332.584H171.527L206.458 286.527L199.145 332.584Z" fill="#31006F"/>
<path d="M619.297 346.838C618.836 344.565 618.014 345.949 616.518 348.806C616.057 349.673 614.606 349.695 613.154 349.695L608.711 349.718C608.182 349.718 607.732 350.156 607.732 350.685C607.732 351.225 608.171 351.664 608.711 351.664L613.076 351.653C614.741 351.653 614.763 352.766 613.987 354.431C610.938 360.956 607.788 365.321 603.603 370.541C602.939 371.374 601.252 372.082 599.924 372.082L595.47 372.105C594.93 372.105 594.491 372.544 594.491 373.084C594.491 373.624 594.93 374.051 595.47 374.051H599.834C602.028 374.051 599.812 375.412 599.429 375.907C591.678 386.246 586.335 390.859 580.642 395.493C579.978 396.033 576.761 395.842 574.511 395.831L570.112 395.853C569.572 395.853 569.145 396.292 569.145 396.832C569.145 397.361 569.583 397.8 570.112 397.8L574.455 397.811C577.773 397.811 575.287 399.712 574.781 400.128C562.71 410.186 544.71 413.437 536.486 412.402C509.745 409.05 504.244 388.777 502.275 380.666C501.859 378.979 500.588 375.502 500.16 373.354C499.328 369.112 511.388 367.909 514.718 370.136C519.769 373.511 531.536 376.976 540.806 377.01C549.379 377.044 566.906 370.822 571.991 356.096C577.177 341.044 564.138 324.338 558.367 318.567C551.01 311.209 544.069 299.487 546.994 290.892C549.199 284.412 552.889 281.475 560.808 281.475C571.023 281.475 578.471 288.045 578.471 297.372C578.471 298.204 577.953 299.194 577.29 299.194L573.678 299.217C573.15 299.217 572.711 299.655 572.711 300.195C572.711 300.724 573.15 301.163 573.678 301.163H577.076C578.032 301.163 578.628 301.883 578.381 303.053C577.717 306.18 577.492 308.363 576.817 311.502C576.423 313.313 579.078 314.573 580.001 313.245L596.066 284.558C597.224 282.398 594.648 281.824 592.736 282.477C588.348 284.007 581.193 285.064 578.651 283.242C572.643 278.933 567.176 276.166 558.783 276.166C544.507 276.166 534.506 279.675 528.094 291.443C527.599 292.354 526.192 292.343 524.989 292.343L522.244 292.332C521.704 292.332 521.276 292.77 521.276 293.31C521.276 293.839 521.715 294.278 522.244 294.278L524.572 294.255C525.574 294.255 526.237 294.537 525.742 295.695C525.292 296.742 524.91 297.867 524.527 299.025C522.907 304.11 523.425 311.254 525.967 317.61C526.136 318.027 525.596 318.218 524.617 318.218L520.241 318.24C519.712 318.24 519.274 318.679 519.274 319.208C519.274 319.748 519.712 320.175 520.241 320.175H524.606C526.586 320.186 527.059 320.378 527.88 321.536C530.13 324.709 532.447 327.06 535.35 330.75C536.261 331.909 532.357 332.235 530.287 332.224L512.974 332.213C512.434 332.213 512.006 332.651 512.006 333.191C512.006 333.731 512.445 334.159 512.974 334.159L530.512 334.136C533.336 334.136 538.162 334.091 538.702 334.71C542.944 339.604 548.074 347.141 548.94 353.486C549.187 355.309 548.501 356.085 546.251 356.085H543.911C543.371 356.085 542.932 356.513 542.932 357.053C542.932 357.593 543.371 358.031 543.911 358.031H545.97C547.759 358.031 548.726 358.324 548.321 359.651C546.049 366.919 542.64 372.184 528.757 372.105C514.211 372.026 511.253 357.773 515.505 342.889C516.349 339.919 515.471 338.648 514.133 340.976L504.008 356.895C503.76 357.266 502.781 358.166 501.24 358.166L499.8 358.155C499.26 358.155 498.821 358.594 498.821 359.134C498.821 359.674 499.271 360.101 499.811 360.101C501.094 360.101 501.6 360.787 501.105 361.496L497.381 367.29C491.273 353.295 481.013 336.06 475.545 329.783L475.635 329.479C489.124 328.669 509.025 316.024 512.288 304.729C517.946 285.132 498.911 277.887 488.539 277.887L442.932 277.898C436.868 277.898 436.429 282.488 442.245 282.488C445.384 282.488 448.129 285.244 446.745 288.023L436.643 306.225C435.811 307.722 432.683 307.632 428.611 307.632H424.189C423.649 307.632 423.211 308.059 423.211 308.599C423.211 309.139 423.649 309.567 424.189 309.567H428.543C431.446 309.567 434.652 309.747 433.572 311.817L421.624 333.383C421.039 334.373 419.498 334.474 415.426 334.474L411.016 334.485C410.476 334.485 410.048 334.924 410.048 335.464C410.048 336.004 410.476 336.443 411.016 336.443L415.324 336.431C418.531 336.431 419.723 336.859 418.812 338.524L402.859 367.369C400.947 369.45 398.686 369.832 394.782 369.832C388.966 369.832 389.033 374.445 395.097 374.445H434.157C440.22 374.445 438.668 369.754 435.102 369.754C432.998 369.765 430.771 365.895 432.166 363.577L452.1 325.811H454.125C462.99 325.811 465.139 340.358 466.804 356.243C466.928 357.379 464.757 357.446 460.335 357.446L449.243 357.457C448.703 357.457 448.275 357.896 448.275 358.436C448.275 358.976 448.714 359.404 449.243 359.404H460.212C463.125 359.404 467.187 359.426 467.288 360.371C468.053 367.335 468.627 373.466 469.954 379.057C470.37 380.801 467.254 380.531 463.935 380.531L449.817 380.554C449.277 380.554 448.849 380.992 448.849 381.521C448.849 382.061 449.288 382.5 449.817 382.5L463.924 382.522C468.357 382.522 470.64 382.511 470.899 383.422C476.974 405.697 503.029 423.236 528.364 422.268C550.099 421.436 568.458 409.612 577.852 402.075C590.351 392.051 608.722 371.036 616.203 355.759C617.598 352.924 619.792 349.335 619.297 346.838ZM473.172 317.183C470.123 319.68 465.319 322.56 464.397 321.649C463.103 320.366 459.075 317.588 456.904 316.587L475.005 283.5C475.748 282.342 476.603 281.7 478.605 281.7C485.648 281.7 487.954 289.339 484.658 298.857C482.329 305.528 478.56 312.75 473.172 317.183Z" fill="#31006F"/>
<path d="M253.246 248.48C249.59 253.216 244.73 254.42 239.274 254.42H237.732L247.34 235.396C247.801 234.53 248.814 233.844 250.062 233.844C251.266 233.844 251.12 231.436 249.545 231.436H234.402C233.12 231.436 232.659 233.844 233.862 233.844C235.156 233.844 235.392 235.272 234.774 236.476L226.179 253.43C225.594 254.341 224.649 254.588 223.591 254.87C222.32 255.196 221.431 257.48 222.894 257.48H247.07C248.937 257.48 249.365 256.793 249.871 256.118L254.731 248.592C255.417 247.692 253.955 247.568 253.246 248.48Z" fill="#31006F"/>
<path d="M326.067 232.122C325.335 232.527 323.603 232.73 322.849 232.111C320.925 230.502 317.134 229.276 315.143 229.276C309.439 229.276 305.311 230.401 302.836 235.778C300.721 240.357 302.892 244.205 307.921 246.533C310.103 247.535 312.994 248.851 311.881 251.483C311.071 253.396 308.843 253.587 306.829 253.576C304.129 253.553 300.068 251.528 299.438 247.715C299.224 246.466 297.784 246.758 297.368 247.422L293.926 254.273C293.386 255.184 294.803 256.208 295.366 255.601C296.524 254.352 299.056 254.059 300.304 254.892C302.014 256.028 306.424 258.031 309.057 258.008C314.828 257.963 318.642 256.478 321.803 251.528C324.694 247.006 322.917 242.528 317.652 240.042C314.862 238.726 312.488 236.408 313.726 233.855C314.536 232.19 317.022 232.55 318.248 232.763C320.599 233.157 323.614 235.373 323.963 237.331C324.109 238.163 325.167 238.321 325.628 237.578L327.439 233.348C327.867 232.505 326.528 231.875 326.067 232.122Z" fill="#31006F"/>
<path d="M493.837 238.928L495.941 235.047C496.852 233.348 495.356 231.413 492.937 231.413H464.711C462.675 231.413 463.271 233.539 464.103 233.539C465.915 233.539 466.455 235.744 465.352 237.612L456.858 253.238C455.598 254.734 454.777 255.375 452.966 255.375C451.515 255.375 450.997 257.502 453.033 257.502H481.642C482.801 257.502 483.318 257.085 483.723 256.5L487.616 251.337C488.572 250.088 486.513 250.088 485.894 250.718C480.956 255.657 475.668 255.51 471.832 255.51H468.502L472.417 246.769H473.25C475.758 246.769 478.661 246.747 479.426 248.648C479.628 249.109 480.877 249.48 481.372 248.648L484.713 241.966C485.253 240.976 483.746 240.796 483.341 241.504C482.025 243.867 476.22 243.226 474.701 243.226H473.868L478.751 233.596H484.185C487.559 233.596 490.473 235.981 491.429 238.591C491.654 239.221 493.466 239.716 493.837 238.928Z" fill="#31006F"/>
<path d="M421.613 231.413H411.567C409.53 231.413 410.127 233.539 410.959 233.539C413.108 233.539 415.065 236.059 413.884 238.377L409.722 245.982L400.553 232.561C399.934 231.728 398.483 231.323 397.245 231.323H387.357C385.32 231.323 385.793 233.427 386.625 233.427C388.729 233.427 388.178 235.002 387.66 236.116L379.785 251.281C379.29 252.484 377.13 252.653 376.478 251.123L370.381 231.267C370.122 230.48 366.567 230.513 365.656 231.267L350.378 243.856L342.469 243.867C340.894 243.867 340.276 244.519 340.276 245.352C340.276 246.184 340.872 246.938 342.537 246.938L346.677 246.927L342.537 250.336C340.231 252.057 337.879 254.408 336.316 254.408H335.348C333.852 254.408 333.02 254.656 333.02 255.859C333.02 257.063 333.65 257.479 335.067 257.479H347.386C349.714 257.479 349.253 254.453 348.094 254.453C346.823 254.453 344.719 252.833 346.666 250.549L350.423 246.949H357.837C362.236 246.949 365.307 252.046 362.697 253.632L360.661 254.757C359.716 255.252 359.288 257.491 360.661 257.491H384.747C386.535 257.491 386.164 255.128 385.332 255.128C382.868 255.128 384.027 251.584 384.51 250.639L390.833 238.658L399.72 255.882C400.305 256.962 400.823 257.502 401.869 257.502H405.267C406.347 257.502 406.707 256.883 407.213 256.051L417.326 237.769C418.958 234.507 420.206 233.562 422.254 233.562C423.075 233.551 423.649 231.413 421.613 231.413ZM354.259 243.889L363.676 236.194L363.721 243.889H354.259Z" fill="#31006F"/>
<path d="M278.986 230.266C270.515 230.266 261.796 234.439 260.052 243.327C258.534 251.055 263.889 259.088 273.339 259.088C282.339 259.088 290.652 253.193 292.328 244.666C294.005 236.082 287.626 230.266 278.986 230.266ZM281.382 246.556C278.694 251.91 274.205 255.094 271.336 253.654C268.479 252.225 268.332 246.713 271.01 241.358C273.699 235.992 278.187 232.819 281.056 234.248C283.925 235.699 284.071 241.201 281.382 246.556Z" fill="#31006F"/>
<path d="M450.244 243.237H439.365C437.329 243.237 437.925 245.363 438.757 245.363C439.612 245.363 440.411 245.813 440.411 247.186C440.411 251.584 438.532 253.272 434.764 253.272C430.624 253.272 429.127 248.243 431.917 242.089C433.695 238.152 438.409 234.462 444 234.462C447.42 234.462 450.3 235.205 450.739 238.411C450.84 239.198 452.021 239.198 452.437 238.456L455.014 233.832C455.306 233.337 454.856 232.741 454.068 232.696C453.405 232.651 451.92 233.506 450.941 232.786C448.759 231.166 444.022 229.602 440.445 229.602C434.606 229.602 426.45 230.918 420.949 240.481C415.965 249.132 423.221 258.278 429.937 258.289C433.672 258.301 438.015 255.533 440.501 254.487L443.28 256.366C443.696 256.861 444.562 257.491 445.395 257.491H446.43C447.386 257.491 447.757 256.186 448.129 255.353L452.392 245.026C452.955 243.991 452.651 243.237 450.244 243.237Z" fill="#31006F"/>
<path d="M599.282 232.122C598.551 232.527 596.819 232.73 596.076 232.111C594.152 230.502 590.361 229.276 588.37 229.276C582.677 229.276 578.537 230.401 576.062 235.778C573.947 240.357 576.119 244.205 581.147 246.533C583.319 247.535 586.221 248.851 585.107 251.483C584.297 253.396 582.059 253.587 580.056 253.576C577.367 253.553 573.306 251.528 572.665 247.715C572.462 246.466 571.011 246.758 570.595 247.422L567.141 254.273C566.601 255.184 568.03 256.208 568.581 255.601C569.74 254.352 572.282 254.059 573.52 254.892C575.23 256.028 579.64 258.031 582.272 258.008C588.044 257.963 591.846 256.478 595.019 251.528C597.91 247.006 596.132 242.528 590.856 240.042C588.066 238.726 585.681 236.408 586.93 233.855C587.74 232.19 590.226 232.55 591.464 232.763C593.815 233.157 596.83 235.373 597.179 237.331C597.325 238.163 598.394 238.321 598.844 237.578L600.655 233.348C601.071 232.505 599.732 231.875 599.282 232.122Z" fill="#31006F"/>
<path d="M523.627 248.48C519.971 253.216 515.111 254.42 509.666 254.42H508.124L517.732 235.396C518.182 234.53 519.194 233.844 520.454 233.844C521.658 233.844 521.512 231.436 519.937 231.436H504.795C503.501 231.436 503.051 233.844 504.254 233.844C505.537 233.844 505.773 235.272 505.154 236.476L496.548 253.43C495.963 254.341 495.018 254.588 493.961 254.87C492.69 255.196 491.801 257.48 493.263 257.48H517.439C519.307 257.48 519.746 256.793 520.241 256.118L525.101 248.592C525.809 247.692 524.336 247.568 523.627 248.48Z" fill="#31006F"/>
<path d="M560.088 233.596C563.463 233.596 566.376 235.981 567.333 238.591C567.558 239.221 569.369 239.716 569.74 238.928L571.844 235.047C572.755 233.348 571.259 231.413 568.84 231.413H540.603C538.578 231.413 539.174 233.539 539.995 233.539C541.806 233.539 542.346 235.744 541.255 237.612L532.762 253.238C531.49 254.734 530.68 255.375 528.869 255.375C527.418 255.375 526.9 257.502 528.948 257.502H557.545C558.715 257.502 559.221 257.085 559.638 256.5L563.519 251.337C564.475 250.088 562.428 250.088 561.798 250.718C556.859 255.657 551.571 255.51 547.735 255.51H544.405L548.32 246.769H549.153C551.673 246.769 554.564 246.747 555.329 248.648C555.543 249.109 556.78 249.48 557.275 248.648L560.616 241.966C561.156 240.976 559.649 240.796 559.244 241.504C557.928 243.867 552.123 243.226 550.604 243.226H549.771L554.643 233.596H560.088Z" fill="#31006F"/>
<path d="M448.926 210.759C446.755 208.261 443.751 202.951 422.218 184.186C390.561 156.59 348.61 143.99 309.213 143.99C280.166 143.99 254.741 150.504 226.582 166.006C190.706 185.761 175.845 208.464 172.166 213.076C169.455 216.474 169.073 218.454 170.828 219.466C172.088 220.186 174.495 217.554 176.756 214.572C187.421 200.476 201.461 186.504 216.232 178.291C220.822 178.955 227.246 185.345 229.755 188.754C220.305 193.906 204.634 205.831 198.705 210.432C193.586 214.404 191.82 216.62 193.192 218.24C194.34 219.579 198.255 216.935 201.54 214.257C207.21 209.611 224.073 197.652 232.421 193.164C238.102 199.812 236.257 212.097 234.255 214.752C233.175 216.181 233.028 217.711 234.255 218.409C235.425 219.072 236.696 217.385 238.35 215C242.22 209.409 240.667 195.875 237.348 191.004C247.53 184.692 262.132 180.463 270.986 178.46C271.739 179.878 282.461 211.22 284.508 216.912C285.633 220.028 286.736 223.763 289.019 223.055C290.538 222.582 289.537 219.174 288.266 215.742C286.702 211.501 278.591 185.176 276.082 177.38C279.007 175.805 296.624 172.228 301.034 172.396C298.863 183.86 306.974 188.551 316.143 194.57C321.014 197.765 351.985 215.562 358.454 219.567C362.144 221.851 365.013 223.302 365.8 222.222C366.7 220.985 364.203 218.397 360.794 216.406C358.083 214.82 329.272 198.102 317.223 190.497C308.605 185.052 303.97 179.225 306.04 171.564C308.875 170.731 317.56 170.664 326.572 170.731C387.996 171.226 437.237 206.439 442.75 212.086C445.54 214.955 449.432 217.407 450.928 216.237C451.873 215.506 450.231 212.266 448.926 210.759ZM234.772 186.504C233.13 183.736 225.322 176.604 221.081 175.209C230.925 167.908 253.796 157.434 262.481 155.611C263.977 158.109 267.982 168.729 269.321 173.218C261.637 174.883 241.275 182.195 234.772 186.504ZM301.867 166.738C293.857 167.233 279.333 170.394 274.158 171.89C272.819 168.403 269.152 157.603 267.982 154.115C282.731 149.93 299.864 148.468 313.049 149.626C309.382 152.461 303.205 163.588 301.867 166.738ZM341.759 166.243C328.439 165.298 317.549 164.915 308.043 165.905C310.799 158.964 316.312 152.473 320.564 149.626C329.643 149.998 339.014 151.314 346.439 152.788C370.199 157.479 407.132 171.958 423.051 193.31C401.834 179.158 366.588 168.009 341.759 166.243Z" fill="black"/>
<path d="M462.212 421.042C464.484 416.857 466.329 414.483 464.383 413.403C462.606 412.413 460.873 416.295 458.713 420.041C451.536 432.495 443.694 442.777 425.998 458.909C406.39 476.763 383.845 487.147 376.004 489.802C369.321 471.037 343.874 391.095 343.199 388.822C342.198 385.414 341.343 384.435 340.195 384.84C338.901 385.301 339.7 387.157 340.364 390.161C341.028 393.154 371.324 487.732 372.325 491.05C366.317 494.043 341.894 500.872 324.839 501.434C309.652 501.929 291.787 501.434 282.776 499.353C272.212 490.825 248.171 456.884 239.058 438.817C228.303 417.532 221.182 397.946 219.348 389.632C218.471 385.661 217.346 382.792 215.343 383.164C213.183 383.58 214.421 386.719 215.681 390.971C218.91 401.917 224.186 417.431 235.38 439.548C247.237 462.971 268.421 490.443 274.597 497.935C255.247 493.874 231.723 484.807 209.381 468.157C190.121 453.802 173.584 435.521 165.27 422.212C163.841 419.928 162.165 416.688 160.095 418.061C159.161 418.68 160.32 421.278 161.76 423.877C173.831 445.567 203.295 476.279 241.05 493.132C285.048 512.774 333.018 511.728 375.914 495.123C413.443 480.588 446.091 450.708 462.212 421.042Z" fill="black"/>
<path d="M448.926 210.759C446.755 208.261 443.751 202.951 422.218 184.186C390.561 156.59 348.61 143.99 309.213 143.99C280.166 143.99 254.741 150.504 226.582 166.006C190.706 185.761 175.845 208.464 172.166 213.076C169.455 216.474 169.073 218.454 170.828 219.466C172.088 220.186 174.495 217.554 176.756 214.572C187.421 200.476 201.461 186.504 216.232 178.291C220.822 178.955 227.246 185.345 229.755 188.754C220.305 193.906 204.634 205.831 198.705 210.432C193.586 214.404 191.82 216.62 193.192 218.24C194.34 219.579 198.255 216.935 201.54 214.257C207.21 209.611 224.073 197.652 232.421 193.164C238.102 199.812 236.257 212.097 234.255 214.752C233.175 216.181 233.028 217.711 234.255 218.409C235.425 219.072 236.696 217.385 238.35 215C242.22 209.409 240.667 195.875 237.348 191.004C247.53 184.692 262.132 180.463 270.986 178.46C271.739 179.878 282.461 211.22 284.508 216.912C285.633 220.028 286.736 223.763 289.019 223.055C290.538 222.582 289.537 219.174 288.266 215.742C286.702 211.501 278.591 185.176 276.082 177.38C279.007 175.805 296.624 172.228 301.034 172.396C298.863 183.86 306.974 188.551 316.143 194.57C321.014 197.765 351.985 215.562 358.454 219.567C362.144 221.851 365.013 223.302 365.8 222.222C366.7 220.985 364.203 218.397 360.794 216.406C358.083 214.82 329.272 198.102 317.223 190.497C308.605 185.052 303.97 179.225 306.04 171.564C308.875 170.731 317.56 170.664 326.572 170.731C387.996 171.226 437.237 206.439 442.75 212.086C445.54 214.955 449.432 217.407 450.928 216.237C451.873 215.506 450.231 212.266 448.926 210.759ZM234.772 186.504C233.13 183.736 225.322 176.604 221.081 175.209C230.925 167.908 253.796 157.434 262.481 155.611C263.977 158.109 267.982 168.729 269.321 173.218C261.637 174.883 241.275 182.195 234.772 186.504ZM301.867 166.738C293.857 167.233 279.333 170.394 274.158 171.89C272.819 168.403 269.152 157.603 267.982 154.115C282.731 149.93 299.864 148.468 313.049 149.626C309.382 152.461 303.205 163.588 301.867 166.738ZM341.759 166.243C328.439 165.298 317.549 164.915 308.043 165.905C310.799 158.964 316.312 152.473 320.564 149.626C329.643 149.998 339.014 151.314 346.439 152.788C370.199 157.479 407.132 171.958 423.051 193.31C401.834 179.158 366.588 168.009 341.759 166.243Z" fill="black"/>
<path d="M462.212 421.042C464.484 416.857 466.329 414.483 464.383 413.403C462.606 412.413 460.873 416.295 458.713 420.041C451.536 432.495 443.694 442.777 425.998 458.909C406.39 476.763 383.845 487.147 376.004 489.802C369.321 471.037 343.874 391.095 343.199 388.822C342.198 385.414 341.343 384.435 340.195 384.84C338.901 385.301 339.7 387.157 340.364 390.161C341.028 393.154 371.324 487.732 372.325 491.05C366.317 494.043 341.894 500.872 324.839 501.434C309.652 501.929 291.787 501.434 282.776 499.353C272.212 490.825 248.171 456.884 239.058 438.817C228.303 417.532 221.182 397.946 219.348 389.632C218.471 385.661 217.346 382.792 215.343 383.164C213.183 383.58 214.421 386.719 215.681 390.971C218.91 401.917 224.186 417.431 235.38 439.548C247.237 462.971 268.421 490.443 274.597 497.935C255.247 493.874 231.723 484.807 209.381 468.157C190.121 453.802 173.584 435.521 165.27 422.212C163.841 419.928 162.165 416.688 160.095 418.061C159.161 418.68 160.32 421.278 161.76 423.877C173.831 445.567 203.295 476.279 241.05 493.132C285.048 512.774 333.018 511.728 375.914 495.123C413.443 480.588 446.091 450.708 462.212 421.042Z" fill="black"/>
</g>
<defs>
<clipPath id="clip0_29_3849">
<rect width="648" height="648" fill="white" transform="translate(0.603516)"/>
</clipPath>
</defs>
</svg>
