<svg width="649" height="648" viewBox="0 0 649 648" fill="none" xmlns="http://www.w3.org/2000/svg">
<path d="M181.874 581.57C181.874 574.92 176.464 569.51 169.814 569.51H147.234V611.96H157.114V598.7H166.294C169.244 598.76 171.614 601.16 171.614 604.12V611.92H181.504V604.12C181.504 600.66 180.334 597.47 178.394 594.9C180.544 592.67 181.874 589.65 181.874 586.31V581.57V581.57ZM169.814 579.39C171.014 579.39 171.984 580.36 171.984 581.56V586.31C171.984 587.69 170.864 588.81 169.484 588.81H157.114V579.38H169.814V579.39Z" fill="#12173F"/>
<path d="M404.714 611.97H369.534V569.46H379.414V602.08H404.714V611.97Z" fill="#12173F"/>
<path d="M502.704 579.39V569.51H467.514V611.97H502.694V602.08H477.394V595.18H499.214V585.3H477.394V579.39H502.704Z" fill="#12173F"/>
<path d="M280.124 611.97H241.904L263.814 579.39H244.274V569.51H282.374L260.464 602.08H280.124V611.97Z" fill="#12173F"/>
<path d="M341.524 611.97H303.294L325.204 579.39H305.664V569.51H343.764L321.854 602.08H341.524V611.97Z" fill="#12173F"/>
<path d="M439.244 569.5H429.364V611.97H439.244V569.5Z" fill="#12173F"/>
<path d="M218.114 569.5H208.234V611.97H218.114V569.5Z" fill="#12173F"/>
<path d="M218.114 569.5H208.234V611.97H218.114V569.5Z" fill="#12173F"/>
<path d="M376.414 476.43H340.254V554.23H358.124V529.21H376.414C388.434 529.21 398.214 519.43 398.214 507.41V498.23C398.214 486.21 388.434 476.43 376.414 476.43ZM380.334 507.41C380.334 509.58 378.574 511.34 376.404 511.34H358.114V494.3H376.404C378.574 494.3 380.334 496.06 380.334 498.23V507.41Z" fill="#12173F"/>
<path d="M349.934 554.24H348.444V484.63H376.404C383.904 484.63 390.014 490.73 390.014 498.24V507.42C390.014 514.93 383.904 521.03 376.404 521.03H349.924V554.24H349.934ZM349.934 519.54H376.414C383.094 519.54 388.534 514.1 388.534 507.42V498.24C388.534 491.56 383.094 486.12 376.414 486.12H349.934V519.54Z" fill="#5D76A9"/>
<path d="M237.954 494.3V476.43H178.994V554.23H237.934V536.36H196.864V524.27H231.614V506.4H196.864V494.3H237.954Z" fill="#12173F"/>
<path d="M237.954 486.11V484.62H187.184V546.04H237.934V544.55H188.674V516.08H231.614V514.59H188.674V486.11H237.954Z" fill="#5D76A9"/>
<path d="M308.874 476.5H247.194V554.21H265.064V494.37H280.014V554.24H297.884V494.37H308.884C311.054 494.37 312.814 496.13 312.814 498.3V554.24H330.684V498.3C330.674 486.28 320.894 476.5 308.874 476.5Z" fill="#12173F"/>
<path d="M308.874 484.69H255.384V554.2H256.874V486.17H288.204V554.23H289.694V486.17H308.884C315.564 486.17 321.004 491.61 321.004 498.29V554.23H322.494V498.3C322.484 490.8 316.384 484.69 308.874 484.69Z" fill="#5D76A9"/>
<path d="M147.564 476.5H85.874V554.21H103.744V494.37H118.694V554.24H136.564V494.37H147.564C149.734 494.37 151.494 496.13 151.494 498.3V554.24H169.364V498.3C169.364 486.28 159.584 476.5 147.564 476.5Z" fill="#12173F"/>
<path d="M147.564 484.69H94.064V554.2H95.554V486.17H126.884V554.23H128.374V486.17H147.564C154.244 486.17 159.684 491.61 159.684 498.29V554.23H161.174V498.3C161.174 490.8 155.064 484.69 147.564 484.69Z" fill="#5D76A9"/>
<path d="M494.004 476.43H476.134V554.24H494.004V476.43Z" fill="#12173F"/>
<path d="M485.814 476.43H484.324V554.24H485.814V476.43Z" fill="#5D76A9"/>
<path d="M446.654 476.43V506.4H424.444V476.43H406.574V554.24H424.444V524.27H446.654V554.24H464.524V476.43H446.654Z" fill="#12173F"/>
<path d="M454.854 476.43V514.59H416.254V476.43H414.764V554.24H416.254V516.08H454.854V554.24H456.334V476.43H454.854Z" fill="#5D76A9"/>
<path d="M120.564 611.97H97.9638C91.3138 611.97 85.9038 606.56 85.9038 599.91V581.57C85.9038 574.92 91.3138 569.51 97.9638 569.51H108.504C115.154 569.51 120.564 574.92 120.564 581.57V583.57H110.684V581.57C110.684 580.37 109.714 579.4 108.514 579.4H97.9638C96.7638 579.4 95.7938 580.37 95.7938 581.57V599.91C95.7938 601.11 96.7638 602.08 97.9638 602.08H110.674V598.18H104.794V588.3H120.564V611.97Z" fill="#12173F"/>
<path d="M120.564 611.97H97.9638C91.3138 611.97 85.9038 606.56 85.9038 599.91V581.57C85.9038 574.92 91.3138 569.51 97.9638 569.51H108.504C115.154 569.51 120.564 574.92 120.564 581.57V583.57H110.684V581.57C110.684 580.37 109.714 579.4 108.514 579.4H97.9638C96.7638 579.4 95.7938 580.37 95.7938 581.57V599.91C95.7938 601.11 96.7638 602.08 97.9638 602.08H110.674V598.18H104.794V588.3H120.564V611.97Z" fill="#12173F"/>
<path d="M551.024 612H540.464C533.814 612 528.404 606.59 528.404 599.94V598.44H538.294V599.94C538.294 601.14 539.274 602.11 540.464 602.11H551.024C552.224 602.11 553.194 601.14 553.194 599.94V598.11L534.824 593.23C530.984 592.05 528.394 588.56 528.394 584.54V581.9C528.394 575.09 533.934 569.55 540.754 569.55H551.014C557.664 569.55 563.074 574.96 563.074 581.61V583.61H553.194V581.61C553.194 580.41 552.214 579.44 551.024 579.44H540.764C539.404 579.44 538.294 580.55 538.294 581.91V583.94L556.664 588.82C560.504 590 563.084 593.49 563.084 597.51V599.95C563.084 606.59 557.674 612 551.024 612Z" fill="#12173F"/>
<path d="M541.384 554.12H504.714V529.37H522.584V536.25H541.384C543.634 536.25 545.464 534.42 545.464 532.17V528.61L516.274 519.64C509.354 517.51 504.714 511.22 504.714 503.99V498.42C504.714 486.32 514.564 476.47 526.664 476.47H563.334V502.13H545.464V494.34H526.664C524.414 494.34 522.584 496.17 522.584 498.42V502.88L551.644 511.81C558.634 513.96 563.334 520.32 563.334 527.63V532.16C563.334 544.27 553.484 554.12 541.384 554.12Z" fill="#12173F"/>
<path d="M541.384 545.93H512.904V529.37H514.394V544.44H541.384C548.154 544.44 553.654 538.93 553.654 532.17V527.64C553.654 524.6 551.704 521.96 548.804 521.07L518.684 511.81C515.224 510.75 512.904 507.61 512.904 503.99V498.43C512.904 490.84 519.074 484.67 526.664 484.67H555.144V502.13H553.654V486.15H526.664C519.894 486.15 514.394 491.66 514.394 498.42V503.98C514.394 506.94 516.294 509.51 519.124 510.38L549.244 519.64C552.774 520.72 555.154 523.94 555.154 527.63V532.16C555.144 539.76 548.964 545.93 541.384 545.93Z" fill="#5D76A9"/>
<path d="M513.544 131.71C518.924 121.57 521.484 111.41 521.484 101.68C521.484 79.52 509.124 59.69 491.754 47.87C467.594 31.43 431.304 29.16 405.644 59.84C368.194 54.72 336.784 65.02 324.854 69.93C312.914 65.02 281.514 54.72 244.064 59.84C218.404 29.16 182.114 31.43 157.954 47.87C140.584 59.69 128.224 79.52 128.224 101.68C128.224 111.4 130.784 121.57 136.164 131.71C116.804 159.65 103.404 192.79 103.404 226.53C103.404 267.17 120.754 288.09 127.304 297.09C127.304 297.09 130.114 294.28 132.544 291.86C150.924 338.64 182.394 363.81 220.374 386.75C220.374 386.75 221.214 382.13 221.964 377.99C262.864 413.44 282.344 404.72 324.854 452.8C367.204 404.9 387.204 413.13 427.744 377.99C428.494 382.13 429.334 386.75 429.334 386.75C446.244 376.54 493.954 350.95 517.164 291.86C519.584 294.29 522.394 297.09 522.394 297.09C526.404 291.58 546.294 269.39 546.294 226.53C546.294 192.79 532.904 159.65 513.544 131.71Z" fill="#707271"/>
<path d="M501.844 132.29C540.854 72.4099 452.384 10.0599 409.524 70.3799C366.224 62.7099 329.744 78.4899 324.854 80.7699C319.964 78.4899 283.484 62.7099 240.184 70.3799C197.314 10.0599 108.854 72.4099 147.864 132.29C103.414 193.33 107.894 253.51 128.504 281.82L137.024 273.29C137.024 273.29 149.144 332.12 213.154 370.76L215.464 358.07C254.874 400.17 290.884 399.21 324.854 437.66C358.834 399.21 394.834 400.17 434.244 358.07L436.554 370.76C500.574 332.12 512.684 273.29 512.684 273.29L521.204 281.82C541.874 253.42 546.324 193.37 501.844 132.29Z" fill="#12173F"/>
<path d="M325.244 356.18C325.244 356.18 294.504 356.65 289.964 359.49C289.964 359.49 284.684 368.63 325.244 368.46C363.824 368.29 358.134 361.25 358.414 360.21C358.414 360.21 345.364 356.18 325.244 356.18Z" fill="#5D76A9"/>
<path d="M298.594 320.46C298.594 320.46 303.384 306.57 308.504 310.96C315.614 317.05 324.844 329.43 324.844 330.75V347.28L313.634 347.87C307.194 348.06 286.434 353.02 286.434 353.02C257.854 282.24 273.694 228.68 281.334 209.57C252.994 215.71 248.424 181.7 248.424 181.7C251.374 181.1 255.704 182.38 260.594 184.72C268.174 188.34 277.074 194.49 284.174 200.01H284.184C286.284 201.64 288.234 203.22 289.944 204.66C309.214 220.87 324.844 217.58 324.844 217.58V286.85C324.854 286.85 268.634 282.5 298.594 320.46Z" fill="#5D76A9"/>
<path d="M351.274 320.47C387.044 284.17 328.674 286.29 324.974 286.86C330.974 287.2 376.224 287.45 351.274 320.47Z" fill="#5D76A9"/>
<path d="M375.044 210.66C407.244 297.37 366.424 353.15 366.194 353.46C391.544 287.11 375.254 231.93 364.154 211.43C358.464 212 351.634 211.67 351.634 211.67C351.634 211.67 360.184 206.38 365.734 201.35C366.124 201 366.554 200.61 367.034 200.18C371.634 196.09 380.434 188.9 391.094 184.74C394.994 183.22 399.154 182.1 403.444 181.69C403.444 181.69 400.374 210.27 375.044 210.66Z" fill="#5D76A9"/>
<path d="M426.024 98.4697C426.024 98.4697 439.164 65.6297 479.414 73.5597C479.414 73.5597 442.464 49.2397 416.744 93.1997C416.744 93.1997 379.854 75.8997 324.854 99.6797C324.854 99.6797 273.164 81.5097 233.874 91.7897C233.874 91.7897 210.964 52.0397 178.694 68.4097C146.424 84.7797 163.264 122.66 168.884 132.48C168.884 132.48 115.414 186.95 135.514 254.31L146.274 240.89C146.274 240.89 161.634 314.24 201.264 337.36L203.644 319.33C203.644 319.33 245.014 369.25 293.664 390.45C298.294 392.62 324.064 405.43 324.864 411.75V376.82C324.864 376.82 291.114 379.63 282.214 364.05C276.164 353.46 237.364 284.23 256.534 211.73C256.534 211.73 237.864 208.94 234.344 177.45C234.344 177.45 220.424 170.67 203.124 172.08C203.124 172.08 234.064 162.36 263.064 173.6C292.054 184.82 299.824 213.4 319.474 200.77L324.864 120.26L330.794 200.77C350.434 213.4 358.214 184.82 387.204 173.6C416.204 162.37 447.154 172.08 447.154 172.08C447.154 172.08 434.774 163.35 414.884 159.38C398.274 156.05 373.874 166.73 373.874 166.73C373.874 166.73 377.244 143.89 388.324 131.71C397.824 121.23 419.364 118.92 426.024 98.4697ZM175.804 126.2C174.644 115.24 188.494 104.38 188.494 104.38C182.784 98.4797 172.824 103.59 172.824 103.59C181.874 85.8997 202.134 94.5497 202.134 94.5497C194.454 85.1397 178.194 85.7397 178.194 85.7397C198.304 65.7897 222.604 96.2797 222.604 96.2797C200.964 101.18 175.804 126.2 175.804 126.2Z" fill="#5D76A9"/>
<path d="M284.194 200.01C281.084 199.04 275.954 202.25 273.094 207.82C263.494 205.04 260.204 194.67 260.604 184.73L260.614 184.72C268.184 188.34 277.084 194.49 284.194 200.01Z" fill="#FFBB22"/>
<path d="M378.614 207.82C375.604 201.96 370.064 198.69 367.034 200.18C371.634 196.09 380.434 188.9 391.094 184.75C391.534 194.69 388.164 205.06 378.614 207.82Z" fill="#FFBB22"/>
</svg>
