<svg width="649" height="648" viewBox="0 0 649 648" fill="none" xmlns="http://www.w3.org/2000/svg">
<path d="M523.724 173.58C508.184 156.44 473.884 142.53 429.714 134.11C429.914 129.03 433.004 126.88 438.504 123.08C441.374 121.09 444.624 118.84 447.894 115.74C462.144 102.2 445.424 81.4602 444.694 80.5902L435.484 69.3602L437.684 83.7202C439.204 93.5602 435.594 97.0402 424.904 104.5C423.544 105.44 422.374 106.49 421.354 107.61C421.804 101.04 422.114 93.7202 419.894 84.5502C417.674 75.3702 413.174 71.6602 413.174 71.6602L412.004 84.9702C411.994 85.0502 410.974 95.3702 397.184 107.84C398.374 106.51 399.474 105.13 400.474 103.68C407.224 93.8602 405.274 82.6802 403.014 69.7402L402.544 67.0202C400.224 53.5202 403.834 45.1102 406.154 43.7302C408.414 40.9802 412.904 36.4002 412.904 36.4002C412.904 36.4002 410.524 35.3402 403.894 36.2002C395.274 37.3902 380.794 42.5402 381.184 54.3402C381.354 59.5302 383.014 64.4402 384.504 68.7802C386.084 73.4302 387.574 77.8302 386.244 80.0902C385.194 81.8702 381.994 83.3002 376.994 84.2102C356.704 87.9102 341.154 97.4002 333.204 110.95C330.584 115.43 328.824 120.24 327.944 125.28C277.584 125.43 229.914 131.71 192.944 143.15C151.514 155.97 128.664 173.42 126.884 193.62C125.944 204.25 130.744 219.57 157.344 234.32L157.164 234.51L164.714 238.12C164.724 238.13 164.734 238.13 164.734 238.14L168.714 240.04L168.764 239.99C181.024 245.47 195.414 250.2 211.434 254.11C205.724 257.33 200.474 261.03 195.754 265.23C169.984 286.39 155.144 317.75 155.144 351.18C155.144 380.92 166.724 408.88 187.754 429.92C208.784 450.95 236.744 462.53 266.494 462.53C319.134 462.53 364.954 425.21 375.544 373.75C384.534 346.86 383.484 318.01 383.104 307.13C382.204 282.41 394.344 268.73 402.064 262.57C437.234 258.12 468.364 250.41 491.544 240.09L491.584 240.13L495.324 238.35C495.334 238.35 495.344 238.34 495.354 238.33L503.374 234.51L503.154 234.3C521.814 223.88 532.224 211.64 533.374 198.59C534.114 189.89 530.874 181.48 523.724 173.58ZM487.594 195.19C490.754 198.68 490.554 200.92 490.484 201.66C490.134 205.68 485.104 210.51 476.684 214.94L476.664 214.95C458.974 224.25 428.544 231.28 392.324 234.99C393.924 233.96 395.654 233.06 397.534 232.3L398.124 232.06C408.534 227.83 420.334 223.04 420.884 205.84C420.974 203.1 421.114 194.7 422.624 191.7C424.564 187.85 429.534 181.88 433.914 180.29C433.984 180.26 426.594 178.82 426.594 178.82C426.204 178.78 425.824 178.77 425.454 178.76C427.934 176.96 429.704 174.82 430.994 172.56C460.414 178.69 480.194 187.03 487.594 195.19ZM169.734 199.46C170.984 185.25 222.174 166.5 304.924 163.56C297.244 169.32 288.144 179.38 285.904 195.56L285.054 201.68C284.514 205.45 283.844 209.3 282.384 213.11C279.194 221.47 270.214 228.36 260.594 233.62C227.284 229.42 199.434 222.41 183.174 213.6H183.154C174.254 208.78 169.364 203.63 169.734 199.46Z" fill="black"/>
<path d="M227.304 538.73L241.504 480.69H218.034L203.764 538.73H227.304Z" fill="black"/>
<path d="M278.694 494.96L280.084 518.66H267.854L280.234 538.73H301.644L298.304 480.69C298.304 480.69 262.844 480.69 262.994 480.69C262.994 480.69 234.064 538.73 234.214 538.73H256.844L278.564 494.96H278.694V494.96Z" fill="black"/>
<path d="M224.174 592.021L219.394 611.861H241.414L255.694 553.831H233.664L228.254 576.311L211.704 576.331L217.114 553.831H195.084L180.814 611.861H202.834L207.614 592.031L224.174 592.021Z" fill="black"/>
<path d="M276.834 598.781L278.434 590.901H305.714L309.204 578.071L281.804 578.061L283.564 569.561H310.964L315.164 553.831H265.424L251.144 611.861H300.504L304.054 598.801L276.834 598.781Z" fill="black"/>
<path d="M418.444 538.73L432.644 480.69H409.174L394.904 538.73H418.444Z" fill="black"/>
<path d="M457.384 525.51C460.494 529.84 463.924 538.31 449.414 544.89C432.574 552.52 449.484 571.99 426.394 571.99H416.914L407.354 611.86H383.804L393.404 572L377.514 571.99L382.504 553.84H423.284C447.454 553.84 430.494 537.07 442.814 534.82C451.234 533.28 456.434 531.75 457.384 525.51Z" fill="black"/>
<path d="M163.294 510.59L159.544 480.69H130.534L116.264 538.73H137.674L145.574 508.4H145.704L149.974 538.73H162.584L180.074 508.4H180.204L173.364 538.73H193.564L207.844 480.69H179.894L163.424 510.59H163.294Z" fill="black"/>
<path d="M354.734 510.59L350.994 480.69H321.984L307.704 538.73H329.124L337.014 508.4H337.154L341.424 538.73H354.024L371.514 508.4H371.654L364.814 538.73H385.014L399.294 480.69H371.344L354.864 510.59H354.734Z" fill="black"/>
<path d="M351.174 568.11L352.554 591.81H340.334L352.714 611.86H374.124L370.784 553.84C370.784 553.84 335.324 553.84 335.474 553.84C335.474 553.84 306.534 611.86 306.684 611.86H329.324L351.044 568.11H351.174Z" fill="black"/>
<path d="M159.394 359.04C162.314 373.69 170.694 391.24 187.344 402.95C192.374 406.48 197.864 409.34 203.674 411.56C200.074 405.42 195.894 399.24 191.624 392.95C183.664 381.21 175.424 369.05 170.194 355.99C164.794 342.49 163.314 328.35 165.674 314.14C161.424 325.68 159.084 338.15 159.084 351.17C159.084 353.81 159.214 356.44 159.394 359.04Z" fill="#98002E"/>
<path d="M177.334 353.12C182.254 365.42 190.254 377.221 197.994 388.631C203.974 397.451 209.814 406.071 214.254 414.791C219.154 415.931 224.214 416.671 229.384 416.981C224.054 409.361 219.414 400.691 215.424 390.781C199.964 352.371 202.204 304.891 221.374 277.411C231.264 263.231 243.104 253.6 258.354 245.29C271.474 238.13 279.674 235.99 288.004 231.01C297.074 225.6 301.934 216.561 295.964 196.271C294.214 190.331 293.904 185.651 294.274 182.021C292.204 186.031 290.584 190.691 289.834 196.111L289.884 196.061C288.954 201.801 288.554 208.11 286.094 214.54C278.074 235.54 239.244 247.2 234.114 248.76C219.374 253.22 207.564 260.001 198.354 268.191C171.774 291.841 167.034 327.34 177.334 353.12Z" fill="#98002E"/>
<path d="M339.354 163.28C339.744 164.58 340.064 165.86 340.234 167.12C341.254 174.46 339.024 180.39 330.014 181.84C320.754 183.33 317.594 175.26 316.874 168.69C316.804 166.41 316.964 164.58 317.164 163.26C315.604 163.29 314.064 163.32 312.524 163.36C309.554 165.06 305.694 167.7 301.964 171.48C300.114 175.45 297.894 180.95 301.324 193.83C307.374 216.55 304.804 230.27 286.554 238.12C263.304 248.12 248.434 254 228.484 279.08C218.994 291.01 213.814 310.79 212.954 330.7C212.124 350.01 216.104 370.65 222.904 387.57C227.454 398.88 232.774 408.72 239.034 417.08C245.254 416.84 251.564 416.04 257.874 414.65C250.944 406.54 246.964 396.65 246.244 385.58C243.864 348.73 263.704 333.23 294.254 308.74L307.914 297.28C362.434 250.97 346.534 203.87 352.524 163.66C348.214 163.49 343.824 163.36 339.354 163.28Z" fill="#98002E"/>
<path d="M361.204 164.05C359.544 172.08 358.784 180.47 358.254 189.14C356.094 224.17 357.144 263.83 312.804 303.22L299.394 314.07C269.714 337.87 252.754 352.73 253.914 385.09C254.294 395.77 258.794 405.12 266.324 412.46C274.614 409.97 282.824 406.48 290.714 402C329.284 380.11 353.544 347.39 362.824 305.41C368.694 278.88 368.564 257.28 368.474 239.93C368.424 231.16 369.574 213.95 369.574 213.95C370.794 203.09 372.554 187.86 385.154 167.91C385.564 167.26 386.004 166.61 386.424 165.96C378.384 165.16 369.974 164.52 361.204 164.05Z" fill="#98002E"/>
<path d="M374.184 276.66C374.184 276.62 374.194 276.57 374.194 276.53C374.184 276.59 374.174 276.66 374.174 276.72C372.974 283 372.654 290.06 371.894 297.1C371.524 299.79 371.154 302.4 370.774 304.93C370.644 305.64 370.504 306.35 370.334 307.06C360.594 351.26 335.394 385.66 294.864 408.67C287.904 412.63 280.834 415.87 273.734 418.39C285.614 426.28 299.474 428.7 308.994 427.27C345.394 421.81 363.144 398.06 371.674 372.66C380.434 346.59 379.504 318.77 379.084 307.25C377.694 268.77 407.454 254.58 407.454 254.58C384.314 253.34 376.724 263.42 374.184 276.66Z" fill="#98002E"/>
<path d="M349.874 418.57C334.994 431.02 318.944 433.74 311.654 434.86C297.324 437.06 280.354 433.66 265.344 421.82C265.094 421.62 264.874 421.41 264.624 421.22C258.194 422.94 251.754 424.08 245.334 424.61C260.034 440.39 279.364 449.35 305.304 451.11C305.414 451.12 305.534 451.12 305.644 451.13C305.654 451.13 305.664 451.13 305.674 451.13C323.324 444.2 338.704 432.75 350.354 418.18C350.184 418.31 350.034 418.44 349.874 418.57Z" fill="#98002E"/>
<path d="M214.414 445.07C214.704 436.96 212.424 428.99 208.694 421.02C199.784 418.45 191.074 414.63 182.674 409.52C177.944 406.64 173.694 402.26 169.924 398.16C169.904 398.14 169.894 398.14 169.874 398.11C179.554 417.98 195.164 434.39 214.414 445.08C214.414 445.08 214.414 445.08 214.414 445.07Z" fill="#98002E"/>
<path d="M288.644 456.12C274.134 452.77 261.714 447.62 250.824 439.36C245.264 435.13 240.184 430.35 235.564 424.95C229.684 424.88 223.844 424.31 218.074 423.23C221.284 431.51 222.904 439.95 221.874 448.81C221.874 448.82 221.874 448.82 221.874 448.82C235.454 455.03 250.544 458.52 266.464 458.52C274.134 458.52 281.604 457.7 288.814 456.17C288.754 456.17 288.694 456.14 288.644 456.12Z" fill="#98002E"/>
<path d="M413.384 192.43C410.884 200.79 402.644 199.8 400.264 195.3C396.484 188.16 397.914 182.65 401.864 178.88C405.804 175.12 412.254 173.11 418.514 170.27C418.554 170.25 418.574 170.24 418.604 170.23C411.374 168.99 403.674 167.88 395.514 166.92C395.404 167.05 395.284 167.17 395.174 167.3C394.454 168.13 393.734 168.95 393.034 169.8C380.094 189.27 378.474 203.7 377.204 214.8L376.804 218.22C376.074 224.04 376.114 231.38 376.164 239.88C376.174 241.05 376.184 242.25 376.184 243.48C376.094 246.45 375.984 249.37 375.854 252.23C375.924 252.25 375.974 252.26 376.034 252.27C376.124 251.08 376.184 250.63 376.174 251.24C379.844 239.58 386.564 232.48 396.044 228.63C406.314 224.47 416.444 220.63 416.924 205.73C417.134 199.5 417.584 193.27 419.004 190.09C421.594 184.33 426.224 182.81 426.224 182.81C421.244 182.31 415.794 184.4 413.384 192.43Z" fill="#98002E"/>
<path d="M425.814 133.38C426.564 123.41 436.014 121.55 445.144 112.86C456.884 101.72 441.624 83.1201 441.624 83.1201C443.544 95.6301 437.754 100.4 427.174 107.77C423.814 110.11 421.374 113.4 421.034 117.54C420.654 122.18 420.364 127.18 419.344 132.26C421.534 132.62 423.674 132.99 425.814 133.38Z" fill="#FAA21B"/>
<path d="M393.504 116C390.684 118.11 388.034 120.26 385.574 122.47C383.814 124.15 382.104 125.83 380.514 127.43C390.834 128.32 400.854 129.48 410.514 130.89C416.674 119.65 419.624 106.91 415.964 85.2002C415.974 85.2002 415.114 99.9002 393.504 116Z" fill="#FAA21B"/>
<path d="M335.894 125.29C347.684 125.41 359.254 125.88 370.524 126.65C370.904 126.28 371.264 125.89 371.654 125.52C379.224 117.4 390.944 110.53 397.204 101.42C403.464 92.3101 400.944 81.1701 398.624 67.6801C394.634 44.4301 404.434 40.1201 404.434 40.1201C404.434 40.1201 384.784 42.8301 385.164 54.1901C385.664 69.4501 401.384 83.8001 377.704 88.1101C351.714 92.8301 335.554 106.9 332.004 125.28C333.294 125.29 334.584 125.28 335.894 125.29Z" fill="#FAA21B"/>
<path d="M335.834 131.39C226.944 130.31 136.094 158.42 132.934 194.16C131.674 208.4 144.524 221.7 167.324 232.63C181.414 239.37 199.304 245.21 219.994 249.8C224.134 247.96 228.474 246.32 233.024 244.94C236.634 243.85 243.294 241.67 250.624 238.49C220.134 234.03 195.444 227.2 180.274 218.98C169.064 212.92 163.034 206.09 163.664 198.94C165.784 174.94 242.024 156.22 333.954 157.13C425.874 158.04 498.674 178.22 496.554 202.22C495.974 208.76 489.894 214.9 479.494 220.37C460.304 230.46 426.384 238.22 385.184 241.84C383.764 243.78 382.514 245.95 381.474 248.4C400.214 241.3 421.804 251.8 421.804 251.8C421.804 251.8 423.254 252.36 424.264 253.04C451.604 248.17 475.084 241.23 492.694 232.84C513.504 222.92 526.134 210.99 527.284 198.06C530.434 162.3 444.724 132.45 335.834 131.39Z" fill="white"/>
</svg>
