<svg width="649" height="648" viewBox="0 0 649 648" fill="none" xmlns="http://www.w3.org/2000/svg">
<path d="M324.604 612C196.394 612 92.0942 507.7 92.0942 379.49C92.0942 316.82 116.764 258.01 161.554 213.9C161.914 213.55 162.294 213.24 162.704 212.98C147.254 189.7 138.604 162.48 145.174 129.51C157.274 68.7698 206.364 50.4598 208.444 49.7098C209.244 49.4198 210.064 49.2898 210.874 49.2898C213.454 49.2898 215.924 50.6898 217.204 53.0798C218.004 54.5898 218.224 56.2598 217.914 57.8398C233.984 44.3398 249.264 38.4098 255.704 36.3498C256.424 36.1198 257.164 36.0098 257.894 36.0098C260.644 36.0098 263.234 37.5998 264.424 40.2198C265.934 43.5298 264.724 47.4498 261.604 49.3298C246.974 58.1698 234.224 70.1698 224.564 83.9798C236.134 81.3098 243.904 81.0198 246.634 81.0198C247.594 81.0198 248.084 81.0498 248.084 81.0498C251.624 81.2698 254.504 84.0498 254.814 87.5798C255.124 91.1198 252.834 94.3498 249.384 95.1898C249.204 95.2398 229.994 100.1 208.784 115.31C204.784 127.53 202.754 140.27 202.754 153.22C202.754 177.81 210.624 203.05 224.344 222.47C227.514 226.95 230.634 230.89 233.914 234.47C232.704 209.12 240.164 169.92 285.654 151.67C286.524 151.32 287.434 151.15 288.324 151.15C290.964 151.15 293.494 152.62 294.744 155.11C296.414 158.45 295.254 162.51 292.064 164.45L291.724 164.66C284.834 169.14 279.024 174.9 274.554 181.58C279.334 180.15 283.444 179.66 286.244 179.33L286.784 179.27C287.074 179.24 287.364 179.22 287.644 179.22C290.644 179.22 293.374 181.11 294.404 184C295.524 187.16 294.304 190.68 291.474 192.47C291.474 192.47 291.044 192.74 290.944 192.8C276.374 201.2 268.264 210.98 266.854 221.86C265.324 233.65 271.774 244.78 276.494 251.13C288.694 236.92 296.634 212.82 298.854 203.7C299.644 200.46 302.554 198.23 305.824 198.23C306.104 198.23 306.384 198.25 306.664 198.28C310.264 198.7 312.984 201.74 313.004 205.36C313.184 235.13 305.224 255.51 297.024 268.57C309.234 274.7 321.164 275.06 323.754 275.06C324.044 275.06 324.464 275.05 324.564 275.05C324.664 275.05 324.764 275.05 324.874 275.06C324.874 275.06 325.114 275.07 325.404 275.07C327.994 275.07 339.924 274.71 352.134 268.58C343.934 255.52 335.964 235.15 336.154 205.37C336.174 201.75 338.894 198.71 342.494 198.29C342.774 198.26 343.054 198.24 343.334 198.24C346.604 198.24 349.504 200.47 350.304 203.71C352.534 212.82 360.474 236.93 372.664 251.14C377.374 244.79 383.834 233.66 382.304 221.87C380.894 210.99 372.784 201.22 358.214 192.81C358.114 192.75 357.784 192.54 357.784 192.54C354.944 190.75 353.684 187.2 354.804 184.04C355.834 181.15 358.524 179.23 361.524 179.23C361.804 179.23 362.084 179.25 362.374 179.28L362.914 179.34C365.714 179.67 369.824 180.16 374.604 181.59C370.134 174.91 364.314 169.15 357.434 164.67L357.094 164.46C353.904 162.52 352.744 158.45 354.414 155.12C355.664 152.62 358.194 151.16 360.834 151.16C361.724 151.16 362.634 151.33 363.504 151.68C408.994 169.93 416.454 209.13 415.244 234.48C418.524 230.9 421.644 226.96 424.814 222.48C438.534 203.06 446.404 177.82 446.404 153.23C446.404 140.28 444.374 127.54 440.374 115.32C419.024 99.9998 399.974 95.2498 399.774 95.1998C396.324 94.3598 394.034 91.1298 394.344 87.5898C394.654 84.0498 397.534 81.2798 401.074 81.0598C401.074 81.0598 401.564 81.0298 402.524 81.0298C405.254 81.0298 413.034 81.3098 424.594 83.9898C414.944 70.1698 402.184 58.1798 387.554 49.3398C384.434 47.4598 383.224 43.5398 384.734 40.2298C385.924 37.6098 388.524 36.0198 391.264 36.0198C391.994 36.0198 392.724 36.1298 393.454 36.3598C399.894 38.4298 415.184 44.3498 431.244 57.8498C430.934 56.2798 431.154 54.5998 431.954 53.0898C433.234 50.6998 435.704 49.2998 438.284 49.2998C439.094 49.2998 439.914 49.4398 440.714 49.7198C442.794 50.4698 491.884 68.7798 503.984 129.52C510.554 162.49 501.914 189.72 486.454 212.99C486.864 213.25 487.254 213.56 487.604 213.91C532.394 258.02 557.064 316.83 557.064 379.5C557.114 507.7 452.814 612 324.604 612Z" fill="#F0EBD2"/>
<path d="M482.614 219.01L477.604 225.03C517.384 264.43 542.034 319.07 542.034 379.49C542.034 499.57 444.694 596.92 324.604 596.92C204.514 596.92 107.174 499.58 107.174 379.49C107.174 319.08 131.824 264.43 171.604 225.03L166.594 219.02C125.064 259.92 99.2744 316.75 99.2744 379.5C99.2744 503.75 200.354 604.83 324.604 604.83C448.854 604.83 549.934 503.75 549.934 379.5C549.934 316.74 524.144 259.91 482.614 219.01ZM182.934 235.8C146.434 272.31 122.984 323.92 122.984 379.49C122.984 392.33 124.204 404.89 126.514 417.07L187.314 400.65C197.364 466.93 254.724 517.89 323.764 517.89C393.064 517.89 450.584 466.55 460.314 399.9L522.694 417.06C525.004 404.88 526.224 392.32 526.224 379.48C526.224 323.9 503.144 272.99 466.654 236.48L471.994 230.71C510.484 268.72 534.134 321.23 534.134 379.48C534.134 495.01 440.144 589 324.614 589C209.084 589 115.094 495.01 115.094 379.48C115.094 321.24 138.994 268.48 177.484 230.47L182.934 235.8ZM152.224 130.91C163.674 73.4497 210.884 56.4597 210.884 56.4597C193.594 69.2297 175.954 93.2497 168.654 126.97C175.754 118.16 182.334 111.55 190.064 106.28C209.204 65.0397 241.874 48.3197 257.904 43.1797C237.124 55.7497 219.734 74.4497 209.174 95.9997C233.214 87.4197 247.724 88.2197 247.724 88.2197C247.724 88.2197 226.234 93.4397 202.754 110.86C198.144 124.13 195.624 138.38 195.624 153.22C195.624 179.33 204.034 206.1 218.534 226.61C226.694 238.15 234.574 246.14 244.374 253.41C241.134 245.25 228.784 182.24 288.374 158.33L287.954 158.59C273.874 167.71 263.504 181.91 259.294 198.62C270.174 188.2 281.654 187.12 287.694 186.39C287.604 186.45 287.504 186.51 287.414 186.57C232.094 218.47 276.084 261.69 276.084 261.69C293.524 247.07 303.694 214.35 305.884 205.4C306.094 239.98 294.594 260.69 286.774 270.81C304.604 283.05 324.604 282.23 324.614 282.23H324.604H324.624C324.634 282.23 344.634 283.05 362.464 270.81C354.644 260.69 343.144 239.98 343.354 205.4C345.544 214.35 355.714 247.08 373.154 261.69C373.154 261.69 417.144 218.48 361.824 186.57C361.734 186.51 361.634 186.44 361.544 186.39C367.574 187.11 379.054 188.2 389.944 198.62C385.734 181.91 375.364 167.71 361.284 158.59L360.864 158.33C420.454 182.24 408.114 245.25 404.864 253.41C414.674 246.14 422.544 238.16 430.704 226.61C445.204 206.1 453.614 179.33 453.614 153.22C453.614 138.38 451.094 124.13 446.484 110.86C422.994 93.4397 401.514 88.2197 401.514 88.2197C401.514 88.2197 416.024 87.4197 440.064 95.9997C429.494 74.4497 412.114 55.7497 391.314 43.1797C407.344 48.3197 440.014 65.0397 459.154 106.28C466.884 111.55 473.474 118.16 480.564 126.97C473.274 93.2497 455.624 69.2397 438.334 56.4597C438.334 56.4597 485.554 73.4497 496.994 130.91C510.314 197.79 456.904 239.55 413.844 275.32L446.724 261.91C448.954 260.96 450.494 263.11 450.084 265.68L449.124 273.8C448.594 278.27 445.314 300.89 432.884 307.75C430.194 309.23 425.564 310.93 411.934 311.94L387.254 313.53L391.354 327.41L367.124 366.22L379.534 353.14L404.864 443.24L335.354 500.43L357.044 402.05L324.604 441.49L292.174 402.04L313.864 500.42L244.354 443.23L269.684 353.13L282.094 366.21L257.864 327.4L261.964 313.52L237.284 311.93C223.654 310.92 219.024 309.22 216.334 307.74C203.914 300.88 200.634 278.25 200.094 273.79L199.134 265.67C198.724 263.11 200.264 260.96 202.494 261.9L235.374 275.31C192.314 239.55 138.894 197.78 152.224 130.91ZM463.854 202.77C463.854 202.77 491.074 159.73 472.494 135.68C470.584 133.21 468.524 130.96 466.494 128.76C474.114 156.28 463.854 202.77 463.854 202.77ZM185.354 202.77C185.354 202.77 175.094 156.28 182.724 128.76C180.694 130.96 178.624 133.21 176.724 135.68C158.134 159.74 185.354 202.77 185.354 202.77Z" fill="#00471B"/>
<path d="M252.955 514.19L254.335 512.03L254.465 511.82L233.735 498.65L233.635 498.8L207.455 539.79L213.805 543.84L225.315 525.82L233.315 530.93L221.805 548.95L228.155 553L250.285 518.34L252.955 514.19ZM237.495 524.4L229.495 519.29L235.905 509.25L243.935 514.31L237.495 524.4ZM230.125 495.92L192.745 527.7L187.595 522.61L196.605 509.01L183.165 518.23L178.015 513.15L209.315 475.37L214.335 480.33L201.685 496.26L218.845 484.79L220.575 486.5L209.325 503.81L225.055 490.92L230.125 495.92ZM193.315 450.59L149.965 473.17L146.455 466.44L189.805 443.86L193.315 450.59ZM186.485 437.51L140.255 453.39L137.785 446.21L166.795 436.25L153.405 435.83L163.705 427.27L134.695 437.24L132.225 430.06L178.445 414.18L180.915 421.36L170.615 429.92L184.005 430.34L186.485 437.51ZM167.725 487.22L177.045 500.24L170.685 504.79L156.935 485.6L196.675 457.14L201.095 463.31L167.725 487.22ZM281.465 523.02L264.005 568.41L259.075 566.51L246.065 561.51L240.755 559.47L258.495 514.19L265.585 516.92L250.905 555.07L259.765 558.48L274.445 520.33L281.465 523.02ZM481.905 490.14L486.155 493.53L474.205 508.5L470.835 512.72L437.165 485.86L432.815 482.39L448.135 463.2L452.485 466.67L459.745 472.46L455.045 478.35L449.555 473.97L443.635 481.39L469.475 502L475.395 494.58L469.855 490.16L474.555 484.27L481.905 490.14ZM473.895 456.7L504.975 460.82L501.255 467.84L478.635 464.98L497.475 474.96L493.925 481.67L450.735 458.78L454.285 452.07L466.275 458.42L457.345 446.3L461.095 439.22L473.895 456.7ZM516.965 426.61L509.915 450.13L504.705 448.57L496.865 446.22L499.025 439L504.645 440.68L507.365 431.59L494.375 427.7L489.375 443.97L484.155 442.41L463.335 436.17L464.885 431L470.385 412.65L475.665 414.23L483.375 416.54L481.215 423.76L475.655 422.09L472.935 431.18L484.175 434.55L489.125 418.26L494.335 419.82L511.775 425.05L516.965 426.61ZM428.795 486.55L460.125 523.75L456.085 527.15L445.425 536.13L441.065 539.8L409.965 502.41L415.775 497.52L442.105 528.78L449.365 522.67L423.035 491.41L428.795 486.55ZM373.255 563.83L374.745 571.44L351.695 575.97L342.325 528.25L365.375 523.72L366.875 531.33L351.215 534.41L353.475 545.92L369.135 542.84L370.615 550.39L354.955 553.47L357.595 566.9L373.255 563.83ZM337.555 569.46L337.685 577.22L314.195 577.61L313.385 528.98L336.875 528.59L337.005 536.35L321.055 536.61L321.245 548.34L337.195 548.08L337.325 555.78L321.375 556.04L321.605 569.72L337.555 569.46ZM414.105 528.75L414.915 523.96L407.495 510.26L400.465 508.28L383.605 517.38L406.735 560.11L423.595 551.01L425.705 543.9L418.525 530.63L414.105 528.75ZM393.775 520.71L402.175 516.19L407.725 526.51L399.335 531.02L393.775 520.71ZM409.435 549.81L402.955 537.78L411.355 533.29L417.825 545.32L409.435 549.81ZM308.465 528.1L295.805 545.67L301.475 576.5L293.645 575.12L289.385 552.72L285.695 573.72L278.215 572.41L286.665 524.27L294.145 525.58L291.795 538.94L300.565 526.71L308.465 528.1Z" fill="white"/>
<path d="M302.034 311.98C298.504 310.36 291.864 307.31 285.244 304.27C283.924 303.66 282.394 304.49 282.164 305.92C281.694 308.78 281.764 313.26 285.684 316.28C293.064 321.98 299.314 318.8 302.674 315.51C303.754 314.46 303.424 312.62 302.034 311.98Z" fill="white"/>
<path d="M210.884 273.65C210.884 273.65 213.284 293.83 221.744 298.5C227.454 301.66 241.414 301.35 253.614 302.29C240.114 297.05 220.224 282.76 210.884 273.65Z" fill="white"/>
<path d="M310.514 394.29L317.284 403.47H331.924L338.694 394.29H310.514Z" fill="white"/>
<path d="M438.314 273.65C428.974 282.76 409.094 297.05 395.584 302.29C407.774 301.35 421.734 301.66 427.454 298.5C435.924 293.82 438.324 273.65 438.314 273.65Z" fill="white"/>
<path d="M338.634 341.02L332.134 319.71L324.604 323.36L317.074 319.71L310.574 341.02C310.574 341.02 308.414 349.48 299.074 355.45L295.104 372.97L304.884 386.16H315.264L305.654 372.03L307.174 363.3C311.534 367.96 317.735 370.87 324.615 370.89C331.495 370.87 337.695 367.96 342.055 363.3L343.574 372.03L333.964 386.16H344.344L354.124 372.97L350.154 355.45C340.794 349.48 338.634 341.02 338.634 341.02Z" fill="white"/>
<path d="M363.964 304.28C357.344 307.32 350.704 310.37 347.174 311.99C345.784 312.63 345.454 314.46 346.544 315.53C349.904 318.82 356.154 321.99 363.534 316.3C367.454 313.28 367.514 308.8 367.054 305.94C366.814 304.49 365.284 303.67 363.964 304.28Z" fill="white"/>
</svg>
