<svg width="649" height="648" viewBox="0 0 649 648" fill="none" xmlns="http://www.w3.org/2000/svg">
<path d="M600.284 238.14L600.394 238.01L597.464 229.56C557.264 113.8 447.964 36.0098 325.494 36.0098H325.484C293.394 36.0098 261.624 41.3998 231.054 52.0098C81.1038 104.08 1.44379 268.46 53.4838 418.45C93.7238 534.23 203.024 612.02 325.474 612.02C357.564 612.02 389.354 606.64 419.934 596.02C567.054 544.92 646.484 385.76 600.284 238.14Z" fill="#A0A2A3"/>
<path d="M325.484 601.85C207.344 601.85 101.904 526.81 63.0838 415.12C12.8738 270.42 89.7338 111.84 234.384 61.6097C263.884 51.3597 294.534 46.1797 325.474 46.1797C443.634 46.1797 549.074 121.21 587.864 232.9L589.174 236.68L589.134 236.72C636.724 380.37 559.984 536.62 416.604 586.41C387.104 596.66 356.444 601.85 325.484 601.85Z" fill="#0C233F"/>
<path d="M354.264 199.25C352.744 199.1 350.974 198.98 349.004 198.85C338.864 198.16 322.754 196.91 303.334 190.22C299.374 194.6 296.114 199.22 293.664 203.11C298.634 208.28 308.134 218.22 312.844 223.52C320.974 228.41 329.124 233.71 337.204 239.38C350.084 224.89 361.514 213.12 372.794 201.32C367.314 200.54 361.634 199.89 355.724 199.38L354.264 199.25Z" fill="#266092"/>
<path d="M233.704 247.14C212.284 277.28 197.034 316.63 195.554 363.61C218.434 338.42 237.264 315.07 250.114 302.71C259.014 294.16 268.014 288.3 276.154 284.29C267.634 264.65 256.384 248.6 241.174 240.93C238.374 242.97 235.844 245.05 233.704 247.14Z" fill="#266092"/>
<path d="M294.594 173.84C307.314 168.66 321.134 163.36 334.454 158.91C351.284 152.77 366.234 149.39 377.844 147.6C377.534 147.51 377.234 147.4 376.924 147.31C368.654 144.9 360.374 143.1 352.084 141.88C329.304 138.53 306.634 139.58 285.064 144.45C283.824 148.46 282.134 156.28 284.954 163.39C286.664 167.67 289.964 171.14 294.594 173.84Z" fill="#266092"/>
<path d="M268.144 225.55C263.104 227.96 257.584 230.76 252.274 233.84C267.254 243.67 278.404 260.28 286.884 279.8C298.794 275.67 307.014 275.58 307.014 275.58C315.014 265.41 322.394 256.48 329.324 248.42C321.314 242.82 313.264 237.58 305.224 232.77C296.404 229.59 275.354 226.54 268.144 225.55Z" fill="#266092"/>
<path d="M313.524 181.22C328.524 185.61 340.914 186.51 349.814 187.12C351.914 187.26 353.774 187.39 355.394 187.55L356.724 187.67C362.504 188.16 370.584 189.08 380.114 190.78C387.194 182.1 395.744 176.7 401.504 175.42C408.294 177.96 411.764 181.93 414.234 187.59C423.644 191.54 429.944 198.48 434.084 206.78C455.854 216.26 477.734 230.3 494.464 251.08C476.934 210.55 445.014 176.54 403.094 157.12L403.084 157.34C402.574 157.33 363.884 156.44 316.004 179.66C315.164 180.14 314.334 180.66 313.524 181.22Z" fill="#266092"/>
<path d="M508.904 308.76C504.174 286.93 488.754 246.73 439.084 221.27C444.664 246.29 438.334 274.71 438.334 274.71C438.334 274.71 451.934 282.59 455.244 297.6C455.254 297.61 457.054 298.37 458.484 300.58C462.284 305.24 467.134 316 459.334 337.15C459.334 337.15 454.714 327.28 444.924 337.91C444.074 339.09 443.264 340.25 442.464 341.4C461.114 367.06 475.314 393.85 482.544 419.99C490.834 406.39 497.524 391.5 502.194 375.47C508.694 353.15 510.724 330.61 508.904 308.76Z" fill="#266092"/>
<path d="M183.534 376.59C182.914 350.2 186.454 324.75 194.174 300.43C200.654 280.04 209.374 262.81 218.664 248.45C220.074 245.67 222.424 241.31 225.224 236.26C189.794 232.47 157.674 270.25 145.204 287.15C137.034 326.92 142.454 366.78 158.594 401.51C167.264 393.38 175.604 384.97 183.534 376.59Z" fill="#266092"/>
<path d="M416.784 422.2C416.414 439.83 425.104 453.41 431.554 474.37C447.534 463.11 461.794 449.29 473.614 433.27C468.304 406.95 454.464 379.12 435.354 352.18C423.344 371.68 417.454 390.02 416.784 422.2Z" fill="#266092"/>
<path d="M260.574 188.43C266.554 185.74 273.844 182.54 281.914 179.12C278.394 175.85 275.724 172.03 273.984 167.62C271.234 160.61 271.344 153.49 272.244 147.85C245.944 155.83 221.664 169.59 201.334 188.13C202.224 188.13 203.224 188.16 204.154 188.18C221.594 187.14 246.394 187.86 260.574 188.43Z" fill="#266092"/>
<path d="M231.334 225.35C233.804 220.96 236.304 216.57 238.584 212.58C228.824 206.18 222.724 201.54 205.904 200.03C198.994 199.84 193.214 200.05 189.154 200.33C173.894 217.12 161.594 236.98 153.234 259.29C171.934 239.88 200.074 219.23 231.334 225.35Z" fill="#266092"/>
<path d="M289.574 185.94L276.844 204.4C276.844 204.4 286.464 211.08 294.384 220.12C280.544 217.3 265.344 214.74 265.344 214.74L241.254 227.84L252.544 209.11C252.544 209.11 244.944 202.61 236.184 196.96C245.784 197.24 264.054 198.75 264.054 198.75L289.574 185.94Z" fill="#79BC43"/>
<path d="M299.844 296.18C299.844 296.18 296.494 305.43 296.054 314.03C296.054 314.03 275.094 317.12 265.004 323.99C265.014 323.98 285.934 303.13 299.844 296.18Z" fill="#79BC43"/>
<path d="M441.054 295.25C443.384 294.68 445.124 294.59 446.414 294.68C446.034 293.61 445.304 292.01 444.004 290.43C442.154 288.18 439.464 286.5 439.464 286.5C441.194 289.18 441.254 292.88 441.054 295.25Z" fill="white"/>
<path d="M422.144 304.79C424.854 302.93 427.314 301.39 429.564 300.13C429.154 299.15 428.524 297.76 427.574 296.07C425.784 292.85 421.094 290.04 421.094 290.04C423.024 295.77 422.614 301.58 422.144 304.79Z" fill="white"/>
<path d="M197.304 446.27C179.484 453.55 137.324 443.62 137.324 443.62C179.924 441.18 221.584 410.65 221.584 410.65C221.554 410.72 221.514 410.8 221.494 410.87C209.004 430.02 191.784 441.11 191.784 441.11C193.684 443.53 195.594 445.15 197.304 446.27Z" fill="#A0A2A3"/>
<path d="M409.704 192.11C409.704 192.11 399.234 183.9 387.344 196.64C400.084 173.43 407.444 186.73 409.704 192.11Z" fill="#79BC43"/>
<path d="M451.144 304.58C451.144 304.58 450.054 303.84 449.814 303.71C443.184 300.17 431.294 310.48 423.534 314.75C415.784 319.02 404.484 328.12 398.964 315.59C393.444 303.05 406.134 283.45 410.534 271.11C420.234 243.83 420.594 227.77 418.544 219.08C427.514 229.2 430.324 248.61 430.324 248.61C430.324 248.61 433.654 212.17 415.834 202.57C416.244 203.86 415.784 208.41 415.414 211.98C415.414 211.98 415.374 211.93 415.354 211.91C407.054 213.42 388.754 211.35 382.814 208.23C360.304 232.37 335.774 265.95 317.304 296.8C309.294 313.11 301.444 332.25 299.484 347.79C299.484 347.79 296.934 340.76 296.334 331.38C286.114 335.33 251.384 352.39 243.944 404.74C243.944 404.74 266.024 381.97 290.434 373.09C290.434 373.09 274.974 413.57 304.484 485.32C304.484 485.32 316.424 441.33 341.404 430.23C356.534 505.36 400.884 506.58 413.814 557.7C413.814 557.7 427.364 531.22 411.054 486.22C411.054 486.22 416.684 487.79 421.444 493.41C421.444 493.41 420.704 480.25 408.404 451.84C400.384 436.63 397.874 416.12 397.874 416.12C390.674 422.64 388.824 444.69 388.824 444.69C366.814 384.96 429.294 325.77 440.704 317.04C446.274 312.77 449.704 312.71 451.784 313.72C453.924 309.28 453.724 306.44 451.144 304.58Z" fill="#A0A2A3"/>
<path d="M490.694 198.84C457.204 154.64 408.594 126.15 353.804 118.6C344.344 117.29 334.734 116.63 325.254 116.63C222.344 116.63 134.144 193.62 120.074 295.7C114.224 338.09 121.414 380.28 140.414 417.62C142.794 415.64 145.154 413.62 147.494 411.57C130.064 376.34 123.544 336.73 129.034 296.94C142.484 199.3 226.844 125.68 325.254 125.68C334.324 125.68 343.514 126.31 352.574 127.56C404.974 134.79 451.464 162.04 483.494 204.31C515.524 246.58 529.184 298.71 521.964 351.11C513.994 408.92 481.164 458.31 435.284 488.99C435.904 492.07 436.454 495.3 436.914 498.71C486.654 466.83 522.394 414.2 530.924 352.35C538.464 297.54 524.184 243.03 490.694 198.84Z" fill="#A0A2A3"/>
<path d="M194.374 102.4C184.384 102.4 176.284 110.5 176.284 120.49C176.284 130.48 184.384 138.57 194.374 138.57C204.364 138.57 212.464 130.48 212.464 120.49C212.464 110.5 204.364 102.4 194.374 102.4ZM194.374 130.36C188.924 130.36 184.504 125.94 184.504 120.49C184.504 115.04 188.914 110.62 194.374 110.62C199.824 110.62 204.244 115.03 204.244 120.49C204.244 125.94 199.824 130.36 194.374 130.36Z" fill="white"/>
<path d="M153.814 147.57L149.574 149.94C148.014 150.82 147.114 150.86 146.244 150.06C145.224 149.13 145.414 147.69 146.744 146.22C146.754 146.21 146.754 146.21 146.754 146.2C148.274 144.54 149.954 143.69 152.044 143.52L152.744 143.47L152.214 135.41L151.524 135.42C147.584 135.54 143.874 137.46 140.494 141.15C138.364 143.48 137.064 146.24 136.814 148.92C136.514 152.06 137.674 154.92 140.154 157.19C143.994 160.7 148.494 160.94 153.944 157.91L157.734 155.81C159.704 154.7 160.974 154.29 162.014 155.25C163.274 156.39 162.964 158.01 161.124 160.05C161.114 160.07 161.094 160.09 161.074 160.11C158.634 162.77 155.874 162.97 154.004 162.89L153.334 162.86L152.474 171.64L153.214 171.68C156.144 171.84 161.874 171.21 167.304 165.26C167.354 165.2 167.404 165.14 167.454 165.09C170.214 162.02 171.684 158.98 171.844 156.05C172.004 153.01 170.734 150.25 168.094 147.83C164.164 144.24 159.894 144.17 153.814 147.57Z" fill="white"/>
<path d="M100.319 325.843L65.1191 326.681L65.3074 334.588L100.507 333.75L100.319 325.843Z" fill="white"/>
<path d="M132.784 207.83L146.064 187.92L139.524 183.55L130.634 196.89L125.724 193.62L133.384 182.14L126.844 177.77L119.184 189.26L114.354 186.04L123.244 172.7L116.764 168.38L103.484 188.29L132.784 207.83Z" fill="white"/>
<path d="M248.324 112.8L238.004 87.3L247.094 83.62L244.204 76.48L218.694 86.81L221.584 93.94L230.674 90.27L240.994 115.76L248.324 112.8Z" fill="white"/>
<path d="M103.564 228.17L78.7642 239.49L78.2842 240.67L111.154 254.11L114.134 246.82L97.0442 239.84L121.954 228.48L122.444 227.29L89.5642 213.85L86.5542 221.22L103.564 228.17Z" fill="white"/>
<path d="M87.3941 280.87L65.8641 297.6L65.6641 298.87L100.754 304.36L101.974 296.58L83.7341 293.72L105.354 276.93L105.554 275.66L70.4641 270.17L69.2341 278.03L87.3941 280.87Z" fill="white"/>
<path d="M396.849 74.6015L386.842 108.361L394.426 110.609L404.433 76.8495L396.849 74.6015Z" fill="white"/>
<path d="M580.064 377.68L581.864 369.98L547.574 361.98L542.234 384.85L550.044 386.67L553.584 371.5L580.064 377.68Z" fill="white"/>
<path d="M567.714 307.26C557.724 307.26 549.624 315.36 549.624 325.35C549.624 335.34 557.724 343.43 567.714 343.43C577.704 343.43 585.804 335.34 585.804 325.35C585.814 315.36 577.714 307.26 567.714 307.26ZM567.714 335.22C562.264 335.22 557.844 330.8 557.844 325.35C557.844 319.9 562.254 315.48 567.714 315.48C573.164 315.48 577.584 319.89 577.584 325.35C577.584 330.8 573.174 335.22 567.714 335.22Z" fill="white"/>
<path d="M496.344 178.4L511.204 197.17L517.364 192.29L507.414 179.72L512.034 176.06L520.604 186.88L526.764 182.01L518.204 171.18L522.754 167.58L532.704 180.15L538.814 175.31L523.954 156.54L496.344 178.4Z" fill="white"/>
<path d="M520.724 435.77L507.924 456L514.564 460.2L523.134 446.65L528.124 449.8L520.744 461.47L527.384 465.67L534.764 454L539.674 457.1L531.104 470.66L537.684 474.82L550.484 454.59L520.724 435.77Z" fill="white"/>
<path d="M360.194 102.41L363.804 75.1299L373.534 76.4299L374.544 68.7899L347.254 65.1699L346.244 72.8099L355.964 74.0999L352.354 101.37L360.194 102.41Z" fill="white"/>
<path d="M550.684 415.03L569.794 414.14L573.054 406L534.094 407.77L533.674 408.83L560.664 436.98L563.894 428.91L550.684 415.03Z" fill="white"/>
<path d="M438.364 110.47L432.124 86.7798L432.074 86.6098L431.054 86.0698L414.594 117.6L421.554 121.25L429.144 106.72L432.734 120.18L433.644 120.65L446.724 115.89L439.134 130.42L446.164 134.09L462.624 102.56L461.564 102.01L438.364 110.47Z" fill="white"/>
<path d="M88.6142 375.89L74.3142 395.78L74.2042 395.92L74.4442 397.05L109.244 389.7L107.614 382.01L91.5842 385.4L99.6942 374.07L99.4742 373.06L87.4842 365.99L103.524 362.61L101.884 354.85L67.0742 362.2L67.3342 363.38L88.6142 375.89Z" fill="white"/>
<path d="M563.914 277.73L578.784 265.26L578.494 264.07L559.544 259.61L574.684 249.59L572.734 241.46L541.234 262.37L541.534 263.59L562.734 268.52L546.094 282.49L546.384 283.72L583.954 287.97L581.994 279.86L563.914 277.73Z" fill="white"/>
<path d="M541.384 225.81C544.404 229 549.364 229.44 553.764 227.28C560.354 224.03 562.424 217.5 558.764 210.08L552.944 198.28L521.364 213.84L524.854 220.94L539.474 213.74L529.494 230.34L533.654 238.79C533.644 238.78 540.874 226.61 541.384 225.81ZM542.904 217.68L540.674 213.15L549.484 208.81L551.714 213.34C553.314 216.58 552.564 218.83 549.694 220.25C546.794 221.67 544.504 220.92 542.904 217.68Z" fill="white"/>
<path d="M492.874 147.99C494.864 147.46 496.684 146.32 498.134 144.66C500.354 142.11 501.254 138.97 500.674 135.85C500.204 133.31 498.804 131 496.504 129.01L492.114 125.2L486.184 120.04L481.024 125.98L477.504 130.03L477.224 130.36L472.354 135.97L472.064 136.3L468.174 140.79L463.014 146.72L468.944 151.88L474.094 156.35C476.344 158.31 478.994 159.39 481.744 159.48C485.004 159.58 488.114 158.22 490.264 155.73C492.164 153.54 493.064 150.8 492.874 147.99ZM486.964 131.12L491.354 134.93C493.194 136.53 493.474 138.03 492.194 139.5C490.624 141.31 488.664 140.27 487.284 139.07L483.154 135.49L486.964 131.12ZM479.264 150.4L474.114 145.92L478.294 141.11L483.144 145.32C485.134 147.05 485.604 149.11 484.344 150.56C483.084 152 481.044 151.94 479.264 150.4Z" fill="white"/>
<path d="M487.544 478.86C488.984 477.42 490.744 476.17 492.764 475.18C496.614 473.31 502.254 473.27 502.884 473.27L502.874 481.26C501.194 481.26 497.914 481.56 496.244 482.37C493.764 483.58 491.994 485.4 491.504 487.24C491.174 488.48 491.644 489.47 492.184 489.98C492.764 490.52 493.504 490.64 494.394 490.36C495.074 490.14 496.364 489.5 497.624 488.89C500.494 487.48 503.744 485.88 506.504 485.59C509.514 485.28 512.314 486.2 514.394 488.21C516.854 490.58 517.814 493.95 517.664 496.24C517.514 498.66 516.374 503.26 510.544 506.85C507.134 508.95 502.334 509.6 501.794 509.66L500.804 501.73C502.174 501.56 504.814 500.79 506.354 500.05C510.504 498.02 510.584 493.35 507.334 493.54C505.994 493.62 503.074 495.11 501.154 496.06C499.514 496.87 498.094 497.56 496.884 497.96C493.214 499.16 489.414 498.35 486.704 495.8C483.884 493.13 482.764 489.08 483.784 485.21C484.394 482.88 485.704 480.71 487.544 478.86Z" fill="white"/>
<path d="M282.214 86.22L292.984 102.03L301.614 100.55L279.714 68.29L278.584 68.47L268.754 106.22L277.314 104.74L282.214 86.22Z" fill="white"/>
</svg>
