<svg width="649" height="648" viewBox="0 0 649 648" fill="none" xmlns="http://www.w3.org/2000/svg">
<g clip-path="url(#clip0_29_3894)">
<path fill-rule="evenodd" clip-rule="evenodd" d="M133.91 487.64V516.382H133.921H139.527V505.233H149.922H149.974C154.842 505.233 162.769 505.234 162.769 496.452C162.769 487.64 154.785 487.64 149.922 487.64H133.91ZM157.163 496.42C157.163 500.137 154.36 500.413 151.153 500.413V500.423H139.527V492.471H151.153C154.36 492.471 157.163 492.704 157.163 496.42Z" fill="#0C2340"/>
<path d="M186.563 487.64H212.343V492.471H192.18V499.149H209.54V503.98H192.18V511.572H212.821V516.392H186.574V487.65L186.563 487.64Z" fill="#0C2340"/>
<path d="M237.04 487.64H242.646V511.402H263.488V516.382H237.04V487.64Z" fill="#0C2340"/>
<path d="M287.877 487.64H293.494V516.382H287.877V487.64Z" fill="#0C2340"/>
<path d="M350.586 506.147C350.033 509.353 347.74 517.104 334.532 517.104C325.443 517.104 318.276 512.04 318.276 501.56C318.276 493.172 323.532 486.929 334.956 486.929C347.804 486.929 349.704 495.274 350.14 496.814H344.523C344.204 495.826 341.996 491.749 335.275 491.749C327.322 491.749 324.009 496.219 324.009 502.186C324.009 508.791 328.798 512.263 334.967 512.263C341.529 512.263 344.417 508.345 344.969 506.136H350.586V506.147Z" fill="#0C2340"/>
<path d="M386.314 487.64H392.717L406.668 516.382H400.744L397.739 509.778H381.175L378.128 516.382H372.161L386.314 487.64ZM395.52 504.957L389.51 492.142L383.5 504.957H395.52Z" fill="#0C2340"/>
<path d="M430.102 487.64H436.026L455.244 508.397V487.64H460.627V516.382H455.489L435.485 494.87V516.382H430.112V487.64H430.102Z" fill="#0C2340"/>
<path d="M509.522 496.389C508.609 493.82 506.284 491.6 499.446 491.6C495.655 491.6 491.812 492.556 491.812 495.2C491.812 496.421 492.523 497.727 498.257 498.438L505.052 499.468C511.497 500.456 515.287 502.951 515.287 507.771C515.287 514.577 508.8 517.104 501.134 517.104C488.796 517.104 485.791 511.02 485.123 508.833L490.538 507.134C491.568 509.237 493.702 512.273 501.293 512.273C505.88 512.273 509.671 510.776 509.671 508.281C509.671 506.423 507.537 505.191 503.417 504.682L496.537 503.737C489.901 502.823 486.174 499.935 486.174 495.55C486.174 486.929 497.365 486.929 499.573 486.929C511.943 486.929 514.088 492.662 514.799 494.637L509.501 496.378L509.522 496.389Z" fill="#0C2340"/>
<path d="M305.609 429.816V412.785C305.609 410.438 305.195 408.368 304.356 406.573C303.517 404.811 302.36 403.346 300.906 402.199C299.44 401.052 297.71 400.182 295.713 399.64C293.717 399.077 291.583 398.801 289.269 398.801C286.954 398.801 284.82 399.077 282.834 399.64C280.838 400.182 279.097 401.052 277.6 402.199C276.103 403.346 274.935 404.811 274.096 406.573C273.257 408.357 272.832 410.428 272.832 412.785V429.826C271.07 430.102 269.732 431.599 269.732 433.436C269.732 435.273 271.08 436.77 272.832 437.036V456.116C272.832 458.473 273.246 460.543 274.096 462.327C274.935 464.1 276.103 465.576 277.6 466.744C279.086 467.933 280.827 468.814 282.834 469.367C284.82 469.929 286.964 470.205 289.269 470.205C291.573 470.205 293.717 469.929 295.713 469.367C297.699 468.814 299.44 467.933 300.906 466.744C302.36 465.576 303.517 464.1 304.356 462.327C305.195 460.543 305.609 458.473 305.609 456.116V437.046C307.446 436.845 308.879 435.316 308.879 433.426C308.879 431.536 307.446 430.007 305.609 429.794M296.467 455.733C296.467 456.976 296.255 458.006 295.82 458.855C295.384 459.704 294.811 460.384 294.142 460.904C293.452 461.435 292.687 461.828 291.849 462.072C291.01 462.327 290.15 462.444 289.279 462.444C288.408 462.444 287.538 462.316 286.667 462.072C285.797 461.828 285.021 461.435 284.331 460.904C283.641 460.384 283.089 459.704 282.654 458.855C282.218 458.006 281.995 456.976 281.995 455.733V413.156C281.995 411.904 282.208 410.874 282.654 410.024C283.089 409.185 283.641 408.495 284.331 407.975C285.011 407.455 285.797 407.062 286.667 406.807C287.538 406.552 288.408 406.435 289.279 406.435C290.15 406.435 291.01 406.563 291.849 406.807C292.687 407.051 293.452 407.444 294.142 407.975C294.822 408.495 295.384 409.185 295.82 410.024C296.255 410.874 296.467 411.914 296.467 413.156V455.733Z" fill="#0C2340"/>
<path d="M132.116 445.488C132.116 445.679 132.073 445.689 131.978 445.583C131.882 445.445 131.808 445.318 131.755 445.211C131.5 444.394 131.001 442.78 130.247 440.359C129.504 437.928 128.644 435.114 127.688 431.907C126.722 428.701 125.692 425.346 124.609 421.821C123.515 418.306 122.507 415.068 121.572 412.105C120.638 409.154 119.863 406.69 119.236 404.684C118.621 402.687 118.302 401.626 118.302 401.509C118.111 400.882 117.835 400.394 117.463 400.054C117.102 399.715 116.539 399.534 115.786 399.534H105.242V402.624C105.242 403.686 105.391 404.535 105.709 405.193C106.017 405.852 106.4 406.361 106.835 406.733C107.27 407.168 107.801 407.508 108.417 407.763V429.848C106.718 430.166 105.433 431.642 105.433 433.436C105.433 435.231 106.729 436.707 108.417 437.025V469.441H116.635V424.932C116.635 424.56 116.677 424.411 116.731 424.464C116.794 424.518 116.858 424.613 116.922 424.74C116.922 424.794 117.23 425.813 117.845 427.777C118.472 429.741 119.247 432.173 120.181 435.114C121.116 438.034 122.124 441.209 123.218 444.627C124.312 448.046 125.331 451.274 126.297 454.3C127.263 457.305 128.081 459.906 128.771 462.041C129.461 464.185 129.854 465.406 129.992 465.725C130.3 466.776 130.629 467.647 130.969 468.347C131.309 469.016 131.882 469.367 132.7 469.367H138.115C138.858 469.367 139.41 469.123 139.792 468.623C140.164 468.114 140.355 467.562 140.355 466.946V436.93C141.873 436.484 142.999 435.093 142.999 433.426C142.999 431.759 141.873 430.357 140.355 429.933V408.4C140.419 407.837 140.525 407.444 140.684 407.189C140.843 406.935 141.034 406.68 141.289 406.436C141.788 406.064 142.277 405.533 142.786 404.854C143.285 404.163 143.53 403.293 143.53 402.231V399.523L132.137 399.608V445.466L132.116 445.488Z" fill="#0C2340"/>
<path d="M494.105 445.488C494.105 445.679 494.052 445.689 493.967 445.583C493.872 445.445 493.797 445.318 493.733 445.211C493.479 444.394 492.98 442.78 492.236 440.359C491.493 437.928 490.633 435.114 489.656 431.907C488.69 428.701 487.671 425.346 486.577 421.821C485.494 418.306 484.485 415.068 483.551 412.105C482.617 409.154 481.842 406.69 481.215 404.684C480.589 402.687 480.281 401.626 480.281 401.509C480.1 400.882 479.814 400.394 479.442 400.054C479.07 399.715 478.508 399.534 477.754 399.534H467.21V402.624C467.21 403.686 467.359 404.535 467.678 405.193C467.986 405.852 468.357 406.361 468.792 406.733C469.228 407.168 469.759 407.508 470.385 407.763V429.848C468.686 430.166 467.402 431.642 467.402 433.436C467.402 435.231 468.686 436.707 470.385 437.025V469.441H478.603V424.932C478.603 424.56 478.635 424.411 478.699 424.464C478.763 424.518 478.826 424.613 478.89 424.74C478.89 424.794 479.198 425.813 479.824 427.777C480.44 429.741 481.226 432.173 482.15 435.114C483.084 438.034 484.093 441.209 485.186 444.627C486.269 448.046 487.299 451.274 488.265 454.3C489.232 457.305 490.049 459.906 490.739 462.041C491.429 464.185 491.822 465.406 491.96 465.725C492.268 466.776 492.597 467.647 492.937 468.347C493.277 469.016 493.85 469.367 494.668 469.367H500.083C500.826 469.367 501.378 469.123 501.76 468.623C502.132 468.114 502.323 467.562 502.323 466.946V436.919C503.852 436.484 504.967 435.082 504.967 433.426C504.967 431.769 503.842 430.357 502.323 429.933V408.4C502.376 407.837 502.493 407.444 502.642 407.189C502.79 406.935 503.003 406.68 503.258 406.436C503.757 406.064 504.245 405.533 504.744 404.854C505.243 404.163 505.487 403.293 505.487 402.231V399.523L494.105 399.608V445.466V445.488Z" fill="#0C2340"/>
<path d="M537.808 435.125C536.353 433.819 534.761 432.64 533.072 431.546C533.147 431.249 533.2 430.941 533.2 430.623C533.2 428.605 531.554 426.96 529.537 426.96C528.655 426.96 527.848 427.289 527.222 427.809C526.925 427.607 526.606 427.416 526.319 427.214C524.578 426.068 523.113 424.932 521.934 423.806C520.745 422.681 520.161 421.513 520.161 420.27V411.012C520.161 410.343 520.384 409.716 520.819 409.196C521.255 408.676 521.807 408.209 522.497 407.837C523.177 407.465 523.899 407.189 524.642 407.009C525.385 406.818 526.107 406.722 526.787 406.722C527.413 406.722 528.114 406.796 528.889 406.945C529.664 407.115 530.386 407.359 531.034 407.699C531.692 408.049 532.244 408.495 532.669 409.058C533.104 409.621 533.327 410.268 533.327 411.012V414.473C533.327 415.96 533.858 417.212 534.92 418.211C535.971 419.198 537.277 419.697 538.838 419.697H543.042V412.774C543.042 410.417 542.639 408.357 541.832 406.563C541.014 404.8 539.889 403.335 538.424 402.188C536.948 401.042 535.249 400.171 533.285 399.566C531.331 398.982 529.197 398.685 526.893 398.685C524.589 398.685 522.476 398.95 520.543 399.481C518.622 400.012 516.933 400.851 515.5 401.997C514.067 403.155 512.952 404.609 512.145 406.393C511.338 408.166 510.934 410.29 510.934 412.774V419.41C510.934 422.022 511.508 424.241 512.654 426.089C513.812 427.926 515.256 429.518 516.997 430.899C518.696 432.237 520.543 433.468 522.508 434.594C522.306 435.05 522.179 435.549 522.179 436.091C522.179 438.108 523.824 439.754 525.842 439.754C526.967 439.754 527.955 439.234 528.634 438.437C530.216 439.552 531.565 440.784 532.637 442.143C533.794 443.619 534.368 445.381 534.368 447.43V457.326C534.368 458.133 534.134 458.866 533.667 459.524C533.21 460.182 532.605 460.734 531.851 461.202C531.108 461.669 530.29 462.04 529.43 462.327C528.56 462.614 527.721 462.741 526.903 462.741C526.086 462.741 525.258 462.614 524.387 462.37C523.516 462.125 522.72 461.786 521.998 461.35C521.287 460.904 520.692 460.373 520.225 459.758C519.758 459.142 519.524 458.42 519.524 457.613V453.599C519.524 452.166 519.099 451.062 518.271 450.276C517.432 449.501 516.169 449.108 514.481 449.108H510V456.116C510 458.473 510.446 460.543 511.359 462.327C512.262 464.1 513.472 465.566 515.001 466.712C516.53 467.859 518.314 468.73 520.374 469.282C522.423 469.834 524.599 470.121 526.903 470.121C529.207 470.121 531.395 469.834 533.444 469.282C535.504 468.719 537.298 467.859 538.859 466.712C540.42 465.566 541.662 464.1 542.596 462.327C543.531 460.543 543.987 458.473 543.987 456.116V446.963C543.987 444.479 543.393 442.27 542.214 440.348C541.025 438.416 539.57 436.664 537.818 435.125" fill="#0C2340"/>
<path d="M235.479 434.456C235.107 437.694 234.735 440.869 234.364 443.98C233.992 447.101 233.642 449.862 233.334 452.293C233.015 454.714 232.771 456.679 232.591 458.176C232.4 459.662 232.283 460.416 232.219 460.416C231.465 455.872 230.796 451.794 230.202 448.184C229.618 444.574 228.959 440.54 228.237 436.091C227.526 431.642 226.793 427.246 226.05 422.925C225.307 418.593 224.596 414.59 223.948 410.884C223.29 407.179 222.716 404.238 222.217 402.05C222.09 401.36 221.516 400.808 220.486 400.373C219.457 399.938 218.416 399.725 217.354 399.725C216.42 399.725 215.443 399.895 214.413 400.235C213.383 400.575 212.789 401.159 212.598 401.966C212.088 404.015 211.525 406.892 210.867 410.598C210.219 414.303 209.518 418.317 208.765 422.638C208.021 426.97 207.278 431.366 206.567 435.847C205.855 440.338 205.197 444.404 204.602 448.036C204.018 451.678 203.339 455.808 202.596 460.416C202.532 460.416 202.394 459.662 202.182 458.176C201.959 456.668 201.714 454.714 201.428 452.293C201.152 449.862 200.822 447.101 200.451 443.98C200.079 440.879 199.697 437.694 199.325 434.456C198.455 426.853 195.429 399.523 195.429 399.523H184.015V402.337C184.015 403.399 184.238 404.259 184.673 404.949C185.108 405.639 185.575 406.138 186.074 406.446C186.393 406.69 186.669 406.966 186.913 407.296C187.158 407.593 187.349 408.007 187.476 408.495C188.379 416.278 189.207 423.456 189.971 430.06C188.644 430.601 187.71 431.907 187.71 433.447C187.71 435.263 189.047 436.76 190.789 437.046C190.81 437.174 190.821 437.322 190.831 437.461C191.256 441.124 191.681 444.702 192.095 448.195C192.498 451.678 192.87 454.81 193.21 457.581C193.56 460.342 193.836 462.603 194.048 464.334C194.271 466.086 194.367 467.01 194.367 467.137C194.441 467.647 194.632 468.124 194.972 468.581C195.312 469.048 195.8 469.292 196.416 469.292H206.97C207.65 469.292 208.181 469.101 208.552 468.73C208.934 468.358 209.274 467.753 209.582 466.957L217.524 421.481L225.275 466.957C225.583 467.753 225.923 468.358 226.294 468.73C226.666 469.101 227.197 469.292 227.887 469.292H238.345C238.972 469.292 239.46 469.048 239.789 468.581C240.129 468.124 240.331 467.647 240.395 467.137C240.395 467.01 240.511 466.086 240.724 464.334C240.936 462.603 241.223 460.342 241.563 457.581C241.892 454.799 242.274 451.667 242.677 448.195C243.081 444.702 243.506 441.124 243.941 437.461C243.952 437.322 243.973 437.174 243.983 437.046C245.725 436.76 247.052 435.263 247.052 433.447C247.052 431.918 246.118 430.623 244.801 430.06C245.566 423.456 246.394 416.289 247.307 408.495C247.424 408.007 247.615 407.593 247.87 407.296C248.114 406.966 248.39 406.69 248.708 406.446C249.207 406.138 249.664 405.639 250.11 404.949C250.545 404.259 250.758 403.399 250.758 402.337V399.534L239.386 399.566C239.386 399.566 236.317 426.853 235.447 434.456" fill="#0C2340"/>
<path d="M458.759 433.447C458.759 431.621 457.432 430.124 455.69 429.848C455.255 427.384 454.809 424.91 454.384 422.521C453.79 419.156 453.269 416.13 452.802 413.411C452.335 410.704 451.953 408.474 451.634 406.733C451.326 404.992 451.167 403.993 451.167 403.739C451.05 402.613 450.541 401.636 449.67 400.798C448.799 399.948 447.653 399.523 446.219 399.523H433.701V401.679C433.701 404.344 434.476 406 436.037 406.627C436.345 406.754 436.504 407.02 436.504 407.412C436.504 407.805 436.472 408.272 436.409 408.771C436.409 408.835 436.271 409.61 435.984 411.107C435.708 412.615 435.326 414.569 434.858 416.99C434.402 419.421 433.882 422.171 433.319 425.25C433.053 426.737 432.767 428.255 432.491 429.773C430.494 429.805 428.902 431.419 428.902 433.426C428.902 434.955 429.836 436.25 431.163 436.792C429.39 446.273 425.154 469.356 425.154 469.356H434.041C434.041 469.356 436.632 453.61 436.685 453.313C436.801 452.06 437.375 451.444 438.373 451.444H449.012C449.575 451.444 450.042 451.571 450.413 451.805C450.785 452.06 451.04 452.559 451.157 453.313C451.157 453.61 453.248 469.356 453.248 469.356L462.666 469.43C462.666 469.43 458.801 447.484 456.879 436.59C457.994 435.963 458.759 434.795 458.759 433.426M449.298 443.226C449.054 443.523 448.714 443.672 448.269 443.672H439.488C439.116 443.672 438.808 443.544 438.553 443.258C438.299 442.982 438.214 442.621 438.277 442.185C438.277 442.132 438.352 441.601 438.511 440.593C438.67 439.605 438.872 438.321 439.116 436.76C439.36 435.21 439.636 433.447 439.955 431.493C440.263 429.529 440.613 427.533 440.985 425.462L443.788 409.217H443.979L446.771 425.462C447.143 427.522 447.483 429.518 447.801 431.493C448.109 433.447 448.385 435.21 448.64 436.76C448.884 438.321 449.107 439.595 449.288 440.593C449.479 441.591 449.564 442.122 449.564 442.185C449.628 442.557 449.532 442.897 449.288 443.226" fill="#0C2340"/>
<path d="M346.413 462.189C346.105 461.998 345.84 461.838 345.617 461.679C345.394 461.531 345.287 461.138 345.287 460.511V444.542C345.287 442.249 344.948 440.157 344.258 438.299C343.578 436.42 342.516 434.976 341.083 433.903C340.393 433.224 340.34 432.608 340.892 432.035C342.198 430.983 343.259 429.624 344.066 427.968C344.873 426.333 345.287 424.507 345.287 422.51V415.131C345.287 412.827 345.001 410.735 344.449 408.824C343.886 406.934 343.005 405.299 341.784 403.929C340.573 402.56 339.034 401.487 337.165 400.712C335.296 399.916 333.024 399.534 330.348 399.534H311.12V402.241C311.12 403.547 311.343 404.545 311.82 405.235C312.288 405.926 312.765 406.425 313.264 406.722C313.519 406.86 313.732 407.051 313.923 407.327C314.114 407.614 314.199 408.007 314.199 408.495V429.868C312.542 430.208 311.3 431.674 311.3 433.436C311.3 435.199 312.542 436.664 314.199 437.014V469.366L323.341 469.419V438.66C323.341 437.789 323.755 437.354 324.562 437.354H330.348C332.344 437.354 333.788 437.959 334.702 439.18C335.604 440.38 336.05 442.079 336.05 444.255V464.801C336.05 466.17 336.443 467.285 337.218 468.124C337.993 468.963 339.193 469.377 340.807 469.377H348.558V465.735C348.558 464.61 348.324 463.813 347.857 463.346C347.4 462.89 346.912 462.497 346.413 462.178M336.05 422.51C336.05 424.698 335.593 426.428 334.702 427.734C333.788 429.04 332.344 429.688 330.348 429.688H324.466C324.222 429.688 323.967 429.592 323.723 429.401C323.468 429.21 323.351 428.966 323.351 428.658V408.665C323.351 407.805 323.85 407.37 324.848 407.37H330.359C332.355 407.37 333.799 408.007 334.712 409.281C335.615 410.555 336.061 412.286 336.061 414.462V422.5L336.05 422.51Z" fill="#0C2340"/>
<path d="M375.633 441.994C374.698 442.429 374.231 443.353 374.231 444.797C374.231 445.169 374.316 460.968 374.104 461.297C373.881 461.637 373.562 461.807 373.127 461.807H364.909C364.474 461.807 364.155 461.626 363.975 461.244C363.783 460.872 363.698 460.447 363.698 459.938L363.603 408.591C363.603 407.911 363.688 407.444 363.837 407.2C363.985 406.945 364.229 406.732 364.537 406.541C365.036 406.17 365.535 405.639 366.024 404.949C366.523 404.269 366.778 403.399 366.778 402.337V399.534H351.18V402.337C351.18 403.399 351.435 404.259 351.934 404.949C352.433 405.639 352.921 406.159 353.421 406.541C353.739 406.732 353.983 406.955 354.164 407.2C354.355 407.444 354.44 407.911 354.44 408.591V429.847C352.762 430.187 351.499 431.652 351.499 433.436C351.499 435.22 352.773 436.696 354.44 437.014V469.366H380.952C381.451 469.366 381.94 469.165 382.449 468.729C382.948 468.294 383.193 467.689 383.193 466.956V441.346H379.275C377.905 441.346 376.557 441.559 375.633 441.994Z" fill="#0C2340"/>
<path d="M177.294 399.619C177.145 399.576 176.986 399.555 176.837 399.555H176.668V399.544H147.065V402.252C147.065 403.505 147.235 404.46 147.575 405.151C147.915 405.83 148.403 406.34 149.03 406.648C149.338 406.839 149.614 407.083 149.869 407.402C150.123 407.709 150.251 408.145 150.251 408.697V429.858C148.563 430.187 147.299 431.663 147.299 433.447C147.299 435.231 148.563 436.706 150.251 437.025V469.377H176.848C177.071 469.377 177.294 469.335 177.517 469.239C177.846 469.133 178.133 468.963 178.398 468.729C178.855 468.294 179.088 467.731 179.088 467.041V447.271H175.16C173.801 447.271 172.442 447.494 171.518 447.919C170.584 448.354 170.116 449.288 170.116 450.722C170.116 451.093 170.201 460.957 169.989 461.286C169.766 461.637 169.448 461.796 169.002 461.796H160.518C159.775 461.796 159.393 461.361 159.393 460.501V438.745C159.393 437.864 159.86 437.439 160.794 437.439H172.006C172.93 437.439 173.408 437.004 173.408 436.122V430.909C173.408 430.41 173.227 430.049 172.888 429.826C172.548 429.614 172.219 429.508 171.9 429.508H160.794C159.86 429.508 159.393 429.072 159.393 428.202V408.686C159.393 408.315 159.531 407.996 159.807 407.709C160.083 407.433 160.38 407.306 160.699 407.306H169.639C169.766 407.38 169.904 407.476 169.989 407.625C170.201 407.964 170.116 417.818 170.116 418.2C170.116 419.633 170.584 420.568 171.518 421.003C172.452 421.438 173.801 421.661 175.16 421.661H179.088V401.615C179.088 401.105 178.876 400.649 178.43 400.203C178.133 399.905 177.761 399.714 177.294 399.629" fill="#0C2340"/>
<path d="M417.307 399.619C417.158 399.576 416.999 399.555 416.84 399.555H416.67L387.068 399.544V402.252C387.068 403.505 387.248 404.46 387.578 405.151C387.928 405.83 388.395 406.34 389.022 406.648C389.34 406.839 389.616 407.083 389.86 407.402C390.115 407.709 390.243 408.145 390.243 408.697V429.858C388.565 430.187 387.301 431.663 387.301 433.447C387.301 435.231 388.565 436.706 390.243 437.025V469.377H416.84C417.074 469.377 417.286 469.335 417.519 469.239C417.849 469.133 418.135 468.963 418.39 468.729C418.857 468.294 419.091 467.731 419.091 467.041V457.422V447.271H415.173C413.803 447.271 412.465 447.494 411.531 447.919C410.597 448.354 410.13 449.288 410.13 450.722C410.13 451.093 410.214 460.957 410.002 461.286C409.779 461.637 409.45 461.796 409.025 461.796H400.531C399.788 461.796 399.416 461.361 399.416 460.501V438.745C399.416 437.864 399.883 437.439 400.807 437.439H412.019C412.943 437.439 413.41 437.004 413.41 436.122V430.909C413.41 430.41 413.241 430.049 412.901 429.826C412.561 429.614 412.232 429.508 411.924 429.508H400.818C399.883 429.508 399.427 429.072 399.427 428.202V408.686C399.427 408.315 399.565 407.996 399.841 407.709C400.128 407.433 400.414 407.306 400.733 407.306H409.662C409.8 407.38 409.928 407.476 410.023 407.625C410.236 407.964 410.151 417.818 410.151 418.2C410.151 419.633 410.618 420.568 411.552 421.003C412.487 421.438 413.835 421.661 415.194 421.661H419.112V411.511V401.615C419.112 401.105 418.9 400.649 418.464 400.203C418.167 399.905 417.785 399.714 417.328 399.629" fill="#0C2340"/>
<path d="M305.609 429.816V412.785C305.609 410.438 305.195 408.368 304.356 406.573C303.517 404.811 302.36 403.346 300.906 402.199C299.44 401.052 297.71 400.182 295.713 399.64C293.717 399.077 291.583 398.801 289.269 398.801C286.954 398.801 284.82 399.077 282.834 399.64C280.838 400.182 279.097 401.052 277.6 402.199C276.103 403.346 274.935 404.811 274.096 406.573C273.257 408.357 272.832 410.428 272.832 412.785V429.826C271.07 430.102 269.732 431.599 269.732 433.436C269.732 435.273 271.08 436.77 272.832 437.036V456.116C272.832 458.473 273.246 460.543 274.096 462.327C274.935 464.1 276.103 465.576 277.6 466.744C279.086 467.933 280.827 468.814 282.834 469.367C284.82 469.929 286.964 470.205 289.269 470.205C291.573 470.205 293.717 469.929 295.713 469.367C297.699 468.814 299.44 467.933 300.906 466.744C302.36 465.576 303.517 464.1 304.356 462.327C305.195 460.543 305.609 458.473 305.609 456.116V437.046C307.446 436.845 308.879 435.316 308.879 433.426C308.879 431.536 307.446 430.007 305.609 429.794M296.467 455.733C296.467 456.976 296.255 458.006 295.82 458.855C295.384 459.704 294.811 460.384 294.142 460.904C293.452 461.435 292.687 461.828 291.849 462.072C291.01 462.327 290.15 462.444 289.279 462.444C288.408 462.444 287.538 462.316 286.667 462.072C285.797 461.828 285.021 461.435 284.331 460.904C283.641 460.384 283.089 459.704 282.654 458.855C282.218 458.006 281.995 456.976 281.995 455.733V413.156C281.995 411.904 282.208 410.874 282.654 410.024C283.089 409.185 283.641 408.495 284.331 407.975C285.011 407.455 285.797 407.062 286.667 406.807C287.538 406.552 288.408 406.435 289.279 406.435C290.15 406.435 291.01 406.563 291.849 406.807C292.687 407.051 293.452 407.444 294.142 407.975C294.822 408.495 295.384 409.185 295.82 410.024C296.255 410.874 296.467 411.914 296.467 413.156V455.733Z" fill="#0C2340"/>
<path d="M132.116 445.488C132.116 445.679 132.073 445.689 131.978 445.583C131.882 445.445 131.808 445.318 131.755 445.211C131.5 444.394 131.001 442.78 130.247 440.359C129.504 437.928 128.644 435.114 127.688 431.907C126.722 428.701 125.692 425.346 124.609 421.821C123.515 418.306 122.507 415.068 121.572 412.105C120.638 409.154 119.863 406.69 119.236 404.684C118.621 402.687 118.302 401.626 118.302 401.509C118.111 400.882 117.835 400.394 117.463 400.054C117.102 399.715 116.539 399.534 115.786 399.534H105.242V402.624C105.242 403.686 105.391 404.535 105.709 405.193C106.017 405.852 106.4 406.361 106.835 406.733C107.27 407.168 107.801 407.508 108.417 407.763V429.848C106.718 430.166 105.433 431.642 105.433 433.436C105.433 435.231 106.729 436.707 108.417 437.025V469.441H116.635V424.932C116.635 424.56 116.677 424.411 116.731 424.464C116.794 424.518 116.858 424.613 116.922 424.74C116.922 424.794 117.23 425.813 117.845 427.777C118.472 429.741 119.247 432.173 120.181 435.114C121.116 438.034 122.124 441.209 123.218 444.627C124.312 448.046 125.331 451.274 126.297 454.3C127.263 457.305 128.081 459.906 128.771 462.041C129.461 464.185 129.854 465.406 129.992 465.725C130.3 466.776 130.629 467.647 130.969 468.347C131.309 469.016 131.882 469.367 132.7 469.367H138.115C138.858 469.367 139.41 469.123 139.792 468.623C140.164 468.114 140.355 467.562 140.355 466.946V436.93C141.873 436.484 142.999 435.093 142.999 433.426C142.999 431.759 141.873 430.357 140.355 429.933V408.4C140.419 407.837 140.525 407.444 140.684 407.189C140.843 406.935 141.034 406.68 141.289 406.436C141.788 406.064 142.277 405.533 142.786 404.854C143.285 404.163 143.53 403.293 143.53 402.231V399.523L132.137 399.608V445.466L132.116 445.488Z" fill="#0C2340"/>
<path d="M494.105 445.488C494.105 445.679 494.052 445.689 493.967 445.583C493.872 445.445 493.797 445.318 493.733 445.211C493.479 444.394 492.98 442.78 492.236 440.359C491.493 437.928 490.633 435.114 489.656 431.907C488.69 428.701 487.671 425.346 486.577 421.821C485.494 418.306 484.485 415.068 483.551 412.105C482.617 409.154 481.842 406.69 481.215 404.684C480.589 402.687 480.281 401.626 480.281 401.509C480.1 400.882 479.814 400.394 479.442 400.054C479.07 399.715 478.508 399.534 477.754 399.534H467.21V402.624C467.21 403.686 467.359 404.535 467.678 405.193C467.986 405.852 468.357 406.361 468.792 406.733C469.228 407.168 469.759 407.508 470.385 407.763V429.848C468.686 430.166 467.402 431.642 467.402 433.436C467.402 435.231 468.686 436.707 470.385 437.025V469.441H478.603V424.932C478.603 424.56 478.635 424.411 478.699 424.464C478.763 424.518 478.826 424.613 478.89 424.74C478.89 424.794 479.198 425.813 479.824 427.777C480.44 429.741 481.226 432.173 482.15 435.114C483.084 438.034 484.093 441.209 485.186 444.627C486.269 448.046 487.299 451.274 488.265 454.3C489.232 457.305 490.049 459.906 490.739 462.041C491.429 464.185 491.822 465.406 491.96 465.725C492.268 466.776 492.597 467.647 492.937 468.347C493.277 469.016 493.85 469.367 494.668 469.367H500.083C500.826 469.367 501.378 469.123 501.76 468.623C502.132 468.114 502.323 467.562 502.323 466.946V436.919C503.852 436.484 504.967 435.082 504.967 433.426C504.967 431.769 503.842 430.357 502.323 429.933V408.4C502.376 407.837 502.493 407.444 502.642 407.189C502.79 406.935 503.003 406.68 503.258 406.436C503.757 406.064 504.245 405.533 504.744 404.854C505.243 404.163 505.487 403.293 505.487 402.231V399.523L494.105 399.608V445.466V445.488Z" fill="#0C2340"/>
<path d="M537.808 435.125C536.353 433.819 534.761 432.64 533.072 431.546C533.147 431.249 533.2 430.941 533.2 430.623C533.2 428.605 531.554 426.96 529.537 426.96C528.655 426.96 527.848 427.289 527.222 427.809C526.925 427.607 526.606 427.416 526.319 427.214C524.578 426.068 523.113 424.932 521.934 423.806C520.745 422.681 520.161 421.513 520.161 420.27V411.012C520.161 410.343 520.384 409.716 520.819 409.196C521.255 408.676 521.807 408.209 522.497 407.837C523.177 407.465 523.899 407.189 524.642 407.009C525.385 406.818 526.107 406.722 526.787 406.722C527.413 406.722 528.114 406.796 528.889 406.945C529.664 407.115 530.386 407.359 531.034 407.699C531.692 408.049 532.244 408.495 532.669 409.058C533.104 409.621 533.327 410.268 533.327 411.012V414.473C533.327 415.96 533.858 417.212 534.92 418.211C535.971 419.198 537.277 419.697 538.838 419.697H543.042V412.774C543.042 410.417 542.639 408.357 541.832 406.563C541.014 404.8 539.889 403.335 538.424 402.188C536.948 401.042 535.249 400.171 533.285 399.566C531.331 398.982 529.197 398.685 526.893 398.685C524.589 398.685 522.476 398.95 520.543 399.481C518.622 400.012 516.933 400.851 515.5 401.997C514.067 403.155 512.952 404.609 512.145 406.393C511.338 408.166 510.934 410.29 510.934 412.774V419.41C510.934 422.022 511.508 424.241 512.654 426.089C513.812 427.926 515.256 429.518 516.997 430.899C518.696 432.237 520.543 433.468 522.508 434.594C522.306 435.05 522.179 435.549 522.179 436.091C522.179 438.108 523.824 439.754 525.842 439.754C526.967 439.754 527.955 439.234 528.634 438.437C530.216 439.552 531.565 440.784 532.637 442.143C533.794 443.619 534.368 445.381 534.368 447.43V457.326C534.368 458.133 534.134 458.866 533.667 459.524C533.21 460.182 532.605 460.734 531.851 461.202C531.108 461.669 530.29 462.04 529.43 462.327C528.56 462.614 527.721 462.741 526.903 462.741C526.086 462.741 525.258 462.614 524.387 462.37C523.516 462.125 522.72 461.786 521.998 461.35C521.287 460.904 520.692 460.373 520.225 459.758C519.758 459.142 519.524 458.42 519.524 457.613V453.599C519.524 452.166 519.099 451.062 518.271 450.276C517.432 449.501 516.169 449.108 514.481 449.108H510V456.116C510 458.473 510.446 460.543 511.359 462.327C512.262 464.1 513.472 465.566 515.001 466.712C516.53 467.859 518.314 468.73 520.374 469.282C522.423 469.834 524.599 470.121 526.903 470.121C529.207 470.121 531.395 469.834 533.444 469.282C535.504 468.719 537.298 467.859 538.859 466.712C540.42 465.566 541.662 464.1 542.596 462.327C543.531 460.543 543.987 458.473 543.987 456.116V446.963C543.987 444.479 543.393 442.27 542.214 440.348C541.025 438.416 539.57 436.664 537.818 435.125" fill="#0C2340"/>
<path d="M235.479 434.456C235.107 437.694 234.735 440.869 234.364 443.98C233.992 447.101 233.642 449.862 233.334 452.293C233.015 454.714 232.771 456.679 232.591 458.176C232.4 459.662 232.283 460.416 232.219 460.416C231.465 455.872 230.796 451.794 230.202 448.184C229.618 444.574 228.959 440.54 228.237 436.091C227.526 431.642 226.793 427.246 226.05 422.925C225.307 418.593 224.596 414.59 223.948 410.884C223.29 407.179 222.716 404.238 222.217 402.05C222.09 401.36 221.516 400.808 220.486 400.373C219.457 399.938 218.416 399.725 217.354 399.725C216.42 399.725 215.443 399.895 214.413 400.235C213.383 400.575 212.789 401.159 212.598 401.966C212.088 404.015 211.525 406.892 210.867 410.598C210.219 414.303 209.518 418.317 208.765 422.638C208.021 426.97 207.278 431.366 206.567 435.847C205.855 440.338 205.197 444.404 204.602 448.036C204.018 451.678 203.339 455.808 202.596 460.416C202.532 460.416 202.394 459.662 202.182 458.176C201.959 456.668 201.714 454.714 201.428 452.293C201.152 449.862 200.822 447.101 200.451 443.98C200.079 440.879 199.697 437.694 199.325 434.456C198.455 426.853 195.429 399.523 195.429 399.523H184.015V402.337C184.015 403.399 184.238 404.259 184.673 404.949C185.108 405.639 185.575 406.138 186.074 406.446C186.393 406.69 186.669 406.966 186.913 407.296C187.158 407.593 187.349 408.007 187.476 408.495C188.379 416.278 189.207 423.456 189.971 430.06C188.644 430.601 187.71 431.907 187.71 433.447C187.71 435.263 189.047 436.76 190.789 437.046C190.81 437.174 190.821 437.322 190.831 437.461C191.256 441.124 191.681 444.702 192.095 448.195C192.498 451.678 192.87 454.81 193.21 457.581C193.56 460.342 193.836 462.603 194.048 464.334C194.271 466.086 194.367 467.01 194.367 467.137C194.441 467.647 194.632 468.124 194.972 468.581C195.312 469.048 195.8 469.292 196.416 469.292H206.97C207.65 469.292 208.181 469.101 208.552 468.73C208.934 468.358 209.274 467.753 209.582 466.957L217.524 421.481L225.275 466.957C225.583 467.753 225.923 468.358 226.294 468.73C226.666 469.101 227.197 469.292 227.887 469.292H238.345C238.972 469.292 239.46 469.048 239.789 468.581C240.129 468.124 240.331 467.647 240.395 467.137C240.395 467.01 240.511 466.086 240.724 464.334C240.936 462.603 241.223 460.342 241.563 457.581C241.892 454.799 242.274 451.667 242.677 448.195C243.081 444.702 243.506 441.124 243.941 437.461C243.952 437.322 243.973 437.174 243.983 437.046C245.725 436.76 247.052 435.263 247.052 433.447C247.052 431.918 246.118 430.623 244.801 430.06C245.566 423.456 246.394 416.289 247.307 408.495C247.424 408.007 247.615 407.593 247.87 407.296C248.114 406.966 248.39 406.69 248.708 406.446C249.207 406.138 249.664 405.639 250.11 404.949C250.545 404.259 250.758 403.399 250.758 402.337V399.534L239.386 399.566C239.386 399.566 236.317 426.853 235.447 434.456" fill="#0C2340"/>
<path d="M458.759 433.447C458.759 431.621 457.432 430.124 455.69 429.848C455.255 427.384 454.809 424.91 454.384 422.521C453.79 419.156 453.269 416.13 452.802 413.411C452.335 410.704 451.953 408.474 451.634 406.733C451.326 404.992 451.167 403.993 451.167 403.739C451.05 402.613 450.541 401.636 449.67 400.798C448.799 399.948 447.653 399.523 446.219 399.523H433.701V401.679C433.701 404.344 434.476 406 436.037 406.627C436.345 406.754 436.504 407.02 436.504 407.412C436.504 407.805 436.472 408.272 436.409 408.771C436.409 408.835 436.271 409.61 435.984 411.107C435.708 412.615 435.326 414.569 434.858 416.99C434.402 419.421 433.882 422.171 433.319 425.25C433.053 426.737 432.767 428.255 432.491 429.773C430.494 429.805 428.902 431.419 428.902 433.426C428.902 434.955 429.836 436.25 431.163 436.792C429.39 446.273 425.154 469.356 425.154 469.356H434.041C434.041 469.356 436.632 453.61 436.685 453.313C436.801 452.06 437.375 451.444 438.373 451.444H449.012C449.575 451.444 450.042 451.571 450.413 451.805C450.785 452.06 451.04 452.559 451.157 453.313C451.157 453.61 453.248 469.356 453.248 469.356L462.666 469.43C462.666 469.43 458.801 447.484 456.879 436.59C457.994 435.963 458.759 434.795 458.759 433.426M449.298 443.226C449.054 443.523 448.714 443.672 448.269 443.672H439.488C439.116 443.672 438.808 443.544 438.553 443.258C438.299 442.982 438.214 442.621 438.277 442.185C438.277 442.132 438.352 441.601 438.511 440.593C438.67 439.605 438.872 438.321 439.116 436.76C439.36 435.21 439.636 433.447 439.955 431.493C440.263 429.529 440.613 427.533 440.985 425.462L443.788 409.217H443.979L446.771 425.462C447.143 427.522 447.483 429.518 447.801 431.493C448.109 433.447 448.385 435.21 448.64 436.76C448.884 438.321 449.107 439.595 449.288 440.593C449.479 441.591 449.564 442.122 449.564 442.185C449.628 442.557 449.532 442.897 449.288 443.226" fill="#0C2340"/>
<path d="M346.413 462.189C346.105 461.998 345.84 461.838 345.617 461.679C345.394 461.531 345.287 461.138 345.287 460.511V444.542C345.287 442.249 344.948 440.157 344.258 438.299C343.578 436.42 342.516 434.976 341.083 433.903C340.393 433.224 340.34 432.608 340.892 432.035C342.198 430.983 343.259 429.624 344.066 427.968C344.873 426.333 345.287 424.507 345.287 422.51V415.131C345.287 412.827 345.001 410.735 344.449 408.824C343.886 406.934 343.005 405.299 341.784 403.929C340.573 402.56 339.034 401.487 337.165 400.712C335.296 399.916 333.024 399.534 330.348 399.534H311.12V402.241C311.12 403.547 311.343 404.545 311.82 405.235C312.288 405.926 312.765 406.425 313.264 406.722C313.519 406.86 313.732 407.051 313.923 407.327C314.114 407.614 314.199 408.007 314.199 408.495V429.868C312.542 430.208 311.3 431.674 311.3 433.436C311.3 435.199 312.542 436.664 314.199 437.014V469.366L323.341 469.419V438.66C323.341 437.789 323.755 437.354 324.562 437.354H330.348C332.344 437.354 333.788 437.959 334.702 439.18C335.604 440.38 336.05 442.079 336.05 444.255V464.801C336.05 466.17 336.443 467.285 337.218 468.124C337.993 468.963 339.193 469.377 340.807 469.377H348.558V465.735C348.558 464.61 348.324 463.813 347.857 463.346C347.4 462.89 346.912 462.497 346.413 462.178M336.05 422.51C336.05 424.698 335.593 426.428 334.702 427.734C333.788 429.04 332.344 429.688 330.348 429.688H324.466C324.222 429.688 323.967 429.592 323.723 429.401C323.468 429.21 323.351 428.966 323.351 428.658V408.665C323.351 407.805 323.85 407.37 324.848 407.37H330.359C332.355 407.37 333.799 408.007 334.712 409.281C335.615 410.555 336.061 412.286 336.061 414.462V422.5L336.05 422.51Z" fill="#0C2340"/>
<path d="M375.633 441.994C374.698 442.429 374.231 443.353 374.231 444.797C374.231 445.169 374.316 460.968 374.104 461.297C373.881 461.637 373.562 461.807 373.127 461.807H364.909C364.474 461.807 364.155 461.626 363.975 461.244C363.783 460.872 363.698 460.447 363.698 459.938L363.603 408.591C363.603 407.911 363.688 407.444 363.837 407.2C363.985 406.945 364.229 406.732 364.537 406.541C365.036 406.17 365.535 405.639 366.024 404.949C366.523 404.269 366.778 403.399 366.778 402.337V399.534H351.18V402.337C351.18 403.399 351.435 404.259 351.934 404.949C352.433 405.639 352.921 406.159 353.421 406.541C353.739 406.732 353.983 406.955 354.164 407.2C354.355 407.444 354.44 407.911 354.44 408.591V429.847C352.762 430.187 351.499 431.652 351.499 433.436C351.499 435.22 352.773 436.696 354.44 437.014V469.366H380.952C381.451 469.366 381.94 469.165 382.449 468.729C382.948 468.294 383.193 467.689 383.193 466.956V441.346H379.275C377.905 441.346 376.557 441.559 375.633 441.994Z" fill="#0C2340"/>
<path d="M177.294 399.619C177.145 399.576 176.986 399.555 176.837 399.555H176.668V399.544H147.065V402.252C147.065 403.505 147.235 404.46 147.575 405.151C147.915 405.83 148.403 406.34 149.03 406.648C149.338 406.839 149.614 407.083 149.869 407.402C150.123 407.709 150.251 408.145 150.251 408.697V429.858C148.563 430.187 147.299 431.663 147.299 433.447C147.299 435.231 148.563 436.706 150.251 437.025V469.377H176.848C177.071 469.377 177.294 469.335 177.517 469.239C177.846 469.133 178.133 468.963 178.398 468.729C178.855 468.294 179.088 467.731 179.088 467.041V447.271H175.16C173.801 447.271 172.442 447.494 171.518 447.919C170.584 448.354 170.116 449.288 170.116 450.722C170.116 451.093 170.201 460.957 169.989 461.286C169.766 461.637 169.448 461.796 169.002 461.796H160.518C159.775 461.796 159.393 461.361 159.393 460.501V438.745C159.393 437.864 159.86 437.439 160.794 437.439H172.006C172.93 437.439 173.408 437.004 173.408 436.122V430.909C173.408 430.41 173.227 430.049 172.888 429.826C172.548 429.614 172.219 429.508 171.9 429.508H160.794C159.86 429.508 159.393 429.072 159.393 428.202V408.686C159.393 408.315 159.531 407.996 159.807 407.709C160.083 407.433 160.38 407.306 160.699 407.306H169.639C169.766 407.38 169.904 407.476 169.989 407.625C170.201 407.964 170.116 417.818 170.116 418.2C170.116 419.633 170.584 420.568 171.518 421.003C172.452 421.438 173.801 421.661 175.16 421.661H179.088V401.615C179.088 401.105 178.876 400.649 178.43 400.203C178.133 399.905 177.761 399.714 177.294 399.629" fill="#0C2340"/>
<path d="M417.307 399.619C417.158 399.576 416.999 399.555 416.84 399.555H416.67L387.068 399.544V402.252C387.068 403.505 387.248 404.46 387.578 405.151C387.928 405.83 388.395 406.34 389.022 406.648C389.34 406.839 389.616 407.083 389.86 407.402C390.115 407.709 390.243 408.145 390.243 408.697V429.858C388.565 430.187 387.301 431.663 387.301 433.447C387.301 435.231 388.565 436.706 390.243 437.025V469.377H416.84C417.074 469.377 417.286 469.335 417.519 469.239C417.849 469.133 418.135 468.963 418.39 468.729C418.857 468.294 419.091 467.731 419.091 467.041V457.422V447.271H415.173C413.803 447.271 412.465 447.494 411.531 447.919C410.597 448.354 410.13 449.288 410.13 450.722C410.13 451.093 410.214 460.957 410.002 461.286C409.779 461.637 409.45 461.796 409.025 461.796H400.531C399.788 461.796 399.416 461.361 399.416 460.501V438.745C399.416 437.864 399.883 437.439 400.807 437.439H412.019C412.943 437.439 413.41 437.004 413.41 436.122V430.909C413.41 430.41 413.241 430.049 412.901 429.826C412.561 429.614 412.232 429.508 411.924 429.508H400.818C399.883 429.508 399.427 429.072 399.427 428.202V408.686C399.427 408.315 399.565 407.996 399.841 407.709C400.128 407.433 400.414 407.306 400.733 407.306H409.662C409.8 407.38 409.928 407.476 410.023 407.625C410.236 407.964 410.151 417.818 410.151 418.2C410.151 419.633 410.618 420.568 411.552 421.003C412.487 421.438 413.835 421.661 415.194 421.661H419.112V411.511V401.615C419.112 401.105 418.9 400.649 418.464 400.203C418.167 399.905 417.785 399.714 417.328 399.629" fill="#0C2340"/>
<path d="M359.048 143.074C355.3 150.113 360.598 157.981 362.849 161.358C367.733 168.631 374.189 180.002 374.189 193.699C374.189 209.934 366.141 223.524 353.845 231.657C357.604 226.391 362.902 216.198 362.902 200.42C362.902 167.548 343.196 155.645 343.196 155.645C343.196 155.645 342.729 157.61 341.529 157.61C340.329 157.61 332.822 154.01 329.212 152.056C327.673 151.228 325.517 149.965 324.763 149.529C324.763 149.529 321.546 151.228 320.007 152.056C316.407 154.01 308.901 157.61 307.701 157.61C306.501 157.61 306.023 155.645 306.023 155.645C306.023 155.645 286.327 167.537 286.327 200.42C286.327 216.209 291.615 226.391 295.384 231.657C283.099 223.524 275.041 209.934 275.041 193.699C275.041 180.013 281.507 168.641 286.38 161.358C288.631 157.981 293.93 150.113 290.181 143.074C287.92 138.848 283.503 137.266 277.016 137.372C223.173 138.275 106.676 161.772 27.3613 207.98C27.425 208.182 40.0707 229.821 65.3196 227.962C61.4229 229.863 57.5475 231.806 53.6826 233.802C53.7463 234.036 65.2559 252.978 93.0531 250.238C88.4238 252.426 83.8157 254.666 79.2288 256.959C79.2925 257.225 92.5647 275.848 121.859 275.36C115.106 278.768 111.029 280.945 111.05 280.934C111.071 281.062 130.406 299.781 161.665 294.642C158.288 297.105 154.869 299.717 150.845 302.531C150.845 302.594 173.801 315.123 200.812 311.216C197.33 313.86 193.847 316.525 190.375 319.222C190.311 318.861 231.72 330.561 261.185 317.576C262.278 317.098 263.329 316.546 264.38 316.005C271.685 342.453 295.894 361.947 324.625 361.947C353.357 361.947 377.555 342.453 384.86 316.005C385.911 316.546 386.951 317.088 388.045 317.565C417.509 330.551 458.918 318.85 458.865 319.211C455.393 316.514 451.91 313.849 448.417 311.205C475.429 315.113 498.374 302.573 498.374 302.52C494.36 299.706 490.941 297.094 487.565 294.631C518.813 299.781 538.158 281.062 538.169 280.924C538.201 280.924 534.123 278.758 527.371 275.349C556.654 275.838 569.948 257.214 570.001 256.949C565.414 254.645 560.806 252.415 556.166 250.228C583.974 252.957 595.483 234.025 595.547 233.792C591.682 231.795 587.806 229.852 583.92 227.952C609.169 229.81 621.804 208.171 621.879 207.969C542.554 161.782 426.056 138.285 372.214 137.383C365.716 137.277 361.31 138.859 359.048 143.084V143.074Z" fill="#0C2340"/>
<path d="M372.309 130.896H371.598C362.711 130.896 356.553 133.964 353.314 140.027C350.575 145.166 350.893 150.326 352.231 154.7C351.297 153.628 349.948 152.503 348.462 151.409C344.077 148.096 338.917 145.495 338.917 145.495C338.917 145.495 339.596 149.753 338.035 149.243C337.303 148.999 336.39 148.616 335.402 148.149C331.017 146.068 324.668 142.246 324.668 142.246C324.668 142.246 318.212 146.068 313.838 148.149C312.84 148.606 311.926 148.999 311.194 149.243C309.633 149.753 310.313 145.495 310.313 145.495C310.313 145.495 305.152 148.096 300.767 151.409C299.291 152.503 297.932 153.628 296.998 154.7C298.336 150.326 298.644 145.166 295.904 140.027C292.666 133.964 286.518 130.896 277.631 130.896H276.92C222.876 131.809 105.157 155.146 24.091 202.385L18.814 205.655C18.814 205.655 26.7772 225.935 46.42 231.7L43.7443 232.985C43.7443 232.985 54.8505 251.003 72.1043 254.74L68.8128 256.11C68.8128 256.11 80.9807 275.774 104.573 279.936L101.091 281.635C101.091 281.635 117.92 299.823 143.731 301.448L139.983 304.304C139.983 304.304 157.088 315.707 182.316 318.564L178.26 322.174C178.26 322.174 222.993 338.535 260.452 324.902C270.783 350.884 296.18 368.456 324.583 368.456H324.593C352.996 368.456 378.404 350.884 388.735 324.902C426.184 338.535 470.927 322.174 470.927 322.174L466.871 318.564C492.098 315.707 509.204 304.304 509.204 304.304L505.445 301.448C531.267 299.823 548.075 281.635 548.075 281.635L544.603 279.936C568.196 275.785 580.353 256.11 580.353 256.11L577.061 254.74C594.315 251.003 605.432 232.985 605.432 232.985L602.756 231.7C622.41 225.935 630.362 205.655 630.362 205.655L625.085 202.385C544.051 155.146 426.343 131.809 372.309 130.896ZM583.899 227.963C587.785 229.863 591.661 231.806 595.525 233.802C595.462 234.036 583.952 252.978 556.144 250.239C560.784 252.426 565.392 254.666 569.979 256.96C569.926 257.225 556.633 275.848 527.349 275.36C534.102 278.768 538.169 280.945 538.147 280.934C538.126 281.062 518.791 299.781 487.543 294.642C490.93 297.105 494.339 299.717 498.352 302.531C498.352 302.594 475.407 315.123 448.396 311.216C451.889 313.86 455.372 316.525 458.844 319.222C458.897 318.861 417.488 330.562 388.024 317.576C386.93 317.098 385.889 316.546 384.838 316.015C377.533 342.464 353.325 361.958 324.604 361.958C295.883 361.958 271.664 342.464 264.359 316.015C263.308 316.557 262.257 317.098 261.163 317.587C231.71 330.572 190.29 318.871 190.354 319.232C193.826 316.536 197.308 313.87 200.791 311.227C173.79 315.134 150.835 302.594 150.824 302.541C154.859 299.728 158.267 297.116 161.643 294.652C130.385 299.802 111.05 281.083 111.029 280.945C110.997 280.945 115.085 278.779 121.838 275.371C92.5433 275.859 79.2606 257.236 79.2075 256.97C83.7944 254.666 88.4024 252.436 93.0318 250.249C65.224 252.978 53.725 234.047 53.6613 233.813C57.5261 231.817 61.4122 229.874 65.2983 227.973C40.0494 229.831 27.3931 208.192 27.34 207.991C106.654 161.782 223.152 138.285 277.005 137.383C283.492 137.277 287.909 138.859 290.171 143.085C293.919 150.124 288.631 157.992 286.37 161.368C281.496 168.641 275.03 180.013 275.03 193.71C275.03 209.944 283.089 223.524 295.373 231.668C291.604 226.402 286.317 216.209 286.317 200.431C286.317 167.558 306.012 155.656 306.012 155.656C306.012 155.656 306.49 157.62 307.69 157.62C308.89 157.62 316.397 154.021 319.996 152.067C321.536 151.239 324.753 149.54 324.753 149.54C325.507 149.976 327.662 151.239 329.201 152.067C332.811 154.021 340.318 157.62 341.518 157.62C342.718 157.62 343.185 155.656 343.185 155.656C343.185 155.656 362.891 167.548 362.891 200.431C362.891 216.219 357.593 226.412 353.835 231.668C366.119 223.535 374.178 209.944 374.178 193.71C374.178 180.024 367.723 168.652 362.838 161.368C360.587 157.992 355.289 150.124 359.037 143.085C361.299 138.859 365.716 137.277 372.203 137.383C426.046 138.285 542.543 161.782 621.857 207.991C621.783 208.192 609.148 229.831 583.899 227.973V227.963Z" fill="#B9975B"/>
<path d="M238.823 180.385C178.101 188.284 118.716 209.435 118.716 209.435C128.824 227.421 156.249 219.872 156.249 219.872C207.703 205.315 230.658 200.378 238.027 198.945C237.74 193.2 237.974 187.031 238.823 180.385Z" fill="#B9975B"/>
<path d="M239.269 209.955C229.13 211.919 186.616 220.647 143.721 236.701C143.721 236.701 157.248 252.107 184.057 244.494C206.62 238.092 235.543 228.865 244.175 226.105C242.019 221.231 240.331 215.869 239.259 209.955" fill="#B9975B"/>
<path d="M248.698 234.609C239.535 237.572 193.709 252.415 174.374 259.848C174.374 259.848 185.47 274.723 217.503 262.109C239.822 253.318 252.117 248.189 257.532 245.885C254.304 242.541 251.31 238.803 248.698 234.62" fill="#B9975B"/>
<path d="M264.614 252.352C256.608 255.834 226.878 268.82 209.678 277.101C209.678 277.101 231.317 287.74 258.54 270.922L275.465 259.816C271.781 257.66 268.118 255.197 264.603 252.362" fill="#B9975B"/>
<path d="M410.385 180.385C471.107 188.284 530.503 209.435 530.503 209.435C520.395 227.421 492.969 219.872 492.969 219.872C441.516 205.315 418.56 200.378 411.192 198.945C411.478 193.2 411.234 187.031 410.385 180.385Z" fill="#B9975B"/>
<path d="M409.938 209.955C420.078 211.919 462.592 220.647 505.487 236.701C505.487 236.701 491.96 252.107 465.14 244.494C442.577 238.092 413.655 228.865 405.022 226.105C407.167 221.231 408.855 215.869 409.938 209.955Z" fill="#B9975B"/>
<path d="M400.51 234.609C409.673 237.572 455.499 252.415 474.823 259.848C474.823 259.848 463.728 274.723 431.694 262.109C409.376 253.318 397.081 248.189 391.666 245.885C394.883 242.541 397.877 238.803 400.499 234.62" fill="#B9975B"/>
<path d="M384.605 252.352C392.6 255.834 422.34 268.82 439.53 277.101C439.53 277.101 417.891 287.74 390.667 270.922L373.743 259.816C377.427 257.66 381.08 255.197 384.605 252.362" fill="#B9975B"/>
<path d="M238.823 180.385C178.101 188.284 118.716 209.435 118.716 209.435C128.824 227.421 156.249 219.872 156.249 219.872C207.703 205.315 230.658 200.378 238.027 198.945C237.74 193.2 237.974 187.031 238.823 180.385Z" fill="#B9975B"/>
<path d="M239.269 209.955C229.13 211.919 186.616 220.647 143.721 236.701C143.721 236.701 157.248 252.107 184.057 244.494C206.62 238.092 235.543 228.865 244.175 226.105C242.019 221.231 240.331 215.869 239.259 209.955" fill="#B9975B"/>
<path d="M248.698 234.609C239.535 237.572 193.709 252.415 174.374 259.848C174.374 259.848 185.47 274.723 217.503 262.109C239.822 253.318 252.117 248.189 257.532 245.885C254.304 242.541 251.31 238.803 248.698 234.62" fill="#B9975B"/>
<path d="M264.614 252.352C256.608 255.834 226.878 268.82 209.678 277.101C209.678 277.101 231.317 287.74 258.54 270.922L275.465 259.816C271.781 257.66 268.118 255.197 264.603 252.362" fill="#B9975B"/>
<path d="M410.385 180.385C471.107 188.284 530.503 209.435 530.503 209.435C520.395 227.421 492.969 219.872 492.969 219.872C441.516 205.315 418.56 200.378 411.192 198.945C411.478 193.2 411.234 187.031 410.385 180.385Z" fill="#B9975B"/>
<path d="M409.938 209.955C420.078 211.919 462.592 220.647 505.487 236.701C505.487 236.701 491.96 252.107 465.14 244.494C442.577 238.092 413.655 228.865 405.022 226.105C407.167 221.231 408.855 215.869 409.938 209.955Z" fill="#B9975B"/>
<path d="M400.51 234.609C409.673 237.572 455.499 252.415 474.823 259.848C474.823 259.848 463.728 274.723 431.694 262.109C409.376 253.318 397.081 248.189 391.666 245.885C394.883 242.541 397.877 238.803 400.499 234.62" fill="#B9975B"/>
<path d="M384.605 252.352C392.6 255.834 422.34 268.82 439.53 277.101C439.53 277.101 417.891 287.74 390.667 270.922L373.743 259.816C377.427 257.66 381.08 255.197 384.605 252.362" fill="#B9975B"/>
<path d="M244.695 289.853C244.695 289.853 252.298 292.964 262.767 290.565C263.563 284.99 265.039 279.628 267.205 274.627C259.263 279.766 250.418 285.617 244.695 289.853Z" fill="#B9975B"/>
<path d="M404.513 289.853C398.79 285.627 389.956 279.766 382.014 274.627C384.18 279.628 385.656 284.99 386.452 290.565C396.911 292.954 404.513 289.843 404.513 289.843V289.853Z" fill="#B9975B"/>
<path d="M280.466 154.01C284.671 148.011 282.558 145.601 266.653 147.109C145.961 158.491 52.0264 207.598 52.0264 207.598C61.7203 212.249 68.4626 209.552 72.6778 208.055C76.8824 206.547 84.0812 203.553 84.0812 203.553C186.786 162.112 261.705 159.011 261.705 159.011C240.618 210.698 267.205 238.103 286.062 250.249C286.911 249.58 287.782 248.922 288.674 248.296C240.098 206.005 277.281 158.565 280.477 154.01H280.466Z" fill="white"/>
<path d="M382.566 147.109C366.65 145.601 364.548 148.011 368.742 154.01C371.938 158.565 409.121 205.995 360.545 248.296C361.437 248.922 362.297 249.58 363.157 250.249C382.014 238.103 408.59 210.698 387.503 159.011C387.503 159.011 462.432 162.112 565.127 203.553C565.127 203.553 572.336 206.557 576.541 208.055C580.756 209.552 587.509 212.238 597.182 207.598C597.182 207.598 503.247 158.491 382.555 147.098L382.566 147.109Z" fill="white"/>
<path d="M341.338 335.817C338.407 336.624 335.36 337.134 332.281 337.506C330.996 339.852 330.062 342.008 329.658 343.027L328.469 346.063V352.795C335.477 352.296 342.124 350.438 348.133 347.476C345.277 344.757 342.198 340.797 341.338 335.817Z" fill="#B9975B"/>
<path d="M316.938 337.506C313.859 337.134 310.812 336.624 307.881 335.817C307.021 340.797 303.953 344.757 301.075 347.476C307.095 350.438 313.731 352.285 320.739 352.795V346.032L319.55 342.995C319.157 341.997 318.233 339.852 316.949 337.506H316.938Z" fill="#B9975B"/>
<path d="M314.082 215.051C314.082 215.051 314.145 214.945 314.177 214.892C314.177 214.892 316.927 209.668 312.372 206.058C312.372 206.058 302.052 208.214 301.797 194.549C301.797 194.549 302.052 193.105 300.608 190.227C300.608 190.227 303.252 187.817 309.006 192.138C314.761 196.449 317.893 208.691 321.015 205.814C324.094 202.958 322.99 187.01 324.593 186.415C326.175 187.01 325.092 202.958 328.171 205.814C331.304 208.691 334.404 196.449 340.18 192.138C345.924 187.817 348.568 190.227 348.568 190.227C347.135 193.105 347.368 194.549 347.368 194.549C347.135 208.224 336.814 206.058 336.814 206.058C332.259 209.668 335.03 214.86 335.03 214.86C335.052 214.913 335.094 214.977 335.137 215.03C341.645 208.044 346.721 205.251 349.524 206.366C349.545 206.313 349.566 206.26 349.587 206.207C349.842 205.856 352.571 201.811 352.571 192.085C352.571 182.359 348.441 173.642 343.981 168.726C343.981 168.726 343.843 171.614 338.991 168.376C334.797 165.499 329.87 163.832 324.583 163.832C319.295 163.832 314.337 165.52 310.143 168.397C305.45 171.582 305.227 168.726 305.227 168.726C300.788 173.642 296.647 181.935 296.647 192.085C296.647 200.516 298.707 204.678 299.429 205.856C299.504 206.037 299.567 206.207 299.642 206.377C302.445 205.209 307.531 207.991 314.092 215.03" fill="white"/>
<path d="M309.261 201.429C308.38 201.185 307.871 200.282 308.115 199.412C308.21 199.061 308.423 198.785 308.699 198.594C308.115 197.946 307.435 197.277 306.618 196.704C306.618 196.704 305.163 203.425 311.173 202.703C311.173 202.703 310.971 202.109 310.514 201.248C310.143 201.461 309.697 201.546 309.261 201.429Z" fill="#CE0E2D"/>
<path d="M342.58 196.704C341.773 197.277 341.093 197.946 340.498 198.594C340.764 198.796 340.976 199.072 341.093 199.412C341.337 200.282 340.806 201.185 339.936 201.429C339.49 201.546 339.044 201.471 338.672 201.259C338.226 202.109 338.035 202.703 338.035 202.703C344.034 203.425 342.58 196.704 342.58 196.704Z" fill="#CE0E2D"/>
<path d="M316.258 280.18C311.831 256.928 308.348 239.738 305.535 227.262C303.39 217.727 309.113 221.539 312.202 227.506L316.258 280.191V280.18Z" fill="#CE0E2D"/>
<path d="M332.96 280.18C337.388 256.928 340.871 239.738 343.684 227.262C345.829 217.727 340.106 221.539 337.016 227.506L332.96 280.191V280.18Z" fill="#CE0E2D"/>
<path d="M327.418 288.802C329.329 252.882 332.185 227.442 332.185 224.268C332.185 223.142 332.058 221.688 331.59 220.084L329.499 226.912L328.862 214.839C327.811 213.491 326.377 212.132 324.583 210.826H324.466C322.672 212.121 321.397 213.48 320.346 214.829L319.72 226.901L317.618 220.063C317.15 221.677 317.023 223.121 317.023 224.257C317.023 227.432 319.869 252.872 321.78 288.792C323.68 324.711 319.231 331.379 319.231 331.379C321.812 335.117 324.593 341.753 324.593 341.753C324.593 341.753 327.386 335.117 329.966 331.379C329.966 331.379 325.517 324.711 327.407 288.792" fill="#CE0E2D"/>
<path d="M370.186 305.355C373.318 300.503 375.707 295.12 377.151 289.333C375.336 279.873 371.036 271.304 364.952 264.307C366.3 271.782 365.1 279.013 362.924 285.946C362.924 285.967 362.902 285.988 362.902 286.02C366.693 291.722 369.209 298.316 370.144 305.419C370.154 305.398 370.175 305.376 370.186 305.355Z" fill="white"/>
<path d="M286.284 285.946C284.108 279.013 282.897 271.782 284.257 264.307C278.183 271.283 273.883 279.841 272.067 289.28C273.522 295.173 275.9 300.62 279.011 305.493C279.022 305.514 279.033 305.525 279.043 305.546C279.956 298.39 282.494 291.743 286.306 286.01C286.306 285.988 286.295 285.967 286.284 285.946Z" fill="white"/>
<path d="M356.956 278.694C358.761 270.37 358.092 262.194 352.062 253.488C349.577 252.001 346.923 250.78 344.204 249.708C342.93 255.696 341.624 261.961 340.34 268.183C340.34 268.215 340.329 268.236 340.318 268.268C346.604 270.561 352.274 274.139 356.935 278.758C356.935 278.737 356.946 278.716 356.956 278.694Z" fill="white"/>
<path d="M308.922 268.161C307.626 261.95 306.31 255.675 305.036 249.697C302.307 250.78 299.642 251.991 297.147 253.488C291.116 262.194 290.436 270.381 292.252 278.694C292.252 278.715 292.262 278.737 292.273 278.758C296.955 274.129 302.636 270.54 308.943 268.246C308.943 268.215 308.932 268.193 308.922 268.161Z" fill="white"/>
<path d="M377.279 308.806C375.187 312.204 372.745 315.336 370.069 318.235C370.048 318.256 370.027 318.277 370.006 318.298C369.007 324.934 366.629 331.103 363.104 336.497C363.146 336.455 363.2 336.412 363.242 336.37C370.377 328.905 375.389 319.403 377.268 308.806H377.279Z" fill="white"/>
<path d="M279.139 318.224C276.463 315.325 274.011 312.204 271.919 308.806C273.809 319.392 278.831 328.905 285.966 336.37C286.009 336.412 286.051 336.444 286.083 336.487C282.569 331.093 280.18 324.913 279.192 318.277C279.181 318.256 279.16 318.245 279.139 318.224Z" fill="white"/>
<path d="M348.951 324.446C357.53 320.082 364.888 313.51 370.144 305.408C369.209 298.305 366.693 291.711 362.902 286.01C361.235 291.308 359.016 296.447 356.85 301.374C353.378 309.241 350.055 316.801 348.951 324.446Z" fill="#B9975B"/>
<path d="M300.29 324.626C299.217 316.918 295.862 309.305 292.369 301.374C290.192 296.447 287.984 291.308 286.306 286.01C282.494 291.743 279.957 298.39 279.043 305.546C284.289 313.743 291.636 320.316 300.29 324.637V324.626Z" fill="#B9975B"/>
<path d="M334.362 328.661L334.702 329.341C336.793 328.926 338.864 328.406 340.871 327.758C341.338 317.385 345.606 307.68 349.758 298.241C352.741 291.467 355.544 285.065 356.935 278.747C352.274 274.128 346.604 270.55 340.318 268.257C336.496 286.753 332.992 304.474 332.164 310.632C332.504 323.193 333.969 327.684 334.362 328.661Z" fill="#B9975B"/>
<path d="M308.349 327.865C310.355 328.491 312.404 329.001 314.496 329.394L314.857 328.672C315.25 327.663 316.758 323.002 317.044 309.974C316.057 303.232 312.649 286.105 308.932 268.257C302.626 270.55 296.934 274.139 292.263 278.768C293.643 285.086 296.446 291.488 299.44 298.262C303.613 307.733 307.903 317.47 308.338 327.875L308.349 327.865Z" fill="#B9975B"/>
<path d="M348.791 333.216C348.833 333.566 348.865 333.917 348.918 334.267C349.513 338.259 352.826 341.498 355.162 343.324C358.039 341.317 360.693 339.013 363.125 336.486C366.639 331.093 369.028 324.924 370.026 318.288C364.102 324.679 356.903 329.797 348.802 333.205L348.791 333.216Z" fill="#B9975B"/>
<path d="M300.311 334.278C300.364 333.927 300.396 333.566 300.438 333.216C292.326 329.808 285.128 324.679 279.192 318.277C280.19 324.924 282.569 331.092 286.083 336.486C288.515 339.013 291.18 341.317 294.068 343.335C296.393 341.519 299.706 338.291 300.3 334.278H300.311Z" fill="#B9975B"/>
</g>
<defs>
<clipPath id="clip0_29_3894">
<rect width="611.58" height="386.209" fill="white" transform="translate(18.814 130.896)"/>
</clipPath>
</defs>
</svg>
