<svg width="649" height="648" viewBox="0 0 649 648" fill="none" xmlns="http://www.w3.org/2000/svg">
<path d="M323.264 557.2L285.094 507.62C236.524 491.6 202.724 447.7 199.594 396.64L175.914 365.89C153.394 375.6 130.844 390.97 130.844 390.97L59.8241 319.68L89.7541 254.06L36.2241 184.54H121.384L137.864 148.63L180.034 131.61L184.714 118.89L218.884 134.5L227.014 106.1L232.594 104.24C259.634 95.2302 290.774 90.3902 322.664 90.2002C323.584 90.1402 333.714 90.3202 333.954 90.3202C335.144 90.3202 340.114 90.5902 340.114 90.5902C367.094 91.8902 392.434 96.3802 415.444 103.94L421.104 105.8L428.574 132.89L440.884 123.59L509.954 148.15L526.624 184.53H612.214L558.114 254.33L587.604 319.04L515.474 393.31C515.474 393.31 489.024 374.02 470.894 366.84L449.154 394.87C446.674 447.16 411.104 493 361.104 508.4L323.264 557.2Z" fill="white"/>
<path d="M323.334 522.841L569.394 205.571L78.894 205.561L323.334 522.841Z" fill="#9EA2A2"/>
<path d="M58.6741 195.61L323.304 539.1L589.704 195.62L58.6741 195.61ZM569.394 205.57L323.334 522.84L78.8941 205.56L569.394 205.57Z" fill="#1D428A"/>
<path d="M533.874 227.64L533.784 227.43L533.584 227.31L517.844 216.73L523.704 205.52L523.884 205.18L523.724 204.83L502.054 157.34L501.914 157.04L501.604 156.93L443.194 136.13L442.794 135.99L442.454 136.25L426.964 148.07L426.794 148.2L426.714 148.4L424.064 154.9C424.064 154.9 399.844 148.82 364.274 145.26C360.654 144.9 350.974 144.1 335.524 142.88L334.024 142.76L332.474 142.64L332.114 142.61L331.864 142.86L320.314 154.36L320.334 142.56C320.334 142.56 287.584 144.4 266.144 147.32C244.704 150.24 223.614 155.55 223.614 155.55L219.734 147.24L219.614 146.98L219.354 146.86L191.794 134.24L191.014 133.89L190.724 134.69L187.514 143.42L186.784 141.67L186.484 140.95L185.764 141.24L146.314 157.06L146.024 157.18L145.894 157.47L73.0942 317.34L132.834 377.18L135.624 375.6C137.414 374.57 139.964 373.07 142.844 371.37C150.064 367.11 159.964 361.29 164.704 359L165.664 358.54C171.784 355.58 174.854 354.09 203.894 341.66L206.324 340.75C206.364 340.75 209.594 339.48 215.564 337.5C231.514 332.2 272.934 319.87 313.094 319.87H313.544C315.144 319.87 316.744 319.9 318.354 319.94C345.614 320.69 377.494 326.49 399.434 331.21C420.534 335.76 436.424 340.14 440.934 341.41L443.964 342.34C463.944 350.05 488.364 362.8 510.984 377.29L513.854 379.14L574.334 316.86L533.874 227.64Z" fill="#1D428A"/>
<path d="M527.374 233.18L469.254 194.38L459.154 166L477.144 172.4L484.424 190.14L511.784 198.91L495.814 163.63L444.184 145.29L434.704 152.63L451.874 208.41L507.134 247.47L521.304 282.78L498.324 272.41L490.434 250.44L462.234 242.13L477.304 291.79C481.954 293.5 486.574 295.26 491.144 297.12C503.694 302.2 515.984 307.82 527.994 313.97C536.314 318.23 544.504 322.75 552.544 327.5L564.554 315.17L527.374 233.18Z" fill="#F58426"/>
<path d="M135.414 259.48L154.774 242.18L159.394 247.57L140.274 302.56C150.734 297.95 161.374 293.74 172.184 289.91L186.044 244.57L174.084 224.82L198.854 201.28L213.334 153.05L195.544 145.06L179.564 190.52L153.944 212.58L177.294 153.64L152.194 163.65L83.0142 315.41L93.8342 326.27C100.254 322.53 106.764 318.94 113.354 315.5L135.414 259.48Z" fill="#F58426"/>
<path d="M310.714 151.26L289.494 152.37L279.534 266.21C288.544 265.35 297.634 264.77 306.774 264.46L310.714 151.26Z" fill="#F58426"/>
<path d="M373.654 242.59L349.014 241.12L345.054 171.4L365.924 172.42L363.484 153.21L335.434 151.21L322.864 163.74L322.834 250.93L336.014 264.42C349.614 264.84 363.084 265.85 376.374 267.46L373.654 242.59Z" fill="#F58426"/>
<path d="M234.074 196.2L242.964 239.48L237.214 272.28C245.814 270.63 254.494 269.2 263.254 268.05L263.304 268.04L277.014 153.88L257.314 156.75L250.844 194.12L243.524 158.94L220.364 164.74L188.134 284.58C197.424 281.68 206.824 279.08 216.334 276.77L234.074 196.2Z" fill="#F58426"/>
<path d="M405.274 236.29L412.204 226.93L422.324 235.27L431.644 277.71C441.424 280.17 451.084 282.94 460.624 286.03L443.244 223.77L425.324 209.11L435.534 195.5L427.044 163.9L405.404 159.08L413.914 190.9L400.444 208.91L390.494 156.58L370.454 154.04C370.454 154.04 380.504 230.79 385.244 268.61C394.324 269.89 403.314 271.46 412.224 273.28L405.274 236.29Z" fill="#F58426"/>
<path d="M282.634 287.84C282.634 287.84 290.984 282.95 307.684 281.1L307.144 267.95C297.984 268.25 288.894 268.83 279.864 269.69C280.654 274.82 281.824 282.49 282.634 287.84Z" fill="#9EA2A2"/>
<path d="M335.704 280.3C342.494 281.1 349.754 283.32 356.134 285.12C361.904 286.51 368.124 288.98 373.214 291.24L376.014 270.99C362.594 269.34 349.904 268.33 336.164 267.91C335.964 271.85 335.964 277.39 335.704 280.3Z" fill="#9EA2A2"/>
<path d="M247.834 312.39C255.604 306.61 260.284 300.66 268.464 295.68C266.914 288.32 264.844 278.8 263.334 271.53C254.434 272.71 245.614 274.17 236.874 275.87C240.224 286.77 244.494 301.39 247.834 312.39Z" fill="#9EA2A2"/>
<path d="M379.984 295.32C387.564 299.71 393.474 304.67 400.244 311.26L401.594 312.28L412.274 276.94C403.074 275.04 394.134 273.38 384.744 272.06L379.984 295.32Z" fill="#9EA2A2"/>
<path d="M413.684 326.03L439.144 332.02L460.564 289.66C450.694 286.44 441.164 283.79 431.034 281.25L413.684 326.03Z" fill="#9EA2A2"/>
<path d="M208.874 332.02C215.524 329.57 224.794 326.22 233.464 323.91L216.934 280.21C206.944 282.63 198.234 285.17 188.494 288.25C194.654 302.88 201.544 317.97 208.874 332.02Z" fill="#9EA2A2"/>
<path d="M170.464 347.75C171.934 346.49 186.384 340.25 196.284 336.06C188.764 322.45 179.724 307.44 172.194 293.6C161.414 297.45 151.594 301.43 141.174 306.07L170.464 347.75Z" fill="#9EA2A2"/>
<path d="M134.414 366.88C139.014 364.11 143.884 361.29 149.254 358.18L115.474 318.33C109.054 321.66 102.714 325.15 96.4641 328.78L134.414 366.88Z" fill="#9EA2A2"/>
<path d="M452.624 337.26C472.894 345.13 501.254 361.02 512.534 368.6C517.734 363.63 545.954 334 549.824 329.94C526.364 316.18 501.724 304.47 476.094 295.06L452.624 337.26Z" fill="#9EA2A2"/>
<path d="M331.804 279.64L322.124 279.3L321.954 255.77L332.024 266.22L331.804 279.64Z" fill="#9EA2A2"/>
<path d="M324.334 274.98C261.404 274.98 210.384 326 210.384 388.94C210.384 451.86 261.404 502.88 324.334 502.88C387.264 502.88 438.284 451.87 438.284 388.94C438.284 326 387.264 274.98 324.334 274.98Z" fill="#1D428A"/>
<path d="M331.334 283.511C322.594 286.561 314.164 291.001 305.824 294.871C300.124 291.461 296.874 290.601 293.024 288.121C305.014 283.761 317.914 283.101 331.334 283.511Z" fill="#F58426"/>
<path d="M412.974 331.891C386.124 304.841 345.844 306.79 311.684 297.22C311.684 297.22 331.794 287.65 342.164 285C370.084 289.75 397.104 306.461 412.974 331.891Z" fill="#F58426"/>
<path d="M262.044 335.95C236.254 375.52 232.764 424.27 253.304 466.99C226.764 444.7 210.944 401.53 222.854 359.6C232.604 345.98 245.154 333.93 262.044 335.95Z" fill="#F58426"/>
<path d="M289.654 364.131C303.554 405.461 306.634 451.221 342.624 492.841C314.564 498.531 286.764 490.121 264.594 476.081C237.134 436.011 239.724 376.241 267.174 337.391C280.554 341.241 287.834 358.731 289.654 364.131Z" fill="#F58426"/>
<path d="M270.364 333.02C274.534 327.14 279.244 321.57 284.544 316.4C342.914 332.87 398.584 393.4 408.104 452.89C405.324 457.38 398.654 463.64 394.184 468.12C379.674 481.16 363.684 487.92 348.344 491.58C321.084 463.31 312.114 426.59 302.484 390.4C295.094 362.63 289.964 341.67 270.384 333.18L270.364 333.02Z" fill="#F58426"/>
<path d="M406.754 332.76C378.564 307.89 339.284 311.07 306.334 299.48C299.964 303.38 293.744 307.99 288.424 312.76C346.794 331.07 399.764 388.14 412.384 447.13C421.544 433.91 427.064 418.55 429.294 402.27C430.714 377.25 430.474 354.49 406.754 332.76Z" fill="#F58426"/>
<path d="M279.724 314.561C274.094 319.981 269.874 325.311 265.474 331.521L265.344 331.481C249.884 328.021 237.704 336.011 227.904 345.971C232.584 334.171 242.364 320.181 252.744 311.031C262.304 311.451 269.254 311.301 279.724 314.561Z" fill="#F58426"/>
<path d="M283.864 310.941C289.384 306.031 294.734 301.731 301.384 297.741L286.414 290.321C276.454 294.391 265.784 299.701 258.464 306.401C269.764 307.731 274.614 308.421 283.864 310.941Z" fill="#F58426"/>
<path d="M308.194 135.29L303.584 139.88L295.684 140.35L292.744 137.79L289.034 140.94L280.434 141.75L276.654 138.15L281.614 104.48L288.124 103.59L284.614 133.32L289.274 132.8L292.904 103.01L299.334 102.39L296.654 131.97L301.224 131.55L303.564 102.11C306.304 101.82 307.714 101.84 310.114 101.71L308.194 135.29Z" fill="#1D428A"/>
<path d="M329.304 101.25L329.364 122.44L333.524 122.41L333.274 101.34C333.274 101.34 337.634 101.48 339.604 101.64L340.444 125.41L336.434 129.41L335.124 129.47L335.314 139.64L328.244 139.43L328.164 129.26L326.744 129.15L322.464 124.78L322.734 101.15C325.014 101.14 329.304 101.25 329.304 101.25Z" fill="#1D428A"/>
<path d="M276.874 105.18L275.774 112.14L267.904 113.62L266.474 121.75C269.354 121.23 271.124 120.95 274.554 120.49C274.074 123.52 273.934 124.56 273.404 127.42L265.504 128.55L264.014 136.34L272.114 135.16C272.114 135.16 271.304 140.4 270.904 142.75C265.234 143.45 259.534 144.26 254.094 145.21C254.094 145.21 260.184 116.97 261.694 108.26L276.874 105.18Z" fill="#1D428A"/>
<path d="M247.204 146.47L238.994 148.08L242.754 132.68L240.204 127.16L233.754 149.32L225.734 151.15C229.064 139.15 232.484 127.16 235.824 115.15C238.584 114.23 240.634 113.6 243.064 112.87C243.964 114.89 246.114 118.97 246.114 118.97L248.064 111.45C248.064 111.45 253.154 110.11 255.704 109.53L247.204 146.47Z" fill="#1D428A"/>
<path d="M362.614 107.77C363.434 117.42 365.024 126.65 365.994 135.65L362.404 141.13L350.804 140.36L346.624 135.8C345.874 125.97 345.374 116.04 344.764 106.15C345.824 104.75 347.454 103.65 348.744 102.27L358.404 103.21L362.614 107.77ZM351.804 109.41L353.864 132.4L357.934 132.72L355.774 109.85L351.804 109.41Z" fill="#1D428A"/>
<path d="M400.114 111.22C401.554 116.75 404.384 128.12 404.384 128.12L407.134 128.68L408.464 126.85L405.034 112.7C405.034 112.7 408.434 113.65 412.084 114.76L415.724 128.47L414.014 130.94L417.204 134.44L422.014 151.13L414.084 149.35L410.964 137.64L406.024 136.53L408.724 148.18L400.674 146.6C397.864 134.05 392.794 109.33 392.794 109.33C392.794 109.33 396.894 110.19 400.114 111.22Z" fill="#1D428A"/>
<path d="M387.564 112.57L390.214 126.33L388.684 128.45L391.384 131.68L393.724 145.34L385.994 144L383.884 132.61L379.244 132.09L380.884 143.19L373.174 142.23L368.044 104.45L382.784 107.05L387.564 112.57ZM376.404 113.05L377.784 122.63L382.144 123.12L380.304 113.75L376.404 113.05Z" fill="#1D428A"/>
</svg>
