<svg width="649" height="649" viewBox="0 0 649 649" fill="none" xmlns="http://www.w3.org/2000/svg">
<path fill-rule="evenodd" clip-rule="evenodd" d="M573.713 134.71L547.133 189.23L563.533 197.23L590.123 142.71L573.713 134.71ZM488.143 268.53L565.323 110.31L598.093 126.31C607.193 130.74 610.923 141.62 606.503 150.7L578.073 209.01C574.383 216.54 568.013 219.75 560.833 216.24L541.323 294.48L524.913 286.48L544.453 208.22L539.123 205.62L504.533 276.54L488.143 268.53ZM534.233 97.84L499.623 86.59C490.033 83.48 479.803 88.69 476.683 98.27L433.673 230.63C430.553 240.22 435.773 250.45 445.353 253.56L479.963 264.8L485.583 247.5L450.973 236.24L469.673 178.71L495.643 187.15L501.253 169.85L475.313 161.41L493.983 103.88L528.613 115.12L534.233 97.84ZM406.223 83.72L424.203 86.57L402.433 224.03L384.453 221.17L406.223 83.72ZM363.633 236.31L399.583 242C409.543 243.58 418.813 236.83 420.403 226.87L442.173 89.42C443.743 79.45 437.003 70.17 427.043 68.59L391.103 62.91L363.633 236.31ZM295.693 235L313.893 235.31L314.773 184.43C315.043 168.94 314.113 137.69 313.383 122.92L313.873 122.93C318.593 162.12 327.293 198.66 333.053 235.65L350.253 235.96L353.333 60.42L335.143 60.11L334.253 110.99C333.993 126.48 334.913 157.74 335.633 172.5L335.153 172.49C330.423 133.31 321.713 96.76 315.973 59.78L298.763 59.46L295.693 235ZM257.363 62.82L239.383 65.66L264.003 221.09L246.023 223.94L221.413 68.51L203.433 71.36L226.863 219.26C229.213 234.07 243.283 244.29 258.093 241.94C272.903 239.6 283.123 225.53 280.793 210.71L257.363 62.82ZM165.933 264.43L183.233 258.8L158.913 183.97L176.213 178.35L200.533 253.19L217.843 247.57L163.593 80.58L146.293 86.21L170.603 161.04L153.303 166.67L128.983 91.83L111.683 97.46L165.933 264.43ZM129.643 282.2L145.993 274.21L76.9932 132.77L93.3532 124.81L85.3832 108.44L36.3232 132.37L44.2932 148.72L60.6632 140.75L129.643 282.2Z" fill="#002D62"/>
<path d="M494.473 377.4C534.753 368.45 574.233 362.49 612.323 359.45C570.093 372.39 527.073 386.76 483.483 402.51C487.383 394.4 491.023 386.03 494.473 377.4ZM68.5635 590.24C102.273 560.45 140.253 532.11 181.873 506.03C189.703 502.06 197.533 498.13 205.393 494.24C208.643 492.64 214.993 489.56 222.973 485.73C228.323 491.75 233.893 497.61 239.643 503.3C179.873 531.17 122.673 560.28 68.5635 590.24Z" fill="#007DC3"/>
<path d="M511.173 327.73C545.983 326.26 579.823 326.83 612.323 329.37C577.323 334.33 541.653 340.09 505.483 346.67C507.463 340.48 509.353 334.17 511.173 327.73ZM39.123 472.27C78.223 447.41 121.543 424.77 168.313 405.1C169.863 408.24 171.483 411.35 173.113 414.42C170.593 419.56 168.093 424.7 165.613 429.86C122.143 443.28 79.923 457.44 39.123 472.27Z" fill="#EF3B24"/>
<path d="M290.213 453.88L295.903 451.24L310.503 439.49L313.763 430.51C315.873 434.79 317.023 436.46 319.113 440.77L323.913 438.65C324.083 443.28 324.163 447.78 324.163 452.08C313.613 454.49 302.223 455.78 290.463 455.97L290.213 453.88ZM332.203 434.97C338.263 432.29 344.323 429.66 350.363 427L353.203 424.04C354.403 424.24 355.773 424.28 357.313 424.12C359.663 423.73 362.553 422.91 365.693 421.83C363.653 429.27 362.423 435.69 361.853 441.28C353.223 444.34 343.553 447.2 332.543 449.98C332.533 445.18 332.413 440.16 332.203 434.97ZM325.743 272.06C391.663 272.06 443.353 287.49 501.713 316.57C473.153 424.19 420.903 496.47 325.753 555.2C290.003 533.09 259.613 508.43 234.223 480.35C245.513 474.98 258.253 468.93 269.443 463.64C273.973 464.06 278.303 464.29 282.353 464.38C282.103 470.59 280.153 475.14 277.023 478.39C278.843 480.48 280.693 482.55 282.553 484.6C287.483 480.19 290.653 473.67 290.913 464.42C302.483 464.23 313.663 463.05 324.033 460.84C323.453 477.8 321.083 490.28 316.263 495.23C316.093 495.39 315.993 495.51 315.923 495.67C314.713 496.95 313.633 498 312.703 498.83C317.363 497.97 321.943 496.89 326.473 495.62C332.293 483.57 332.373 462.47 332.463 458.81C343.263 456.1 352.873 453.36 361.523 450.41C361.863 460.31 365.823 469.78 373.383 473.27C376.793 470.87 380.103 468.32 383.293 465.67C381.373 465.95 369.393 466.78 369.583 447.53C394.913 437.98 411.393 426.47 425.903 409.29C429.733 400.63 432.823 391.56 435.023 382.16C417.663 409.54 401.673 425.53 370.453 438.06C371.343 432.55 372.953 425.93 375.523 418.03C384.633 414.21 394.133 409.67 399.853 407.3L413.503 392.96C416.933 379.71 420.353 366.45 423.753 353.2L413.073 356.53L425.633 343.34C428.253 332.96 430.853 322.58 433.433 312.2C427.143 313.12 420.843 314.06 414.563 315.03C415.613 309.85 416.363 304.71 416.763 299.57C413.743 298.8 410.693 298.07 407.643 297.39C407.003 303.15 405.873 309.54 404.163 316.67L403.293 316.81C397.393 317.8 391.363 319.74 386.103 324.16L387.783 319.06C377.673 320.89 367.583 322.75 357.493 324.7L347.453 335.26L347.783 334.41L351.043 325.96C341.063 328 331.103 330.11 321.153 332.28C319.073 318.83 316.993 306.67 315.183 296.83C312.363 297.16 309.543 297.54 306.733 297.96C308.553 307.91 310.683 320.36 312.793 334.13L305.743 335.71L296.763 345.16C290.483 338.51 277.733 342.71 269.693 344.73C260.983 346.94 252.273 349.21 243.593 351.56C240.993 352.27 238.413 353.06 235.873 353.93C229.353 344.53 223.233 334.85 218.173 324.41L217.263 322.48C214.623 323.55 212.013 324.66 209.413 325.81L210.523 328.12C215.443 338.32 221.373 347.86 227.773 357.11C218.393 361.28 209.733 367.07 202.233 375.34C202.233 375.34 190.033 388.11 188.603 389.68C185.433 393.32 182.703 397.19 180.293 401.14C167.483 375.36 157.333 347.32 149.713 316.59C208.083 287.5 259.793 272.05 325.743 272.06Z" fill="white"/>
<path d="M290.213 453.88L295.903 451.24L310.503 439.49L313.763 430.51C315.873 434.79 317.023 436.46 319.113 440.77L323.913 438.65C324.083 443.28 324.163 447.78 324.163 452.08C313.613 454.49 302.223 455.78 290.463 455.97L290.213 453.88ZM332.203 434.97C338.263 432.29 344.323 429.66 350.363 427L353.203 424.04C354.403 424.24 355.773 424.28 357.313 424.12C359.663 423.73 362.553 422.91 365.693 421.83C363.653 429.27 362.423 435.69 361.853 441.28C353.223 444.34 343.553 447.2 332.543 449.98C332.533 445.18 332.413 440.16 332.203 434.97ZM217.263 322.48C246.323 310.58 276.053 302.38 306.733 297.96C308.553 307.91 310.683 320.36 312.793 334.13L305.743 335.71L296.763 345.16C290.483 338.51 277.733 342.71 269.693 344.73C260.983 346.94 252.273 349.21 243.593 351.56C240.993 352.27 238.413 353.06 235.873 353.93C229.353 344.53 223.233 334.85 218.173 324.41L217.263 322.48ZM210.013 367.94C205.293 355.98 201.113 343.71 197.543 331.18C201.473 329.32 205.433 327.53 209.413 325.82L210.523 328.13C215.443 338.33 221.373 347.87 227.773 357.12C221.483 359.9 215.523 363.43 210.013 367.94ZM277.023 478.39C273.283 474.09 269.623 469.71 266.073 465.23L269.443 463.64C273.973 464.06 278.303 464.29 282.353 464.38C282.103 470.59 280.153 475.14 277.023 478.39ZM312.703 498.82C307.953 499.7 303.113 500.36 298.223 500.8C292.823 495.55 287.593 490.14 282.553 484.6C287.483 480.19 290.653 473.67 290.913 464.42C302.483 464.23 313.663 463.05 324.033 460.84C323.453 477.8 321.083 490.28 316.263 495.23C316.093 495.39 315.993 495.51 315.923 495.67C314.703 496.95 313.633 498 312.703 498.82ZM373.383 473.26C359.283 483.19 343.473 490.82 326.473 495.62C332.293 483.57 332.373 462.47 332.463 458.81C343.263 456.1 352.873 453.36 361.523 450.41C361.853 460.31 365.813 469.77 373.383 473.26ZM425.893 409.28C416.173 431.24 401.503 450.48 383.293 465.66C381.373 465.94 369.393 466.77 369.583 447.52C394.903 437.97 411.383 426.47 425.893 409.28ZM361.263 294.09C375.193 294.09 388.933 294.82 402.493 296.28C412.803 298.44 423.013 301.05 433.143 304.11C437.003 317.64 439.093 331.92 439.093 346.69C439.093 358.89 437.693 370.76 435.013 382.15C417.653 409.53 401.663 425.52 370.443 438.05C371.333 432.54 372.943 425.92 375.513 418.02C384.623 414.2 394.123 409.66 399.843 407.29L413.493 392.95C416.923 379.7 420.343 366.44 423.743 353.19L413.063 356.52L425.623 343.33C428.243 332.95 430.843 322.57 433.423 312.19C427.133 313.11 420.833 314.05 414.553 315.02C415.603 309.84 416.353 304.7 416.753 299.56C413.733 298.79 410.683 298.06 407.633 297.38C406.993 303.14 405.863 309.53 404.153 316.66L403.283 316.8C397.383 317.79 391.353 319.73 386.093 324.15L387.773 319.05C377.663 320.88 367.573 322.74 357.483 324.69L347.443 335.25L347.773 334.4L351.033 325.95C341.053 327.99 331.093 330.1 321.143 332.27C319.063 318.82 316.983 306.66 315.173 296.82C330.293 295 345.643 294.09 361.263 294.09Z" fill="#EF3B24"/>
<path d="M196.623 381.23C188.423 363.32 181.533 344.69 176.043 325.41C224.893 302.36 275.463 289.92 329.153 288.47C354.253 288.69 378.643 291.31 402.493 296.28C388.933 294.82 375.193 294.09 361.263 294.09C345.643 294.09 330.293 295.01 315.183 296.83C312.363 297.16 309.533 297.54 306.733 297.96C276.043 302.38 246.323 310.58 217.263 322.48C214.623 323.55 212.013 324.66 209.413 325.81C205.433 327.53 201.473 329.31 197.543 331.17C201.123 343.71 205.293 355.97 210.013 367.93C207.303 370.14 204.703 372.61 202.233 375.34L196.623 381.23ZM328.603 537.31C300.593 518.34 275.623 496 254.043 470.93L266.073 465.23C269.623 469.71 273.293 474.09 277.023 478.39C278.843 480.48 280.693 482.55 282.553 484.6C298.543 502.15 316.243 518.24 335.533 532.67C333.243 534.24 330.933 535.78 328.603 537.31Z" fill="#FDBB30"/>
<path d="M290.213 453.88L290.473 455.97C302.233 455.79 313.613 454.49 324.173 452.08C324.173 447.78 324.093 443.28 323.923 438.65L319.123 440.77C317.023 436.46 315.873 434.79 313.773 430.51L310.513 439.49L295.913 451.24L290.213 453.88ZM332.203 434.97C332.413 440.16 332.533 445.19 332.543 449.99C343.553 447.21 353.233 444.34 361.853 441.29C362.423 435.7 363.643 429.28 365.693 421.84C362.553 422.93 359.663 423.74 357.313 424.13C355.763 424.29 354.393 424.24 353.203 424.05L350.363 427.01C344.323 429.65 338.263 432.29 332.203 434.97ZM325.743 272.06C259.793 272.05 208.083 287.5 149.713 316.59C157.333 347.3 167.483 375.38 180.293 401.14C182.703 397.19 185.433 393.32 188.603 389.68C190.033 388.11 202.233 375.34 202.233 375.34C209.733 367.07 218.403 361.28 227.773 357.11C221.383 347.86 215.453 338.32 210.523 328.12L209.413 325.81C212.013 324.66 214.633 323.56 217.263 322.48L218.173 324.41C223.223 334.85 229.343 344.53 235.873 353.93C238.403 353.06 240.993 352.27 243.593 351.56C252.273 349.2 260.993 346.94 269.693 344.73C277.733 342.71 290.483 338.52 296.763 345.16L305.743 335.71L312.793 334.13C310.683 320.36 308.553 307.91 306.733 297.96C309.543 297.54 312.363 297.17 315.183 296.83C317.003 306.67 319.073 318.83 321.153 332.28C331.113 330.11 341.073 328 351.043 325.96L347.783 334.41L347.453 335.26L357.493 324.7C367.583 322.75 377.673 320.89 387.783 319.06L386.103 324.16C391.363 319.73 397.393 317.8 403.293 316.81L404.163 316.67C405.873 309.54 407.003 303.15 407.643 297.39C410.693 298.07 413.743 298.8 416.763 299.57C416.363 304.7 415.613 309.84 414.563 315.03C420.853 314.05 427.153 313.11 433.433 312.2C430.853 322.58 428.253 332.96 425.633 343.34L413.073 356.53L423.753 353.2C420.343 366.45 416.933 379.71 413.503 392.96L399.853 407.3C394.123 409.66 384.623 414.21 375.523 418.03C372.963 425.93 371.353 432.55 370.453 438.06C401.673 425.53 417.663 409.54 435.023 382.16C432.823 391.56 429.733 400.63 425.903 409.29C411.393 426.47 394.913 437.98 369.583 447.53C369.403 466.78 381.383 465.95 383.293 465.67C380.103 468.32 376.783 470.87 373.383 473.27C365.823 469.78 361.863 460.32 361.523 450.41C352.873 453.36 343.263 456.1 332.463 458.81C332.373 462.47 332.293 483.58 326.473 495.62C321.943 496.89 317.363 497.97 312.703 498.83C313.633 498.01 314.703 496.96 315.923 495.67C315.993 495.51 316.093 495.39 316.263 495.23C321.083 490.28 323.453 477.8 324.033 460.84C313.663 463.05 302.483 464.23 290.913 464.42C290.653 473.68 287.483 480.19 282.553 484.6C280.693 482.56 278.843 480.48 277.023 478.39C280.153 475.14 282.103 470.59 282.353 464.38C278.313 464.29 273.983 464.06 269.443 463.64C258.253 468.93 245.513 474.98 234.223 480.35C259.613 508.44 290.013 533.1 325.753 555.2C420.903 496.47 473.153 424.18 501.713 316.57C443.363 287.49 391.673 272.06 325.743 272.06ZM135.663 310.18C198.803 277.68 254.203 259.99 325.743 259.99C397.283 259.99 452.693 277.68 515.793 310.18C486.483 428.33 430.493 506.56 325.743 569.36C286.223 545.68 251.683 517.94 222.963 485.73C214.983 489.56 208.633 492.64 205.383 494.24C195.493 499.15 185.613 504.1 175.763 509.12C164.663 514.77 152.343 523.35 139.543 520.02C125.563 513.95 134.783 496.95 139.063 487.27C149.923 462.79 161.273 438.48 173.103 414.42C158.893 387.74 147.723 358.76 139.903 327.29L135.663 310.18Z" fill="#002D62"/>
<path fill-rule="evenodd" clip-rule="evenodd" d="M403.853 321.87C397.793 322.88 392.323 324.82 387.803 329.36C384.103 333.35 382.133 338.11 380.493 343.17C375.673 358.31 370.813 373.46 365.983 388.62C364.083 394.6 360.993 405.51 370.593 404.7C373.853 404.16 376.953 402.81 380.013 401.5C389.713 397.36 399.453 393.28 409.203 389.25C411.693 379.74 414.153 370.22 416.603 360.68C411.473 362.28 406.363 363.91 401.233 365.56C400.023 369.84 398.833 374.16 397.643 378.44C394.083 379.75 390.533 381.04 386.973 382.36C391.473 366.99 395.973 351.63 400.443 336.25C403.593 335.57 406.753 334.9 409.903 334.24C409.153 336.94 408.423 339.64 407.673 342.33C412.273 341.23 416.873 340.13 421.473 339.08C423.233 332.16 424.973 325.22 426.703 318.3C419.093 319.44 411.463 320.63 403.853 321.87ZM360.223 329.34C349.343 343.54 338.613 357.86 328.003 372.27C332.973 359.08 337.973 345.91 343.033 332.78C331.773 335.09 320.533 337.54 309.313 340.09C306.403 346.87 303.503 353.67 300.643 360.47C303.053 359.8 305.493 359.12 307.903 358.46C299.073 379.83 290.463 401.28 282.023 422.77C278.553 431.51 275.113 440.26 271.683 449C282.953 443.68 294.213 438.41 305.523 433.21C310.643 419.08 315.803 404.96 321.033 390.88C325.833 400.49 330.583 410.11 335.313 419.78C342.593 416.52 349.903 413.32 357.203 410.14C352.753 399.99 348.233 389.87 343.683 379.75C351.773 367.48 359.923 355.25 368.173 343.06C370.493 342.51 372.803 341.96 375.123 341.43C376.863 336.14 378.603 330.86 380.333 325.57C373.633 326.78 366.923 328.03 360.223 329.34ZM225.923 447.11C218.073 450.61 210.253 454.13 202.423 457.74C213.773 431.44 225.533 405.32 237.823 379.4C244.693 377.23 251.593 375.09 258.513 372.97C247.273 397.53 236.423 422.25 225.923 447.11ZM244.683 356.51C229.843 360.54 216.593 366.9 205.983 378.62C199.903 385.59 195.553 393.59 191.503 401.78C179.623 425.9 168.253 450.24 157.363 474.8C154.523 481.21 145.793 496.78 155.083 500.82C165.363 503.49 178.223 494.85 187.303 490.22C197.163 485.21 207.053 480.25 216.953 475.33C233.833 466.97 248.963 456.81 259.223 440.48C263.313 433.58 266.353 426.2 269.353 418.82C275.793 402.96 282.363 387.11 289.053 371.31C291.563 365.39 295.943 357.93 294.543 351.47C291.723 342.79 277.063 348.09 270.693 349.68C262.023 351.89 253.343 354.16 244.683 356.51Z" fill="white"/>
<path d="M445.603 308.8C449.923 310.29 454.373 311.84 458.613 313.44C454.293 311.8 449.953 310.26 445.603 308.8ZM444.823 307.82C449.443 309.34 453.763 310.87 458.073 312.5C468.903 316.52 478.473 320.63 486.393 324.41C461.953 408.29 411.893 478.63 341.273 528.69L335.523 532.68C314.843 517.2 302.633 505.04 302.633 505.04L312.363 503.44C341.903 498.52 370.363 485.15 393.893 463.18C433.993 425.76 450.283 372.34 442.023 322C441.823 320.86 441.593 319.72 441.403 318.58L441.313 318.08L441.213 317.56L441.083 317L440.983 316.46L440.873 315.88L440.753 315.34L440.613 314.73L440.483 314.15L440.363 313.61L440.283 313.15L440.123 312.51L439.993 311.91L439.883 311.46L439.803 311.01L439.693 310.57C439.243 308.76 438.843 307.23 438.413 305.74C440.583 306.42 442.723 307.12 444.823 307.82Z" fill="#007DC3"/>
</svg>
