<svg width="649" height="649" viewBox="0 0 649 649" fill="none" xmlns="http://www.w3.org/2000/svg">
<path d="M268.094 407.5C299.034 402.75 329.934 404.15 356.974 415.56L360.274 408.31C316.514 394.23 261.524 394.95 220.554 417.38L232.224 390.26C180.734 404.18 146.094 433.22 111.264 463.13C136.654 403.15 191.864 353.83 254.294 335.93L251.114 345.88C305.784 328.04 365.794 324.66 414.384 332.68L403.004 317.88L430.884 324.98L448.804 298.2L455.894 331.32L483.314 340.21C483.314 340.21 463.344 348.57 464.304 348.96C568.114 391.72 534.884 533.8 436.174 534.55C386.244 534.97 347.504 489.85 349.194 442.65C323.814 425.96 298.344 417.92 268.094 407.5Z" fill="#C4CED3"/>
<path d="M204.953 216.26C204.923 205.12 208.183 195.02 214.923 187.59C221.633 180.14 231.363 175.91 242.403 174.92C263.523 172.96 284.993 171.76 306.233 171.34V171.35L321.913 171V351.26L321.663 366.78L306.033 366.51C303.293 366.5 282.453 367.24 278.593 367.51C278.363 367.52 278.303 367.53 278.133 367.55L261.243 369.06V368.75L250.683 369.23C249.253 369.28 224.103 371.83 222.883 372.06L205.003 374.88L204.953 216.26ZM248.583 218.01L248.613 217.62C248.813 214.44 250.533 210.38 253.713 208.04C256.833 205.69 260.113 205.06 263.253 204.83C263.263 204.83 266.073 204.65 269.083 204.46L278.003 203.89V260.27V268.1L270.193 268.64C265.513 268.96 262.633 269.18 257.483 269.5L248.573 270.06V218.01H248.583Z" fill="#C4CED3"/>
<path d="M591.893 408.73C591.873 408.71 570.943 402.33 567.783 401.33C567.583 401.27 567.563 401.27 567.403 401.22C567.383 401.22 567.373 401.21 567.353 401.21C557.913 398.51 549.413 396.15 543.173 394.47L531.903 391.68C521.263 389.09 512.273 383.96 506.133 376.23C499.973 368.51 497.033 358.61 497.053 347.77V230.59C496.993 219.08 500.493 208.6 508.793 202.11C514.103 197.88 520.833 195.91 527.723 195.95C531.423 195.95 535.203 196.47 538.963 197.39C540.363 197.72 544.473 198.88 550.953 200.69C557.303 202.48 565.483 204.79 573.573 207.08C589.753 211.66 605.563 216.17 605.563 216.17L611.653 217.9V297.52L560.613 281.81L559.803 276.63C559.803 276.61 558.354 267.38 557.004 258.8L557.013 347.49V347.69L557.004 347.9C557.014 347.93 557.013 347.97 557.023 348.01C557.053 348.2 557.133 348.43 557.233 348.62C557.313 348.64 557.004 348.75 558.634 349.28C558.634 349.28 561.953 350.14 564.143 350.74C565.503 344.7 566.913 338.52 566.913 338.52L568.903 329.77L611.643 342.59L611.793 414.71L591.893 408.73Z" fill="#C4CED3"/>
<path d="M35.8037 240.89C35.8037 231.85 40.0037 224.46 44.9037 219.38C49.8937 214.24 55.5337 210.97 60.7137 209.27C84.1637 201.78 117.304 196.6 118.954 196.32L127.904 194.92C131.624 192.8 135.734 191.21 140.114 190.3C151.654 187.89 186.544 181.31 188.134 181.02L206.314 177.63L206.264 360.92L205.974 374.57L192.444 376.15C191.304 376.22 165.904 380.53 164.734 380.86L145.834 385.11V355.5L93.1237 367.99V386.08L92.9437 398.03L81.4137 400.87C81.1937 400.92 77.3837 402.04 73.2937 403.29C69.1137 404.57 64.2337 406.08 60.7637 407.17C58.5237 407.87 56.6437 408.49 56.5737 408.53L35.8137 416.14V240.89H35.8037Z" fill="#C4CED3"/>
<path d="M479.104 380.29C479.104 380.29 479.034 380.27 478.804 380.23C478.554 380.18 478.214 380.12 477.794 380.04C476.974 379.89 475.864 379.69 474.594 379.47C472.034 379.02 468.794 378.48 465.544 377.94C459.164 376.88 452.274 375.79 451.804 375.75L445.474 375.06L437.994 374.24V179.55L454.674 180.86C456.404 181.04 460.114 181.65 465.334 182.49C470.404 183.31 476.294 184.3 480.514 185.03C483.434 185.54 485.154 185.84 486.494 186.14L498.104 189.09V365.39L497.884 384.43L479.104 380.29Z" fill="#C4CED3"/>
<path d="M419.963 371.63C418.293 371.28 407.783 370.28 396.853 369.43C386.383 368.6 374.893 367.8 367.603 367.34L359.523 367.04C348.303 366.62 338.333 363.05 331.363 355.86C324.373 348.68 321.143 338.61 321.183 327.46V205.53C321.133 195.81 324.063 186.78 330.603 180.5H330.613C338.963 172.59 349.183 171.87 355.473 171.82C357.213 171.82 358.703 171.9 359.693 171.94L360.723 171.98C361.133 171.97 361.513 171.97 361.913 171.97C364.063 171.98 366.823 172.09 370.783 172.34L375.273 172.5L375.193 172.63C379.593 172.94 385.143 173.36 392.283 173.9C416.123 175.75 422.403 176.39 426.053 177.14C427.253 177.35 428.833 177.97 429.353 178.25L438.243 182.55L438.173 192.32V195.57V246.03L387.683 239.51L386.423 233.75C386.423 233.74 384.993 227.27 383.753 221.6C383.113 221.56 382.343 221.51 381.583 221.46L381.743 244.71V249.71L384.833 249.59C384.903 249.59 384.963 249.59 385.023 249.58H385.053C385.123 249.58 385.183 249.58 385.233 249.57C385.463 249.57 385.463 249.57 385.463 249.57C386.933 249.59 388.803 249.74 391.893 249.98C394.883 250.22 398.663 250.54 402.613 250.9C410.513 251.61 419.003 252.43 423.203 252.91C424.503 253.08 425.053 253.11 426.253 253.35L438.313 256.02L438.173 375.02L419.963 371.63Z" fill="#C4CED3"/>
<path d="M209.994 216.26C209.714 195.72 222.514 181.55 242.874 179.94C263.864 177.99 285.224 176.79 306.324 176.38L316.874 176.15V351.17L316.704 361.66L306.164 361.45C303.444 361.44 279.514 362.3 277.684 362.5L266.284 363.55V295.19C264.174 295.33 262.354 295.46 260.324 295.6V353.93L260.184 363.74L250.374 364.19C248.474 364.26 223.944 366.76 222.094 367.07L210.044 368.97L209.994 216.26ZM260.324 257.54C262.434 257.4 264.244 257.28 266.284 257.14V216.4C264.914 216.49 263.994 216.54 264.004 216.54C262.154 216.66 261.204 217.08 260.894 217.34C260.624 217.59 260.474 217.7 260.334 218.63V257.54H260.324Z" fill="black"/>
<path d="M593.374 403.91C593.374 403.9 574.864 398.24 570.064 396.76C569.564 396.61 569.354 396.54 569.134 396.47L569.024 396.44C558.634 393.46 549.364 390.9 542.944 389.18L542.934 389.2L533.124 386.78C513.334 382.15 501.914 367.83 502.134 347.77V230.59C502.114 219.93 505.234 211.29 511.954 206.05C516.294 202.63 521.744 200.98 527.764 200.99C530.964 200.99 534.354 201.44 537.874 202.3C541.154 203.07 604.134 221 604.214 221.02L606.654 221.71V290.68L565.124 277.91L564.794 275.85C564.794 275.85 561.624 255.65 560.304 247.21C557.824 246.48 555.904 245.92 554.604 245.54L554.514 245.57L553.454 245.28L551.984 244.86C551.974 244.86 551.974 244.86 551.974 244.86L551.994 347.57L551.974 348.03C551.994 348.41 552.124 349.73 552.724 350.88C553.494 352.37 554.734 353.42 557.314 354.15C557.314 354.15 562.894 355.6 567.904 357.05C569.474 350.07 571.834 339.65 571.834 339.65L572.624 336.15L606.614 346.36L606.744 407.94L593.374 403.91Z" fill="black"/>
<path d="M40.854 240.89C41.094 225.86 53.934 216.81 62.254 214.07C85.094 206.76 118.244 201.55 119.724 201.31L129.634 199.76C133.124 197.66 136.994 196.1 141.144 195.24C152.544 192.86 187.534 186.27 189.054 185.99V186L201.274 183.72L201.214 360.92L201.034 370.1L191.924 371.14C190.054 371.33 165.454 375.5 163.634 375.95L150.884 378.82V235.44C150.774 235.46 150.674 235.47 150.604 235.48C147.024 236.6 146.364 237.29 145.564 241.33V241.47C145.564 251.04 145.554 347.73 145.554 347.73V350.38L95.574 362.21V247.96C95.204 248.05 94.914 248.12 94.734 248.18C92.944 248.71 91.054 249.55 89.864 250.58C88.654 251.65 88.124 252.53 88.084 254.06V386.02L87.954 394.08L80.174 396C78.464 396.42 56.414 403.2 54.824 403.82L40.834 408.95V240.89H40.854Z" fill="black"/>
<path d="M480.294 375.381C478.584 374.951 454.204 370.941 452.344 370.741L446.004 370.051L443.014 369.721V185.011L454.204 185.891C456.984 186.161 482.534 190.421 485.234 191.041L493.044 193.021L493.034 365.341L492.884 378.171L480.294 375.381Z" fill="black"/>
<path d="M420.924 366.681C416.044 365.731 383.003 363.231 367.963 362.311L359.734 362.011C349.394 361.611 340.864 358.401 335.004 352.351C329.134 346.301 326.224 337.711 326.234 327.431V205.531C326.214 196.701 328.773 189.251 334.123 184.111C340.873 177.651 349.644 176.861 355.494 176.851C357.074 176.851 358.464 176.911 359.544 176.971L360.694 177.021C361.094 177.001 361.513 177.001 361.963 177.001C366.393 177.011 374.434 177.591 391.884 178.911C415.624 180.731 422.093 181.451 424.963 182.061C425.913 182.241 426.743 182.581 427.123 182.771L433.153 185.671L433.123 192.311V195.551V240.281L391.854 234.951L391.343 232.661C391.343 232.661 389.174 222.881 387.834 216.831C387.054 216.771 386.324 216.711 385.644 216.661C385.334 216.631 379.013 216.231 378.963 216.231C378.653 216.211 378.354 216.201 378.054 216.201C377.404 216.191 376.884 216.251 376.544 216.321C376.544 216.401 376.534 216.491 376.534 216.571C376.534 216.571 376.494 217.671 376.484 217.961C376.484 217.961 376.494 219.041 376.494 219.051L376.674 244.691V254.921L385.114 254.611C385.284 254.591 385.363 254.601 385.403 254.601C385.433 254.601 385.434 254.601 385.444 254.601C387.504 254.611 396.403 255.381 405.563 256.211C414.763 257.071 423.273 257.881 425.123 258.261L433.244 260.061L433.114 368.941L420.924 366.681ZM376.674 321.551C376.644 321.651 376.764 323.031 377.164 323.671C377.424 324.091 377.904 324.631 380.354 324.841C380.354 324.841 381.413 324.911 382.903 325.021V290.381C380.773 290.221 378.384 290.041 378.354 290.041L376.683 289.911L376.674 321.551ZM369.854 216.451C369.854 216.441 369.854 216.441 369.854 216.451V216.451Z" fill="black"/>
<path d="M306.454 183.69L306.424 182.02C285.464 182.45 264.264 183.65 243.384 185.56C225.604 187.05 215.494 198.22 215.664 216.26L215.704 362.42L221.214 361.44C222.724 361.19 248.584 358.57 250.124 358.52L253.044 358.44L254.674 358.39V353.87V290.31C258.964 290 267.344 289.43 271.964 289.12V357.42L277.164 356.84C278.584 356.64 302.494 355.75 306.014 355.76C306.104 355.76 306.164 355.76 306.204 355.76H306.214L306.284 355.77L309.444 355.9L311.174 355.97L311.204 351.11V181.91L306.444 182.01L306.454 183.69ZM271.954 210.38V262.44C267.634 262.74 259.304 263.29 254.664 263.59V218.12C255.124 215 256.254 211.56 263.634 210.88C263.614 210.88 268.194 210.6 271.954 210.38Z" fill="white"/>
<path d="M600.954 350.56L576.794 343.3L576.414 345.05C576.404 345.07 573.454 358.21 572.104 364.17C562.414 361.31 558.164 360.07 555.854 359.66V359.63C550.894 358.26 548.734 355.51 547.644 353.42C546.414 350.99 546.284 348.57 546.284 347.91V347.45V243.91C546.264 243.38 546.454 241.17 547.304 240.04C547.844 239.34 548.594 238.93 550.194 238.9C551.054 238.9 552.134 239.06 553.394 239.41L553.624 239.47H553.794L553.884 239.49C554.254 239.56 558.294 240.7 565.354 242.81C566.294 248.8 569.984 272.47 569.984 272.49L570.144 273.52L600.954 283.01V226.05L599.744 225.71C599.694 225.7 539.654 208.55 536.614 207.85C533.464 207.07 530.494 206.67 527.744 206.67C522.934 206.66 518.734 207.92 515.454 210.51C510.224 214.6 507.774 221.55 507.784 230.62V347.77C507.654 365.33 516.984 377.04 534.294 381.21L534.624 381.37L535.294 381.38C537.304 381.71 553.884 386.2 570.564 391.01L595.034 398.48L601.094 400.32L600.954 350.56Z" fill="white"/>
<path d="M142.324 200.78C135.944 202.11 130.364 205.28 126.004 209.79V206.05L120.604 206.91C119.174 207.13 86.3139 212.3 63.9739 219.48C56.7239 221.87 46.6339 229.69 46.5039 240.89V400.94L52.8739 398.46C54.1939 397.98 77.3939 390.83 78.8539 390.48L81.1139 389.95L82.4139 389.65V254.06C82.3439 247.19 88.8239 244.07 93.1439 242.74C94.5839 242.3 98.0539 241.65 101.224 241.11V355.03L139.894 345.91V342.21C139.894 332.43 139.924 251.24 139.924 241.38V240.82C140.794 234.59 143.544 231.45 149.344 229.94C149.414 229.93 149.354 229.93 149.534 229.91C150.444 229.76 153.634 229.26 156.554 228.8V232.21V371.86L162.364 370.38C163.854 370 189.774 365.63 191.344 365.46L193.984 365.24L195.494 365.11L195.574 360.85L195.604 190.53L190.104 191.54C190.104 191.55 153.624 198.38 142.324 200.78Z" fill="white"/>
<path d="M453.744 191.55L450.504 191.31L448.704 191.17V364.74L450.224 364.88L452.964 365.12C454.424 365.21 480.174 369.48 481.584 369.85L487.354 371.28L487.384 365.33V197.42L483.854 196.54C481.634 196 456.024 191.76 453.744 191.55Z" fill="white"/>
<path d="M385.594 260.28C385.574 260.28 385.564 260.28 385.544 260.28C385.514 260.28 385.454 260.28 385.324 260.3L382.524 260.39L380.904 260.45V284.55L382.454 284.67C382.464 284.67 386.034 284.93 388.554 285.13V331.1C384.814 330.86 379.964 330.53 379.964 330.53C375.994 330.23 373.654 328.88 372.274 326.56C371.144 324.62 371.004 322.41 371.014 321.58L371.024 244.72L370.854 219.13C370.854 219.09 370.834 218.08 370.834 218.08V217.79L370.904 216.56C370.894 215.2 371.154 213.6 372.164 212.47C373.164 211.32 375.034 210.55 378.114 210.55C378.524 210.55 378.934 210.56 379.374 210.59L379.414 210.6L379.514 210.61L379.954 210.59C380.734 210.58 385.114 210.9 392.494 211.53C393.544 216.34 396.284 228.7 396.284 228.71L396.534 229.86L427.474 233.86V195.56V192.31L427.494 190.41L427.504 189.39L424.834 187.96C423.534 187.47 422.354 186.96 391.444 184.61C372.784 183.18 365.144 182.69 361.614 182.69C361.254 182.69 360.924 182.69 360.634 182.71L359.294 182.65C358.194 182.6 356.854 182.53 355.364 182.53C350.244 182.54 343.244 183.26 338.074 188.23V188.22C333.884 192.23 331.904 198.19 331.914 205.54V327.47C331.714 345.26 342.034 355.87 359.954 356.38H360.184H360.274L360.674 356.33C360.644 356.33 360.684 356.33 360.764 356.33C365.394 356.31 414.974 359.81 421.944 361.12L427.474 362.15L427.584 264.63L423.904 263.81C421.394 263.28 389.024 260.31 385.594 260.28Z" fill="white"/>
<path d="M385.584 280.22C387.104 280.32 393.234 280.76 393.234 280.76V336.1C388.704 335.75 384.154 335.45 379.654 335.16C373.024 334.73 369.784 331.52 368.234 328.89C366.504 325.92 366.334 322.77 366.334 321.57C366.334 320.35 366.364 275 366.364 244.71C366.364 230.01 366.164 218.95 366.164 218.21C366.134 217.99 366.194 217.37 366.194 216.47C366.194 214.63 366.604 211.73 368.644 209.39C370.934 206.8 374.654 205.65 379.654 205.95C379.654 205.82 387.394 206.42 396.284 207.17L400.364 225.65L422.774 228.58V195.57V192.19C420.894 191.32 360.174 186.74 360.124 187.37L359.074 187.29C354.274 187.07 346.244 186.79 341.274 191.58C338.124 194.58 336.544 199.29 336.544 205.55V327.46C336.544 343.15 344.474 351.07 360.114 351.72C360.134 351.22 414.864 355.08 422.764 356.54C422.764 354.63 422.884 270.3 422.884 268.37C421.054 267.99 387.444 264.88 385.564 264.95V280.22H385.584ZM250.004 217.94C250.264 214.73 252.094 207.05 263.304 206.22C267.734 205.93 272.154 205.65 276.604 205.41V266.81C267.754 267.26 258.864 267.86 250.004 268.58V217.94ZM220.324 216.26C220.324 216.26 220.384 354.89 220.384 356.85C222.194 356.51 248.174 353.93 249.994 353.88V285.97C258.854 285.22 267.744 284.62 276.594 284.13V352.19C278.434 351.98 304.704 351.01 306.524 351.11V186.68C285.594 187.12 264.674 188.29 243.804 190.2C228.214 191.65 220.324 200.61 220.324 216.26ZM453.354 360.46C455.174 360.62 480.934 364.88 482.734 365.32V201.09C480.934 200.61 455.174 196.36 453.354 196.21V360.46ZM121.314 228.84V211.5C121.314 211.5 87.5838 216.8 65.4238 223.91C59.5738 225.78 51.1738 232.45 51.1738 240.89V394.12C52.8938 393.45 75.9938 386.36 77.7638 385.94V254.06C77.7638 244.83 85.3338 240.23 91.7738 238.29C95.3238 237.21 105.904 235.61 105.904 235.61V349.14L135.204 342.21C135.204 342.21 135.234 240.85 135.234 240.44C136.194 232.49 140.434 227.27 148.334 225.39C155.774 224.13 161.194 223.3 161.194 223.3L161.224 232.17V365.87C163.014 365.41 189.084 360.98 190.884 360.82C190.884 327.93 190.954 196.12 190.954 196.12C190.954 196.12 154.624 202.94 143.244 205.32C132.354 207.65 123.694 216.43 121.314 228.84ZM596.314 354.02L580.264 349.23L575.574 370.09C565.144 366.99 554.664 363.99 554.644 364.12C548.174 362.36 545.024 358.49 543.524 355.54C541.804 352.22 541.604 349.05 541.624 347.85C541.624 347.75 541.624 347.58 541.664 347.45H541.624C541.624 346.41 541.604 244.06 541.604 243.92C541.604 242.71 541.794 239.67 543.544 237.32C545.054 235.27 548.214 233.14 554.614 234.88C554.674 234.77 561.464 236.75 569.524 239.18L574.324 269.91L596.314 276.68V229.74C596.314 229.74 538.364 213.03 535.574 212.38C520.274 208.61 512.454 214.95 512.454 230.61V347.77C512.454 363.46 520.274 373 535.574 376.74C535.634 376.4 554.994 381.71 571.854 386.53L596.384 394.02L596.314 354.02Z" fill="#007DC5"/>
<path d="M385.584 280.21C387.104 280.32 393.234 280.76 393.234 280.76V336.1C388.704 335.75 384.154 335.45 379.654 335.16C373.024 334.73 369.784 331.52 368.224 328.87C366.514 325.91 366.334 322.77 366.334 321.56C366.334 320.34 366.364 274.99 366.364 244.7C366.364 230 366.164 218.94 366.164 218.2C366.134 217.98 366.234 217.36 366.234 216.46C366.234 214.61 366.614 211.72 368.654 209.38C370.944 206.79 374.664 205.61 379.664 205.94C379.664 205.81 387.404 206.41 396.294 207.16L400.374 225.64L422.784 228.57V195.55V192.17C420.904 191.3 360.184 186.72 360.124 187.35L359.074 187.27C354.274 187.05 346.264 186.77 341.294 191.56C338.144 194.56 336.554 199.27 336.554 205.52V327.45C336.554 343.14 344.494 351.06 360.124 351.71C360.154 351.21 414.884 355.07 422.784 356.53C422.784 354.62 422.904 270.29 422.904 268.36C421.054 267.97 387.464 264.87 385.584 264.94V280.21V280.21ZM453.354 360.46C455.174 360.62 480.944 364.86 482.714 365.32V201.06C480.934 200.61 455.174 196.35 453.354 196.2V360.46ZM121.314 228.84V211.5C121.314 211.5 87.5838 216.8 65.4238 223.91C59.5738 225.76 51.1738 232.45 51.1738 240.89V394.12C52.8938 393.45 75.9938 386.34 77.7638 385.94V254.05C77.7638 244.83 85.3338 240.23 91.7738 238.27C95.3238 237.21 105.904 235.61 105.904 235.61V349.14L135.204 342.21C135.204 342.21 135.234 240.85 135.234 240.42C136.194 232.49 140.434 227.28 148.334 225.4C155.774 224.14 161.194 223.31 161.194 223.31L161.224 232.18V365.88C163.004 365.42 189.064 360.99 190.884 360.83C190.884 327.94 190.964 196.13 190.964 196.13C190.964 196.13 154.614 202.95 143.244 205.33C132.354 207.65 123.694 216.43 121.314 228.84Z" fill="#007DC5"/>
<path d="M233.683 127.62C232.923 126.66 231.813 125.95 230.543 125.62C229.653 125.37 228.763 125.29 227.893 125.29C226.533 125.29 225.223 125.49 224.163 125.67C221.013 126.25 217.843 126.86 214.713 127.48C212.313 127.97 210.333 128.68 208.703 129.74C207.543 130.5 206.573 131.44 205.873 132.56C205.023 133.93 204.603 135.51 204.613 137.18V167.81C204.613 169.46 205.003 170.99 205.933 172.18C206.733 173.19 207.873 173.82 209.103 174.12C209.863 174.3 210.613 174.36 211.353 174.36C212.833 174.36 214.263 174.11 215.413 173.88C218.563 173.25 221.693 172.66 224.813 172.09C227.223 171.65 229.223 171 230.863 169.98C232.053 169.27 233.033 168.34 233.733 167.28C234.623 165.91 235.053 164.32 235.043 162.65V132.03C235.023 130.38 234.633 128.84 233.683 127.62ZM223.483 163.21C223.483 163.21 223.523 163.56 223.053 163.99L223.043 164H223.033C222.673 164.33 222.043 164.66 221.073 164.83C220.333 164.99 218.613 165.31 217.293 165.57C217.043 165.62 216.843 165.64 216.663 165.64C216.163 165.62 216.133 165.53 216.123 165.53C216.063 165.49 216.053 165.25 216.033 165.25V165.23V136.37V136.35C216.043 136.3 215.983 136.02 216.423 135.58C216.803 135.23 217.443 134.9 218.473 134.68C219.533 134.48 220.633 134.27 221.743 134.05C222.063 133.99 222.353 133.96 222.593 133.96C223.003 133.96 223.233 134.03 223.343 134.09C223.473 134.12 223.453 134.33 223.483 134.33V163.21Z" fill="black"/>
<path d="M377.544 121.73C376.784 120.66 375.744 119.81 374.504 119.19C372.264 118.09 369.874 117.85 368.284 117.74C362.014 117.33 355.734 117 349.464 116.79L347.624 116.73V163.11L349.344 163.17C352.064 163.26 354.794 163.39 357.524 163.52L359.384 163.61V124.95C360.654 125.02 361.914 125.1 363.194 125.16C367.674 125.67 366.944 127.04 367.194 127.56V164.03L368.844 164.15C371.544 164.35 374.244 164.54 376.934 164.77L378.864 164.94V163C378.864 158.63 378.864 129.33 378.864 126.28C378.864 124.61 378.444 123.03 377.544 121.73Z" fill="black"/>
<path d="M414.793 126.02C414.083 124.92 413.063 124.03 411.873 123.33L411.863 123.32H411.853C410.173 122.35 408.153 121.76 405.703 121.44C403.133 121.04 390.433 119.55 387.013 119.25L385.073 119.08L385.103 165.55L386.713 165.71C392.903 166.33 399.093 167.05 405.243 167.89C406.293 168.03 407.253 168.1 408.153 168.1C409.353 168.1 410.453 167.97 411.453 167.68C412.733 167.31 413.863 166.65 414.683 165.65C415.673 164.43 416.103 162.87 416.093 161.21V130.59C416.103 128.95 415.683 127.35 414.793 126.02ZM404.073 159.27C403.803 159.46 403.103 159.61 402.363 159.6C401.853 159.6 401.323 159.55 400.893 159.5C399.483 159.33 398.073 159.15 396.683 158.98V128.14C397.933 128.29 399.193 128.45 400.463 128.6C401.743 128.76 402.893 129.1 403.543 129.56C404.183 130.05 404.463 130.4 404.503 131.5C404.503 134.74 404.503 157.51 404.513 158.22C404.453 159.05 404.323 159.05 404.073 159.27Z" fill="black"/>
<path d="M271.974 163.89C271.954 158.66 271.954 153.45 271.954 148.24C271.984 146.59 271.044 145.02 269.664 144.12V144.11C269.474 143.98 269.294 143.87 269.104 143.76C270.394 142.83 271.704 141.33 271.854 138.95V127.13C271.854 125.48 271.444 123.9 270.434 122.66C269.654 121.68 268.534 120.94 267.234 120.54C266.134 120.17 264.874 120.01 263.494 120.01C262.704 120.01 261.864 120.06 260.964 120.17C254.804 120.88 248.634 121.68 242.514 122.59L240.994 122.82V169.36L243.034 169.06C245.714 168.66 248.404 168.28 251.084 167.92L252.624 167.72V149.82C253.994 149.65 255.334 149.47 256.674 149.3C256.744 149.29 256.824 149.29 256.894 149.28L257.094 149.26C257.484 149.23 257.834 149.21 258.134 149.21C259.184 149.2 259.734 149.4 259.944 149.56C260.214 149.73 260.294 150 260.304 150.66V166.74L262.284 166.52C264.974 166.22 267.674 165.93 270.364 165.65L271.974 165.49V163.89ZM260.224 138.89C260.224 138.93 260.224 138.95 260.224 139C260.204 139.18 260.234 139.7 259.524 140.32L259.504 140.34C258.914 140.87 257.814 141.34 256.134 141.55C254.964 141.7 253.794 141.85 252.634 142V129.04C253.944 128.87 255.254 128.7 256.564 128.54C257.254 128.45 257.824 128.41 258.304 128.41C259.344 128.4 259.904 128.61 260.074 128.74C260.174 128.85 260.124 128.68 260.204 129.26C260.204 129.31 260.214 129.35 260.214 129.38V129.45C260.214 131.71 260.214 134.94 260.214 136.97C260.224 138.01 260.214 138.66 260.224 138.89Z" fill="black"/>
<path d="M304.354 153.36V147.36L302.454 147.48L295.364 147.93L292.684 156.06C291.634 156.13 290.594 156.19 289.554 156.26V117.61L287.654 117.74C284.924 117.92 282.204 118.14 279.474 118.36L277.844 118.49V164.95L279.774 164.79C287.374 164.16 295.004 163.68 302.644 163.34L304.344 163.26V161.56C304.344 160.16 304.354 158.74 304.354 157.31V153.35V153.36Z" fill="black"/>
<path d="M339.684 116.43C337.404 116.36 331.094 116.31 326.274 116.31C323.754 116.31 321.674 116.32 320.744 116.35C318.284 116.39 316.244 116.74 314.514 117.51C313.254 118.06 312.184 118.89 311.424 119.94C310.484 121.21 310.044 122.8 310.044 124.47C310.044 127.52 310.074 156.82 310.074 161.19V163.02L311.914 162.97C314.604 162.89 317.324 162.83 320.004 162.8L321.764 162.78V145.58C324.054 145.55 326.354 145.54 328.644 145.54C328.964 145.54 329.294 145.54 329.614 145.54V162.79L331.384 162.8C334.124 162.82 336.854 162.85 339.574 162.91L341.394 162.96V116.49L339.684 116.43ZM329.624 137.81C328.934 137.81 328.244 137.81 327.554 137.81C325.624 137.81 323.704 137.82 321.784 137.84V125.86L321.794 125.74C321.824 125.56 321.864 125.29 322.314 124.92C322.804 124.52 323.954 124.13 325.724 124.13C326.664 124.12 327.604 124.12 328.554 124.12C328.914 124.12 329.264 124.12 329.624 124.12V137.81Z" fill="black"/>
<path d="M450.784 132.62C450.104 131.48 449.154 130.55 448.054 129.8C445.934 128.42 443.604 127.86 441.844 127.5C438.714 126.86 435.574 126.26 432.414 125.68C431.144 125.44 429.994 125.32 428.924 125.32C427.944 125.32 427.024 125.42 426.164 125.66C424.914 125.97 423.764 126.65 422.954 127.61C421.934 128.84 421.544 130.41 421.544 132.04V162.68C421.544 164.33 421.924 165.9 422.754 167.24C423.434 168.35 424.414 169.26 425.554 169.97C427.664 171.27 430.014 171.77 431.774 172.09C434.904 172.67 438.034 173.27 441.134 173.91C442.574 174.19 443.844 174.34 445.014 174.34C445.814 174.34 446.564 174.26 447.264 174.12C448.584 173.82 449.734 173.18 450.544 172.22C451.554 171.02 451.944 169.47 451.944 167.82V137.19C451.964 135.55 451.594 133.98 450.784 132.62ZM440.524 165.23C440.524 165.25 440.514 165.3 440.514 165.38C440.494 165.39 440.524 165.42 440.484 165.45H440.474C440.384 165.5 440.174 165.57 439.764 165.57C439.504 165.57 439.154 165.54 438.754 165.47C438.044 165.33 436.344 165.01 435.004 164.76C434.034 164.58 433.464 164.12 433.254 163.73C433.074 163.41 433.074 163.14 433.074 163.14V163.13V134.15C433.074 134.14 433.074 134.14 433.074 134.13V134.11C433.074 134.1 433.084 134.09 433.114 134.08C433.214 134.02 433.434 133.95 433.854 133.95C434.104 133.95 434.414 133.98 434.774 134.05C435.904 134.26 436.994 134.47 438.084 134.68C438.984 134.85 439.594 135.17 439.974 135.53C440.554 136.06 440.454 136.45 440.494 136.45V165.23H440.524Z" fill="black"/>
<path d="M258.193 385.15L264.023 382.27L268.853 386.59L267.913 380.18L273.513 376.91L267.113 375.81L265.733 369.49L262.733 375.22L256.273 374.58L260.813 379.21L258.193 385.15Z" fill="white"/>
<path d="M454.034 349.01C459.744 346.52 470.404 341.87 470.404 341.87L471.204 341.52L470.374 341.25C470.374 341.25 453.224 335.61 449.534 334.41C448.974 330.53 446.264 311.88 446.264 311.88L446.134 310.98L439.894 321.12C439.894 321.12 436.324 326.88 434.394 330.02C430.334 328.99 412.604 324.47 412.604 324.47L411.674 324.24L412.264 325C412.274 325.02 419.484 334.28 423.844 339.93C406.004 336.06 385.414 333.89 361.824 333.89C354.084 333.89 346.014 334.12 337.614 334.61C305.444 336.45 273.804 342.44 243.444 353.41L246.914 343.08L246.294 343.28C198.784 358.12 146.814 402.67 123.844 446.71L124.364 447.1C156.834 416.63 200.794 392.31 240.194 383.46L229.844 407.59L230.644 407.2C248.984 398.35 273.054 394.43 297.344 394.43C322.194 394.43 347.274 398.53 366.654 405.59L359.224 421.79C341.554 413.68 315.984 408.22 294.784 408.22C291.004 408.22 287.364 408.39 283.934 408.76L283.874 409.41C308.914 416.48 334.854 424.47 355.404 440.94C355.284 442.69 355.224 444.44 355.224 446.18C355.234 489.54 392.664 528.78 436.594 528.8C436.894 528.8 437.184 528.8 437.484 528.79C485.894 528.22 521.764 483.83 521.774 437.56C521.784 403.45 502.274 368.33 454.034 349.01Z" fill="black"/>
<path d="M427.624 428.43C409.754 428.43 391.864 421.87 373.904 415.27C369.164 425.28 366.764 435.78 366.764 446.45C366.764 452.13 367.444 457.86 368.814 463.6C370.294 463.63 371.784 463.65 373.274 463.65C407.964 463.65 444.764 454.01 474.494 436.39C471.064 430.01 466.824 424.06 462.404 418.33C450.844 425.66 439.244 428.43 427.624 428.43Z" fill="#C4CED3"/>
<path d="M372.034 470.39C371.644 470.39 371.254 470.39 370.864 470.39C381.714 498.44 406.584 517.03 436.914 517.45C446.624 493.53 457.394 467.4 482.024 455.18C480.734 450.87 479.154 446.68 477.414 442.54C445.714 461.08 408.694 470.39 372.034 470.39Z" fill="#C4CED3"/>
<path d="M446.994 382.36C436.204 378.24 429.344 376.96 428.694 376.85C425.674 377.26 421.584 377.67 418.274 378.32C436.604 385.62 450.134 394.48 463.734 409.64C470.724 404.12 476.854 397.86 481.114 390.18C468.644 378.06 445.164 363.19 386.594 358.59C411.324 364.48 434.064 372.41 447.294 381.79L446.994 382.36Z" fill="#C4CED3"/>
<path d="M282.794 374.24C286.424 374.16 290.354 374.11 294.494 374.11C336.104 374.13 400.324 379.02 425.224 408.59L424.804 409.1C416.184 404.3 398.954 396.35 388.204 396.36C387.854 396.36 387.514 396.37 387.184 396.39C383.484 400.47 380.224 404.98 377.294 409.66C393.934 415.8 410.784 421.89 427.484 421.89C437.974 421.89 448.394 419.49 458.724 413.2C429.864 381.75 381.014 368.03 334.944 368.04C316.644 368.01 298.784 370.17 282.794 374.24Z" fill="#C4CED3"/>
<path d="M479.694 433.1C487.734 427.62 494.694 421.9 501.014 414.55C497.044 407 490.174 398.52 485.244 394.15C480.664 402.23 474.794 408.91 467.654 414.78C471.844 420.39 476.284 426.93 479.694 433.1Z" fill="#C4CED3"/>
<path d="M443.974 517.16C458.594 515.38 472.034 510.39 483.334 500.79C485.064 494.32 485.814 487.63 485.814 480.91C485.814 474.5 485.134 468.07 483.984 461.81C461.934 472.42 452.774 495.68 443.974 517.16Z" fill="#C4CED3"/>
<path d="M492.324 485.23C492.324 487.44 492.264 489.65 492.164 491.87C500.734 480.27 505.334 470.19 507.884 455.36C501.624 455.92 495.424 456.96 489.514 458.92C491.454 467.66 492.324 476.41 492.324 485.23Z" fill="#C4CED3"/>
<path d="M482.724 439.24C484.664 443.66 486.374 448.15 487.874 452.75C494.754 450.51 501.394 449.36 508.554 448.93C508.564 448.42 508.564 447.91 508.564 447.41C508.564 437.92 507.164 430.62 504.074 421.54C497.504 428.27 490.554 434 482.724 439.24Z" fill="#C4CED3"/>
<path d="M508.554 448.93C501.394 449.36 494.754 450.52 487.874 452.75C486.384 448.15 484.664 443.67 482.724 439.24C490.554 434 497.494 428.27 504.064 421.54C507.154 430.62 508.554 437.92 508.554 447.41C508.564 447.91 508.564 448.41 508.554 448.93Z" fill="#C4CED3"/>
<path d="M508.554 448.93C501.394 449.36 494.754 450.52 487.874 452.75C486.384 448.15 484.664 443.67 482.724 439.24C490.554 434 497.494 428.27 504.064 421.54C507.154 430.62 508.554 437.92 508.554 447.41C508.564 447.91 508.564 448.41 508.554 448.93Z" fill="#C4CED3"/>
<path d="M485.234 394.15C490.164 398.51 497.034 407 501.004 414.55C494.684 421.9 487.734 427.62 479.684 433.1C476.274 426.93 471.844 420.39 467.634 414.78C474.784 408.92 480.654 402.24 485.234 394.15Z" fill="#C4CED3"/>
<path d="M485.234 394.15C490.164 398.51 497.034 407 501.004 414.55C494.684 421.9 487.734 427.62 479.684 433.1C476.274 426.93 471.844 420.39 467.634 414.78C474.784 408.92 480.654 402.24 485.234 394.15Z" fill="#C4CED3"/>
<path d="M386.614 358.58C445.184 363.19 468.664 378.05 481.134 390.17C476.874 397.86 470.734 404.11 463.754 409.63C450.154 394.47 436.624 385.61 418.294 378.31C421.604 377.66 425.694 377.25 428.714 376.84C429.364 376.95 436.224 378.23 447.014 382.35L447.324 381.77C434.074 372.4 411.344 364.47 386.614 358.58Z" fill="#C4CED3"/>
<path d="M386.614 358.58C445.184 363.19 468.664 378.05 481.134 390.17C476.874 397.86 470.734 404.11 463.754 409.63C450.154 394.47 436.624 385.61 418.294 378.31C421.604 377.66 425.694 377.25 428.714 376.84C429.364 376.95 436.224 378.23 447.014 382.35L447.324 381.77C434.074 372.4 411.344 364.47 386.614 358.58Z" fill="#C4CED3"/>
<path d="M373.284 463.66C371.794 463.66 370.304 463.64 368.824 463.61C367.444 457.87 366.774 452.14 366.774 446.46C366.774 435.78 369.174 425.29 373.914 415.28C391.874 421.88 409.764 428.44 427.634 428.44C439.244 428.44 450.844 425.67 462.424 418.34C466.834 424.07 471.084 430.03 474.514 436.4C444.774 454.02 407.964 463.66 373.284 463.66Z" fill="#C4CED3"/>
<path d="M373.284 463.66C371.794 463.66 370.304 463.64 368.824 463.61C367.444 457.87 366.774 452.14 366.774 446.46C366.774 435.78 369.174 425.29 373.914 415.28C391.874 421.88 409.764 428.44 427.634 428.44C439.244 428.44 450.844 425.67 462.424 418.34C466.834 424.07 471.084 430.03 474.514 436.4C444.774 454.02 407.964 463.66 373.284 463.66Z" fill="#C4CED3"/>
<path d="M436.924 517.45C406.584 517.03 381.714 498.44 370.874 470.39C371.264 470.39 371.654 470.39 372.044 470.39C408.694 470.39 445.724 461.07 477.434 442.54C479.174 446.68 480.754 450.87 482.044 455.18C457.404 467.4 446.634 493.53 436.924 517.45Z" fill="#C4CED3"/>
<path d="M436.924 517.45C406.584 517.03 381.714 498.44 370.874 470.39C371.264 470.39 371.654 470.39 372.044 470.39C408.694 470.39 445.724 461.07 477.434 442.54C479.174 446.68 480.754 450.87 482.044 455.18C457.404 467.4 446.634 493.53 436.924 517.45Z" fill="#C4CED3"/>
<path d="M492.164 491.87C492.274 489.65 492.324 487.44 492.324 485.23C492.324 476.41 491.444 467.66 489.514 458.92C495.414 456.96 501.624 455.92 507.884 455.36C505.334 470.19 500.744 480.27 492.164 491.87Z" fill="#C4CED3"/>
<path d="M492.164 491.87C492.274 489.65 492.324 487.44 492.324 485.23C492.324 476.41 491.444 467.66 489.514 458.92C495.414 456.96 501.624 455.92 507.884 455.36C505.334 470.19 500.744 480.27 492.164 491.87Z" fill="#C4CED3"/>
<path d="M458.734 413.17C448.414 419.46 437.984 421.86 427.494 421.86C410.794 421.86 393.944 415.77 377.304 409.63C380.234 404.95 383.494 400.44 387.194 396.36C387.524 396.34 387.864 396.33 388.214 396.33C398.964 396.32 416.194 404.27 424.814 409.07L425.234 408.56C400.334 378.99 336.114 374.1 294.504 374.08C290.364 374.08 286.434 374.13 282.804 374.21C298.794 370.14 316.654 367.98 334.954 367.98C381.024 368 429.874 381.72 458.734 413.17Z" fill="#C4CED3"/>
<path d="M458.734 413.17C448.414 419.46 437.984 421.86 427.494 421.86C410.794 421.86 393.944 415.77 377.304 409.63C380.234 404.95 383.494 400.44 387.194 396.36C387.524 396.34 387.864 396.33 388.214 396.33C398.964 396.32 416.194 404.27 424.814 409.07L425.234 408.56C400.334 378.99 336.114 374.1 294.504 374.08C290.364 374.08 286.434 374.13 282.804 374.21C298.794 370.14 316.654 367.98 334.954 367.98C381.024 368 429.874 381.72 458.734 413.17Z" fill="#C4CED3"/>
<path d="M483.334 500.79C472.034 510.38 458.594 515.38 443.974 517.16C452.774 495.68 461.934 472.42 483.984 461.82C485.134 468.08 485.814 474.51 485.814 480.92C485.814 487.63 485.074 494.32 483.334 500.79Z" fill="#C4CED3"/>
<path d="M483.334 500.79C472.034 510.38 458.594 515.38 443.974 517.16C452.774 495.68 461.934 472.42 483.984 461.82C485.134 468.08 485.814 474.51 485.814 480.92C485.814 487.63 485.074 494.32 483.334 500.79Z" fill="#C4CED3"/>
<path d="M425.473 355.27L438.203 350.82L447.883 361.79L446.753 347.47L459.083 342.09L445.663 337.69L443.583 323.4L436.413 335L422.823 331.53L431.833 343.11L425.473 355.27Z" fill="#C4CED3"/>
<path d="M357.624 365.58L366.464 361.22L373.834 367.77L372.404 358.03L380.924 353.08L371.194 351.41L369.094 341.8L364.534 350.54L354.714 349.54L361.614 356.58L357.624 365.58Z" fill="white"/>
<path d="M258.174 385.15L263.994 382.27L268.824 386.59L267.884 380.18L273.484 376.91L267.094 375.81L265.704 369.49L262.704 375.22L256.244 374.58L260.784 379.21L258.174 385.15Z" fill="white"/>
<path d="M478.364 473.11L478.354 471.92L470.144 485.67L472.494 473.56L471.914 473.29C459.884 487.88 455.294 498.37 451.544 511.29L451.364 511.91L451.974 511.7C465.474 507.02 472.444 501.61 475.304 499.33L475.364 499.28L475.394 499.21C477.404 494.84 478.354 486.02 478.364 475.21C478.374 474.51 478.374 473.82 478.364 473.11Z" fill="#007DC5"/>
<path d="M450.914 441.26C437.774 443.93 422.444 445.5 408.394 445.5C406.284 445.5 404.204 445.47 402.164 445.39L432.304 436.47L432.224 435.82C412.324 434.88 396.964 434.51 377.514 425.39L377.234 425.26L377.084 425.53C374.184 430.72 372.544 438 372.544 445.37C372.544 449.56 373.074 453.78 374.224 457.66L374.294 457.89L374.534 457.9C374.534 457.9 375.224 457.92 376.504 457.92C385.194 457.92 420.914 456.96 451.124 441.89L450.914 441.26Z" fill="#007DC5"/>
<path d="M457.554 465.71C442.354 477 430.914 486.14 408.504 490.35C429.254 479.56 443.174 472.15 456.264 458.9L455.864 458.38C432.664 471.89 402.434 477.68 381.114 478.48L380.544 478.5L380.854 478.99C398.404 506.77 420.624 509.26 427.844 509.26C427.854 509.26 427.874 509.26 427.884 509.26C429.384 509.26 430.224 509.16 430.234 509.16L430.394 509.14L430.474 509.01C439.884 494.11 445.884 479.78 458.014 466.21L457.554 465.71Z" fill="#007DC5"/>
<path fill-rule="evenodd" clip-rule="evenodd" d="M496.784 412.7C494.784 414.85 492.864 416.75 490.904 418.52C488.734 413.84 486.184 409.36 483.244 405.12C484.774 403.27 486.264 401.36 487.644 399.36C491.404 403.51 494.654 408.36 496.784 412.7ZM504.784 442.18C502.444 442.49 500.274 442.83 498.134 443.29C497.654 439.82 496.954 436.38 496.074 433C498.404 431.04 500.634 429.06 502.894 426.93C504.184 431.92 504.744 436.6 504.784 442.18ZM497.294 473.66L497.234 472.49C498.204 467.66 498.754 462.81 498.914 458.03C500.184 457.69 501.484 457.43 502.784 457.19C501.394 463.13 499.664 468.53 497.294 473.66ZM441.994 373.15C440.884 372.57 439.774 372.02 438.604 371.5C456.544 376.82 468.644 383.75 475.414 389.02C474.374 390.57 473.214 392.05 472.014 393.5C463.724 384.89 453.574 377.87 441.994 373.15Z" fill="white"/>
</svg>
