<svg width="649" height="649" viewBox="0 0 649 649" fill="none" xmlns="http://www.w3.org/2000/svg">
<path d="M612.604 324.79C612.604 483.85 483.664 612.79 324.604 612.79C165.544 612.79 36.6035 483.85 36.6035 324.79C36.6035 165.73 165.544 36.79 324.604 36.79C483.664 36.79 612.604 165.73 612.604 324.79Z" fill="white"/>
<path d="M601.984 324.79C601.984 477.98 477.794 602.17 324.604 602.17C171.414 602.17 47.2236 477.98 47.2236 324.79C47.2236 171.6 171.414 47.4102 324.604 47.4102C477.794 47.4102 601.984 171.6 601.984 324.79Z" fill="#1D428A"/>
<path d="M90.0231 372.06L95.7031 390.15H114.943L99.3631 401.52L105.043 419.28L90.0231 408.4L74.8431 419.28L80.5531 401.45L64.9531 390.15H84.1331L90.0231 372.06Z" fill="white"/>
<path d="M559.333 372.06L565.013 390.15H584.253L568.683 401.52L574.363 419.28L559.333 408.4L544.153 419.28L549.863 401.45L534.263 390.15H553.443L559.333 372.06Z" fill="white"/>
<path d="M157.383 469.04L163.063 487.14H182.303L166.723 498.5L172.403 516.27L157.383 505.38L142.203 516.27L147.913 498.44L132.313 487.14H151.493L157.383 469.04Z" fill="white"/>
<path d="M498.233 469.04L503.913 487.14H523.153L507.573 498.5L513.253 516.27L498.233 505.38L483.053 516.27L488.763 498.44L473.163 487.14H492.343L498.233 469.04Z" fill="white"/>
<path d="M262.473 532.15L268.153 550.25H287.393L271.813 561.61L277.493 579.38L262.473 568.49L247.293 579.38L253.003 561.55L237.403 550.25H256.583L262.473 532.15Z" fill="white"/>
<path d="M390.203 532.15L395.883 550.25H415.113L399.543 561.61L405.223 579.38L390.203 568.49L375.013 579.38L380.733 561.55L365.133 550.25H384.313L390.203 532.15Z" fill="white"/>
<path d="M532.574 326.11C532.574 440.97 439.464 534.08 324.604 534.08C209.744 534.08 116.634 440.97 116.634 326.11C116.634 211.25 209.744 118.14 324.604 118.14C439.464 118.14 532.574 211.25 532.574 326.11Z" fill="white"/>
<path d="M128.993 366.97C139.903 419.21 170.523 464.08 215.173 493.32C259.843 522.54 313.203 532.63 365.463 521.71C417.693 510.8 463.023 480.48 491.813 435.55C520.463 390.83 530.593 337.47 520.203 285.26C509.813 233 478.683 188.25 433.983 159C389.253 129.73 335.903 119.61 283.753 130.51C231.513 141.42 186.633 172.04 157.403 216.7C128.183 261.34 118.093 314.71 128.993 366.97Z" fill="#1D428A"/>
<path d="M392.654 170.39C393.314 178.16 389.684 185.76 381.874 193.02C344.394 165.53 308.694 151.99 273.664 151.86C266.144 151.83 258.824 152.44 251.714 153.55C262.754 148.91 274.334 145.29 286.314 142.8C317.594 136.26 349.334 137.81 379.104 146.95C385.564 153.1 391.864 161.33 392.654 170.39Z" fill="white"/>
<path d="M353.544 493.179C392.934 457.019 411.204 379.489 422.104 333.169L423.814 325.919C429.424 302.329 439.354 284.749 450.004 274.189C489.524 335.569 484.174 398.999 474.174 438.789C446.864 475.129 407.784 500.039 362.894 509.419C350.114 512.079 337.254 513.409 324.494 513.419C333.844 508.779 343.634 502.269 353.544 493.179Z" fill="white"/>
<path d="M425.114 230.18C441.084 216.77 453.944 206.55 462.964 199.91C482.714 221.44 497.104 247.34 505.024 275.92C497.634 266.05 488.194 256.65 477.984 254.55C469.174 252.74 460.134 255.27 451.664 261.24C444.214 250.79 435.424 240.38 425.114 230.18Z" fill="white"/>
<path d="M140.944 317.65C159.124 268.81 225.824 248.88 250.924 241.38L252.044 241.04C260.284 238.57 272.104 236.56 285.804 234.25C318.154 228.77 358.024 221.96 382.074 203.99C391.824 211.43 401.864 219.96 412.194 229.68C357.684 275.96 273.444 353.74 183.494 449.33C162.534 425.41 147.984 396.38 141.304 364.39C138.644 351.67 137.314 338.89 137.294 326.19C139.404 321.24 140.914 317.71 140.944 317.65Z" fill="white"/>
<path d="M418.814 224.08C408.684 214.52 398.694 205.92 388.834 198.28C397.954 189.39 402.114 179.77 401.224 169.62C400.684 163.45 398.294 157.73 395.014 152.62C406.104 157.16 416.844 162.79 427.104 169.5C437.954 176.61 447.924 184.7 456.924 193.64C447.474 200.59 434.574 210.86 418.814 224.08Z" fill="white"/>
<path d="M374.824 198.62C352.204 214.23 314.814 220.58 284.354 225.75C270.374 228.12 258.314 230.16 249.564 232.78L248.454 233.12C224.384 240.31 163.764 258.45 138.784 302.08C142.344 274.37 152.144 247.61 167.904 223.55C181.174 203.27 198.804 184.55 218.094 171.06C262.434 152.34 312.204 153.62 374.824 198.62Z" fill="white"/>
<path d="M476.264 263C489.344 265.69 503.414 287.66 510.104 300.34C515.864 341.41 507.954 382.68 487.364 418.73C488.374 412.38 489.204 405.7 489.724 398.7C492.344 363.65 487.564 315.88 456.664 268.55C463.494 263.72 470.344 261.79 476.264 263Z" fill="white"/>
<path d="M418.513 235.76C428.833 245.93 437.603 256.3 444.983 266.77C432.193 278.98 421.313 299.16 415.433 323.93L413.713 331.2C403.033 376.56 385.163 452.48 347.713 486.83C332.243 501.01 317.073 508.42 303.593 512.29C274.813 509.08 246.983 499.12 222.043 482.81C210.003 474.93 199.053 465.82 189.323 455.7C280.093 359.2 364.703 281.45 418.513 235.76Z" fill="white"/>
<path d="M376.283 381.74L381.353 380.35C384.403 379.54 386.493 378.5 386.493 374.05C386.493 370.37 385.453 363.64 381.033 363.64C376.283 363.64 376.283 371.62 376.283 375.96V381.74Z" fill="white"/>
<path d="M315.364 378.88C315.364 362.87 314.784 349.05 303.914 349.05C295.064 349.05 293.544 362.88 293.544 378.88C293.544 394.88 293.084 408.74 303.914 408.74C313.124 408.74 315.364 394.87 315.364 378.88Z" fill="white"/>
<path d="M376.283 381.74L381.353 380.35C384.403 379.54 386.493 378.5 386.493 374.05C386.493 370.37 385.453 363.64 381.033 363.64C376.283 363.64 376.283 371.62 376.283 375.96V381.74Z" fill="white"/>
<path d="M292.344 342.24H292.134H292.524C297.744 334.13 307.664 330.26 317.344 330.26C339.344 330.26 352.854 349.22 352.854 374.74C352.854 404.95 332.354 422.93 307.074 422.93C268.134 422.93 254.004 391.53 254.004 355.16C254.004 313.27 272.204 278.67 317.534 278.67C335.184 278.67 349.734 290.09 349.734 307.48C349.734 318.76 341.004 324.28 332.674 324.28C320.444 324.28 316.554 314.04 314.814 305.11C314.104 301.3 315.524 292.9 309.194 292.9C296.034 292.9 293.874 318.7 293.314 328.18L292.344 342.24Z" fill="white"/>
<path d="M315.364 378.88C315.364 362.87 314.784 349.05 303.914 349.05C295.064 349.05 293.544 362.88 293.544 378.88C293.544 394.88 293.084 408.74 303.914 408.74C313.124 408.74 315.364 394.87 315.364 378.88Z" fill="white"/>
<path d="M79.5331 280.16C86.9131 281.03 89.9831 286.23 88.8331 295.88L88.0031 302.86L91.9731 303.33C97.0831 303.93 98.9931 303.82 99.5931 299.69L104.303 300.25L102.063 319.2L97.3531 318.64C97.7331 314.49 95.8931 313.92 90.7931 313.31L76.0431 311.56C70.9331 310.95 69.0231 311.07 68.4131 315.2L63.7031 314.64L66.1731 293.82C67.3631 283.84 71.9331 279.26 79.5331 280.16ZM83.4631 300.42C84.2031 294.12 82.3631 290.74 77.8831 290.21C73.9631 289.75 71.1531 292.17 70.5831 296.89C70.1831 300.24 71.3731 300.9 74.9531 301.32L83.1831 302.3C83.3231 301.67 83.3931 301.04 83.4631 300.42Z" fill="white"/>
<path d="M107.283 259.24C108.793 255.35 107.183 254.3 102.443 252.32L88.7332 246.58C83.9932 244.59 82.1232 244.18 80.4032 247.98L76.0332 246.15L83.4032 228.54L87.6732 230.33C86.1732 234.22 87.7732 235.27 92.5232 237.25L96.0532 238.73L101.573 225.55L98.0432 224.07C93.3032 222.09 91.4332 221.67 89.7132 225.48L85.4432 223.69L92.8132 206.08L97.1932 207.91C95.6832 211.8 97.2932 212.85 102.043 214.83L115.743 220.57C120.483 222.56 122.363 222.97 124.073 219.17L128.443 221L121.073 238.61L116.803 236.82C118.303 232.93 116.703 231.88 111.953 229.9L106.003 227.41L100.483 240.59L106.443 243.09C111.183 245.07 113.063 245.49 114.773 241.68L119.043 243.47L111.673 261.07L107.283 259.24Z" fill="white"/>
<path d="M125.733 165.64C123.323 169.05 124.633 170.45 128.743 173.54L140.643 182.45C144.763 185.53 146.473 186.39 149.073 183.12L152.873 185.96L141.473 201.2L137.673 198.36C140.083 194.95 138.743 193.59 134.623 190.51L122.733 181.6C118.613 178.52 116.933 177.62 114.343 180.89L110.543 178.05L121.953 162.81L125.733 165.64Z" fill="white"/>
<path d="M168.683 167.89L165.633 164.26C168.753 161.49 167.763 159.86 164.453 155.92L154.893 144.53C151.583 140.59 150.153 139.33 146.883 141.92L143.833 138.28L158.413 126.05L161.463 129.68C158.343 132.45 159.293 134.12 162.593 138.06L173.243 150.76C175.703 153.69 176.833 154.16 179.863 151.62C183.883 148.24 185.593 142.18 184.143 134.67L188.323 133.78L192.613 147.79L168.683 167.89Z" fill="white"/>
<path d="M214.003 133.04L212.033 128.72C215.613 126.52 215.443 124.08 215.313 119.93L214.283 90.42L222.243 86.79L244.223 108.24C246.723 110.68 248.083 111.88 251.353 110.77L253.323 115.09L235.953 123.02L234.033 118.81C234.133 118.76 234.293 118.69 234.393 118.64C236.783 117.55 237.693 116.51 237.003 115C236.763 114.48 236.423 114.01 235.983 113.58L231.953 109.57L220.713 114.7L221.413 120.22C221.473 120.63 221.563 121.1 221.723 121.46C222.483 123.12 224.113 123.26 226.843 122.08L228.773 126.29L214.003 133.04ZM228.163 106.09L219.933 97.28L220.623 109.53L228.163 106.09Z" fill="white"/>
<path d="M272.843 104.54C276.953 103.84 277.033 101.92 276.313 96.8301L274.223 82.1101C273.493 77.0101 272.893 75.2001 268.743 75.6701L268.073 70.9701L287.323 68.2401C302.103 66.1401 310.953 71.9301 312.683 84.1601C314.423 96.4401 307.593 104.41 292.763 106.51L273.513 109.24L272.843 104.54ZM286.603 97.7301C287.143 101.52 287.803 102.53 291.773 101.96C299.413 100.87 303.523 94.8601 302.213 85.6301C300.903 76.4001 295.283 71.8301 287.643 72.9101C283.683 73.4701 283.323 74.6201 283.863 78.4101L286.603 97.7301Z" fill="white"/>
<path d="M339.883 98.8999C344.023 99.3899 344.643 97.5699 345.383 92.4899L347.533 77.7899C348.273 72.6999 348.213 70.7899 344.103 70.0699L344.793 65.3799L376.513 70.0099L380.023 82.3099L376.193 83.6499C373.093 77.2499 368.653 73.5999 362.833 72.7499C359.043 72.1999 358.373 73.2499 357.833 76.9899L357.033 82.4699L358.843 82.7299C362.853 83.3199 364.053 82.2199 364.963 77.5599L368.983 78.1499L366.463 95.3899L362.453 94.7999C362.583 90.3099 361.303 88.0499 358.133 87.5799L356.323 87.3199L355.023 96.2499C354.473 99.9799 354.823 101.13 358.673 101.69C364.323 102.52 370.903 99.7799 376.083 93.5499L379.413 96.0599L371.733 108.34L339.223 103.59L339.883 98.8999Z" fill="white"/>
<path d="M399.743 115.78L401.643 111.44C405.513 113.01 406.523 111.4 408.593 106.69L414.563 93.0797C416.623 88.3697 417.123 86.5297 413.343 84.7497L415.243 80.4097L432.663 88.0497L430.763 92.3897C426.893 90.8197 425.833 92.4097 423.763 97.1197L417.113 112.3C415.583 115.8 415.663 117.03 419.273 118.61C424.083 120.72 430.273 119.56 436.353 114.93L439.003 118.28L428.353 128.34L399.743 115.78Z" fill="white"/>
<path d="M497.583 144.07C492.913 149.85 486.883 149.68 479.323 143.57L473.853 139.15L471.343 142.26C468.113 146.26 467.193 147.94 470.363 150.65L467.383 154.34L452.543 142.34L455.523 138.65C458.843 141.18 460.293 139.93 463.523 135.93L472.863 124.37C476.093 120.37 477.013 118.69 473.843 115.98L476.823 112.29L493.133 125.47C500.953 131.8 502.403 138.11 497.583 144.07ZM478.343 136.6C483.273 140.59 487.123 140.83 489.963 137.32C492.433 134.25 491.883 130.57 488.193 127.59C485.573 125.47 484.383 126.13 482.123 128.93L476.913 135.38C477.373 135.81 477.853 136.21 478.343 136.6Z" fill="white"/>
<path d="M500.504 178.75C502.984 182.1 504.734 181.3 508.944 178.35L521.124 169.83C525.334 166.88 526.684 165.52 524.384 162.03L528.273 159.31L539.224 174.96L535.424 177.61C532.944 174.26 531.194 175.06 526.984 178.01L523.844 180.21L532.034 191.92L535.174 189.72C539.394 186.77 540.734 185.41 538.444 181.92L542.234 179.27L553.174 194.91L549.284 197.63C546.804 194.28 545.054 195.08 540.844 198.02L528.664 206.54C524.454 209.49 523.094 210.85 525.404 214.34L521.513 217.06L510.574 201.41L514.364 198.76C516.844 202.12 518.594 201.32 522.804 198.37L528.104 194.67L519.914 182.96L514.614 186.66C510.404 189.61 509.054 190.97 511.354 194.46L507.554 197.11L496.604 181.47L500.504 178.75Z" fill="white"/>
<path d="M569.823 244.27C568.213 240.41 566.333 240.77 561.533 242.62L547.653 247.95C542.843 249.8 541.213 250.79 542.603 254.73L538.173 256.43L531.343 238.66L535.773 236.96C537.383 240.82 539.243 240.41 544.043 238.56L557.913 233.23C562.723 231.38 564.373 230.44 562.983 226.5L567.413 224.8L574.243 242.57L569.823 244.27Z" fill="white"/>
<path d="M544.923 277.27L549.633 276.66C550.683 280.73 553.063 281.29 557.063 282.38L585.563 290.07L586.693 298.74L559.733 313.45C556.663 315.12 555.123 316.07 555.223 319.52L550.513 320.14L548.043 301.21L552.633 300.61C552.643 300.72 552.673 300.89 552.683 301.01C553.023 303.62 553.753 304.79 555.393 304.58C555.963 304.51 556.513 304.32 557.053 304.02L562.063 301.35L560.463 289.11L554.973 288.16C554.563 288.1 554.093 288.04 553.693 288.1C551.883 288.34 551.273 289.86 551.593 292.81L547.003 293.41L544.923 277.27ZM566.513 298.72L577.353 293.44L565.443 290.5L566.513 298.72Z" fill="white"/>
<path d="M441.463 350.44C437.143 350.44 433.943 352.32 431.513 355.01C431.253 354.43 430.983 353.84 430.683 353.27L428.593 349.21L398.673 357.97V374.33H404.193C404.723 374.33 405.033 374.4 405.093 374.36C405.353 374.82 405.823 376.36 405.823 381.38V400.41L400.353 401.18V419.17H441.783V401.19L436.343 400.42V394.84C436.343 391.61 437.013 385.53 437.853 381.96C439.383 382.41 441.223 382.79 443.263 382.79C450.693 382.79 455.883 376.11 455.883 366.55C455.903 356.92 450.103 350.44 441.463 350.44Z" fill="white"/>
<path d="M493.364 369.52C493.004 368.16 492.884 367.65 492.884 366.91C492.884 362.01 490.924 350.61 472.804 350.61C462.774 350.61 443.114 358.33 443.114 376.17C443.114 382.8 445.084 387.62 447.924 391.22C443.984 393.54 441.554 398 441.554 403.59C441.554 410.02 444.794 420.82 466.494 420.82C485.054 420.82 495.694 411.2 495.694 394.42C495.704 378.42 494.294 373.06 493.364 369.52Z" fill="white"/>
<path d="M274.593 273.29C273.463 271.97 271.813 271.22 270.073 271.22C267.343 271.22 265.163 272.94 262.533 275.72C253.693 285.05 241.753 289.98 227.993 289.98C209.953 289.98 190.963 281.69 175.903 267.23C174.683 266.06 173.113 265.41 171.463 265.41C164.103 265.41 162.163 277.25 162.143 277.37L162.113 336.69L166.833 337.39C184.763 340.04 200.143 339.5 214.203 335.71C199.023 349.31 164.833 386.27 165.343 421.54C165.423 428.04 169.453 428.74 171.173 428.74C173.323 428.74 174.733 427.59 175.673 426.83C175.923 426.63 176.233 426.37 176.623 426.09C181.483 422.49 189.383 420.42 198.323 420.42C205.703 420.42 213.023 421.9 218.453 424.5C219.473 424.98 220.693 425.49 222.173 425.49C223.883 425.49 225.453 424.8 226.593 423.56C228.513 421.46 228.283 418.87 228.123 417.11C225.613 391.55 231.253 363.57 242.153 347.47L243.783 345.05C253.053 331.33 272.353 302.77 275.993 279.19C276.343 276.77 275.873 274.79 274.593 273.29Z" fill="white"/>
<path d="M412.254 386.61L411.984 382.12C411.804 379.16 411.364 376.36 410.684 373.73L410.484 368.58L409.534 370.06C405.064 357.97 395.024 350.45 382.204 350.45C363.004 350.45 349.604 365.63 349.604 387.35C349.604 404.01 359.354 420.81 381.144 420.81C393.614 420.81 405.054 414.53 410.994 404.42L411.814 403.03L411.194 386.91L412.254 386.61ZM389.014 397C386.934 397 385.504 395.68 384.574 394.06L395.204 391.2C392.194 394.81 389.874 396.76 389.014 397Z" fill="white"/>
<path d="M340.853 334.13C339.763 332.58 338.543 330.86 337.533 329.33C346.963 327.44 355.273 320.02 355.273 307.49C355.273 287.92 339.053 273.16 317.553 273.16C274.313 273.16 248.503 303.82 248.503 355.17C248.503 401.75 269.863 428.46 307.093 428.46C337.293 428.46 358.393 406.37 358.393 374.74C358.383 359 347.833 344.03 340.853 334.13Z" fill="white"/>
<path d="M389.133 402.58C382.413 402.58 378.463 396.46 377.793 390.26L406.593 382.5C405.743 368.45 397.613 356.01 382.323 356.01C366.043 356.01 355.243 368.7 355.243 387.39C355.243 401.99 363.623 415.33 381.263 415.33C391.343 415.33 401.123 410.56 406.353 401.66L400.653 394.89C397.873 399.21 394.623 402.58 389.133 402.58ZM376.403 376.02C376.403 371.68 376.403 363.7 381.153 363.7C385.573 363.7 386.613 370.43 386.613 374.11C386.613 378.56 384.523 379.6 381.473 380.41L376.403 381.79V376.02Z" fill="#1D428A"/>
<path d="M436.393 413.71H406.003V406.05L411.473 405.28V381.45C411.473 372.95 410.353 368.88 404.323 368.88V362.18L425.893 355.86C428.363 360.66 429.123 366.16 429.473 371.6H429.683C431.843 365.13 434.533 356.02 441.583 356.02C447.753 356.02 450.493 360.79 450.493 366.62C450.493 372.52 447.913 377.34 443.403 377.34C440.303 377.34 437.653 376.03 436.173 375.53C432.233 374.19 430.963 391.35 430.963 394.91V405.28L436.403 406.05V413.71H436.393Z" fill="#1D428A"/>
<path d="M487.473 366.96C487.473 371.68 483.403 374.03 479.103 374.03C473.873 374.03 470.193 369.79 469.233 364.69C467.003 364.69 465.423 365.83 465.423 369.62C465.423 378.44 490.293 372.16 490.293 394.46C490.293 411.17 478.223 415.34 466.603 415.34C459.533 415.34 447.183 414.41 447.183 403.63C447.183 398.75 449.893 395.03 454.753 395.03C462.303 395.03 463.603 401.94 464.873 406.85C465.233 408.14 466.353 408.35 467.403 408.35C471.383 408.35 474.273 406.71 474.273 404.08C474.273 394.07 448.743 397.95 448.743 376.22C448.743 362.42 465.063 356.18 472.913 356.18C481.853 356.18 487.473 359.18 487.473 366.96Z" fill="#1D428A"/>
<path d="M317.463 330.31C307.783 330.31 297.863 334.18 292.643 342.29H292.463H292.253H292.463L293.433 328.25C293.993 318.76 296.153 292.97 309.313 292.97C315.633 292.97 314.213 301.36 314.933 305.18C316.673 314.11 320.563 324.35 332.793 324.35C341.123 324.35 349.853 318.83 349.853 307.55C349.853 290.16 335.303 278.74 317.653 278.74C272.313 278.74 254.123 313.33 254.123 355.23C254.123 391.6 268.253 423 307.193 423C332.473 423 352.973 405.02 352.973 374.81C352.973 349.27 339.473 330.31 317.463 330.31ZM304.033 408.79C293.203 408.79 293.663 394.92 293.663 378.93C293.663 362.92 295.183 349.1 304.033 349.1C314.903 349.1 315.483 362.93 315.483 378.93C315.473 394.93 313.243 408.79 304.033 408.79Z" fill="#1D428A"/>
<path d="M167.753 277.99V331.98C197.993 336.44 234.093 333.48 259.603 296.16C260.673 294.57 261.303 295.69 260.613 297.07C253.483 311.58 236.623 325 222.053 336.44C208.043 347.43 170.483 386.85 170.973 421.52C171.003 424.18 171.093 423.45 173.433 421.71C184.843 413.25 207.163 412.98 220.883 419.55C222.813 420.45 222.943 420.18 222.723 417.7C220.093 390.83 226.133 361.47 237.663 344.44C245.593 332.62 266.953 302.24 270.633 278.4C271.013 275.93 269.743 276.31 266.653 279.57C242.453 305.13 198.713 304.51 170.483 277.42C168.703 275.7 167.913 276.47 167.753 277.99Z" fill="#C8102E"/>
<path d="M270.601 257.418C277.131 229.595 259.87 201.745 232.047 195.215C204.224 188.684 176.374 205.945 169.843 233.768C163.313 261.592 180.574 289.441 208.397 295.972C236.221 302.503 264.07 285.241 270.601 257.418Z" fill="white"/>
<path d="M220.184 195.65L221.914 201.17H227.754L223.004 204.61L224.744 210.03L220.184 206.71L215.544 210.03L217.274 204.59L212.544 201.17H218.394L220.184 195.65Z" fill="#1D428A"/>
<path d="M254.634 215.75L256.404 221.22H262.264L257.514 224.69L259.254 230.1L254.644 226.76L250.024 230.1L251.814 224.69L246.994 221.22H252.874L254.634 215.75Z" fill="#1D428A"/>
<path d="M239.844 200.24L241.604 205.73H247.484L242.724 209.2L244.454 214.63L239.864 211.26L235.274 214.63L236.994 209.18L232.244 205.73H238.094L239.844 200.24Z" fill="#1D428A"/>
<path d="M260.264 234.74L262.024 240.23H267.874L263.144 243.67L264.854 249.1L260.294 245.74L255.694 249.1L257.454 243.67L252.664 240.23H258.484L260.264 234.74Z" fill="#1D428A"/>
<path d="M257.794 254.8L259.554 260.28H265.414L260.664 263.77L262.404 269.18L257.814 265.84L253.244 269.18L254.954 263.74L250.204 260.28H256.054L257.794 254.8Z" fill="#1D428A"/>
<path d="M246.724 270.82L248.454 276.31H254.334L249.574 279.78L251.304 285.18L246.754 281.85L242.134 285.18L243.874 279.78L239.084 276.31H244.964L246.724 270.82Z" fill="#1D428A"/>
<path d="M229.304 279.78L231.074 285.27H236.894L232.154 288.75L233.904 294.18L229.324 290.84L224.714 294.18L226.444 288.74L221.684 285.27H227.534L229.304 279.78Z" fill="#1D428A"/>
<path d="M185.064 213.97L183.294 219.44H177.464L182.194 222.93L180.464 228.34L185.034 224.98L189.674 228.34L187.914 222.93L192.704 219.44H186.824L185.064 213.97Z" fill="#1D428A"/>
<path d="M199.494 200.24L197.734 205.73H191.884L196.644 209.2L194.884 214.63L199.494 211.26L204.094 214.63L202.364 209.18L207.124 205.73H201.264L199.494 200.24Z" fill="#1D428A"/>
<path d="M178.344 232.28L176.614 237.75H170.754L175.524 241.2L173.784 246.64L178.344 243.31L182.944 246.64L181.224 241.2L186.004 237.75H180.164L178.344 232.28Z" fill="#1D428A"/>
<path d="M180.163 252.32L178.373 257.82H172.523L177.283 261.3L175.553 266.72L180.123 263.37L184.733 266.72L182.973 261.29L187.733 257.82H181.883L180.163 252.32Z" fill="#1D428A"/>
<path d="M191.214 268.7L189.474 274.2H183.614L188.374 277.66L186.614 283.07L191.214 279.71L195.854 283.07L194.084 277.65L198.834 274.2H192.994L191.214 268.7Z" fill="#1D428A"/>
<path d="M208.644 279.09L206.894 284.6H201.034L205.794 288.06L204.064 293.46L208.614 290.16L213.264 293.46L211.484 288.02L216.274 284.6H210.414L208.644 279.09Z" fill="#1D428A"/>
</svg>
