<svg width="649" height="649" viewBox="0 0 649 649" fill="none" xmlns="http://www.w3.org/2000/svg">
<path d="M607.393 38.7002C606.503 37.5702 605.143 36.9102 603.703 36.9102H247.853C205.413 37.0002 179.323 55.3302 170.333 91.3802L41.0333 607.06C40.6833 608.47 40.9933 609.96 41.8833 611.1C42.7733 612.24 44.1433 612.91 45.5933 612.91H433.173C455.433 612.9 477.633 595.21 482.663 573.49L608.273 42.6902C608.603 41.3002 608.283 39.8302 607.393 38.7002Z" fill="#63717A"/>
<path d="M45.5938 608.21H433.174C453.334 608.21 473.544 592.04 478.094 572.41L603.704 41.6201H247.864C214.864 41.6901 184.884 52.5001 174.894 92.5301L45.5938 608.21Z" fill="black"/>
<path d="M461.623 402.73H120.173L195.283 105.351C204.873 66.9005 228.673 59.0205 261.453 59.0205H574.943L503.143 369.641C498.923 387.891 480.303 402.73 461.623 402.73ZM125.513 398.581H461.623C478.483 398.581 495.293 385.171 499.093 368.711L569.723 63.1805H261.453C224.003 63.1805 207.163 74.8805 199.313 106.371L125.513 398.581Z" fill="#63717A"/>
<path d="M176.093 569.47L185.423 582.39H256.203L284.933 468.58H255.923L231.253 566.32H205.463L230.143 468.58H193.603L191.283 470.64L198.553 480.44L176.093 569.47Z" fill="white"/>
<path d="M178.233 508.46L185.173 481.03L175.833 468.09H117.763L101.903 481.03L92.2332 519.33L141.273 539.94L134.613 566.32H108.953L112.083 553.94L86.4632 542.19L79.5732 569.47L88.9132 582.39H146.983L162.843 569.47L172.513 531.15L123.473 510.53L130.133 484.15H155.793L152.603 496.79L178.233 508.46Z" fill="white"/>
<path d="M378.473 481.03L369.143 468.09H298.363L269.633 581.91H298.633L323.313 484.15H349.103L324.433 581.91H360.943L363.273 579.83L356.013 570.04L378.473 481.03Z" fill="white"/>
<path d="M468.203 508.46L475.123 481.03L465.793 468.09H407.723L391.863 481.03L382.193 519.33L431.243 539.94L424.573 566.32H398.913L402.043 553.94L376.423 542.19L369.543 569.47L378.883 582.39H436.943L452.803 569.47L462.473 531.15L413.433 510.53L420.103 484.15H445.753L442.563 496.79L468.203 508.46Z" fill="white"/>
<path d="M86.4632 542.19L96.9632 558.07L94.6632 567.17L99.9432 574.31H140.923L149.203 567.9L162.843 569.47L146.983 582.39H88.9132L79.5732 569.47L86.4632 542.19Z" fill="#BEC0C2"/>
<path d="M134.613 566.32L149.203 567.9L157.383 535.49L107.863 514.69L115.953 482.64L101.903 481.03L92.2334 519.33L141.273 539.94L134.613 566.32Z" fill="#BEC0C2"/>
<path d="M164.693 476.12H124.493L115.953 482.64L130.133 484.15H155.793L152.603 496.79L167.863 492.08L170.053 483.4L164.693 476.12Z" fill="#BEC0C2"/>
<path d="M376.423 542.19L386.923 558.07L384.633 567.17L389.903 574.31H430.883L439.153 567.9L452.803 569.47L436.943 582.39H378.883L369.543 569.47L376.423 542.19Z" fill="#BEC0C2"/>
<path d="M424.573 566.32L439.153 567.9L447.343 535.49L397.823 514.69L405.913 482.64L391.863 481.03L382.193 519.33L431.243 539.94L424.573 566.32Z" fill="#BEC0C2"/>
<path d="M454.653 476.12H414.453L405.913 482.64L420.103 484.15H445.753L442.563 496.79L457.833 492.08L460.023 483.4L454.653 476.12Z" fill="#BEC0C2"/>
<path d="M191.283 470.641L213.993 476.161L191.023 567.171L196.373 574.371H243.593L256.203 582.391H185.423L176.093 569.471L198.553 480.441L191.283 470.641Z" fill="#BEC0C2"/>
<path d="M255.923 468.58L268.523 476.12L243.593 574.37L231.253 566.32L255.923 468.58Z" fill="#BEC0C2"/>
<path d="M310.983 476.12L298.363 468.09L269.633 581.91H298.633L286.043 574.36L310.983 476.12Z" fill="#BEC0C2"/>
<path d="M340.573 574.32L363.553 483.31L358.193 476.12H310.983L323.313 484.15H349.103L324.433 581.91H360.943L363.273 579.83L340.573 574.32Z" fill="#BEC0C2"/>
<path d="M117.383 420.18L116.643 420.8L119.063 423.96L111.743 453.9H121.853L122.593 453.28L120.083 450.4L122.053 442.31L137.703 437.44L140.923 424.28L137.803 420.2H117.383V420.18ZM131.103 433.84L123.593 436.03L126.053 425.96L133.033 425.95L131.103 433.84Z" fill="white"/>
<path d="M201.193 420.18H193.713L190.743 432.31L183.393 434.08L186.783 420.18H176.713L175.963 420.79L178.383 423.95L171.073 453.89H178.553L181.813 440.56L189.123 438.93L185.463 453.89H195.553L196.293 453.27L193.803 450.39L201.193 420.18Z" fill="white"/>
<path d="M242.843 420.18L237.733 424.22L231.483 449.8L234.613 453.89H248.343L253.423 449.8L259.673 424.21L256.573 420.17H242.843V420.18ZM246.273 448.47H239.293L244.833 425.78H251.803L246.273 448.47Z" fill="white"/>
<path d="M376.163 424.22L373.023 420.18H354.913L346.673 453.89H354.163L361.033 425.78H368.303L361.433 453.89H371.513L372.263 453.27L369.763 450.39L376.163 424.22Z" fill="white"/>
<path d="M422.914 420.18H412.824L412.084 420.79L414.494 423.95L407.184 453.89H417.274L418.024 453.27L415.534 450.39L422.914 420.18Z" fill="white"/>
<path d="M477.093 450.57L473.093 437.4L486.423 420.18H479.213L471.463 430.59L468.813 420.18H458.743L457.973 420.78L462.083 423.8L465.883 437.52L453.223 453.89H460.503L467.893 444L470.433 453.89H480.523L481.273 453.27L477.093 450.57Z" fill="white"/>
<path d="M307.623 448.47H298.843L300.953 439.84L308.213 439.83L309.583 434.27L302.313 434.28L304.393 425.78H312.593L314.663 428.74L315.453 428.18L317.413 420.18H295.683L294.933 420.79L297.353 423.95L290.043 453.89H309.723L311.643 446L311.143 445.45L307.623 448.47Z" fill="white"/>
<path d="M134.554 393.11L326.634 287.92L196.374 393.11L354.434 302.28L351.824 320.6L378.184 305.95L437.724 362.24L469.424 267.03L515.254 264.08L491.934 206.33L533.444 173.84L479.764 152.94L493.364 95.1899L447.674 116.1L424.134 66.4199L387.554 102.96L321.704 73.4099L312.644 132.21L253.954 144.93L288.684 165.86L253.744 183.39L283.424 185.96L161.334 280.92L284.144 215.69L152.394 315.97L292.634 242.88L142.844 355.5L307.934 267.53L134.554 393.11Z" fill="#F9A01B"/>
<path d="M486.054 207.17C483.874 259.96 439.324 300.97 386.524 298.79C333.744 296.62 292.724 252.06 294.914 199.28C297.084 146.49 341.654 105.47 394.424 107.65C447.214 109.83 488.224 154.39 486.054 207.17Z" fill="#E56020"/>
<path d="M402.194 285.75C349.424 283.55 308.394 239 310.574 186.22C311.564 161.79 321.664 139.91 337.434 123.64C312.884 140.03 296.214 167.5 294.914 199.28C292.724 252.06 333.744 296.62 386.524 298.79C414.894 299.97 440.884 288.65 459.184 269.74C442.924 280.61 423.224 286.62 402.194 285.75Z" fill="#B95915"/>
<path d="M486.094 204.34C486.144 200.92 486.004 197.53 485.694 194.19C480.194 190.34 473.604 187.41 465.844 186.41C464.364 186.23 462.964 186.14 461.534 186.03C460.604 179.71 459.174 173.52 457.274 167.5C458.264 167.56 459.264 167.61 460.264 167.67C466.994 168.17 473.624 168.93 480.164 169.88C479.244 167.45 478.234 165.06 477.144 162.72C469.784 161.6 462.314 160.73 454.754 160.17C454.724 160.17 454.704 160.17 454.674 160.17C452.254 154.01 449.284 148.09 445.824 142.45C450.714 141.44 455.074 139.45 458.604 136.11C456.794 134.28 454.914 132.51 452.964 130.83C449.884 133.66 445.904 135.15 441.344 135.76C440.644 134.78 439.954 133.8 439.214 132.86C432.714 124.41 425.214 117.19 416.964 111.31C409.764 109.24 402.224 107.96 394.404 107.65C393.984 107.63 393.554 107.64 393.124 107.62C407.654 113.34 420.634 122.94 431.074 135.8C421.124 134.84 409.644 131.5 398.294 128.17C394.934 127.18 391.654 126.21 388.464 125.33C369.144 119.99 354.274 119.14 343.134 120.1C334.854 124.83 327.334 130.76 320.824 137.67C332.864 132.65 357.164 124.07 386.634 132.23C389.774 133.1 393.024 134.05 396.324 135.01C409.354 138.85 423.984 143.11 436.604 143.25C440.084 148.45 443.104 153.92 445.604 159.64C443.124 159.52 440.664 159.44 438.194 159.4C376.774 158.35 324.114 176.73 294.884 206.04C295.044 211.86 295.714 217.56 296.874 223.1C305.114 211.26 317.324 200.58 333.074 191.72C362.804 175.01 402.254 166.22 444.174 166.94C445.614 166.96 447.074 167.03 448.504 167.08C450.624 173.14 452.194 179.42 453.204 185.85C426.214 187 408.704 203.84 388.614 221.78C370.574 237.92 348.574 254 316.354 263.67C319.394 267.4 322.694 270.89 326.264 274.12C356.604 261.9 376.764 242.87 393.804 227.65C413.144 210.35 429.744 193.77 454.124 192.96C454.764 199.7 454.784 206.57 454.164 213.5C450.884 250.97 429.184 282.74 399.584 298.42C407.154 297.71 414.494 296.1 421.474 293.7C423.854 291.74 426.164 289.68 428.394 287.48C447.794 268.38 459.834 242.34 462.304 214.21C462.924 207.16 462.914 200.18 462.344 193.3C463.564 193.43 464.764 193.53 466.014 193.74C474.344 195.1 480.944 199.29 486.094 204.34Z" fill="black"/>
</svg>
