<svg width="649" height="649" viewBox="0 0 649 649" fill="none" xmlns="http://www.w3.org/2000/svg">
<path d="M419.374 146.24C415.684 140.77 411.444 135.64 406.774 130.96C404.744 128.94 402.634 126.99 400.444 125.14L446.374 79.21H312.554L260.904 130.86H260.914C260.874 130.9 260.834 130.94 260.794 130.97C256.124 135.64 251.884 140.78 248.194 146.25C244.464 151.77 241.264 157.67 238.684 163.78C233.304 176.5 230.574 190.02 230.574 203.96C230.574 217.89 233.304 231.41 238.684 244.14C241.264 250.26 244.464 256.15 248.194 261.67C251.884 267.14 256.124 272.27 260.794 276.94C262.824 278.97 264.944 280.92 267.144 282.78L221.224 328.7H355.004L406.864 276.84C411.494 272.2 415.704 267.09 419.364 261.67C423.094 256.15 426.294 250.25 428.884 244.14C434.264 231.42 436.994 217.9 436.994 203.96C436.994 190.02 434.264 176.51 428.884 163.78C426.304 157.65 423.104 151.75 419.374 146.24Z" fill="black"/>
<path d="M400.723 136.89C398.703 134.87 396.614 132.95 394.454 131.15L338.294 187.31C341.064 188.09 343.663 189.56 345.843 191.73L345.854 191.74C352.634 198.52 352.634 209.52 345.854 216.3L241.833 320.35H254.023L351.963 222.41C362.083 212.29 362.114 195.91 352.054 185.75L358.144 179.66C371.564 193.18 371.534 215.02 358.054 228.5L266.213 320.35H278.403L364.153 234.6C381.003 217.75 381.034 190.46 364.244 173.57L370.334 167.48C390.494 187.73 390.464 220.49 370.244 240.7L290.584 320.36H302.774L376.334 246.79C399.914 223.21 399.944 185 376.424 161.37L382.514 155.28C409.404 182.26 409.374 225.93 382.424 252.88L314.954 320.35H327.144L388.514 258.98C418.824 228.66 418.854 179.54 388.604 149.19L394.734 143.06C428.374 176.8 428.344 231.42 394.644 265.12L339.403 320.36H351.593L400.734 271.21L400.713 271.19C437.813 234.1 437.813 173.98 400.723 136.89Z" fill="white"/>
<path d="M266.904 271.08C268.924 273.1 271.014 275.02 273.174 276.82L329.334 220.66C326.564 219.88 323.964 218.41 321.784 216.24L321.774 216.23C314.994 209.45 314.994 198.45 321.774 191.67L425.944 87.48H413.754L315.674 185.56C305.554 195.68 305.524 212.06 315.584 222.22L309.494 228.31C296.074 214.79 296.104 192.95 309.584 179.47L401.564 87.49H389.374L303.484 173.38C286.634 190.23 286.604 217.53 303.394 234.41L297.304 240.5C277.144 220.25 277.174 187.49 297.394 167.28L377.194 87.49H365.004L291.304 161.19C267.724 184.77 267.694 222.99 291.214 246.61L285.124 252.7C258.234 225.72 258.264 182.05 285.214 155.1L352.824 87.5H340.634L279.124 149.01C248.814 179.33 248.784 228.45 279.034 258.8L272.904 264.93C239.264 231.19 239.294 176.57 272.994 142.87L328.374 87.49H316.184L266.904 136.77L266.924 136.79C229.824 173.87 229.824 233.99 266.904 271.08Z" fill="#E03A3E"/>
<path d="M166.094 538.02H159.514V531.49H179.954V538.02H173.304V570.35H166.094V538.02Z" fill="black"/>
<path d="M201.404 548.89L202.974 547.26V538.7L201.404 537.07H196.614V548.9H201.404V548.89ZM189.354 531.49H205.514L210.244 536.22V549.85L206.354 553.68L210.694 570.35H203.374L199.424 554.47H196.604V570.35H189.344V531.49H189.354Z" fill="black"/>
<path d="M227.473 555.37H232.263L229.903 536.11L227.473 555.37ZM224.763 531.49H235.353L241.323 570.35H234.173L233.043 561.34H226.733L225.603 570.35H218.793L224.763 531.49Z" fill="black"/>
<path d="M249.484 564.83H253.824V537.01H249.484V531.49H265.424V537.01H261.084V564.83H265.424V570.34H249.484V564.83Z" fill="black"/>
<path d="M275.504 531.49H282.764V563.98H291.094V570.35H275.504V531.49Z" fill="black"/>
<path d="M327.753 564.54L329.323 562.97V555.2L327.523 553.34H323.293V564.54H327.753ZM327.523 547.59L329.323 545.74V538.87L327.753 537.3H323.303V547.6H327.523V547.59ZM316.043 531.49H331.863L336.593 536.22V546.53L332.703 550.41L336.593 554.3V565.62L331.863 570.35H316.043V531.49Z" fill="black"/>
<path d="M347.404 531.49H354.664V563.98H363.004V570.35H347.404V531.49Z" fill="black"/>
<path d="M379.674 555.37H384.464L382.094 536.11L379.674 555.37ZM376.964 531.49H387.544L393.514 570.35H386.364L385.234 561.34H378.924L377.794 570.35H370.984L376.964 531.49Z" fill="black"/>
<path d="M401.684 565.05L411.484 538.02H401.794V531.49H419.424V536.73L409.624 563.75H419.484V570.34H401.684V565.05Z" fill="black"/>
<path d="M429.554 531.49H446.624V537.85H436.814V547.37H445.714V553.73H436.814V563.98H446.734V570.35H429.554V531.49Z" fill="black"/>
<path d="M469.314 548.89L470.884 547.26V538.7L469.314 537.07H464.524V548.9H469.314V548.89ZM457.264 531.49H473.424L478.154 536.22V549.85L474.264 553.68L478.604 570.35H471.284L467.334 554.47H464.514V570.35H457.254V531.49H457.264Z" fill="black"/>
<path d="M487.833 565.61V558.69H495.043V562.8L496.673 564.37H499.263L500.843 562.8V555.25L499.603 554.02H492.003L488.003 550.02V536.22L492.733 531.49H503.323L508.053 536.22V543.15H500.793V539.09L499.213 537.46H496.843L495.213 539.09V546.3L496.453 547.54H504.113L508.113 551.53V565.61L503.373 570.34H492.563L487.833 565.61Z" fill="black"/>
<path d="M78.3038 370.95H83.4338C88.6338 370.95 92.0538 372.7 92.0938 378.56V411.91C92.1138 417.52 90.3838 420.46 82.3238 420.46H78.3038V370.95ZM115.184 382.51C115.184 359.98 103.054 352.4 79.2238 352.4H60.9338H55.1738H36.6138L55.1738 370.96V506.65H78.1338V438.92H79.3238C102.534 438.92 114.604 431.71 115.164 410.46H115.174V382.51H115.184Z" fill="black"/>
<path d="M154.854 506.64C169.144 506.64 184.944 500.8 184.944 480.67V378.38C184.944 358.24 169.144 352.4 154.854 352.4C140.784 352.4 124.984 358.24 124.984 378.38V480.67C124.984 500.8 140.784 506.64 154.854 506.64ZM147.924 380.32C147.924 372.53 150.314 370.8 155.074 370.8C159.614 370.8 161.994 372.53 161.994 380.32V478.72C161.994 486.51 159.614 488.24 155.074 488.24C150.314 488.24 147.924 486.51 147.924 478.72V380.32Z" fill="black"/>
<path d="M422.104 457.34H437.134L442.044 506.65H465.224L447.674 352.4H413.234L395.684 506.65H416.484L422.104 457.34ZM429.344 379.58H430.704L435.094 438.86H424.114L429.344 379.58Z" fill="black"/>
<path d="M612.614 478.7V387.28C612.614 360.2 603.073 352.4 580.333 352.4H552.604V506.66H585.323C603.073 506.65 612.614 493.43 612.614 478.7ZM589.643 476.68C589.643 486.64 586.824 488.16 580.984 488.16H575.564V370.96H580.984C586.834 370.96 589.643 372.48 589.643 382.44V476.68Z" fill="black"/>
<path d="M217.904 438.77C228.534 438.31 232.084 442.03 232.054 451.34C232.044 482.52 232.054 506.64 232.054 506.64H254.494C254.494 506.64 254.954 490.06 254.494 445.46C254.354 431.55 245.684 429.47 245.684 429.47C255.734 425.13 254.604 420.17 254.584 408.69L254.484 378.87C254.434 358.94 243.654 352.47 225.134 352.47L194.724 352.41V506.66H217.904V438.77V438.77ZM217.734 370.84H223.204C228.404 370.84 231.894 372.59 231.934 378.45L231.874 410.32C231.904 415.93 230.164 420.27 222.104 420.27H217.744V370.84H217.734Z" fill="black"/>
<path d="M385.844 488.12H356.604V352.4H333.634V506.65H385.844V488.12Z" fill="black"/>
<path d="M280.984 370.96V506.65H303.944V370.96H323.874V352.4H248.284L266.874 370.96H280.984Z" fill="black"/>
<path d="M495.864 421.07L521.824 506.65H521.964H542.804V352.39H521.964V438.86L495.864 352.39H495.734H475.014V506.65H495.864V421.07Z" fill="black"/>
</svg>
