<svg width="649" height="649" viewBox="0 0 649 649" fill="none" xmlns="http://www.w3.org/2000/svg">
<path d="M577.044 36.79L504.784 109.33L444.404 49.02L383.744 109.34L323.454 49.02L263.184 109.33L202.884 49.02L142.624 109.36L72.1641 38.24C72.1641 38.24 72.1641 334.52 72.1641 359.44C72.1641 499.13 184.224 612.79 323.834 612.79C463.474 612.79 577.044 499.13 577.044 359.43C577.044 334.52 577.044 36.79 577.044 36.79Z" fill="white"/>
<path d="M94.6938 403.43C100.664 433.68 112.454 462.1 129.844 487.99C140.344 469.58 161.354 446.7 202.604 436.98C199.434 426.39 196.614 415.12 194.214 403.42H94.6938V403.43Z" fill="#686B6E"/>
<path d="M146.304 509.76C190.894 562.01 255.084 592.14 322.774 592.58C316.394 589.32 310.144 585.73 304.144 581.87C275.454 563.33 236.014 527.24 210.544 460.33C170.454 469.06 153.484 491.78 146.304 509.76Z" fill="#686B6E"/>
<path d="M235.234 456.81C253.314 502.25 280.624 537.17 316.474 560.61C340.174 576.13 362.884 583.19 377.864 586.38C415.344 577.63 450.344 559.57 479.314 534.04C456.454 531.54 433.014 518.38 408.274 504.51C369.644 482.83 321.534 455.85 256.584 455.85C249.574 455.86 242.404 456.19 235.234 456.81Z" fill="#686B6E"/>
<path d="M332.904 285.23C332.504 285.23 249.384 285.23 249.384 285.23V384.67H284.084V304.9H310.154V384.67H343.224V299.16C343.204 291.58 338.574 285.23 332.904 285.23Z" fill="#5A2D81"/>
<path d="M357.824 285.23V370.53C357.824 378.12 362.414 384.67 368.074 384.67C368.094 384.67 422.764 384.67 422.764 384.67H451.504V324.3L418.194 324.26V364.97H392.134V304.42H451.504V285.23H357.824V285.23Z" fill="#5A2D81"/>
<path d="M157.034 285.23L138.164 325.39H127.264V285.23H92.7241V384.67H127.264V344.66H138.164L157.034 384.67H191.544L167.204 335.02L191.544 285.23H157.034Z" fill="#5A2D81"/>
<path d="M236.484 285.23H200.734V384.67H236.484V285.23Z" fill="#5A2D81"/>
<path d="M556.574 312.12V285.23H464.904V330.66C464.904 338.24 469.504 344.39 475.154 344.39H521.864V366.06H464.904V384.67H556.624V339.02C556.624 331.96 552.724 325.32 547.474 325.32H499.314V304.5H523.404V312.12H556.574V312.12Z" fill="#5A2D81"/>
<path d="M459.044 184.38H429.774L490.144 123.97L444.404 78.2998L383.734 138.61L323.444 78.2998L217.454 184.38H188.184L248.454 123.88L202.874 78.2998L142.624 138.61L92.7339 89.0798V188.05V266.98H556.564V190.43V86.7898L459.044 184.38Z" fill="#5A2D81"/>
<path d="M194.054 247.87C194.054 250.45 196.154 252.56 198.724 252.56H224.794V245.56H203.554V222.85H224.794V215.86H194.064V247.87H194.054Z" fill="white"/>
<path d="M151.564 215.85V252.55H161.044V242.95H172.804V252.55H182.294V220.52C182.294 217.77 180.084 215.84 177.084 215.84H151.564V215.85ZM172.804 235.97H161.044V222.85H172.804V235.97Z" fill="white"/>
<path d="M534.684 215.85H513.174C510.614 215.85 508.524 217.93 508.524 220.5V247.87C508.524 250.43 510.624 252.55 513.174 252.55H534.684C537.244 252.55 539.334 250.41 539.334 247.85V220.49C539.334 217.93 537.244 215.85 534.684 215.85ZM529.814 245.5H518.094V222.83H529.814V245.5Z" fill="white"/>
<path d="M109.034 233.02C109.034 235.59 111.134 237.69 113.714 237.69H130.284V245.55H109.044V252.55H139.774V235.36C139.774 232.97 137.994 230.98 135.604 230.72L135.344 230.7H118.504V222.83H139.764V215.84H109.034V233.02V233.02Z" fill="white"/>
<path d="M304.324 215.85H278.274V252.55H287.764V242.95H299.524V252.55H309.024V220.52C309.024 217.95 306.914 215.85 304.324 215.85ZM299.524 235.97H287.764V222.85H299.524V235.97Z" fill="white"/>
<path d="M467.184 222.83H477.824V252.55H487.294V222.83H497.924V215.85H467.184V222.83Z" fill="white"/>
<path d="M368.804 215.85H321.614V252.55H331.104V222.84H342.734V252.55H352.354V222.84H363.974V252.55H373.464V220.52C373.474 217.96 371.364 215.85 368.804 215.85Z" fill="white"/>
<path d="M452.894 215.85H426.844V252.55H436.324V222.84H448.084V252.55H457.574V220.52C457.574 217.96 455.474 215.85 452.894 215.85Z" fill="white"/>
<path d="M386.394 247.87C386.394 250.45 388.484 252.56 391.064 252.56H417.104V245.56H395.884V237.69H417.104V230.72H395.884V222.84H417.104V215.85H386.394V247.87V247.87Z" fill="white"/>
<path d="M261.374 239.2H266.444V220.52C266.444 217.78 264.194 215.85 261.234 215.85H235.714V252.55H245.194V239.2H252.074L257.754 252.55H266.994L261.374 239.2ZM256.954 232.22H245.194V222.84H256.954V232.22Z" fill="white"/>
<path d="M251.524 431.59C300.944 430.59 349.814 442.96 412.174 478.49C458.264 504.75 478.524 512.72 492.344 509.32C505.074 506.19 516.894 498.67 537.734 454.61C545.684 437.8 551.404 417.87 554.184 403.43H218.924C221.254 413.59 223.544 423.69 226.614 432.98C234.714 432.08 243.104 431.59 251.524 431.59Z" fill="#686B6E"/>
</svg>
