<svg width="649" height="649" viewBox="0 0 649 649" fill="none" xmlns="http://www.w3.org/2000/svg">
<path d="M241.654 403.73L221.714 433.42L254.514 422.71L267.854 454.76L277.874 420.36L314.724 429.86L290.824 402.23L319.584 378.53L293.954 380.1L310.824 361.08H343.894L381.684 294.14V250.06H354.884L341.994 272.86L339.544 290.13L320.274 324.42H302.534L319.954 293.66V250.06H292.184L279.804 272.74L277.514 290.15L247.214 344.11L251.934 355.99L246.094 349.68L248.524 382.28L213.264 383.77L241.654 403.73ZM256.654 361.07H269.204L265.454 370.58L256.654 361.07Z" fill="white"/>
<path d="M98.444 324.09C87.494 326.83 76.584 329.78 65.724 332.93C64.544 333.27 63.364 333.61 62.194 333.96V330.36V311.23V306.49C63.794 306.02 65.404 305.55 67.014 305.09C75.894 302.53 84.814 300.1 93.754 297.81C95.314 297.41 96.884 297.01 98.444 296.62V301.36V311.5C106.744 309.42 115.074 307.45 123.414 305.6V287.46C120.504 283.03 117.594 278.62 114.694 274.23C112.564 274.73 110.444 275.22 108.324 275.73C108.234 275.75 108.134 275.78 108.034 275.8C90.244 280.06 72.544 284.85 54.974 290.17C54.334 290.36 53.694 290.56 53.064 290.75C50.844 291.43 48.624 292.11 46.414 292.81C43.464 298.96 40.514 305.14 37.574 311.32H37.564V348.11C41.974 351.14 46.394 354.22 50.824 357.32C54.454 356.2 58.084 355.11 61.714 354.04C72.844 350.76 84.014 347.7 95.214 344.84C96.404 344.54 97.584 344.24 98.764 343.95V347.71V367.49V372.4C97.204 372.79 95.644 373.19 94.074 373.59C84.804 375.96 75.564 378.48 66.354 381.14C64.804 381.58 63.254 382.04 61.704 382.5V377.76V367.46C53.474 369.88 45.264 372.42 37.084 375.08V393.39L37.094 393.4C39.944 397.54 42.794 401.69 45.654 405.85C47.804 405.18 49.944 404.51 52.094 403.86C52.804 403.64 53.504 403.43 54.214 403.21C72.084 397.78 90.064 392.9 108.164 388.57C110.384 388.04 112.604 387.52 114.814 387C117.794 381.12 120.764 375.27 123.744 369.42V331.69C119.304 328.15 114.864 324.64 110.434 321.17C106.434 322.12 102.434 323.09 98.444 324.09Z" fill="black"/>
<path d="M613.084 355.3C608.724 349.36 604.364 343.45 599.984 337.58C596.044 336.36 592.094 335.18 588.134 334.01C577.284 330.81 566.384 327.82 555.444 325.03C554.254 324.73 553.074 324.43 551.884 324.13V320.53V301.4V296.66C553.504 297.06 555.124 297.47 556.734 297.89C565.674 300.19 574.594 302.61 583.474 305.18C585.034 305.63 586.574 306.08 588.124 306.54V311.28V321.41C596.364 323.84 604.574 326.37 612.754 329.03V310.89C609.904 304.89 607.044 298.91 604.184 292.95C602.094 292.29 599.994 291.65 597.904 291C597.814 290.97 597.714 290.94 597.614 290.91C580.054 285.54 562.364 280.7 544.584 276.39C543.944 276.23 543.294 276.07 542.644 275.92C540.394 275.38 538.144 274.84 535.904 274.32C532.904 278.86 529.904 283.41 526.904 287.97C526.904 300.23 526.904 312.49 526.904 324.76C531.404 330.22 535.894 335.72 540.384 341.25C544.064 342.13 547.724 343.02 551.394 343.94C562.604 346.75 573.784 349.76 584.924 353C586.104 353.35 587.284 353.69 588.454 354.04V357.8V377.59V382.49C586.904 382.03 585.354 381.58 583.804 381.13C574.594 378.47 565.354 375.96 556.084 373.58C554.524 373.18 552.964 372.78 551.394 372.39V367.65V357.35C543.094 355.27 534.764 353.3 526.414 351.46V369.77C526.424 369.78 526.424 369.78 526.434 369.79C529.344 375.5 532.244 381.22 535.144 386.95C537.324 387.46 539.504 387.97 541.684 388.49C542.394 388.67 543.114 388.83 543.834 389.01C561.914 393.37 579.894 398.29 597.754 403.75C599.944 404.42 602.144 405.1 604.324 405.79C607.244 401.53 612.994 393.01 612.954 392.99C612.994 392.96 613.084 367.83 613.084 355.3Z" fill="black"/>
<path d="M221.194 255.97C220.504 256.05 219.814 256.13 219.124 256.21C195.604 258.9 172.144 262.49 148.834 266.98V379.79C157.214 378.18 165.614 376.68 174.034 375.3V336.06C189.024 333.59 204.064 331.5 219.134 329.77C219.824 329.69 220.514 329.62 221.204 329.54C223.494 329.28 225.784 329.04 228.074 328.8C231.274 322.96 234.484 317.14 237.684 311.33V270.79C234.484 265.59 231.274 260.4 228.074 255.23C225.774 255.47 223.484 255.72 221.194 255.97ZM212.304 280.72V306.88V312.6C210.384 312.83 208.464 313.07 206.544 313.32C195.684 314.71 184.844 316.3 174.024 318.07V280.46C184.844 278.68 195.684 277.1 206.544 275.71C208.464 275.46 210.384 275.22 212.304 274.98V280.72Z" fill="black"/>
<path d="M492.454 325.06C495.414 323.89 498.374 322.74 501.334 321.6V319.8V318V316.36V290.21V282.69C496.054 276.45 490.764 270.24 485.474 264.08C461.034 259.81 436.464 256.52 411.824 254.22V367.03C420.294 367.83 428.754 368.73 437.214 369.75V325.61C443.714 326.39 450.214 327.25 456.694 328.18C458.864 328.49 461.024 328.81 463.184 329.13C467.514 329.78 471.824 330.46 476.144 331.17V375.32C476.584 375.39 477.024 375.47 477.464 375.54C485.434 376.86 493.394 378.29 501.344 379.82V335.67V331.87C498.364 329.57 495.414 327.31 492.454 325.06ZM470.234 312.39C459.244 310.66 448.234 309.12 437.204 307.79V274.6C448.344 275.95 459.464 277.5 470.564 279.25C472.424 279.54 474.274 279.84 476.134 280.14V285.7V307.45V313.33C474.164 313.01 472.194 312.7 470.234 312.39Z" fill="black"/>
<path d="M143.774 226.42C140.214 227.08 136.674 227.76 133.124 228.46C132.734 228.54 132.354 228.61 131.974 228.69V227.53V221.34V219.8C132.504 219.7 133.024 219.6 133.544 219.5C136.444 218.93 139.354 218.37 142.254 217.82C142.754 217.73 143.264 217.63 143.774 217.54V219.07V222.35C146.474 221.85 149.164 221.36 151.864 220.88V215.01C150.924 213.53 149.984 212.06 149.044 210.59C148.354 210.72 147.674 210.84 146.984 210.96C146.954 210.97 146.924 210.97 146.894 210.98C141.134 212.03 135.374 213.14 129.614 214.29C129.414 214.34 129.194 214.38 128.984 214.42C128.254 214.57 127.534 214.71 126.804 214.86C125.844 216.75 124.864 218.64 123.904 220.54V232.44C125.354 233.59 126.804 234.74 128.254 235.89C129.444 235.65 130.624 235.41 131.814 235.18C135.454 234.46 139.084 233.76 142.724 233.07C143.114 233 143.494 232.93 143.884 232.86V234.08V240.48V242.06C143.374 242.15 142.864 242.25 142.364 242.35C139.354 242.91 136.344 243.49 133.334 244.08C132.824 244.18 132.314 244.28 131.814 244.38V242.84V239.51C129.124 240.04 126.434 240.59 123.744 241.15V247.07L123.754 247.08C124.694 248.52 125.624 249.97 126.564 251.42C127.264 251.27 127.964 251.13 128.664 250.99C128.894 250.94 129.124 250.9 129.364 250.85C135.214 249.67 141.064 248.55 146.924 247.48C147.644 247.35 148.364 247.22 149.084 247.09C150.044 245.24 151.004 243.39 151.974 241.54C151.954 241.54 151.944 241.55 151.924 241.55C151.944 241.53 151.954 241.51 151.974 241.5V229.33C150.534 228.12 149.104 226.92 147.664 225.71C146.364 225.94 145.064 226.18 143.774 226.42Z" fill="black"/>
<path d="M171.744 206.77C168.384 219.46 165.034 232.18 161.684 244.9C164.264 244.47 166.844 244.05 169.424 243.64C170.104 240.8 170.794 237.96 171.474 235.12C175.434 234.5 179.384 233.9 183.344 233.33C184.024 235.97 184.714 238.6 185.404 241.24C188.184 240.85 190.974 240.46 193.744 240.09C190.384 228.37 187.024 216.67 183.654 204.98C179.684 205.56 175.714 206.15 171.744 206.77ZM173.004 228.69C174.484 222.6 175.954 216.53 177.434 210.45C178.894 216.09 180.354 221.72 181.804 227.37C178.874 227.8 175.934 228.24 173.004 228.69Z" fill="black"/>
<path d="M224.884 224.21C220.614 216.55 216.334 208.91 212.064 201.31C209.214 201.64 206.354 201.98 203.494 202.33V238.83C205.914 238.54 208.334 238.25 210.744 237.96V213.46C214.974 221.14 219.214 228.84 223.454 236.57C226.354 236.27 229.244 235.99 232.144 235.72V199.21C229.724 199.44 227.304 199.67 224.884 199.92V224.21V224.21Z" fill="black"/>
<path d="M268.524 196.47C265.144 208.83 261.764 221.21 258.384 233.61C260.984 233.43 263.584 233.27 266.194 233.11C266.884 230.33 267.574 227.56 268.264 224.79C272.254 224.56 276.244 224.36 280.224 224.18C280.914 226.88 281.614 229.58 282.304 232.29C285.104 232.17 287.904 232.06 290.704 231.96C287.314 219.9 283.934 207.87 280.554 195.85C276.524 196.04 272.524 196.25 268.524 196.47ZM269.794 218.52C271.284 212.58 272.774 206.64 274.254 200.72C275.724 206.5 277.194 212.29 278.664 218.07C275.714 218.2 272.754 218.35 269.794 218.52Z" fill="black"/>
<path d="M324.134 219.15C319.844 211.06 315.554 202.99 311.264 194.96C308.384 195 305.514 195.05 302.644 195.12V231.63C305.074 231.57 307.504 231.53 309.934 231.49V206.99C314.194 215.09 318.444 223.22 322.694 231.38C325.604 231.37 328.514 231.38 331.414 231.4V194.89C328.984 194.87 326.554 194.87 324.124 194.87V219.15H324.134Z" fill="black"/>
<path d="M343.384 201.59C346.714 201.65 350.054 201.73 353.384 201.82V231.77C356.114 231.85 358.844 231.93 361.574 232.04V202.09C364.904 202.21 368.234 202.35 371.564 202.51V195.95C362.174 195.51 352.784 195.21 343.384 195.03V201.59Z" fill="black"/>
<path d="M446.084 226.55C441.824 217.93 437.544 209.34 433.274 200.78C430.414 200.46 427.554 200.17 424.694 199.88V236.38C427.114 236.63 429.534 236.88 431.954 237.14V212.64C436.194 221.26 440.424 229.92 444.664 238.6C447.554 238.95 450.444 239.31 453.334 239.69V203.18C450.924 202.87 448.504 202.56 446.094 202.27V226.55H446.084Z" fill="black"/>
<path d="M465.214 210.46C467.274 210.75 469.334 211.06 471.384 211.36V236.54C469.324 236.24 467.264 235.94 465.214 235.64V241.31C472.034 242.28 478.864 243.33 485.674 244.44C485.664 242.55 485.664 240.66 485.674 238.78C483.614 238.44 481.564 238.11 479.504 237.79V212.61C481.564 212.93 483.614 213.26 485.674 213.6C485.664 211.71 485.664 209.83 485.674 207.94C478.864 206.82 472.034 205.78 465.214 204.81V210.46Z" fill="black"/>
<path d="M409.644 198.47C408.874 198.41 408.114 198.34 407.354 198.28C407.334 198.28 407.314 198.28 407.304 198.27C401.454 197.78 395.614 197.35 389.754 196.97C389.484 196.95 389.204 196.93 388.934 196.91C388.164 196.86 387.404 196.82 386.644 196.77C385.604 198.5 384.554 200.24 383.514 201.97V227.69C384.554 229.56 385.604 231.41 386.644 233.27C387.414 233.32 388.174 233.37 388.934 233.42C389.204 233.44 389.484 233.46 389.754 233.47C395.604 233.86 401.454 234.29 407.304 234.77C407.314 234.77 407.334 234.78 407.354 234.78C408.114 234.84 408.874 234.91 409.644 234.97C410.684 233.26 411.724 231.55 412.764 229.84V204.12C411.724 202.25 410.684 200.36 409.644 198.47ZM404.594 206.25V226.36V228.48C403.884 228.42 403.184 228.36 402.474 228.31C399.594 228.08 396.714 227.87 393.824 227.67C393.114 227.62 392.404 227.57 391.704 227.52C391.704 226.81 391.704 226.11 391.704 225.4C391.704 218.7 391.704 212 391.704 205.29C391.704 204.59 391.704 203.88 391.704 203.17C392.414 203.22 393.124 203.27 393.824 203.32C396.714 203.52 399.594 203.74 402.474 203.96C403.184 204.02 403.884 204.07 404.594 204.13V206.25Z" fill="black"/>
<path d="M526.424 220.88C525.394 218.87 524.364 216.86 523.334 214.85C522.584 214.7 521.834 214.55 521.074 214.39C521.054 214.38 521.044 214.38 521.024 214.38C515.254 213.22 509.474 212.11 503.684 211.05C503.404 211 503.144 210.95 502.864 210.9C502.114 210.76 501.354 210.63 500.594 210.48C499.564 212.1 498.534 213.71 497.504 215.33V241.04C498.534 243.02 499.564 245 500.594 246.99C501.354 247.12 502.104 247.26 502.864 247.4C503.134 247.45 503.404 247.49 503.684 247.55C509.474 248.61 515.254 249.72 521.024 250.88C521.044 250.88 521.054 250.89 521.074 250.89C521.824 251.04 522.584 251.19 523.334 251.35C524.364 249.76 525.394 248.17 526.424 246.58V220.88ZM518.354 222.05V242.16V244.28C517.654 244.14 516.954 244 516.254 243.87C513.404 243.31 510.554 242.76 507.704 242.23C507.004 242.1 506.304 241.97 505.604 241.84C505.604 241.13 505.604 240.43 505.604 239.72C505.604 233.02 505.604 226.31 505.604 219.61C505.604 218.9 505.604 218.2 505.604 217.49C506.304 217.62 507.004 217.75 507.704 217.88C510.554 218.41 513.414 218.96 516.254 219.52C516.954 219.66 517.654 219.79 518.354 219.94V222.05Z" fill="black"/>
<path d="M281.514 291.46L251.804 344.41L256.774 356.88H275.274L266.854 378.23L251.094 361.17L252.944 386.2L225.624 387.35L247.354 402.64L231.884 425.69L256.874 417.52L267.154 442.29L275.004 415.3L302.874 422.47L284.894 401.69L307.024 383.41L284.174 384.83L308.904 356.88H341.434L377.464 293.04V254.2H357.244L345.574 274.91L343.544 291.47L322.694 328.59H295.404L315.774 292.59V254.2H294.614L283.424 274.72L281.514 291.46Z" fill="black"/>
<path d="M369.604 259.76H360.084L352.864 272.68H362.734L369.604 259.76Z" fill="#C4CED3"/>
<path d="M308.204 259.76L297.964 259.77L290.804 272.68L301.434 272.67L308.204 259.76Z" fill="#C4CED3"/>
<path d="M288.914 341.6L267.754 389.89L258.204 379.57L259.164 392.58L244.964 393.17L256.264 401.13L248.214 413.12L261.214 408.88L266.564 421.76L270.644 407.72L285.134 411.45L275.784 400.63L287.304 391.13L271.144 392.14H270.024L303.474 341.6H332.454L358.094 295.58H348.094L326.474 333.59H274.634L296.234 295.58H286.074L259.994 341.6H288.914V341.6Z" fill="#C4CED3"/>
<path d="M298.754 277.88H289.474L288.274 288.93L297.864 288.96L298.754 277.88Z" fill="#C4CED3"/>
<path d="M360.604 277.88H351.324L350.134 288.93L359.714 288.96L360.604 277.88Z" fill="#C4CED3"/>
<path d="M263.274 404.31C265.654 404.31 267.514 402.45 267.514 400.08C267.514 397.73 265.614 395.82 263.274 395.82C260.914 395.82 259.004 397.73 259.004 400.08C259.004 402.42 260.914 404.31 263.274 404.31Z" fill="black"/>
</svg>
