<svg width="649" height="649" viewBox="0 0 649 649" fill="none" xmlns="http://www.w3.org/2000/svg">
<path d="M612.604 325.29C612.604 484.36 483.664 613.29 324.604 613.29C165.534 613.29 36.604 484.36 36.604 325.29C36.604 166.23 165.534 37.29 324.604 37.29C483.664 37.29 612.604 166.23 612.604 325.29Z" fill="white"/>
<path d="M324.544 598.32C252.254 598.32 184.104 570.32 132.664 519.48C81.1738 468.59 52.3938 400.7 51.5838 328.31C50.7838 255.39 78.4138 186.52 129.414 134.38C180.414 82.2502 248.654 53.0903 321.574 52.2903C322.594 52.2803 323.634 52.2603 324.654 52.2603C396.944 52.2603 465.084 80.2703 516.534 131.11C568.024 181.99 596.804 249.88 597.604 322.27C598.404 395.2 570.764 464.07 519.774 516.21C468.774 568.35 400.534 597.5 327.594 598.3C326.594 598.31 325.564 598.32 324.544 598.32Z" fill="black"/>
<path d="M351.424 137.82L341.964 147.38H315.344L305.774 137.82V85.09L315.344 75.52H341.874L351.424 85.09V137.82ZM323.754 91.13L320.894 94V128.79L323.754 131.65H333.454L336.314 128.79V93.99L333.454 91.12H323.754V91.13Z" fill="white"/>
<path d="M505.554 262.19L492.854 257.79L481.364 233.77L485.864 221.02L533.424 198.26L546.174 202.76L557.614 226.67L553.114 239.43L505.554 262.19ZM535.734 217.09L531.914 215.75L500.524 230.76L499.174 234.58L503.354 243.32L507.174 244.66L538.574 229.65L539.914 225.83L535.734 217.09Z" fill="white"/>
<path d="M210.354 177.68L210.624 191.12L192.074 210.21L178.544 210.39L140.744 173.64L140.554 160.12L159.044 141.11L172.554 140.92L210.354 177.68ZM157.584 164.97L157.644 169.01L182.604 193.27L186.644 193.21L193.414 186.25L193.354 182.21L168.404 157.96L164.364 158.02L157.584 164.97Z" fill="white"/>
<path d="M449.294 105.95L421.294 172L409.814 167.09L406.784 120.23L390.424 158.87L377.884 153.58L405.904 87.5601L421.414 94.1401L421.604 135.26L436.364 100.45L449.294 105.95Z" fill="white"/>
<path d="M264.684 121.01L261.494 132.17L281.514 151.93L267.564 158L248.974 140.17L242.194 143.18L251.644 164.93L238.864 170.48L210.294 104.56L241.024 91.1899L254.004 96.4599L264.684 121.01ZM235.394 127.55L246.724 122.62C246.824 122.58 248.214 118.88 248.214 118.88L244.314 109.91L240.554 108.43L229.224 113.35L235.394 127.55Z" fill="white"/>
<path d="M505.474 170.25L496.134 161.08L456.594 201.31L445.864 190.76L485.414 150.54L476.064 141.36L486.904 130.33L516.314 159.23L505.474 170.25Z" fill="white"/>
<path d="M122.524 211.21L117.184 223.15L168.664 246.2L162.524 259.92L111.034 236.89L105.694 248.83L91.584 242.52L108.434 204.9L122.524 211.21Z" fill="white"/>
<path d="M516.064 394.48L508.964 407.97L503.984 405.36L502.584 408L498.094 416.53L499.324 420.35L506.374 424.08L505.484 423.59L509.344 422.43L517.784 406.38L531.024 402.41L552.584 413.75L556.594 426.67L544.214 450.24C544.214 450.24 531.204 454.21 531.114 454.17L520.324 448.49L527.354 435.11L532.814 437.98L538.664 426.83L537.454 422.96L531.784 419.96L527.854 421.15L519.584 436.9L506.214 440.96L506.164 441.05L484.604 429.71L480.394 416.55L492.774 392.98L505.904 389.2L516.064 394.48Z" fill="white"/>
<path d="M147.104 443.92L135.754 441.52L117.434 462.87L110.414 449.38L126.884 429.59L123.414 423.04L102.384 433.99L95.9438 421.63L159.714 388.53L175.184 418.25L170.834 431.57L147.104 443.92ZM138.544 415.16L144.254 426.11C144.304 426.21 148.104 427.33 148.104 427.33L156.774 422.81L157.994 418.96L152.284 408L138.544 415.16Z" fill="white"/>
<path d="M241.134 530.7L230.784 555.48L218.314 550.3L245.894 483.95L276.234 496.56L281.274 509.57L271.224 533.74L261.204 539.06L241.134 530.7ZM246.474 517.86L256.624 522.07C256.714 522.11 260.324 520.53 260.324 520.53L264.074 511.49L262.574 507.77L252.424 503.56L246.474 517.86Z" fill="white"/>
<path d="M350.014 518.34L336.924 518.49L337.564 574.89L322.514 575.05L321.884 518.66L308.804 518.79L308.634 503.34L349.854 502.89L350.014 518.34Z" fill="white"/>
<path d="M433.454 541.81L428.014 554.1L403.124 563.54L390.794 557.98L372.084 508.7L377.634 496.37L402.414 486.96L414.744 492.51L433.454 541.81ZM391.024 507.97L389.374 511.66L401.724 544.21L405.404 545.87L414.484 542.42L416.144 538.74L403.804 506.2L400.124 504.53L391.024 507.97Z" fill="white"/>
<path d="M486.084 472.3L486.274 483.89L511.164 497L499.574 506.86L476.614 495.2L470.994 500.04L486.354 518.1L475.734 527.13L429.274 472.33L454.794 450.63L468.754 451.9L486.084 472.3ZM459.954 487.05L469.364 479.04C469.444 478.97 469.704 475.03 469.704 475.03L463.364 467.57L459.344 467.24L449.934 475.23L459.954 487.05Z" fill="white"/>
<path d="M181.824 531.23L170.594 520.89L175.804 510.3L160.434 496.15L150.294 502.21L139.064 491.87L203.994 452.96L215.224 463.29L181.824 531.23ZM182.224 497.16L192.054 477.26L172.984 488.64L182.224 497.16Z" fill="white"/>
<path d="M380.574 469.59C380.814 469.89 380.984 470.26 381.144 470.25C381.944 470.2 383.544 469.95 383.544 469.95L385.154 469.26L389.674 467.5C389.674 467.5 400.954 462.13 400.994 462.09C401.044 462.05 402.974 461.04 402.974 461.04L403.994 460.59L405.214 459.77L407.214 458.52L409.594 457.21L412.654 455.21L417.974 451.47L420.584 449.41L424.324 446.7L427.734 444.16L429.344 442.98L431.594 440.88L433.944 438.55L437.704 434.52L442.094 430.3L447.174 424.45L449.954 420.72L450.934 419.39L453.914 415.7L459.734 407.34L461.364 404.6L465.284 396.9L467.494 392.71L471.264 385.07L473.304 380.43L475.514 373.31C475.514 373.31 478.124 363.91 479.544 358.98C479.704 358.41 479.774 357.91 479.414 357.4C478.614 356.27 478.014 354.83 477.264 353.56C476.874 352.89 476.304 352.23 475.944 351.67C475.574 351.13 474.584 349.88 474.204 349.43C473.794 348.95 473.294 348.54 472.784 348.16C471.564 347.02 470.504 345.88 469.484 345.13C469.004 344.87 468.564 344.52 468.124 344.18C464.954 341.75 461.734 339.79 458.124 338.22C456.614 337.57 455.064 337.01 453.494 336.48C452.384 336.11 450.634 335.68 449.474 335.48C448.814 335.36 448.274 335.35 447.774 335.69C447.274 336.03 447.254 336.79 447.174 337.54C446.964 339.49 446.884 341.66 446.724 343.62C446.544 345.66 446.404 347.7 446.234 349.74C446.084 351.58 445.994 353.44 445.754 355.27C445.464 357.69 445.134 360.12 444.674 362.52C443.824 367.01 442.864 371.48 441.924 375.96C441.664 377.18 441.494 378.47 441.004 379.62C440.184 381.51 439.594 383.48 439.214 385.49C438.394 389.74 436.834 393.74 435.384 397.78C434.194 401.06 433.034 404.4 431.164 407.39C431.024 407.58 430.964 407.82 430.874 408.03C429.994 410.1 429.154 412.19 428.214 414.24C427.624 415.57 426.764 416.79 426.204 418.12C425.494 419.82 424.544 421.35 423.574 422.88C422.004 425.29 420.354 427.66 419.004 430.21C418.054 431.99 416.984 433.67 415.804 435.29C415.504 435.71 415.224 436.14 414.944 436.56C414.004 437.93 413.134 439.35 412.114 440.65C410.144 443.16 408.104 445.63 406.024 448.05C404.724 449.57 403.284 450.97 401.914 452.43C400.674 453.74 399.424 455.06 398.164 456.38C397.894 456.66 397.564 456.88 397.264 457.13C396.514 457.77 395.724 458.37 395.034 459.06C393.404 460.68 391.744 462.24 389.824 463.51C389.004 464.06 388.164 464.61 387.414 465.23C385.384 466.97 383.104 468.28 380.574 469.59Z" fill="#BD1B21"/>
<path d="M481.404 348.85C481.484 348.85 481.514 348.71 481.534 348.52C481.584 348.13 481.644 347.45 481.644 347.45L482.744 337.63L483.404 328.43L483.434 319.32L483.414 317.89L482.334 307.55C482.334 307.55 481.074 298.23 480.104 293.44C479.754 291.73 478.704 290.86 477.324 290.19C476.874 289.97 476.364 289.72 475.864 289.58C474.854 289.26 473.724 288.77 472.704 288.51C470.374 287.93 468.164 287.16 465.794 286.76C463.004 286.28 460.174 285.98 457.354 285.74C455.044 285.53 452.714 285.44 450.394 285.41C448.534 285.38 447.424 285.35 445.564 285.35C444.564 285.35 443.514 285.39 443.064 285.99C442.614 286.61 442.934 287.72 443.104 288.83C443.454 291.09 443.844 292.22 444.214 294.46C445.324 301.11 446.524 307.74 446.774 314.49C446.894 317.52 447.074 320.55 447.194 323.58C447.234 324.44 447.224 325.01 447.244 325.88C447.264 326.4 447.374 326.97 447.614 327.34C447.884 327.76 448.304 327.83 448.804 327.98C449.384 328.16 449.934 328.22 450.514 328.35C451.084 328.49 452.174 328.71 452.904 328.94C455.594 329.81 458.454 330.77 461.064 331.83C462.924 332.57 464.644 333.64 466.424 334.57C466.634 334.69 466.824 334.82 467.014 334.96C468.044 335.73 469.094 336.51 470.124 337.28C472.554 339.07 475.074 340.81 476.954 343.27C477.304 343.74 477.724 344.17 478.174 344.56C478.914 345.21 480.144 347.54 481.034 348.59C481.184 348.8 481.324 348.85 481.404 348.85Z" fill="#BD1B21"/>
<path d="M412.204 238.55C413.124 238.48 413.954 238.46 414.664 238.38C415.194 238.31 415.694 238.29 415.934 237.75C416.154 237.2 415.734 236.61 415.614 236.35C415.414 235.9 413.644 232.77 413.644 232.77L411.924 230.08L404.644 219.58L403.134 217.8L401.724 215.89L399.344 213.26L393.444 206.8L390.914 204.31L381.784 195.86L374.284 190.09L371.594 188.66L362.814 183.3L356.664 179.97L355.464 179.48L350.464 177.65L343.034 174.87L342.454 174.74L340.074 174.15L339.434 174.04L337.344 173.5L332.924 172.69L330.814 172.61L326.864 171.88L322.144 171.58L320.494 171.38L317.534 171.33L312.584 171.47L307.694 172.02L303.914 172.11L300.564 172.48L297.124 173.17L294.534 173.97L290.304 174.78L289.354 174.76L285.404 176.17L283.074 176.82L281.654 177.68L278.214 178.62L276.554 179.58L274.474 180.37L269.374 182.51L262.884 185.04L260.754 186.06L256.204 188.51L252.254 191.1L248.574 193.01L247.234 193.79L243.194 195.94L242.544 196.36L237.954 199.96L234.154 202.54L233.404 203.03L229.094 206.43L227.524 207.73C227.524 207.73 225.214 209.71 225.154 209.99L226.784 209.51C226.784 209.51 229.744 208.42 229.804 208.44C229.864 208.46 230.374 208.48 230.374 208.48L234.644 206.76H235.264L239.934 204.91C239.934 204.91 242.374 204.11 242.374 204.16C242.374 204.22 244.864 203.24 244.864 203.24L248.334 202.01L256.734 198.78L257.494 198.74L261.804 197.25L265.214 195.84L265.694 196.2C265.694 196.2 272.234 196.36 272.294 196.36C272.314 196.36 276.494 196.68 276.494 196.68L276.624 196.77L285.104 197.43L285.194 197.37L296.914 197.98L296.974 198.27L301.134 201.84L301.434 201.83L305.664 205.92L306.054 205.73L311.884 205.9L312.174 205.69L326.814 206.54L326.904 206.88L333.424 210.66L333.714 210.61L345.234 216.22L345.324 216.83L351.854 214.28L361.434 217.5L363.064 220.15L366.574 220.38L369.954 224.2L370.304 224.22L373.024 227.32L373.064 227.52H373.444L380.994 229.24L383.784 233.53L390.774 236.08C390.774 236.08 398.264 237.99 402.104 238.47C405.504 238.9 409.554 238.72 412.204 238.55Z" fill="#BD1B21"/>
<path d="M477.374 282.88C477.154 281.77 476.364 279.5 476.364 279.5L475.934 278.29L475.544 276.82L474.304 273.13L473.164 269.9L469.574 261.91L467.944 257.98L465.894 253.44L463.444 249.42L462.864 248.26L461.224 244.96L459.704 242.48L459.074 241.63L448.604 227.46C448.604 227.46 447.594 226.26 447.084 225.66C446.844 225.35 446.764 225.11 446.434 225.11C446.404 225.11 446.384 225.12 446.354 225.12C446.354 225.12 443.134 230.4 441.784 231.89C440.444 233.37 437.754 235.84 437.754 235.84C437.754 235.84 435.484 237.71 435.104 237.99C434.724 238.29 432.994 239.43 432.994 239.43L430.604 240.8C430.604 240.8 428.794 241.64 428.494 241.75C428.194 241.86 427.864 242 427.684 242.23C427.504 242.47 427.434 242.65 427.514 243.05C427.594 243.37 427.694 243.67 427.824 243.95C428.794 245.98 429.674 248.05 430.724 250.02C432.314 252.95 433.324 256.11 434.644 259.16C435.084 260.16 435.524 261.19 435.864 262.22C436.754 264.92 437.584 267.63 438.454 270.34C438.824 271.54 439.224 272.74 439.574 273.94C439.924 275.16 440.194 276.37 440.524 277.6C440.734 278.4 441.274 278.77 442.084 278.76C442.864 278.75 443.664 278.71 444.444 278.68C447.254 278.6 450.044 278.51 452.854 278.47C453.664 278.45 459.264 278.97 459.264 278.97C459.264 278.97 461.274 279.17 462.234 279.34C464.374 279.73 466.484 280.21 468.614 280.65C470.384 281.01 472.224 281.64 473.894 282.39C474.694 282.75 475.574 282.99 476.464 283.25C476.744 283.33 477.184 283.38 477.244 283.35C477.284 283.33 477.394 283.01 477.374 282.88Z" fill="#BD1B21"/>
<path d="M440.764 220.38C440.684 219.97 439.944 218.84 439.944 218.84L439.404 217.89L437.894 216.15L436.874 214.68L434.964 212.8C434.964 212.8 434.544 212.44 434.324 212.27C430.994 209.55 424.314 204.16 424.304 204.14C424.304 204.12 422.454 202.66 422.454 202.66L418.994 199.63L401.654 189.23L387.984 182.75C387.984 182.75 380.724 179.91 380.714 179.93C380.704 179.94 378.084 178.98 378.054 179C378.004 179.01 369.114 175.93 369.114 175.93L362.804 174.33L356.684 173.01L355.724 172.93L355.174 173.46L355.414 173.73C355.414 173.73 356.034 174.04 356.324 174.16C358.224 174.91 360.144 175.61 362.034 176.37C363.284 176.86 364.454 177.53 365.734 177.9C366.634 178.15 367.454 178.47 368.224 178.92C371.134 180.6 374.024 182.29 376.904 184.01C378.624 185.03 380.224 186.25 381.704 187.63C382.824 188.66 384.004 189.66 385.354 190.39C385.964 190.73 386.464 191.28 387.014 191.73C387.314 191.97 387.604 192.23 387.914 192.48C389.614 193.88 391.444 195.08 392.964 196.72C394.574 198.45 396.264 200.1 397.964 201.75C399.574 203.32 401.194 204.86 402.574 206.65C403.694 208.13 404.874 209.57 406.174 210.88C408.694 213.37 410.604 216.33 412.894 218.98C413.174 219.31 413.354 219.72 413.594 220.08C415.074 222.41 416.394 224.84 418.174 226.97C419.414 228.45 420.524 230.01 421.374 231.79C421.864 232.84 422.594 233.81 423.264 234.78C423.644 235.36 424.304 235.62 424.644 235.6C424.974 235.57 425.624 235.28 425.624 235.28L426.844 234.79C426.844 234.79 428.464 234.06 429.004 233.82C429.564 233.56 430.634 232.96 431.024 232.6C431.414 232.24 433.044 231.12 433.964 230.28C434.884 229.44 436.744 227.25 436.744 227.25L438.074 225.46L440.394 221.61C440.394 221.67 440.844 220.79 440.764 220.38Z" fill="#BD1B21"/>
<path d="M433.534 278.11C432.594 275.22 431.854 272.49 430.834 269.64C429.994 267.32 429.334 264.92 428.254 262.67C427.604 261.34 427.254 259.85 426.754 258.46C426.484 257.75 426.134 257.09 425.894 256.38C424.624 252.74 422.884 249.79 421.154 246.37C421.064 246.19 420.984 246.02 420.814 245.72C420.654 245.4 420.504 245.11 420.074 244.87C419.644 244.62 419.284 244.78 418.504 244.89C417.014 245.06 415.154 245.26 414.374 245.26C413.684 245.26 410.754 245.48 408.434 245.67L407.894 245.51H406.434H405.064L397.584 244.54C394.854 244.14 388.584 242.56 388.584 242.56L383.994 240.99L378.334 239.05L377.894 239.29L369.094 238.59L368.804 238.75L363.854 234.97L363.284 234.94L360.194 232.15L360.074 231.6L356.634 231.07L356.314 231.21L353.484 230.24L353.174 229.94L346.704 230.41L340.834 228.02L320.484 229.09L320.154 228.88L316.314 229.17L315.914 229.48L305.894 230.24L305.614 229.99L291.324 238.23L291.164 238.84L290.504 239.43L290.174 239.19L283.004 238.52L282.614 238.69L269.914 238.77L269.644 238.64L266.024 238.52L264.924 237.88L251.614 248.17L251.564 248.42L246.894 252.1L241.674 249.63L241.364 249.78L239.434 249.2C239.434 249.2 229.844 251.64 229.944 251.71C230.034 251.78 220.984 250.29 220.984 250.29L220.364 249.78L218.664 251.52L215.084 253.23L214.984 253.54L207.834 259L197.674 266.32L186.244 274.82L181.094 278.56L180.834 280.76L178.674 285.78L177.734 290.1L176.294 298.83L175.454 302.6L175.134 307.13L173.894 316.56L173.354 337.21L173.914 338.43L174.284 344.11C174.284 344.11 174.374 345.1 174.604 345.14C174.614 345.15 174.624 345.14 174.624 345.15L199.934 318.98L208.234 315.64L215.214 315.28L219.434 310.44L219.834 309.53L220.354 309.77L231.744 308.49L232.244 308.12H236.494L237.134 308.38L238.494 306.57L243.594 303.42L249.064 299.68L264.404 299.88L264.514 300.21L270.524 300.76L275.214 299.83L283.814 291.06L283.974 291.07L290.814 284.57L301.074 283.26L301.474 282.98L301.924 283.42L307.254 285.94L307.634 285.59L312.364 285.03L312.594 284.76L317.024 284.02L317.424 283.77L322.244 287.88L322.514 287.56L332.404 287.38L333.234 286.76L341.194 287.14L341.624 287.31L342.854 287L343.064 286.64L346.234 285.21L346.604 285.25L350.264 283.59L350.574 283.27L354.484 281.79L354.774 281.34L365.604 277.19L365.694 277.03L367.604 276.44L368.024 276.02L368.564 276.6L371.704 278.14L372.674 278.17L376.194 280.14L376.424 279.8L377.504 279.29L377.624 279.34L379.384 278.52L379.464 278.4L381.994 277.8L388.474 279.48L389.844 279.18L391.034 279.96L395.794 280.68L400.444 282.48C400.444 282.48 403.134 282.28 403.164 282.28C403.204 282.28 404.034 282.87 404.034 282.87L404.714 282.47C404.714 282.47 413.874 281.33 418.484 280.96C421.474 280.72 424.444 280.4 427.434 280.11C429.114 279.95 430.804 279.79 432.494 279.59C433.404 279.5 433.864 279.16 433.534 278.11Z" fill="#BD1B21"/>
<path d="M440.224 325.12C440.224 324.49 440.104 324.08 440.074 323.45C439.974 321.68 439.894 319.92 439.794 318.14C439.764 317.56 439.684 316.97 439.654 316.38C439.514 314.18 439.464 311.97 439.244 309.78C438.954 306.99 438.554 304.22 438.144 301.47C437.814 299.33 437.404 297.19 437.024 295.06C436.614 292.82 436.254 290.78 435.774 288.56C435.284 286.3 434.804 286 432.494 286.27C432.304 286.31 432.104 286.33 431.904 286.38C431.054 286.55 429.854 286.67 428.994 286.78C424.504 287.36 420.264 287.61 415.764 288.14L402.864 292.63L384.214 292.14L382.194 291.48L382.184 291.81L376.684 295.87L375.914 295.94L371.564 299.98L371.324 300.54L360.164 302.04L349.974 309.9L348.914 309.87L343.484 313.07L341.344 313.31L339.204 315.11L338.654 314.67L328.264 313.97L326.464 316L326.504 316.33L317.524 326.14L317.404 326.71L317.064 326.79L305.604 339.82L302.464 339.85L302.204 340.17L292.804 341.8L292.074 341.76C292.074 341.76 291.884 342.19 291.834 342.22C291.784 342.25 276.354 350.82 276.354 350.82L269.404 350L267.944 350.52L261.014 350.1L254.144 357.52L250.034 358.35L247.714 358.25L245.284 359.27L243.834 359.11L243.904 359.4L235.364 366.02L234.554 366.18L221.224 376.54L221.334 377.16L213.094 397.11L213.424 397.95L199.814 399.18L195.344 403.03L194.924 404.48L200.974 412.89L205.454 419.75L209.314 424.67L215.594 431.51C215.594 431.51 215.634 431.99 215.764 432.02C215.884 432.06 216.594 432.11 216.624 432.14C216.664 432.16 220.384 433.4 220.414 433.42C220.434 433.44 225.044 434.87 225.044 434.87C225.044 434.87 225.094 435.1 225.144 435.1C225.184 435.1 225.604 435.03 225.604 435.03L233.294 438.01L233.874 437.98L234.294 438.49C234.294 438.49 234.944 438.49 234.984 438.5C235.034 438.51 236.794 439.7 236.794 439.7L240.014 437.94L240.164 437.95L241.614 437.02L253.274 439.97L261.824 435.59L280.824 433.7L288.604 421.18C289.834 419.94 292.054 417.7 292.054 417.7L292.354 417.67C292.354 417.67 295.034 415.21 295.084 415.16C295.124 415.1 295.084 414.82 295.084 414.82L299.974 410.37L302.264 407.98C302.264 407.98 302.774 407.68 302.844 407.67C302.914 407.66 305.474 404.94 305.474 404.94L307.584 402.76L308.144 402.63L307.594 400.7L309.794 392.67L314.044 391.4L314.204 391.24L315.474 390.95L315.494 390.25L321.204 380.98L321.744 380.75L324.074 376.18L327.964 373.99L328.484 373.36L329.244 373.47C329.244 373.47 331.504 372.14 331.574 372.16H331.844L336.034 370.31L336.374 369.81L350.324 363.41L351.164 363.32L351.314 362.55L351.864 362.14L353.304 357.27L357.714 355.37L362.804 354.75L367.444 351.54L374.054 351.82L374.714 352.37L375.034 351.96L384.264 347.83L384.214 346.64L386.424 342.41L390.954 341.2L391.184 340.91L397.404 339.6L399.784 336.78L400.094 336.71C400.094 336.71 401.534 335.31 401.574 335.28C401.624 335.27 405.844 335.87 405.844 335.87L406.064 336.02L408.394 336.36L409.844 336.52C409.844 336.52 416.114 333.58 418.734 332.58C419.844 332.15 420.924 331.87 421.964 331.5C423.404 330.98 424.854 330.48 426.324 329.99C427.064 329.75 427.764 329.56 428.494 329.35L431.414 328.81L434.814 328.23L436.884 328.11C436.884 328.11 437.884 327.99 438.264 327.92C438.644 327.86 439.224 327.86 439.674 327.46C440.124 327.06 440.104 326.64 440.154 326.26C440.214 325.87 440.224 325.68 440.224 325.12Z" fill="#BD1B21"/>
<path d="M440.084 337.32C440.104 336.83 440.174 336.01 439.774 335.57C439.374 335.14 438.864 335.07 438.534 335.08C438.204 335.08 436.594 335.29 436.594 335.29L433.894 335.7C433.584 335.75 433.294 335.8 432.994 335.87C431.374 336.26 429.754 336.59 428.164 337.04C426.384 337.55 424.564 338.02 422.884 338.76C421.104 339.55 419.114 340.18 417.334 341.03C416.694 341.33 410.704 344.26 407.964 345.62L404.464 349.35L404.334 350.16L403.874 349.96L401.684 350.08L401.584 350.25L394.454 352.61L394.544 353.4L393.794 354.13L393.784 354.59L390.454 360.43L390.004 360.46L389.914 361.07C389.914 361.07 389.234 362.18 388.484 363.44L373.474 373.07L373.144 373.04L370.874 374.94L369.284 381.26L367.814 382.67L361.964 404.33L362.754 406.77L354.084 410.93H352.684L351.024 418.47L350.744 418.73L348.604 425.58L348.724 425.93L347.834 431.84L347.524 432.25L347.814 432.79L339.494 446.01L338.864 446.2L336.824 449.4L336.774 450.04C336.774 450.04 329.674 460.07 329.664 460.05C329.654 460.01 322.154 464.49 322.154 464.49L322.564 465.13C322.564 465.2 322.174 468.16 322.174 468.16L322.824 469.28L321.744 469.61L316.334 472.82L315.744 472.69L307.774 477.4L306.834 478.88C306.834 479.01 309.944 479.35 309.944 479.35L315.114 479.76L318.624 479.94L322.714 480.01L324.604 480.09L327.684 480.17L330.754 480.09L341.904 478.75L348.524 477.58L353.534 476.22L358.974 474.63L365.884 471.89L366.394 471.58L368.344 470.49C368.344 470.49 373.924 467.53 376.444 465.64C380.764 462.38 385.114 459.16 389.044 455.42C390.394 454.14 391.724 452.85 393.044 451.54C394.304 450.29 395.554 449.03 396.804 447.78C397.024 447.56 397.314 447.34 397.414 447.06C397.834 446.05 398.654 445.36 399.394 444.58C399.904 444.03 400.454 443.52 400.854 442.89C401.714 441.54 402.974 440.56 404.084 439.45C404.964 438.57 405.784 437.59 406.504 436.57C407.824 434.7 409.054 432.77 410.304 430.86C411.974 428.31 413.804 425.85 415.224 423.19C416.754 420.35 418.274 417.48 419.874 414.68C421.244 412.28 422.644 409.87 423.694 407.34C425.424 403.16 427.244 399 428.854 394.76C430.564 390.25 431.934 385.65 433.164 381C434.094 377.52 434.634 373.96 435.894 370.59C436.054 370.15 436.134 369.67 436.204 369.21C436.684 366.38 437.174 363.54 437.614 360.7C438.034 358.01 438.424 355.32 438.804 352.63C439.074 350.8 439.374 348.96 439.524 347.12C439.734 344.56 439.864 342.01 439.964 339.45C439.974 339.16 440.004 338.62 440.004 338.62C440.004 338.62 440.064 337.82 440.084 337.32Z" fill="#BD1B21"/>
</svg>
