<svg width="649" height="649" viewBox="0 0 649 649" fill="none" xmlns="http://www.w3.org/2000/svg">
<path d="M217.004 498.05H194.874L168.194 604.75H186.904L192.624 580.67H219.104L224.984 604.75H243.684L217.004 498.05ZM197.164 562.01L205.934 526.12L214.564 562.01H197.164Z" fill="black"/>
<path d="M313.464 498.05V604.75H294.814V559.9H270.574V604.75H251.914V498.05H270.574V541.24H294.814V498.05H313.464Z" fill="black"/>
<path d="M175.144 516.71H154.824V604.75H136.174V516.71H115.854V498.05H175.144V516.71Z" fill="black"/>
<path d="M107.414 498.05V582.55C107.414 588.92 105.054 594.8 100.724 599.12C96.4241 603.42 90.5341 605.81 84.1641 605.81H67.9141C61.5441 605.81 55.6641 603.43 51.3541 599.12C47.0341 594.8 44.6641 588.92 44.6641 582.55V498.05H63.3041V587.21H88.7741V498.05H107.414Z" fill="black"/>
<path d="M402.224 498.58V583.08C402.224 589.45 399.854 595.33 395.534 599.65C391.224 603.95 385.344 606.34 378.974 606.34H362.724C356.354 606.34 350.474 603.96 346.164 599.65C341.844 595.33 339.464 589.45 339.464 583.08V561.79H358.134V587.91H383.494L383.564 498.58H402.224Z" fill="black"/>
<path d="M457.014 498.58H434.894L408.214 605.28H426.924L432.644 581.2H459.124L465.004 605.28H483.704L457.014 498.58ZM454.584 562.54H437.184L445.954 526.65L454.584 562.54Z" fill="black"/>
<path d="M544.384 516.86L509.944 586.62H544.454V605.28H488.924V587.14L488.984 587L523.434 517.24H488.924V498.58H544.454V516.71L544.384 516.86Z" fill="black"/>
<path d="M609.104 516.86L574.674 586.62H609.174V605.28H553.644V587.14L553.704 587L588.144 517.24H553.644V498.58H609.174V516.71L609.104 516.86Z" fill="black"/>
<path d="M612.504 42.8101L556.174 163.63H330.694L259.644 316.01H195.924C196.414 308.4 197.954 300.81 200.404 293.35C206.524 274.96 217.974 259.8 232.444 248.98C236.244 253.32 239.684 258.01 242.774 262.99C243.254 263.76 244.204 263.68 244.524 262.99C244.524 262.99 244.534 262.99 244.534 262.98L347.214 42.8101H612.504Z" fill="black"/>
<path d="M90.3341 363.24C83.8841 376.1 74.7241 387.03 63.5441 395.39C54.2241 384.63 46.8141 371.88 42.0141 357.48C38.8041 347.85 37.0041 338.11 36.4941 328.46H99.8441C99.0541 340.42 95.8341 352.2 90.3341 363.24Z" fill="black"/>
<path d="M141.684 328.46V433.81C115.784 432.32 91.214 421.8 72.314 404.37C84.444 394.99 94.374 382.93 101.454 368.83C107.864 356.02 111.514 342.35 112.344 328.46H141.684V328.46Z" fill="black"/>
<path d="M95.3439 293.36C97.8039 300.8 99.3239 308.41 99.8239 316.02H36.5039C37.8539 291.26 47.5039 267.73 63.5239 249.18C77.8839 259.94 89.2539 275.04 95.3439 293.36Z" fill="black"/>
<path d="M141.684 210.66V316.01H112.294C111.784 307.08 110.054 298.13 107.164 289.42C100.404 269.14 87.9841 252.32 72.2441 240.15C83.5641 229.63 97.2341 221.37 112.804 216.19C122.404 213.02 132.074 211.22 141.684 210.66Z" fill="black"/>
<path d="M183.454 316.02H154.134V210.66C180.084 212.07 204.704 222.56 223.644 239.96C207.384 252.46 195.204 269.51 188.604 289.42C185.704 298.17 183.994 307.08 183.454 316.02Z" fill="black"/>
<path d="M223.654 404.55C212.394 414.96 198.784 423.14 183.324 428.28C173.644 431.5 163.844 433.33 154.134 433.82V328.46H183.404C184.264 342.35 187.914 356.02 194.304 368.83C201.414 383.02 211.454 395.14 223.654 404.55Z" fill="black"/>
<path d="M259.644 328.46C258.264 353.31 248.584 376.93 232.424 395.52C221.164 387.14 211.924 376.16 205.444 363.24C199.914 352.22 196.704 340.41 195.904 328.46H259.644V328.46Z" fill="black"/>
</svg>
