<svg width="649" height="649" viewBox="0 0 649 649" fill="none" xmlns="http://www.w3.org/2000/svg">
<path d="M324.604 36.8198C165.524 36.8198 36.604 165.7 36.604 324.79C36.604 483.87 165.524 612.75 324.604 612.75C483.654 612.75 612.604 483.86 612.604 324.79C612.604 165.71 483.654 36.8198 324.604 36.8198Z" fill="#C4CED4"/>
<path d="M601.914 323.76C601.914 174.74 474.434 46.52 325.384 46.52C176.394 46.52 47.2939 175.43 47.2939 324.45C47.2939 461.25 156.054 582 289.134 600.92C300.364 602.31 311.804 603.04 323.404 603.06H323.574H323.724H323.784C349.004 603.05 373.434 599.68 396.664 593.39C512.894 560.02 601.914 448.31 601.914 323.76Z" fill="#E31837"/>
<path d="M601.554 310.31L47.6939 310.36C47.4339 315.1 47.2939 319.86 47.2939 324.65C47.2939 349.9 51.0139 374.6 57.8839 398.22C123.104 398.21 524.944 398.18 591.274 398.15C598.184 374.33 601.904 349.41 601.904 323.96C601.914 319.39 601.794 314.84 601.554 310.31Z" fill="white"/>
<path d="M289.084 601C300.314 602.39 311.754 603.12 323.354 603.14H323.524H323.674H323.734C348.954 603.13 373.384 599.76 396.614 593.47C469.384 572.58 531.474 520.98 567.744 454.75H81.4541C123.774 531.47 201.114 588.49 289.084 601Z" fill="#002B5C"/>
<path d="M323.314 108.49C323.314 108.49 321.134 69.3797 321.124 67.5797C321.134 65.7897 323.154 63.9897 323.154 63.9897C321.764 64.0097 316.384 64.3997 310.694 64.5997C309.314 64.8797 306.814 64.9497 307.344 70.6497L309.644 113.78L323.554 113.04L324.564 112.75C324.564 112.75 323.634 111.17 323.314 108.49Z" fill="white"/>
<path d="M463.194 116.159L468.254 107.349L447.694 95.4795C447.694 95.4795 447.604 95.4195 447.494 95.3595L435.824 88.6195C434.154 87.6495 432.954 88.9295 432.534 89.5795C432.124 90.2595 427.884 97.7195 427.884 97.7195H427.894L426.014 101.029C426.014 101.029 428.854 98.2795 432.114 100.159L439.394 104.359L420.804 136.589L433.894 144.179C433.894 144.179 433.944 142.039 435.134 139.619C435.134 139.619 445.424 121.709 451.434 111.329L457.044 114.569C460.274 116.439 460.174 121.509 460.174 121.509L463.194 116.159Z" fill="white"/>
<path d="M423.094 82.9297L403.954 76.2897C397.784 74.1497 393.404 73.5897 390.804 74.5597C388.214 75.5397 385.984 78.7197 384.124 84.0997L377.114 104.33C376.274 106.7 375.754 108.69 375.554 110.31C375.154 113.46 375.874 115.91 377.694 117.61C379.494 119.33 382.864 121.04 387.814 122.76L396.454 125.75C402.694 127.92 407.114 128.49 409.694 127.5C412.284 126.5 414.524 123.34 416.384 117.96C416.384 117.96 419.734 108.49 420.204 107.06C421.014 104.45 419.054 102.78 417.954 102.4L401.744 96.7697C399.844 96.1097 398.624 97.5597 397.954 98.7797C397.294 100.01 394.904 106.94 394.904 106.94L394.054 109.09C394.054 109.09 395.884 107.29 398.314 108.12L404.274 110.19C403.364 112.37 402.374 113.61 401.334 113.94C400.404 114.27 398.434 113.9 395.424 112.85C395.424 112.85 393.334 112.04 392.764 111.7C391.314 110.77 390.684 109.57 390.874 108.04C390.984 107.17 391.314 105.97 391.854 104.39L395.744 93.1797C396.784 90.1797 397.854 88.5097 398.944 88.1497C400.054 87.8197 402.094 88.1597 405.104 89.2097L419.824 94.3097C422.474 95.2297 422.994 98.7097 422.994 98.7097L424.024 95.7697L426.634 88.2097C427.394 85.3397 425.584 83.7997 423.094 82.9297Z" fill="white"/>
<path d="M276.324 68.7996C276.324 68.7996 280.714 70.2096 281.454 73.6296L281.514 73.7696L284.044 85.9596L274.374 87.9796C271.524 88.5696 270.924 91.3896 270.924 91.3896L266.794 70.7596L250.144 74.2296C250.144 74.2296 253.594 75.8296 254.314 79.2496L254.374 79.3896L263.154 121.71L272.884 119.7C274.784 119.3 276.154 118.86 276.514 117.37L272.964 100.37L286.444 97.5596L290.274 116.08L299.994 114.07C301.914 113.67 303.284 113.22 303.624 111.74L293.904 65.1196L276.324 68.7996Z" fill="white"/>
<path d="M502.014 144.08C503.414 141.23 503.494 138.63 502.224 136.31C501.194 134.22 498.574 131.53 494.394 128.25L487.224 122.59C482.084 118.55 478.124 116.59 475.354 116.68C472.584 116.76 469.434 119.03 465.914 123.5L452.704 140.34C451.144 142.32 450.024 144.04 449.304 145.5C447.904 148.35 447.764 150.88 448.924 153.08C450.074 155.3 452.704 158.02 456.814 161.26L463.994 166.92C469.184 171.01 473.194 173 475.934 172.9C478.724 172.81 481.854 170.54 485.374 166.06L498.604 149.23C500.154 147.27 501.284 145.55 502.014 144.08ZM484.674 144.34L477.364 153.64C475.384 156.19 473.764 157.39 472.454 157.35C471.474 157.36 469.744 156.37 467.224 154.39L468.314 155.23C466.574 153.86 465.524 152.92 465.094 152.42C464.034 151.08 463.834 149.74 464.514 148.35C464.904 147.56 465.604 146.53 466.614 145.21L473.944 135.88C475.914 133.39 477.474 132.16 478.604 132.17C479.764 132.23 481.584 133.21 484.094 135.19L483.054 134.39C484.784 135.75 485.854 136.69 486.274 137.24C487.344 138.54 487.544 139.92 486.854 141.3C486.494 142.07 485.764 143.08 484.674 144.34Z" fill="white"/>
<path d="M253.744 103.62C250.574 97.5497 243.974 95.4697 237.254 98.2697L229.684 101.42C226.954 102.56 225.044 102.35 223.964 100.79C223.924 100.73 223.634 100.09 223.604 100.02C223.264 98.8897 222.414 96.9197 226.454 95.2397L240.114 89.5497C243.064 88.3197 247.534 91.2597 247.534 91.2597C247.534 91.2597 244.834 84.8297 243.164 80.8897C242.204 78.5897 239.254 77.0897 236.854 78.0997L220.124 85.0697C214.094 87.5797 210.444 90.0597 209.174 92.5297C207.904 94.9797 208.394 98.8797 210.564 104.15L212.484 108.65C212.774 109.32 213.124 109.97 213.524 110.54C215.054 112.76 217.194 114.24 219.974 114.98C223.264 115.83 227.034 115.35 231.294 113.58L237.804 110.87C240.324 109.82 242.144 110.1 243.244 111.69C243.544 112.11 243.694 112.59 243.694 113.1C243.694 113.1 244.434 115.38 239.254 117.54L226.114 123.01C223.174 124.01 218.924 121.23 218.924 121.23C218.924 121.23 221.624 127.66 223.294 131.6C224.254 133.9 227.204 135.39 229.604 134.39L230.904 133.85L239.934 130.09L246.494 127.36C252.534 124.85 256.164 122.38 257.434 119.89C258.714 117.42 258.174 113.85 255.994 108.61C256.004 108.6 254.314 104.7 253.744 103.62Z" fill="white"/>
<path d="M533.274 171.55L530.914 168.59C530.914 168.59 531.574 172.85 528.844 175.01L528.914 174.95L514.294 186.36L523.704 160.7C523.924 160.05 523.814 159.43 523.334 158.81C522.264 157.44 516.124 149.53 516.124 149.53L513.594 146.33C513.594 146.33 514.274 150.92 511.534 153.07L477.394 179.79L483.504 187.62C484.694 189.15 485.714 190.2 487.204 189.84C487.204 189.84 495.804 183.1 505.444 175.56L496.764 198.04C495.224 201.62 492.804 199.49 492.804 199.49L494.534 201.85L494.564 201.84L500.644 209.64C501.844 211.17 502.844 212.2 504.324 211.84L541.834 182.51L533.274 171.55Z" fill="white"/>
<path d="M362.164 67.0197L358.394 66.6297C358.394 66.6297 361.894 69.1397 361.534 72.5897L361.544 72.4997L359.464 90.9297L347.724 66.2497C347.414 65.6397 346.894 65.2797 346.114 65.1897C344.394 64.9997 334.444 63.8497 334.444 63.8497L330.384 63.4097C330.384 63.4097 334.144 66.1397 333.754 69.6097L328.924 112.7L338.794 113.82C340.714 114.04 342.184 114.05 342.964 112.73C342.964 112.73 344.164 101.87 345.524 89.7097L355.504 111.64C356.984 115.24 353.764 115.48 353.764 115.48L356.664 115.9L356.684 115.87L366.504 116.99C368.434 117.21 369.884 117.21 370.664 115.9L375.964 68.5797L362.164 67.0197Z" fill="white"/>
<path d="M154.994 122.53L153.554 124.27L145.824 133.03C145.784 133.08 145.774 133.12 145.714 133.18C144.664 134.37 143.924 135.38 144.014 136.48L163.674 166.81L135.964 151.83C132.444 150.41 133.914 146.56 133.914 146.56L131.134 149.68L125.444 156.14C125.414 156.19 125.404 156.22 125.344 156.29C123.904 157.92 123.184 159.56 123.954 161.32L143.824 189.28L116.054 175.01C112.454 173.16 114.014 169.15 114.014 169.15L111.074 172.46L104.524 179.88C104.504 179.92 104.484 179.96 104.404 180.04C102.914 181.74 102.524 184.18 103.984 185.37C104.194 185.55 104.064 185.49 104.064 185.49L147.194 205.7L157.314 194.22C158.684 192.66 159.084 191.82 158.444 190.18L150.274 175L166.994 183.24L177.784 171C179.114 169.49 179.314 167.33 178.764 165.7L155.834 127.35C154.364 124.72 154.994 122.53 154.994 122.53Z" fill="white"/>
<path d="M178.834 108.41L170.634 114.15C168.984 115.32 168.274 116.4 168.444 118.13L182.254 160.24C183.144 162.87 179.924 167.64 179.924 167.64L194.334 157.56C195.634 156.65 195.944 155.12 195.484 153.66L193.444 147.71L204.424 140.03L208.704 142.72C211.164 144.75 209.404 147.03 209.404 147.03L225.234 135.96L178.834 108.41ZM189.064 136.09L186.414 128.83L193.044 133.18L189.064 136.09Z" fill="white"/>
<path d="M99.4441 222.9L105.934 242.9H126.964L109.954 255.26L116.454 275.26L99.4441 262.9L82.4241 275.26L88.9241 255.26L71.9141 242.9H92.9441L99.4441 222.9Z" fill="white"/>
<path d="M549.764 225.56L543.274 245.56H522.244L539.254 257.92L532.754 277.93L549.764 265.56L566.784 277.93L560.284 257.92L577.294 245.56H556.264L549.764 225.56Z" fill="white"/>
<path d="M326.014 535.43H316.004C313.984 535.44 312.784 535.92 311.924 537.43L299.104 579.85C298.324 582.51 292.954 584.58 292.954 584.58H310.534C312.114 584.58 313.244 583.5 313.704 582.05L315.444 576.01H328.844L330.814 580.66C331.664 583.74 328.914 584.59 328.914 584.59H348.224L326.014 535.43ZM318.954 564.24L321.094 556.81L323.874 564.24H318.954Z" fill="white"/>
<path d="M396.264 571.56L385.704 559.87C388.164 559.3 390.134 557.95 390.864 556.73C392.054 554.75 392.114 550.97 391.084 545.39C391.084 545.39 389.104 535.62 388.704 534.1C387.944 531.15 386.294 529.37 384.494 528.69C382.734 527.99 379.974 527.97 376.234 528.67L341.404 535.22C341.404 535.22 345.814 536.86 346.554 540.16L354.294 582.67L364.004 580.87C365.934 580.51 367.314 580.12 367.684 578.63L365.054 564.24L371.834 562.89L383.564 577.14L400.934 573.92C400.934 573.9 397.934 573.15 396.264 571.56ZM377.304 543.09C377.664 544.11 378.174 547.65 377.854 548.59C377.554 549.51 376.924 550.07 375.954 550.25L367.924 551.83C366.094 552.17 364.754 554.07 363.654 556.36L361.294 543.53L374.324 541.02C375.724 540.76 376.734 541.44 377.304 543.09Z" fill="white"/>
<path d="M435.334 513.09C433.914 510.37 431.924 509.02 430.034 508.75C428.154 508.46 425.454 509.06 421.964 510.58L389.164 524.78C389.164 524.78 393.724 525.59 395.334 528.47L410.524 563.52C411.184 566.01 410.264 568.68 409.844 569.22L441.764 555.54C446.094 553.66 448.614 551.61 449.334 549.45C450.054 547.25 449.274 543.55 447.024 538.34L437.544 517.61C436.524 515.32 436.064 514.49 435.334 513.09ZM426.194 524.42C426.784 525.34 434.884 543.44 434.794 544.41C434.704 545.39 434.214 546.09 433.314 546.48L420.744 551.92L413.394 534.99C412.934 533.89 411.804 531.3 410.524 528.4L422.814 523.08C424.134 522.51 425.274 522.94 426.194 524.42Z" fill="white"/>
<path d="M298.754 545.2L300.824 535.85C300.824 535.85 264.444 527.87 263.934 527.82C260.944 527.49 259.794 529.43 259.034 531.83L257.594 538.39L257.624 538.4L256.974 541.08C256.974 541.08 259.664 539.06 262.614 539.49L279.354 543.18L251.314 566.77L249.614 574.67L286.124 582.71C288.464 583.22 290.084 583.3 290.904 580.94L293.534 568.86C293.534 568.86 290.804 571.49 287.794 571L270.104 567.1L298.754 545.2Z" fill="white"/>
<path d="M239.214 566.58C239.214 566.58 251.964 529.55 252.644 527.88C253.324 526.23 255.874 525.32 255.874 525.32C254.584 524.81 249.454 523.14 244.114 521.18C242.734 520.92 240.394 520.04 238.734 525.51L224.574 566.31L237.724 570.88L238.774 571C238.774 571 238.504 569.19 239.214 566.58Z" fill="white"/>
<path d="M236.924 519.98L234.984 518.83L225.104 512.59C225.044 512.57 225.014 512.55 224.944 512.51C223.604 511.66 222.484 511.09 221.414 511.35L199.694 532.49L207.644 506.95C208.144 504.48 212.124 504.41 212.124 504.41L208.604 502.16L201.324 497.56C201.274 497.54 201.234 497.53 201.164 497.48C199.324 496.32 197.594 495.87 195.974 496.9L173.654 517.57L183.454 492.69C184.714 488.84 188.914 489.74 188.914 489.74L185.184 487.36L176.814 482.07C176.774 482.06 176.724 482.04 176.634 481.98C174.724 480.77 172.254 480.78 171.304 482.4C171.154 482.64 171.194 482.5 171.194 482.5L155.814 526.85L168.754 535.03C170.504 536.14 171.404 536.4 172.924 535.51L186.614 525.04L181.124 542.85L194.914 551.57C196.614 552.65 198.774 552.49 200.304 551.7L232.294 521.55C234.664 519.7 236.924 519.98 236.924 519.98Z" fill="white"/>
<path d="M486.184 502.52C481.824 497.24 474.934 496.57 468.944 500.7L462.194 505.35C459.764 507.02 457.854 507.22 456.474 505.92C456.424 505.87 456.004 505.31 455.964 505.24C455.394 504.2 454.164 502.45 457.764 499.97L469.944 491.57C472.574 489.76 477.554 491.71 477.554 491.71C477.554 491.71 473.574 485.98 471.134 482.47C469.724 480.42 466.524 479.57 464.374 481.05L449.454 491.34C444.074 495.05 441.024 498.23 440.284 500.91C439.544 503.56 440.834 507.28 444.064 511.99L446.874 515.99C447.294 516.59 447.774 517.15 448.284 517.63C450.244 519.48 452.644 520.49 455.514 520.64C458.914 520.78 462.494 519.54 466.294 516.92L472.104 512.92C474.344 511.37 476.184 511.26 477.594 512.59C477.964 512.95 478.214 513.38 478.324 513.87C478.324 513.87 479.514 515.95 474.894 519.13L463.174 527.21C460.504 528.8 455.764 526.96 455.764 526.96C455.764 526.96 459.744 532.69 462.184 536.2C463.594 538.25 466.794 539.1 468.944 537.62L470.104 536.82L478.164 531.26L484.014 527.23C489.404 523.51 492.444 520.35 493.174 517.66C493.914 514.97 492.634 511.6 489.424 506.92C489.434 506.92 486.964 503.45 486.184 502.52Z" fill="white"/>
<path d="M494.494 232.8C482.624 210.92 466.654 191.59 447.614 175.84C444.044 172.89 440.334 170.1 436.554 167.41C405.054 144.96 366.564 131.68 324.944 131.6H324.604C221.394 131.61 137.044 212.6 131.714 314.53C131.534 317.82 131.454 321.13 131.444 324.46V324.8C131.454 351.45 136.844 376.84 146.604 399.93C147.824 402.82 149.114 405.67 150.464 408.48C161.304 430.99 176.374 451.07 194.644 467.7C199.214 471.86 203.974 475.8 208.924 479.51C241.114 503.62 281.084 517.91 324.394 517.96H324.504H324.614H324.654C347.974 517.95 370.324 513.82 391.004 506.25C464.904 479.2 517.674 408.3 517.774 325.02V324.91V324.77C517.764 298.14 512.374 272.76 502.614 249.67C500.174 243.9 497.464 238.28 494.494 232.8Z" fill="#C4CED4"/>
<path d="M497.844 251.69C495.474 246.07 492.834 240.59 489.944 235.27C478.394 213.98 462.854 195.17 444.314 179.84C440.844 176.97 437.234 174.26 433.554 171.64C402.894 149.79 365.434 136.86 324.924 136.79H324.594C224.144 136.8 142.064 215.62 136.874 314.82C136.704 318.02 136.614 321.24 136.614 324.49V324.82C136.624 350.75 141.874 375.46 151.374 397.94C152.554 400.75 153.814 403.53 155.134 406.26C165.684 428.16 180.344 447.71 198.124 463.89C202.574 467.94 207.214 471.77 212.024 475.38C243.354 498.84 282.244 512.75 324.394 512.8H324.504H324.614H324.654C347.344 512.79 369.094 508.77 389.234 501.4C461.154 475.07 512.504 406.07 512.604 325.02V324.92V324.79C512.594 298.86 507.344 274.15 497.844 251.69Z" fill="white"/>
<path d="M289.484 238.62L293.844 222.77L294.874 219.07L274.864 207.86C274.864 207.86 263.194 199.76 237.094 214.9C206.534 232.92 181.674 256.22 168.814 280.94C161.694 294.64 156.034 310.4 153.114 328.33C154.024 362.25 164.734 393.73 182.584 420C177.494 371.11 224.734 317.55 261.724 280.97C281.264 261.45 289.484 238.62 289.484 238.62Z" fill="#002B5C"/>
<path d="M412.334 214.9C386.234 199.76 374.564 207.86 374.564 207.86L354.564 219.06L355.584 222.76L359.944 238.61C359.944 238.61 368.164 261.44 387.704 280.96C424.584 317.43 471.664 370.77 466.894 419.54C484.824 392.97 495.474 361.12 496.084 326.8C493.094 309.49 487.534 294.24 480.614 280.93C467.754 256.24 442.884 232.93 412.334 214.9Z" fill="#002B5C"/>
<path d="M349.564 185.6C418.134 193.35 463.204 232.26 486.474 266.78C468.964 216.97 429.124 177.69 378.944 160.93C367.884 164.2 355.614 171.08 349.564 185.6Z" fill="#E31837"/>
<path d="M299.874 185.6C293.794 171 281.424 164.13 270.314 160.89C219.834 177.71 179.794 217.36 162.424 267.6C185.534 232.88 230.764 193.4 299.874 185.6Z" fill="#E31837"/>
<path d="M311.104 183.66L324.714 163.62L338.344 183.66C343.804 168.73 352.424 160.49 361.064 156.01C349.364 153.48 337.224 152.12 324.764 152.1C312.244 152.09 300.064 153.46 288.294 155.99C296.964 160.47 305.604 168.68 311.104 183.66Z" fill="#E31837"/>
<path d="M324.714 241.86C322.734 243.28 259.424 288.84 231.534 333.96C193.894 394.86 198.784 429.98 208.524 450.02C232.784 472.33 263.484 487.72 297.514 493.12L312.184 285.12L324.414 272.85L324.574 272.69H324.584L324.734 272.85L336.964 285.12L351.744 492.95L351.544 493.05C385.844 487.63 416.774 472.11 441.134 449.54C450.724 429.42 455.264 394.38 417.904 333.95C390.014 288.85 326.704 243.28 324.714 241.86Z" fill="#002B5C"/>
<path d="M336.964 285.13L324.744 272.87L324.884 508.27L351.544 493.07H351.554L351.744 492.96L336.964 285.13Z" fill="#C4CED4"/>
<path d="M361.304 197.79C353.864 196.51 346.364 195.49 338.774 195.01L333.414 194.67L333.304 194.45L333.194 194.23L331.044 189.85L330.914 189.58L324.714 176.98L322.714 181.04L318.724 189.16L318.714 189.17L318.544 189.51L318.384 189.85L316.234 194.23L316.054 194.6L316.014 194.67L310.664 195.01C303.074 195.49 295.574 196.52 288.134 197.79C284.824 198.35 281.504 198.85 278.234 199.57L288.754 205.24L299.274 210.91L302.524 212.66L305.784 214.41L303.804 221.54L303.694 221.94L302.784 225.23L296.924 246.51V246.5V246.51L310.254 236.67L319.294 230L321.964 228.03L324.624 226.06V225.95L324.694 226.01L324.784 225.95V226.06L327.444 228.03L330.114 230L352.484 246.5L346.624 225.22L346.114 223.38L345.614 221.54L343.644 214.41L345.754 213.27L350.144 210.91L364.344 203.25L371.184 199.57H371.174H371.184C367.934 198.85 364.614 198.35 361.304 197.79Z" fill="#C4CED4"/>
</svg>
